%TF.GenerationSoftware,KiCad,Pcbnew,6.0.10-86aedd382b~118~ubuntu22.10.1*%
%TF.CreationDate,2023-02-25T23:42:31-05:00*%
%TF.ProjectId,dot_projector,646f745f-7072-46f6-9a65-63746f722e6b,rev?*%
%TF.SameCoordinates,Original*%
%TF.FileFunction,Legend,Top*%
%TF.FilePolarity,Positive*%
%FSLAX46Y46*%
G04 Gerber Fmt 4.6, Leading zero omitted, Abs format (unit mm)*
G04 Created by KiCad (PCBNEW 6.0.10-86aedd382b~118~ubuntu22.10.1) date 2023-02-25 23:42:31*
%MOMM*%
%LPD*%
G01*
G04 APERTURE LIST*
%ADD10C,0.125000*%
%ADD11C,0.100000*%
%ADD12C,0.150000*%
%ADD13C,0.120000*%
G04 APERTURE END LIST*
D10*
X160130952Y-113464285D02*
X160297619Y-113464285D01*
X160369047Y-113726190D02*
X160130952Y-113726190D01*
X160130952Y-113226190D01*
X160369047Y-113226190D01*
X160583333Y-113726190D02*
X160583333Y-113226190D01*
X160869047Y-113726190D01*
X160869047Y-113226190D01*
X155638095Y-110404761D02*
X155561904Y-110366666D01*
X155523809Y-110328571D01*
X155485714Y-110252380D01*
X155485714Y-110214285D01*
X155523809Y-110138095D01*
X155561904Y-110100000D01*
X155638095Y-110061904D01*
X155790476Y-110061904D01*
X155866666Y-110100000D01*
X155904761Y-110138095D01*
X155942857Y-110214285D01*
X155942857Y-110252380D01*
X155904761Y-110328571D01*
X155866666Y-110366666D01*
X155790476Y-110404761D01*
X155638095Y-110404761D01*
X155561904Y-110442857D01*
X155523809Y-110480952D01*
X155485714Y-110557142D01*
X155485714Y-110709523D01*
X155523809Y-110785714D01*
X155561904Y-110823809D01*
X155638095Y-110861904D01*
X155790476Y-110861904D01*
X155866666Y-110823809D01*
X155904761Y-110785714D01*
X155942857Y-110709523D01*
X155942857Y-110557142D01*
X155904761Y-110480952D01*
X155866666Y-110442857D01*
X155790476Y-110404761D01*
X156285714Y-110785714D02*
X156323809Y-110823809D01*
X156285714Y-110861904D01*
X156247619Y-110823809D01*
X156285714Y-110785714D01*
X156285714Y-110861904D01*
X157047619Y-110061904D02*
X156666666Y-110061904D01*
X156628571Y-110442857D01*
X156666666Y-110404761D01*
X156742857Y-110366666D01*
X156933333Y-110366666D01*
X157009523Y-110404761D01*
X157047619Y-110442857D01*
X157085714Y-110519047D01*
X157085714Y-110709523D01*
X157047619Y-110785714D01*
X157009523Y-110823809D01*
X156933333Y-110861904D01*
X156742857Y-110861904D01*
X156666666Y-110823809D01*
X156628571Y-110785714D01*
X157428571Y-110557142D02*
X158038095Y-110557142D01*
X158838095Y-110861904D02*
X158380952Y-110861904D01*
X158609523Y-110861904D02*
X158609523Y-110061904D01*
X158533333Y-110176190D01*
X158457142Y-110252380D01*
X158380952Y-110290476D01*
X159333333Y-110061904D02*
X159409523Y-110061904D01*
X159485714Y-110100000D01*
X159523809Y-110138095D01*
X159561904Y-110214285D01*
X159600000Y-110366666D01*
X159600000Y-110557142D01*
X159561904Y-110709523D01*
X159523809Y-110785714D01*
X159485714Y-110823809D01*
X159409523Y-110861904D01*
X159333333Y-110861904D01*
X159257142Y-110823809D01*
X159219047Y-110785714D01*
X159180952Y-110709523D01*
X159142857Y-110557142D01*
X159142857Y-110366666D01*
X159180952Y-110214285D01*
X159219047Y-110138095D01*
X159257142Y-110100000D01*
X159333333Y-110061904D01*
X159904761Y-110861904D02*
X160095238Y-110861904D01*
X160095238Y-110709523D01*
X160019047Y-110671428D01*
X159942857Y-110595238D01*
X159904761Y-110480952D01*
X159904761Y-110290476D01*
X159942857Y-110176190D01*
X160019047Y-110100000D01*
X160133333Y-110061904D01*
X160285714Y-110061904D01*
X160400000Y-110100000D01*
X160476190Y-110176190D01*
X160514285Y-110290476D01*
X160514285Y-110480952D01*
X160476190Y-110595238D01*
X160400000Y-110671428D01*
X160323809Y-110709523D01*
X160323809Y-110861904D01*
X160514285Y-110861904D01*
X154877142Y-113535714D02*
X155258095Y-113535714D01*
X155067619Y-113726190D02*
X155067619Y-113345238D01*
X155734285Y-113226190D02*
X155496190Y-113226190D01*
X155472380Y-113464285D01*
X155496190Y-113440476D01*
X155543809Y-113416666D01*
X155662857Y-113416666D01*
X155710476Y-113440476D01*
X155734285Y-113464285D01*
X155758095Y-113511904D01*
X155758095Y-113630952D01*
X155734285Y-113678571D01*
X155710476Y-113702380D01*
X155662857Y-113726190D01*
X155543809Y-113726190D01*
X155496190Y-113702380D01*
X155472380Y-113678571D01*
X155900952Y-113226190D02*
X156067619Y-113726190D01*
X156234285Y-113226190D01*
X157619047Y-113250000D02*
X157571428Y-113226190D01*
X157500000Y-113226190D01*
X157428571Y-113250000D01*
X157380952Y-113297619D01*
X157357142Y-113345238D01*
X157333333Y-113440476D01*
X157333333Y-113511904D01*
X157357142Y-113607142D01*
X157380952Y-113654761D01*
X157428571Y-113702380D01*
X157500000Y-113726190D01*
X157547619Y-113726190D01*
X157619047Y-113702380D01*
X157642857Y-113678571D01*
X157642857Y-113511904D01*
X157547619Y-113511904D01*
X157857142Y-113726190D02*
X157857142Y-113226190D01*
X158142857Y-113726190D01*
X158142857Y-113226190D01*
X158380952Y-113726190D02*
X158380952Y-113226190D01*
X158500000Y-113226190D01*
X158571428Y-113250000D01*
X158619047Y-113297619D01*
X158642857Y-113345238D01*
X158666666Y-113440476D01*
X158666666Y-113511904D01*
X158642857Y-113607142D01*
X158619047Y-113654761D01*
X158571428Y-113702380D01*
X158500000Y-113726190D01*
X158380952Y-113726190D01*
D11*
%TO.C,Q1*%
X163450000Y-116975000D02*
X163150000Y-116975000D01*
X167850000Y-116975000D02*
X168000000Y-116675000D01*
X163150000Y-116975000D02*
X163000000Y-116675000D01*
X167850000Y-116975000D02*
X167550000Y-116975000D01*
D12*
X167450000Y-113825000D02*
G75*
G03*
X163600000Y-113775000I-1950000J-1900000D01*
G01*
D13*
%TO.C,R2*%
X150487258Y-115727500D02*
X150012742Y-115727500D01*
X150487258Y-116772500D02*
X150012742Y-116772500D01*
%TO.C,R1*%
X153380000Y-112220000D02*
X162620000Y-112220000D01*
X162620000Y-108780000D02*
X153380000Y-108780000D01*
X153380000Y-108780000D02*
X153380000Y-112220000D01*
X152690000Y-110500000D02*
X153380000Y-110500000D01*
X163310000Y-110500000D02*
X162620000Y-110500000D01*
X162620000Y-112220000D02*
X162620000Y-108780000D01*
%TO.C,J1*%
X154110000Y-114170000D02*
X154110000Y-116830000D01*
X161850000Y-114170000D02*
X161850000Y-115500000D01*
X160520000Y-114170000D02*
X161850000Y-114170000D01*
X159250000Y-114170000D02*
X154110000Y-114170000D01*
X159250000Y-114170000D02*
X159250000Y-116830000D01*
X159250000Y-116830000D02*
X154110000Y-116830000D01*
%TD*%
M02*
