%TF.GenerationSoftware,KiCad,Pcbnew,6.0.10-86aedd382b~118~ubuntu22.10.1*%
%TF.CreationDate,2023-02-25T23:42:31-05:00*%
%TF.ProjectId,dot_projector,646f745f-7072-46f6-9a65-63746f722e6b,rev?*%
%TF.SameCoordinates,Original*%
%TF.FileFunction,Legend,Bot*%
%TF.FilePolarity,Positive*%
%FSLAX46Y46*%
G04 Gerber Fmt 4.6, Leading zero omitted, Abs format (unit mm)*
G04 Created by KiCad (PCBNEW 6.0.10-86aedd382b~118~ubuntu22.10.1) date 2023-02-25 23:42:31*
%MOMM*%
%LPD*%
G01*
G04 APERTURE LIST*
%ADD10C,0.030000*%
%ADD11C,0.000000*%
G04 APERTURE END LIST*
D10*
G36*
X147372192Y-114065662D02*
G01*
X147370138Y-114058301D01*
X147367776Y-114051415D01*
X147365117Y-114045005D01*
X147362171Y-114039069D01*
X147358949Y-114033609D01*
X147357236Y-114031057D01*
X147355459Y-114028623D01*
X147353616Y-114026309D01*
X147351711Y-114024113D01*
X147349744Y-114022036D01*
X147347717Y-114020078D01*
X147345630Y-114018238D01*
X147343485Y-114016517D01*
X147341284Y-114014915D01*
X147339026Y-114013432D01*
X147336715Y-114012067D01*
X147334350Y-114010821D01*
X147331933Y-114009694D01*
X147329466Y-114008685D01*
X147326950Y-114007795D01*
X147324385Y-114007024D01*
X147321773Y-114006372D01*
X147319116Y-114005838D01*
X147316415Y-114005423D01*
X147313670Y-114005126D01*
X147308056Y-114004889D01*
X147304930Y-114004967D01*
X147301884Y-114005197D01*
X147298917Y-114005576D01*
X147296030Y-114006098D01*
X147293222Y-114006759D01*
X147290494Y-114007552D01*
X147287845Y-114008475D01*
X147285275Y-114009521D01*
X147282784Y-114010687D01*
X147280373Y-114011966D01*
X147278040Y-114013355D01*
X147275787Y-114014849D01*
X147273613Y-114016442D01*
X147271518Y-114018130D01*
X147269502Y-114019909D01*
X147267564Y-114021772D01*
X147265694Y-114024302D01*
X147263906Y-114026838D01*
X147262199Y-114029384D01*
X147260573Y-114031945D01*
X147259027Y-114034527D01*
X147257562Y-114037134D01*
X147256177Y-114039771D01*
X147254871Y-114042443D01*
X147253645Y-114045155D01*
X147252497Y-114047911D01*
X147251429Y-114050718D01*
X147250438Y-114053578D01*
X147249525Y-114056498D01*
X147248689Y-114059482D01*
X147247931Y-114062535D01*
X147247249Y-114065662D01*
X146832097Y-115351682D01*
X146443916Y-115351682D01*
X146443916Y-115351648D01*
X146443915Y-115351648D01*
X146882712Y-113890103D01*
X146899595Y-113856336D01*
X146907349Y-113841077D01*
X146915418Y-113826311D01*
X146923803Y-113812039D01*
X146932502Y-113798260D01*
X146941514Y-113784973D01*
X146950840Y-113772178D01*
X146960479Y-113759873D01*
X146970429Y-113748059D01*
X146980691Y-113736734D01*
X146991264Y-113725898D01*
X147002147Y-113715550D01*
X147013339Y-113705691D01*
X147024841Y-113696318D01*
X147036651Y-113687432D01*
X147048768Y-113679031D01*
X147061193Y-113671116D01*
X147073924Y-113663685D01*
X147086961Y-113656739D01*
X147100304Y-113650275D01*
X147113951Y-113644295D01*
X147127902Y-113638796D01*
X147142157Y-113633779D01*
X147156715Y-113629243D01*
X147171575Y-113625186D01*
X147186736Y-113621610D01*
X147202199Y-113618512D01*
X147217962Y-113615893D01*
X147234025Y-113613751D01*
X147250387Y-113612086D01*
X147267047Y-113610898D01*
X147301262Y-113609948D01*
X147320131Y-113610226D01*
X147338763Y-113611061D01*
X147357157Y-113612461D01*
X147375313Y-113614428D01*
X147393233Y-113616970D01*
X147410914Y-113620089D01*
X147428358Y-113623792D01*
X147445565Y-113628084D01*
X147462534Y-113632969D01*
X147479265Y-113638453D01*
X147495758Y-113644540D01*
X147512014Y-113651236D01*
X147528031Y-113658546D01*
X147543811Y-113666475D01*
X147559353Y-113675027D01*
X147574656Y-113684207D01*
X147590135Y-113693974D01*
X147604909Y-113704290D01*
X147618989Y-113715150D01*
X147632384Y-113726550D01*
X147645106Y-113738484D01*
X147657163Y-113750948D01*
X147668567Y-113763936D01*
X147679328Y-113777444D01*
X147689456Y-113791466D01*
X147698962Y-113805999D01*
X147707854Y-113821036D01*
X147716145Y-113836573D01*
X147723843Y-113852605D01*
X147730960Y-113869128D01*
X147737506Y-113886135D01*
X147743490Y-113903623D01*
X148192410Y-115348251D01*
X147783983Y-115351682D01*
X147372192Y-114065662D01*
G37*
X147372192Y-114065662D02*
X147370138Y-114058301D01*
X147367776Y-114051415D01*
X147365117Y-114045005D01*
X147362171Y-114039069D01*
X147358949Y-114033609D01*
X147357236Y-114031057D01*
X147355459Y-114028623D01*
X147353616Y-114026309D01*
X147351711Y-114024113D01*
X147349744Y-114022036D01*
X147347717Y-114020078D01*
X147345630Y-114018238D01*
X147343485Y-114016517D01*
X147341284Y-114014915D01*
X147339026Y-114013432D01*
X147336715Y-114012067D01*
X147334350Y-114010821D01*
X147331933Y-114009694D01*
X147329466Y-114008685D01*
X147326950Y-114007795D01*
X147324385Y-114007024D01*
X147321773Y-114006372D01*
X147319116Y-114005838D01*
X147316415Y-114005423D01*
X147313670Y-114005126D01*
X147308056Y-114004889D01*
X147304930Y-114004967D01*
X147301884Y-114005197D01*
X147298917Y-114005576D01*
X147296030Y-114006098D01*
X147293222Y-114006759D01*
X147290494Y-114007552D01*
X147287845Y-114008475D01*
X147285275Y-114009521D01*
X147282784Y-114010687D01*
X147280373Y-114011966D01*
X147278040Y-114013355D01*
X147275787Y-114014849D01*
X147273613Y-114016442D01*
X147271518Y-114018130D01*
X147269502Y-114019909D01*
X147267564Y-114021772D01*
X147265694Y-114024302D01*
X147263906Y-114026838D01*
X147262199Y-114029384D01*
X147260573Y-114031945D01*
X147259027Y-114034527D01*
X147257562Y-114037134D01*
X147256177Y-114039771D01*
X147254871Y-114042443D01*
X147253645Y-114045155D01*
X147252497Y-114047911D01*
X147251429Y-114050718D01*
X147250438Y-114053578D01*
X147249525Y-114056498D01*
X147248689Y-114059482D01*
X147247931Y-114062535D01*
X147247249Y-114065662D01*
X146832097Y-115351682D01*
X146443916Y-115351682D01*
X146443916Y-115351648D01*
X146443915Y-115351648D01*
X146882712Y-113890103D01*
X146899595Y-113856336D01*
X146907349Y-113841077D01*
X146915418Y-113826311D01*
X146923803Y-113812039D01*
X146932502Y-113798260D01*
X146941514Y-113784973D01*
X146950840Y-113772178D01*
X146960479Y-113759873D01*
X146970429Y-113748059D01*
X146980691Y-113736734D01*
X146991264Y-113725898D01*
X147002147Y-113715550D01*
X147013339Y-113705691D01*
X147024841Y-113696318D01*
X147036651Y-113687432D01*
X147048768Y-113679031D01*
X147061193Y-113671116D01*
X147073924Y-113663685D01*
X147086961Y-113656739D01*
X147100304Y-113650275D01*
X147113951Y-113644295D01*
X147127902Y-113638796D01*
X147142157Y-113633779D01*
X147156715Y-113629243D01*
X147171575Y-113625186D01*
X147186736Y-113621610D01*
X147202199Y-113618512D01*
X147217962Y-113615893D01*
X147234025Y-113613751D01*
X147250387Y-113612086D01*
X147267047Y-113610898D01*
X147301262Y-113609948D01*
X147320131Y-113610226D01*
X147338763Y-113611061D01*
X147357157Y-113612461D01*
X147375313Y-113614428D01*
X147393233Y-113616970D01*
X147410914Y-113620089D01*
X147428358Y-113623792D01*
X147445565Y-113628084D01*
X147462534Y-113632969D01*
X147479265Y-113638453D01*
X147495758Y-113644540D01*
X147512014Y-113651236D01*
X147528031Y-113658546D01*
X147543811Y-113666475D01*
X147559353Y-113675027D01*
X147574656Y-113684207D01*
X147590135Y-113693974D01*
X147604909Y-113704290D01*
X147618989Y-113715150D01*
X147632384Y-113726550D01*
X147645106Y-113738484D01*
X147657163Y-113750948D01*
X147668567Y-113763936D01*
X147679328Y-113777444D01*
X147689456Y-113791466D01*
X147698962Y-113805999D01*
X147707854Y-113821036D01*
X147716145Y-113836573D01*
X147723843Y-113852605D01*
X147730960Y-113869128D01*
X147737506Y-113886135D01*
X147743490Y-113903623D01*
X148192410Y-115348251D01*
X147783983Y-115351682D01*
X147372192Y-114065662D01*
G36*
X148472719Y-115341520D02*
G01*
X148450477Y-115335823D01*
X148428765Y-115328860D01*
X148407577Y-115320630D01*
X148386908Y-115311134D01*
X148366753Y-115300372D01*
X148347108Y-115288343D01*
X148327968Y-115275048D01*
X148309327Y-115260487D01*
X148291181Y-115244659D01*
X148273525Y-115227564D01*
X148256354Y-115209203D01*
X148239663Y-115189575D01*
X148224316Y-115169720D01*
X148209924Y-115149396D01*
X148196491Y-115128608D01*
X148184021Y-115107360D01*
X148172521Y-115085657D01*
X148161994Y-115063505D01*
X148152447Y-115040908D01*
X148143883Y-115017871D01*
X148136308Y-114994400D01*
X148129727Y-114970499D01*
X148124145Y-114946173D01*
X148119566Y-114921427D01*
X148115997Y-114896266D01*
X148113441Y-114870696D01*
X148111904Y-114844721D01*
X148111390Y-114818346D01*
X148112450Y-114791699D01*
X148115556Y-114765567D01*
X148120601Y-114739974D01*
X148127475Y-114714939D01*
X148136070Y-114690486D01*
X148146277Y-114666635D01*
X148157986Y-114643408D01*
X148171091Y-114620828D01*
X148185480Y-114598915D01*
X148201047Y-114577691D01*
X148217681Y-114557177D01*
X148235275Y-114537396D01*
X148253720Y-114518370D01*
X148272906Y-114500118D01*
X148313068Y-114466030D01*
X148354893Y-114435303D01*
X148397510Y-114408112D01*
X148440049Y-114384629D01*
X148481639Y-114365028D01*
X148521411Y-114349481D01*
X148558495Y-114338162D01*
X148592021Y-114331244D01*
X148607177Y-114329489D01*
X148621118Y-114328899D01*
X149103770Y-114328899D01*
X149110653Y-114328703D01*
X149117380Y-114328121D01*
X149123949Y-114327163D01*
X149130360Y-114325840D01*
X149136613Y-114324160D01*
X149142709Y-114322135D01*
X149148646Y-114319774D01*
X149154424Y-114317086D01*
X149160044Y-114314083D01*
X149165505Y-114310773D01*
X149170806Y-114307167D01*
X149175947Y-114303275D01*
X149180929Y-114299107D01*
X149185751Y-114294672D01*
X149190412Y-114289981D01*
X149194913Y-114285044D01*
X149199226Y-114279303D01*
X149203297Y-114273479D01*
X149207119Y-114267568D01*
X149210689Y-114261562D01*
X149214001Y-114255459D01*
X149217051Y-114249252D01*
X149219834Y-114242937D01*
X149222344Y-114236508D01*
X149224577Y-114229961D01*
X149226529Y-114223289D01*
X149228193Y-114216490D01*
X149229566Y-114209556D01*
X149230642Y-114202483D01*
X149231417Y-114195266D01*
X149231885Y-114187900D01*
X149232043Y-114180380D01*
X149231885Y-114171600D01*
X149231417Y-114162977D01*
X149230642Y-114154513D01*
X149229566Y-114146208D01*
X149228193Y-114138060D01*
X149226529Y-114130071D01*
X149224577Y-114122240D01*
X149222344Y-114114567D01*
X149219834Y-114107052D01*
X149217051Y-114099695D01*
X149214001Y-114092496D01*
X149210689Y-114085455D01*
X149207119Y-114078571D01*
X149203297Y-114071846D01*
X149199226Y-114065278D01*
X149194913Y-114058868D01*
X149189770Y-114052703D01*
X149184470Y-114046863D01*
X149179012Y-114041360D01*
X149173396Y-114036203D01*
X149167621Y-114031401D01*
X149161689Y-114026965D01*
X149155599Y-114022904D01*
X149149350Y-114019229D01*
X149142943Y-114015949D01*
X149136377Y-114013074D01*
X149129652Y-114010614D01*
X149122769Y-114008580D01*
X149115727Y-114006980D01*
X149108526Y-114005825D01*
X149101166Y-114005125D01*
X149093647Y-114004889D01*
X148189047Y-114004889D01*
X148189047Y-113643681D01*
X149110565Y-113643681D01*
X149141143Y-113644273D01*
X149170852Y-113646048D01*
X149199691Y-113649000D01*
X149227660Y-113653124D01*
X149254760Y-113658415D01*
X149280989Y-113664868D01*
X149306349Y-113672477D01*
X149330838Y-113681239D01*
X149354457Y-113691148D01*
X149377206Y-113702198D01*
X149399085Y-113714386D01*
X149420093Y-113727705D01*
X149440230Y-113742151D01*
X149459496Y-113757719D01*
X149477892Y-113774403D01*
X149495417Y-113792199D01*
X149510122Y-113809643D01*
X149523880Y-113827788D01*
X149536691Y-113846626D01*
X149548554Y-113866146D01*
X149559470Y-113886338D01*
X149569438Y-113907193D01*
X149578458Y-113928700D01*
X149586530Y-113950850D01*
X149593653Y-113973633D01*
X149599827Y-113997040D01*
X149605051Y-114021059D01*
X149609327Y-114045682D01*
X149612653Y-114070898D01*
X149615028Y-114096699D01*
X149616454Y-114123073D01*
X149616929Y-114150011D01*
X149616454Y-114176391D01*
X149615028Y-114202367D01*
X149612653Y-114227928D01*
X149609327Y-114253063D01*
X149605051Y-114277764D01*
X149599827Y-114302019D01*
X149593653Y-114325819D01*
X149586530Y-114349154D01*
X149578458Y-114372014D01*
X149569438Y-114394388D01*
X149559470Y-114416266D01*
X149548554Y-114437640D01*
X149536691Y-114458497D01*
X149523880Y-114478829D01*
X149510122Y-114498626D01*
X149495417Y-114517877D01*
X149478128Y-114538129D01*
X149460432Y-114557112D01*
X149442321Y-114574821D01*
X149423784Y-114591249D01*
X149404811Y-114606393D01*
X149385393Y-114620247D01*
X149365520Y-114632806D01*
X149345182Y-114644065D01*
X149324370Y-114654018D01*
X149303073Y-114662661D01*
X149281283Y-114669988D01*
X149258988Y-114675994D01*
X149236180Y-114680675D01*
X149212849Y-114684025D01*
X149188985Y-114686038D01*
X149164578Y-114686711D01*
X148607598Y-114686711D01*
X148601357Y-114686831D01*
X148595273Y-114687198D01*
X148589346Y-114687822D01*
X148583575Y-114688713D01*
X148577961Y-114689880D01*
X148572505Y-114691334D01*
X148567206Y-114693084D01*
X148562065Y-114695139D01*
X148557082Y-114697511D01*
X148552257Y-114700207D01*
X148547591Y-114703239D01*
X148543083Y-114706616D01*
X148538735Y-114710348D01*
X148534546Y-114714445D01*
X148530516Y-114718916D01*
X148526646Y-114723772D01*
X148522371Y-114728914D01*
X148518407Y-114734209D01*
X148514751Y-114739654D01*
X148511396Y-114745242D01*
X148508338Y-114750968D01*
X148505572Y-114756829D01*
X148503094Y-114762818D01*
X148500897Y-114768931D01*
X148498977Y-114775164D01*
X148497330Y-114781510D01*
X148495949Y-114787966D01*
X148494831Y-114794526D01*
X148493970Y-114801185D01*
X148493361Y-114807938D01*
X148492999Y-114814781D01*
X148492880Y-114821709D01*
X148493076Y-114829898D01*
X148493658Y-114838002D01*
X148494616Y-114846017D01*
X148495940Y-114853938D01*
X148497620Y-114861759D01*
X148499646Y-114869477D01*
X148502009Y-114877085D01*
X148504698Y-114884580D01*
X148507703Y-114891956D01*
X148511015Y-114899209D01*
X148514623Y-114906333D01*
X148518519Y-114913324D01*
X148522691Y-114920177D01*
X148527130Y-114926887D01*
X148531827Y-114933449D01*
X148536770Y-114939859D01*
X148542506Y-114945394D01*
X148548331Y-114950609D01*
X148554255Y-114955497D01*
X148560288Y-114960054D01*
X148566440Y-114964275D01*
X148572720Y-114968156D01*
X148579138Y-114971690D01*
X148585704Y-114974874D01*
X148592428Y-114977701D01*
X148599319Y-114980168D01*
X148606388Y-114982269D01*
X148613643Y-114983999D01*
X148621095Y-114985353D01*
X148628753Y-114986327D01*
X148636627Y-114986915D01*
X148644728Y-114987112D01*
X149535841Y-114987112D01*
X149549327Y-114963468D01*
X149883494Y-113890103D01*
X149900377Y-113856336D01*
X149908131Y-113841077D01*
X149916200Y-113826312D01*
X149924585Y-113812040D01*
X149933283Y-113798261D01*
X149942296Y-113784974D01*
X149951622Y-113772178D01*
X149961261Y-113759873D01*
X149971211Y-113748059D01*
X149981473Y-113736734D01*
X149992046Y-113725898D01*
X150002929Y-113715551D01*
X150014121Y-113705691D01*
X150025623Y-113696318D01*
X150037433Y-113687432D01*
X150049550Y-113679032D01*
X150061975Y-113671116D01*
X150074706Y-113663686D01*
X150087743Y-113656739D01*
X150101086Y-113650276D01*
X150114733Y-113644295D01*
X150128684Y-113638796D01*
X150142939Y-113633779D01*
X150157497Y-113629243D01*
X150172357Y-113625187D01*
X150187518Y-113621610D01*
X150202981Y-113618512D01*
X150218744Y-113615893D01*
X150234807Y-113613751D01*
X150251169Y-113612086D01*
X150267829Y-113610898D01*
X150302044Y-113609948D01*
X150320913Y-113610226D01*
X150339544Y-113611062D01*
X150357939Y-113612461D01*
X150376096Y-113614429D01*
X150394015Y-113616970D01*
X150411698Y-113620089D01*
X150429143Y-113623793D01*
X150446351Y-113628084D01*
X150463322Y-113632970D01*
X150480055Y-113638453D01*
X150496551Y-113644541D01*
X150512810Y-113651237D01*
X150528832Y-113658546D01*
X150544616Y-113666475D01*
X150560163Y-113675027D01*
X150575473Y-113684208D01*
X150590940Y-113693975D01*
X150605706Y-113704290D01*
X150619779Y-113715151D01*
X150633171Y-113726550D01*
X150645890Y-113738484D01*
X150657946Y-113750948D01*
X150669350Y-113763936D01*
X150680110Y-113777444D01*
X150690238Y-113791466D01*
X150699743Y-113805999D01*
X150708635Y-113821036D01*
X150716923Y-113836573D01*
X150724617Y-113852605D01*
X150731728Y-113869128D01*
X150738265Y-113886135D01*
X150744238Y-113903623D01*
X151193192Y-115348251D01*
X150784765Y-115351683D01*
X150372975Y-114065662D01*
X150370920Y-114058301D01*
X150368558Y-114051415D01*
X150365900Y-114045005D01*
X150362954Y-114039069D01*
X150359731Y-114033609D01*
X150358019Y-114031057D01*
X150356241Y-114028623D01*
X150354399Y-114026309D01*
X150352494Y-114024113D01*
X150350527Y-114022036D01*
X150348499Y-114020078D01*
X150346413Y-114018238D01*
X150344268Y-114016517D01*
X150342066Y-114014915D01*
X150339809Y-114013432D01*
X150337497Y-114012067D01*
X150335132Y-114010821D01*
X150332716Y-114009694D01*
X150330249Y-114008685D01*
X150327732Y-114007795D01*
X150325168Y-114007024D01*
X150322556Y-114006372D01*
X150319899Y-114005838D01*
X150317197Y-114005423D01*
X150314453Y-114005126D01*
X150308839Y-114004889D01*
X150305713Y-114004967D01*
X150302667Y-114005197D01*
X150299700Y-114005576D01*
X150296813Y-114006098D01*
X150294005Y-114006759D01*
X150291276Y-114007552D01*
X150288627Y-114008475D01*
X150286057Y-114009521D01*
X150283567Y-114010687D01*
X150281155Y-114011966D01*
X150278823Y-114013355D01*
X150276569Y-114014849D01*
X150274395Y-114016442D01*
X150272300Y-114018130D01*
X150270283Y-114019909D01*
X150268346Y-114021772D01*
X150266487Y-114024302D01*
X150264708Y-114026838D01*
X150263007Y-114029384D01*
X150261385Y-114031945D01*
X150259842Y-114034527D01*
X150258378Y-114037134D01*
X150256993Y-114039771D01*
X150255688Y-114042443D01*
X150254462Y-114045155D01*
X150253315Y-114047911D01*
X150252247Y-114050718D01*
X150251258Y-114053578D01*
X150250350Y-114056498D01*
X150249520Y-114059482D01*
X150248770Y-114062535D01*
X150248100Y-114065662D01*
X149832947Y-115351682D01*
X149448026Y-115351682D01*
X149448026Y-115351648D01*
X148567070Y-115351648D01*
X148542665Y-115351015D01*
X148518807Y-115349116D01*
X148512431Y-115348251D01*
X148495494Y-115345951D01*
X148472719Y-115341520D01*
G37*
X148472719Y-115341520D02*
X148450477Y-115335823D01*
X148428765Y-115328860D01*
X148407577Y-115320630D01*
X148386908Y-115311134D01*
X148366753Y-115300372D01*
X148347108Y-115288343D01*
X148327968Y-115275048D01*
X148309327Y-115260487D01*
X148291181Y-115244659D01*
X148273525Y-115227564D01*
X148256354Y-115209203D01*
X148239663Y-115189575D01*
X148224316Y-115169720D01*
X148209924Y-115149396D01*
X148196491Y-115128608D01*
X148184021Y-115107360D01*
X148172521Y-115085657D01*
X148161994Y-115063505D01*
X148152447Y-115040908D01*
X148143883Y-115017871D01*
X148136308Y-114994400D01*
X148129727Y-114970499D01*
X148124145Y-114946173D01*
X148119566Y-114921427D01*
X148115997Y-114896266D01*
X148113441Y-114870696D01*
X148111904Y-114844721D01*
X148111390Y-114818346D01*
X148112450Y-114791699D01*
X148115556Y-114765567D01*
X148120601Y-114739974D01*
X148127475Y-114714939D01*
X148136070Y-114690486D01*
X148146277Y-114666635D01*
X148157986Y-114643408D01*
X148171091Y-114620828D01*
X148185480Y-114598915D01*
X148201047Y-114577691D01*
X148217681Y-114557177D01*
X148235275Y-114537396D01*
X148253720Y-114518370D01*
X148272906Y-114500118D01*
X148313068Y-114466030D01*
X148354893Y-114435303D01*
X148397510Y-114408112D01*
X148440049Y-114384629D01*
X148481639Y-114365028D01*
X148521411Y-114349481D01*
X148558495Y-114338162D01*
X148592021Y-114331244D01*
X148607177Y-114329489D01*
X148621118Y-114328899D01*
X149103770Y-114328899D01*
X149110653Y-114328703D01*
X149117380Y-114328121D01*
X149123949Y-114327163D01*
X149130360Y-114325840D01*
X149136613Y-114324160D01*
X149142709Y-114322135D01*
X149148646Y-114319774D01*
X149154424Y-114317086D01*
X149160044Y-114314083D01*
X149165505Y-114310773D01*
X149170806Y-114307167D01*
X149175947Y-114303275D01*
X149180929Y-114299107D01*
X149185751Y-114294672D01*
X149190412Y-114289981D01*
X149194913Y-114285044D01*
X149199226Y-114279303D01*
X149203297Y-114273479D01*
X149207119Y-114267568D01*
X149210689Y-114261562D01*
X149214001Y-114255459D01*
X149217051Y-114249252D01*
X149219834Y-114242937D01*
X149222344Y-114236508D01*
X149224577Y-114229961D01*
X149226529Y-114223289D01*
X149228193Y-114216490D01*
X149229566Y-114209556D01*
X149230642Y-114202483D01*
X149231417Y-114195266D01*
X149231885Y-114187900D01*
X149232043Y-114180380D01*
X149231885Y-114171600D01*
X149231417Y-114162977D01*
X149230642Y-114154513D01*
X149229566Y-114146208D01*
X149228193Y-114138060D01*
X149226529Y-114130071D01*
X149224577Y-114122240D01*
X149222344Y-114114567D01*
X149219834Y-114107052D01*
X149217051Y-114099695D01*
X149214001Y-114092496D01*
X149210689Y-114085455D01*
X149207119Y-114078571D01*
X149203297Y-114071846D01*
X149199226Y-114065278D01*
X149194913Y-114058868D01*
X149189770Y-114052703D01*
X149184470Y-114046863D01*
X149179012Y-114041360D01*
X149173396Y-114036203D01*
X149167621Y-114031401D01*
X149161689Y-114026965D01*
X149155599Y-114022904D01*
X149149350Y-114019229D01*
X149142943Y-114015949D01*
X149136377Y-114013074D01*
X149129652Y-114010614D01*
X149122769Y-114008580D01*
X149115727Y-114006980D01*
X149108526Y-114005825D01*
X149101166Y-114005125D01*
X149093647Y-114004889D01*
X148189047Y-114004889D01*
X148189047Y-113643681D01*
X149110565Y-113643681D01*
X149141143Y-113644273D01*
X149170852Y-113646048D01*
X149199691Y-113649000D01*
X149227660Y-113653124D01*
X149254760Y-113658415D01*
X149280989Y-113664868D01*
X149306349Y-113672477D01*
X149330838Y-113681239D01*
X149354457Y-113691148D01*
X149377206Y-113702198D01*
X149399085Y-113714386D01*
X149420093Y-113727705D01*
X149440230Y-113742151D01*
X149459496Y-113757719D01*
X149477892Y-113774403D01*
X149495417Y-113792199D01*
X149510122Y-113809643D01*
X149523880Y-113827788D01*
X149536691Y-113846626D01*
X149548554Y-113866146D01*
X149559470Y-113886338D01*
X149569438Y-113907193D01*
X149578458Y-113928700D01*
X149586530Y-113950850D01*
X149593653Y-113973633D01*
X149599827Y-113997040D01*
X149605051Y-114021059D01*
X149609327Y-114045682D01*
X149612653Y-114070898D01*
X149615028Y-114096699D01*
X149616454Y-114123073D01*
X149616929Y-114150011D01*
X149616454Y-114176391D01*
X149615028Y-114202367D01*
X149612653Y-114227928D01*
X149609327Y-114253063D01*
X149605051Y-114277764D01*
X149599827Y-114302019D01*
X149593653Y-114325819D01*
X149586530Y-114349154D01*
X149578458Y-114372014D01*
X149569438Y-114394388D01*
X149559470Y-114416266D01*
X149548554Y-114437640D01*
X149536691Y-114458497D01*
X149523880Y-114478829D01*
X149510122Y-114498626D01*
X149495417Y-114517877D01*
X149478128Y-114538129D01*
X149460432Y-114557112D01*
X149442321Y-114574821D01*
X149423784Y-114591249D01*
X149404811Y-114606393D01*
X149385393Y-114620247D01*
X149365520Y-114632806D01*
X149345182Y-114644065D01*
X149324370Y-114654018D01*
X149303073Y-114662661D01*
X149281283Y-114669988D01*
X149258988Y-114675994D01*
X149236180Y-114680675D01*
X149212849Y-114684025D01*
X149188985Y-114686038D01*
X149164578Y-114686711D01*
X148607598Y-114686711D01*
X148601357Y-114686831D01*
X148595273Y-114687198D01*
X148589346Y-114687822D01*
X148583575Y-114688713D01*
X148577961Y-114689880D01*
X148572505Y-114691334D01*
X148567206Y-114693084D01*
X148562065Y-114695139D01*
X148557082Y-114697511D01*
X148552257Y-114700207D01*
X148547591Y-114703239D01*
X148543083Y-114706616D01*
X148538735Y-114710348D01*
X148534546Y-114714445D01*
X148530516Y-114718916D01*
X148526646Y-114723772D01*
X148522371Y-114728914D01*
X148518407Y-114734209D01*
X148514751Y-114739654D01*
X148511396Y-114745242D01*
X148508338Y-114750968D01*
X148505572Y-114756829D01*
X148503094Y-114762818D01*
X148500897Y-114768931D01*
X148498977Y-114775164D01*
X148497330Y-114781510D01*
X148495949Y-114787966D01*
X148494831Y-114794526D01*
X148493970Y-114801185D01*
X148493361Y-114807938D01*
X148492999Y-114814781D01*
X148492880Y-114821709D01*
X148493076Y-114829898D01*
X148493658Y-114838002D01*
X148494616Y-114846017D01*
X148495940Y-114853938D01*
X148497620Y-114861759D01*
X148499646Y-114869477D01*
X148502009Y-114877085D01*
X148504698Y-114884580D01*
X148507703Y-114891956D01*
X148511015Y-114899209D01*
X148514623Y-114906333D01*
X148518519Y-114913324D01*
X148522691Y-114920177D01*
X148527130Y-114926887D01*
X148531827Y-114933449D01*
X148536770Y-114939859D01*
X148542506Y-114945394D01*
X148548331Y-114950609D01*
X148554255Y-114955497D01*
X148560288Y-114960054D01*
X148566440Y-114964275D01*
X148572720Y-114968156D01*
X148579138Y-114971690D01*
X148585704Y-114974874D01*
X148592428Y-114977701D01*
X148599319Y-114980168D01*
X148606388Y-114982269D01*
X148613643Y-114983999D01*
X148621095Y-114985353D01*
X148628753Y-114986327D01*
X148636627Y-114986915D01*
X148644728Y-114987112D01*
X149535841Y-114987112D01*
X149549327Y-114963468D01*
X149883494Y-113890103D01*
X149900377Y-113856336D01*
X149908131Y-113841077D01*
X149916200Y-113826312D01*
X149924585Y-113812040D01*
X149933283Y-113798261D01*
X149942296Y-113784974D01*
X149951622Y-113772178D01*
X149961261Y-113759873D01*
X149971211Y-113748059D01*
X149981473Y-113736734D01*
X149992046Y-113725898D01*
X150002929Y-113715551D01*
X150014121Y-113705691D01*
X150025623Y-113696318D01*
X150037433Y-113687432D01*
X150049550Y-113679032D01*
X150061975Y-113671116D01*
X150074706Y-113663686D01*
X150087743Y-113656739D01*
X150101086Y-113650276D01*
X150114733Y-113644295D01*
X150128684Y-113638796D01*
X150142939Y-113633779D01*
X150157497Y-113629243D01*
X150172357Y-113625187D01*
X150187518Y-113621610D01*
X150202981Y-113618512D01*
X150218744Y-113615893D01*
X150234807Y-113613751D01*
X150251169Y-113612086D01*
X150267829Y-113610898D01*
X150302044Y-113609948D01*
X150320913Y-113610226D01*
X150339544Y-113611062D01*
X150357939Y-113612461D01*
X150376096Y-113614429D01*
X150394015Y-113616970D01*
X150411698Y-113620089D01*
X150429143Y-113623793D01*
X150446351Y-113628084D01*
X150463322Y-113632970D01*
X150480055Y-113638453D01*
X150496551Y-113644541D01*
X150512810Y-113651237D01*
X150528832Y-113658546D01*
X150544616Y-113666475D01*
X150560163Y-113675027D01*
X150575473Y-113684208D01*
X150590940Y-113693975D01*
X150605706Y-113704290D01*
X150619779Y-113715151D01*
X150633171Y-113726550D01*
X150645890Y-113738484D01*
X150657946Y-113750948D01*
X150669350Y-113763936D01*
X150680110Y-113777444D01*
X150690238Y-113791466D01*
X150699743Y-113805999D01*
X150708635Y-113821036D01*
X150716923Y-113836573D01*
X150724617Y-113852605D01*
X150731728Y-113869128D01*
X150738265Y-113886135D01*
X150744238Y-113903623D01*
X151193192Y-115348251D01*
X150784765Y-115351683D01*
X150372975Y-114065662D01*
X150370920Y-114058301D01*
X150368558Y-114051415D01*
X150365900Y-114045005D01*
X150362954Y-114039069D01*
X150359731Y-114033609D01*
X150358019Y-114031057D01*
X150356241Y-114028623D01*
X150354399Y-114026309D01*
X150352494Y-114024113D01*
X150350527Y-114022036D01*
X150348499Y-114020078D01*
X150346413Y-114018238D01*
X150344268Y-114016517D01*
X150342066Y-114014915D01*
X150339809Y-114013432D01*
X150337497Y-114012067D01*
X150335132Y-114010821D01*
X150332716Y-114009694D01*
X150330249Y-114008685D01*
X150327732Y-114007795D01*
X150325168Y-114007024D01*
X150322556Y-114006372D01*
X150319899Y-114005838D01*
X150317197Y-114005423D01*
X150314453Y-114005126D01*
X150308839Y-114004889D01*
X150305713Y-114004967D01*
X150302667Y-114005197D01*
X150299700Y-114005576D01*
X150296813Y-114006098D01*
X150294005Y-114006759D01*
X150291276Y-114007552D01*
X150288627Y-114008475D01*
X150286057Y-114009521D01*
X150283567Y-114010687D01*
X150281155Y-114011966D01*
X150278823Y-114013355D01*
X150276569Y-114014849D01*
X150274395Y-114016442D01*
X150272300Y-114018130D01*
X150270283Y-114019909D01*
X150268346Y-114021772D01*
X150266487Y-114024302D01*
X150264708Y-114026838D01*
X150263007Y-114029384D01*
X150261385Y-114031945D01*
X150259842Y-114034527D01*
X150258378Y-114037134D01*
X150256993Y-114039771D01*
X150255688Y-114042443D01*
X150254462Y-114045155D01*
X150253315Y-114047911D01*
X150252247Y-114050718D01*
X150251258Y-114053578D01*
X150250350Y-114056498D01*
X150249520Y-114059482D01*
X150248770Y-114062535D01*
X150248100Y-114065662D01*
X149832947Y-115351682D01*
X149448026Y-115351682D01*
X149448026Y-115351648D01*
X148567070Y-115351648D01*
X148542665Y-115351015D01*
X148518807Y-115349116D01*
X148512431Y-115348251D01*
X148495494Y-115345951D01*
X148472719Y-115341520D01*
G36*
X151300730Y-115328631D02*
G01*
X151285304Y-115317151D01*
X151270669Y-115304786D01*
X151256826Y-115291542D01*
X151243774Y-115277423D01*
X151230915Y-115262511D01*
X151218923Y-115246875D01*
X151207792Y-115230506D01*
X151197516Y-115213395D01*
X151188092Y-115195532D01*
X151179513Y-115176906D01*
X151171775Y-115157508D01*
X151164873Y-115137329D01*
X151158802Y-115116358D01*
X151153557Y-115094586D01*
X151149132Y-115072003D01*
X151145523Y-115048600D01*
X151142725Y-115024366D01*
X151140733Y-114999292D01*
X151139541Y-114973368D01*
X151139145Y-114946584D01*
X151139145Y-113647078D01*
X151527326Y-113647078D01*
X151527326Y-114963467D01*
X151527523Y-114969042D01*
X151527771Y-114971737D01*
X151528117Y-114974369D01*
X151528562Y-114976938D01*
X151529106Y-114979441D01*
X151529749Y-114981877D01*
X151530491Y-114984246D01*
X151531332Y-114986545D01*
X151532272Y-114988774D01*
X151533311Y-114990932D01*
X151534448Y-114993017D01*
X151535685Y-114995027D01*
X151537020Y-114996962D01*
X151538455Y-114998821D01*
X151539988Y-115000601D01*
X151541620Y-115002303D01*
X151543352Y-115003924D01*
X151545182Y-115005463D01*
X151547111Y-115006920D01*
X151549139Y-115008292D01*
X151551266Y-115009580D01*
X151553492Y-115010780D01*
X151555816Y-115011893D01*
X151558240Y-115012916D01*
X151560763Y-115013849D01*
X151563384Y-115014691D01*
X151566105Y-115015439D01*
X151568924Y-115016094D01*
X151571842Y-115016653D01*
X151574860Y-115017116D01*
X151577976Y-115017480D01*
X151579867Y-115018075D01*
X151581739Y-115018591D01*
X151583592Y-115019031D01*
X151585427Y-115019395D01*
X151587244Y-115019685D01*
X151589045Y-115019901D01*
X151590829Y-115020046D01*
X151592597Y-115020121D01*
X151594350Y-115020125D01*
X151596089Y-115020062D01*
X151599527Y-115019736D01*
X151602914Y-115019153D01*
X151606256Y-115018321D01*
X151609559Y-115017251D01*
X151612827Y-115015954D01*
X151616065Y-115014437D01*
X151619279Y-115012713D01*
X151622473Y-115010789D01*
X151625653Y-115008677D01*
X151628823Y-115006386D01*
X151631989Y-115003926D01*
X151637028Y-114998714D01*
X151639511Y-114995975D01*
X151641951Y-114993142D01*
X151644331Y-114990209D01*
X151646638Y-114987171D01*
X151648856Y-114984024D01*
X151650970Y-114980763D01*
X151652965Y-114977382D01*
X151654827Y-114973878D01*
X151656541Y-114970245D01*
X151658091Y-114966479D01*
X151659463Y-114962574D01*
X151660641Y-114958526D01*
X151661611Y-114954330D01*
X151662358Y-114949981D01*
X151702885Y-114831832D01*
X151949273Y-113964362D01*
X151955291Y-113944345D01*
X151961945Y-113924809D01*
X151969242Y-113905758D01*
X151977186Y-113887197D01*
X151985782Y-113869131D01*
X151995035Y-113851564D01*
X152004951Y-113834502D01*
X152015533Y-113817949D01*
X152026787Y-113801911D01*
X152038718Y-113786392D01*
X152051331Y-113771397D01*
X152064631Y-113756931D01*
X152078622Y-113742999D01*
X152093311Y-113729605D01*
X152108701Y-113716755D01*
X152124799Y-113704454D01*
X152141372Y-113692785D01*
X152158192Y-113681833D01*
X152175271Y-113671603D01*
X152192617Y-113662099D01*
X152210240Y-113653327D01*
X152228150Y-113645292D01*
X152246358Y-113637998D01*
X152264871Y-113631451D01*
X152283702Y-113625656D01*
X152302858Y-113620617D01*
X152322351Y-113616340D01*
X152342190Y-113612829D01*
X152362384Y-113610090D01*
X152382944Y-113608127D01*
X152403879Y-113606946D01*
X152425199Y-113606551D01*
X152451306Y-113606866D01*
X152476474Y-113607810D01*
X152500712Y-113609377D01*
X152524031Y-113611562D01*
X152546440Y-113614360D01*
X152567950Y-113617767D01*
X152588569Y-113621777D01*
X152608309Y-113626385D01*
X152627178Y-113631587D01*
X152645187Y-113637378D01*
X152662345Y-113643753D01*
X152678663Y-113650706D01*
X152694149Y-113658233D01*
X152708815Y-113666329D01*
X152722670Y-113674989D01*
X152735723Y-113684207D01*
X152751624Y-113698049D01*
X152766428Y-113713004D01*
X152780144Y-113729077D01*
X152792784Y-113746273D01*
X152804355Y-113764596D01*
X152814870Y-113784052D01*
X152824336Y-113804646D01*
X152832764Y-113826382D01*
X152840164Y-113849266D01*
X152846546Y-113873302D01*
X152851919Y-113898494D01*
X152856293Y-113924849D01*
X152859677Y-113952371D01*
X152862083Y-113981064D01*
X152863519Y-114010933D01*
X152863996Y-114041985D01*
X152863996Y-115348251D01*
X152485938Y-115348251D01*
X152485938Y-114082477D01*
X152485880Y-114078468D01*
X152485684Y-114074471D01*
X152485352Y-114070490D01*
X152484885Y-114066529D01*
X152484283Y-114062590D01*
X152483547Y-114058678D01*
X152482679Y-114054795D01*
X152481679Y-114050945D01*
X152480549Y-114047132D01*
X152479289Y-114043358D01*
X152477900Y-114039627D01*
X152476383Y-114035943D01*
X152474739Y-114032309D01*
X152472969Y-114028728D01*
X152471074Y-114025203D01*
X152469055Y-114021738D01*
X152466519Y-114018060D01*
X152463973Y-114014614D01*
X152461409Y-114011395D01*
X152458815Y-114008398D01*
X152456182Y-114005619D01*
X152453501Y-114003053D01*
X152450760Y-114000693D01*
X152447951Y-113998536D01*
X152445063Y-113996577D01*
X152442086Y-113994810D01*
X152439010Y-113993231D01*
X152435826Y-113991834D01*
X152432523Y-113990614D01*
X152429091Y-113989567D01*
X152425521Y-113988688D01*
X152421802Y-113987972D01*
X152418007Y-113987421D01*
X152414216Y-113987032D01*
X152410436Y-113986812D01*
X152406670Y-113986764D01*
X152402924Y-113986894D01*
X152399202Y-113987207D01*
X152395510Y-113987707D01*
X152391853Y-113988400D01*
X152388235Y-113989292D01*
X152384661Y-113990386D01*
X152381137Y-113991688D01*
X152377667Y-113993202D01*
X152374255Y-113994935D01*
X152370908Y-113996891D01*
X152367630Y-113999075D01*
X152364426Y-114001492D01*
X152358261Y-114007836D01*
X152355309Y-114011033D01*
X152352453Y-114014259D01*
X152349695Y-114017525D01*
X152347041Y-114020840D01*
X152344496Y-114024214D01*
X152342065Y-114027658D01*
X152339753Y-114031179D01*
X152337564Y-114034790D01*
X152335503Y-114038499D01*
X152333576Y-114042317D01*
X152331786Y-114046253D01*
X152330140Y-114050316D01*
X152328642Y-114054518D01*
X152327296Y-114058868D01*
X152307050Y-114123004D01*
X152023533Y-115111986D01*
X152018073Y-115130071D01*
X152011822Y-115147597D01*
X152004780Y-115164557D01*
X151996947Y-115180948D01*
X151988322Y-115196764D01*
X151978907Y-115212001D01*
X151968700Y-115226654D01*
X151957702Y-115240718D01*
X151945913Y-115254188D01*
X151933333Y-115267059D01*
X151919962Y-115279326D01*
X151905801Y-115290985D01*
X151890848Y-115302030D01*
X151875105Y-115312457D01*
X151858571Y-115322261D01*
X151841247Y-115331436D01*
X151826455Y-115338829D01*
X151811188Y-115345818D01*
X151795445Y-115352391D01*
X151779228Y-115358540D01*
X151762535Y-115364254D01*
X151745368Y-115369524D01*
X151727725Y-115374339D01*
X151709607Y-115378689D01*
X151691014Y-115382565D01*
X151671947Y-115385956D01*
X151652404Y-115388853D01*
X151632387Y-115391246D01*
X151611895Y-115393124D01*
X151590929Y-115394478D01*
X151569488Y-115395297D01*
X151547572Y-115395573D01*
X151522649Y-115395098D01*
X151498517Y-115393680D01*
X151475177Y-115391321D01*
X151452629Y-115388027D01*
X151430871Y-115383804D01*
X151409905Y-115378656D01*
X151389731Y-115372589D01*
X151370348Y-115365606D01*
X151351756Y-115357714D01*
X151333956Y-115348918D01*
X151332786Y-115348251D01*
X151316947Y-115339222D01*
X151300730Y-115328631D01*
G37*
X151300730Y-115328631D02*
X151285304Y-115317151D01*
X151270669Y-115304786D01*
X151256826Y-115291542D01*
X151243774Y-115277423D01*
X151230915Y-115262511D01*
X151218923Y-115246875D01*
X151207792Y-115230506D01*
X151197516Y-115213395D01*
X151188092Y-115195532D01*
X151179513Y-115176906D01*
X151171775Y-115157508D01*
X151164873Y-115137329D01*
X151158802Y-115116358D01*
X151153557Y-115094586D01*
X151149132Y-115072003D01*
X151145523Y-115048600D01*
X151142725Y-115024366D01*
X151140733Y-114999292D01*
X151139541Y-114973368D01*
X151139145Y-114946584D01*
X151139145Y-113647078D01*
X151527326Y-113647078D01*
X151527326Y-114963467D01*
X151527523Y-114969042D01*
X151527771Y-114971737D01*
X151528117Y-114974369D01*
X151528562Y-114976938D01*
X151529106Y-114979441D01*
X151529749Y-114981877D01*
X151530491Y-114984246D01*
X151531332Y-114986545D01*
X151532272Y-114988774D01*
X151533311Y-114990932D01*
X151534448Y-114993017D01*
X151535685Y-114995027D01*
X151537020Y-114996962D01*
X151538455Y-114998821D01*
X151539988Y-115000601D01*
X151541620Y-115002303D01*
X151543352Y-115003924D01*
X151545182Y-115005463D01*
X151547111Y-115006920D01*
X151549139Y-115008292D01*
X151551266Y-115009580D01*
X151553492Y-115010780D01*
X151555816Y-115011893D01*
X151558240Y-115012916D01*
X151560763Y-115013849D01*
X151563384Y-115014691D01*
X151566105Y-115015439D01*
X151568924Y-115016094D01*
X151571842Y-115016653D01*
X151574860Y-115017116D01*
X151577976Y-115017480D01*
X151579867Y-115018075D01*
X151581739Y-115018591D01*
X151583592Y-115019031D01*
X151585427Y-115019395D01*
X151587244Y-115019685D01*
X151589045Y-115019901D01*
X151590829Y-115020046D01*
X151592597Y-115020121D01*
X151594350Y-115020125D01*
X151596089Y-115020062D01*
X151599527Y-115019736D01*
X151602914Y-115019153D01*
X151606256Y-115018321D01*
X151609559Y-115017251D01*
X151612827Y-115015954D01*
X151616065Y-115014437D01*
X151619279Y-115012713D01*
X151622473Y-115010789D01*
X151625653Y-115008677D01*
X151628823Y-115006386D01*
X151631989Y-115003926D01*
X151637028Y-114998714D01*
X151639511Y-114995975D01*
X151641951Y-114993142D01*
X151644331Y-114990209D01*
X151646638Y-114987171D01*
X151648856Y-114984024D01*
X151650970Y-114980763D01*
X151652965Y-114977382D01*
X151654827Y-114973878D01*
X151656541Y-114970245D01*
X151658091Y-114966479D01*
X151659463Y-114962574D01*
X151660641Y-114958526D01*
X151661611Y-114954330D01*
X151662358Y-114949981D01*
X151702885Y-114831832D01*
X151949273Y-113964362D01*
X151955291Y-113944345D01*
X151961945Y-113924809D01*
X151969242Y-113905758D01*
X151977186Y-113887197D01*
X151985782Y-113869131D01*
X151995035Y-113851564D01*
X152004951Y-113834502D01*
X152015533Y-113817949D01*
X152026787Y-113801911D01*
X152038718Y-113786392D01*
X152051331Y-113771397D01*
X152064631Y-113756931D01*
X152078622Y-113742999D01*
X152093311Y-113729605D01*
X152108701Y-113716755D01*
X152124799Y-113704454D01*
X152141372Y-113692785D01*
X152158192Y-113681833D01*
X152175271Y-113671603D01*
X152192617Y-113662099D01*
X152210240Y-113653327D01*
X152228150Y-113645292D01*
X152246358Y-113637998D01*
X152264871Y-113631451D01*
X152283702Y-113625656D01*
X152302858Y-113620617D01*
X152322351Y-113616340D01*
X152342190Y-113612829D01*
X152362384Y-113610090D01*
X152382944Y-113608127D01*
X152403879Y-113606946D01*
X152425199Y-113606551D01*
X152451306Y-113606866D01*
X152476474Y-113607810D01*
X152500712Y-113609377D01*
X152524031Y-113611562D01*
X152546440Y-113614360D01*
X152567950Y-113617767D01*
X152588569Y-113621777D01*
X152608309Y-113626385D01*
X152627178Y-113631587D01*
X152645187Y-113637378D01*
X152662345Y-113643753D01*
X152678663Y-113650706D01*
X152694149Y-113658233D01*
X152708815Y-113666329D01*
X152722670Y-113674989D01*
X152735723Y-113684207D01*
X152751624Y-113698049D01*
X152766428Y-113713004D01*
X152780144Y-113729077D01*
X152792784Y-113746273D01*
X152804355Y-113764596D01*
X152814870Y-113784052D01*
X152824336Y-113804646D01*
X152832764Y-113826382D01*
X152840164Y-113849266D01*
X152846546Y-113873302D01*
X152851919Y-113898494D01*
X152856293Y-113924849D01*
X152859677Y-113952371D01*
X152862083Y-113981064D01*
X152863519Y-114010933D01*
X152863996Y-114041985D01*
X152863996Y-115348251D01*
X152485938Y-115348251D01*
X152485938Y-114082477D01*
X152485880Y-114078468D01*
X152485684Y-114074471D01*
X152485352Y-114070490D01*
X152484885Y-114066529D01*
X152484283Y-114062590D01*
X152483547Y-114058678D01*
X152482679Y-114054795D01*
X152481679Y-114050945D01*
X152480549Y-114047132D01*
X152479289Y-114043358D01*
X152477900Y-114039627D01*
X152476383Y-114035943D01*
X152474739Y-114032309D01*
X152472969Y-114028728D01*
X152471074Y-114025203D01*
X152469055Y-114021738D01*
X152466519Y-114018060D01*
X152463973Y-114014614D01*
X152461409Y-114011395D01*
X152458815Y-114008398D01*
X152456182Y-114005619D01*
X152453501Y-114003053D01*
X152450760Y-114000693D01*
X152447951Y-113998536D01*
X152445063Y-113996577D01*
X152442086Y-113994810D01*
X152439010Y-113993231D01*
X152435826Y-113991834D01*
X152432523Y-113990614D01*
X152429091Y-113989567D01*
X152425521Y-113988688D01*
X152421802Y-113987972D01*
X152418007Y-113987421D01*
X152414216Y-113987032D01*
X152410436Y-113986812D01*
X152406670Y-113986764D01*
X152402924Y-113986894D01*
X152399202Y-113987207D01*
X152395510Y-113987707D01*
X152391853Y-113988400D01*
X152388235Y-113989292D01*
X152384661Y-113990386D01*
X152381137Y-113991688D01*
X152377667Y-113993202D01*
X152374255Y-113994935D01*
X152370908Y-113996891D01*
X152367630Y-113999075D01*
X152364426Y-114001492D01*
X152358261Y-114007836D01*
X152355309Y-114011033D01*
X152352453Y-114014259D01*
X152349695Y-114017525D01*
X152347041Y-114020840D01*
X152344496Y-114024214D01*
X152342065Y-114027658D01*
X152339753Y-114031179D01*
X152337564Y-114034790D01*
X152335503Y-114038499D01*
X152333576Y-114042317D01*
X152331786Y-114046253D01*
X152330140Y-114050316D01*
X152328642Y-114054518D01*
X152327296Y-114058868D01*
X152307050Y-114123004D01*
X152023533Y-115111986D01*
X152018073Y-115130071D01*
X152011822Y-115147597D01*
X152004780Y-115164557D01*
X151996947Y-115180948D01*
X151988322Y-115196764D01*
X151978907Y-115212001D01*
X151968700Y-115226654D01*
X151957702Y-115240718D01*
X151945913Y-115254188D01*
X151933333Y-115267059D01*
X151919962Y-115279326D01*
X151905801Y-115290985D01*
X151890848Y-115302030D01*
X151875105Y-115312457D01*
X151858571Y-115322261D01*
X151841247Y-115331436D01*
X151826455Y-115338829D01*
X151811188Y-115345818D01*
X151795445Y-115352391D01*
X151779228Y-115358540D01*
X151762535Y-115364254D01*
X151745368Y-115369524D01*
X151727725Y-115374339D01*
X151709607Y-115378689D01*
X151691014Y-115382565D01*
X151671947Y-115385956D01*
X151652404Y-115388853D01*
X151632387Y-115391246D01*
X151611895Y-115393124D01*
X151590929Y-115394478D01*
X151569488Y-115395297D01*
X151547572Y-115395573D01*
X151522649Y-115395098D01*
X151498517Y-115393680D01*
X151475177Y-115391321D01*
X151452629Y-115388027D01*
X151430871Y-115383804D01*
X151409905Y-115378656D01*
X151389731Y-115372589D01*
X151370348Y-115365606D01*
X151351756Y-115357714D01*
X151333956Y-115348918D01*
X151332786Y-115348251D01*
X151316947Y-115339222D01*
X151300730Y-115328631D01*
D11*
G36*
X163227808Y-112044964D02*
G01*
X163210981Y-112044964D01*
X163176209Y-112045138D01*
X163140535Y-112046357D01*
X163122729Y-112047684D01*
X163105141Y-112049665D01*
X163087919Y-112052428D01*
X163071211Y-112056106D01*
X163055163Y-112060828D01*
X163039925Y-112066725D01*
X163032656Y-112070155D01*
X163025644Y-112073928D01*
X163018908Y-112078059D01*
X163012467Y-112082566D01*
X163006339Y-112087465D01*
X163000543Y-112092772D01*
X162995096Y-112098503D01*
X162990019Y-112104675D01*
X162985328Y-112111304D01*
X162981042Y-112118406D01*
X162977181Y-112125998D01*
X162973762Y-112134095D01*
X162973735Y-112134251D01*
X162965410Y-112181802D01*
X162958429Y-112229699D01*
X162952820Y-112277756D01*
X162948584Y-112325944D01*
X162945726Y-112374233D01*
X162944245Y-112422593D01*
X162944146Y-112470996D01*
X162945429Y-112519412D01*
X162945429Y-113305759D01*
X162944147Y-113354163D01*
X162944245Y-113402555D01*
X162945720Y-113450905D01*
X162948570Y-113499183D01*
X162952793Y-113547361D01*
X162958387Y-113595409D01*
X162965350Y-113643298D01*
X162973680Y-113690997D01*
X162977106Y-113699102D01*
X162980975Y-113706700D01*
X162985267Y-113713809D01*
X162989964Y-113720443D01*
X162995047Y-113726621D01*
X163000499Y-113732357D01*
X163006300Y-113737668D01*
X163012432Y-113742571D01*
X163018878Y-113747083D01*
X163025617Y-113751218D01*
X163032632Y-113754994D01*
X163039905Y-113758427D01*
X163047417Y-113761533D01*
X163055149Y-113764329D01*
X163063083Y-113766831D01*
X163071200Y-113769055D01*
X163087912Y-113772736D01*
X163105137Y-113775502D01*
X163122727Y-113777484D01*
X163140533Y-113778813D01*
X163158410Y-113779619D01*
X163176209Y-113780032D01*
X163210981Y-113780207D01*
X163227809Y-113780207D01*
X163227809Y-113903382D01*
X163065728Y-113897194D01*
X162921362Y-113893091D01*
X162850336Y-113891746D01*
X162786553Y-113891237D01*
X162638850Y-113893135D01*
X162489116Y-113897309D01*
X162326458Y-113903382D01*
X162326458Y-113780207D01*
X162343285Y-113780207D01*
X162378059Y-113780033D01*
X162413734Y-113778815D01*
X162431540Y-113777489D01*
X162449128Y-113775511D01*
X162466350Y-113772750D01*
X162483058Y-113769076D01*
X162499105Y-113764358D01*
X162514344Y-113758466D01*
X162521613Y-113755039D01*
X162528625Y-113751270D01*
X162535361Y-113747142D01*
X162541802Y-113742639D01*
X162547930Y-113737745D01*
X162553727Y-113732443D01*
X162559173Y-113726717D01*
X162564251Y-113720551D01*
X162568943Y-113713928D01*
X162573228Y-113706833D01*
X162577090Y-113699248D01*
X162580510Y-113691158D01*
X162588861Y-113643440D01*
X162595843Y-113595533D01*
X162601452Y-113547466D01*
X162605687Y-113499268D01*
X162608546Y-113450969D01*
X162610027Y-113402598D01*
X162610126Y-113354185D01*
X162608843Y-113305759D01*
X162608842Y-112519412D01*
X162610124Y-112471016D01*
X162610026Y-112422634D01*
X162608551Y-112374293D01*
X162605700Y-112326024D01*
X162601476Y-112277856D01*
X162595881Y-112229818D01*
X162588917Y-112181940D01*
X162580586Y-112134250D01*
X162577160Y-112126139D01*
X162573291Y-112118534D01*
X162569000Y-112111420D01*
X162564303Y-112104779D01*
X162559219Y-112098597D01*
X162553768Y-112092856D01*
X162547967Y-112087540D01*
X162541834Y-112082632D01*
X162535389Y-112078117D01*
X162528650Y-112073978D01*
X162521635Y-112070199D01*
X162514362Y-112066763D01*
X162506851Y-112063654D01*
X162499119Y-112060855D01*
X162491185Y-112058351D01*
X162483068Y-112056125D01*
X162466356Y-112052441D01*
X162449131Y-112049673D01*
X162431542Y-112047689D01*
X162413735Y-112046359D01*
X162395858Y-112045553D01*
X162378059Y-112045139D01*
X162343285Y-112044964D01*
X162326458Y-112044964D01*
X162326458Y-111921872D01*
X162516303Y-111925761D01*
X162669577Y-111928435D01*
X162787058Y-111929651D01*
X162902813Y-111928435D01*
X163049111Y-111925761D01*
X163227808Y-111921872D01*
X163227808Y-112044964D01*
G37*
G36*
X165194998Y-112178624D02*
G01*
X165188851Y-112223941D01*
X165183878Y-112269386D01*
X165180081Y-112314937D01*
X165177462Y-112360571D01*
X165176021Y-112406265D01*
X165175761Y-112451997D01*
X165176684Y-112497742D01*
X165176684Y-113305680D01*
X165176251Y-113345394D01*
X165176367Y-113385104D01*
X165177031Y-113424805D01*
X165178243Y-113464490D01*
X165180002Y-113504154D01*
X165182309Y-113543792D01*
X165185163Y-113583397D01*
X165188563Y-113622966D01*
X165189598Y-113631685D01*
X165190832Y-113640376D01*
X165192266Y-113649034D01*
X165193898Y-113657655D01*
X165195727Y-113666237D01*
X165197754Y-113674777D01*
X165199977Y-113683269D01*
X165202396Y-113691712D01*
X165205321Y-113699744D01*
X165208727Y-113707275D01*
X165212593Y-113714320D01*
X165216900Y-113720896D01*
X165221628Y-113727018D01*
X165226758Y-113732703D01*
X165232269Y-113737967D01*
X165238142Y-113742827D01*
X165244357Y-113747298D01*
X165250895Y-113751396D01*
X165257735Y-113755139D01*
X165264859Y-113758541D01*
X165272246Y-113761620D01*
X165279877Y-113764391D01*
X165287732Y-113766871D01*
X165295792Y-113769075D01*
X165312444Y-113772723D01*
X165329677Y-113775465D01*
X165347334Y-113777429D01*
X165365256Y-113778746D01*
X165383286Y-113779544D01*
X165401266Y-113779954D01*
X165436446Y-113780127D01*
X165453194Y-113780127D01*
X165453194Y-113903219D01*
X165293112Y-113897188D01*
X165144373Y-113893042D01*
X165067811Y-113891676D01*
X164995494Y-113891158D01*
X164861511Y-113892999D01*
X164720459Y-113897073D01*
X164563669Y-113903219D01*
X164563669Y-113780127D01*
X164588037Y-113780127D01*
X164622911Y-113780075D01*
X164640464Y-113779704D01*
X164657928Y-113778933D01*
X164675175Y-113777632D01*
X164692080Y-113775673D01*
X164708516Y-113772926D01*
X164724358Y-113769264D01*
X164739479Y-113764557D01*
X164753753Y-113758677D01*
X164760533Y-113755257D01*
X164767054Y-113751495D01*
X164773300Y-113747376D01*
X164779255Y-113742883D01*
X164784904Y-113738000D01*
X164790231Y-113732711D01*
X164795220Y-113727000D01*
X164799856Y-113720851D01*
X164804122Y-113714248D01*
X164808003Y-113707175D01*
X164811483Y-113699615D01*
X164814546Y-113691553D01*
X164816956Y-113683129D01*
X164819171Y-113674655D01*
X164821192Y-113666135D01*
X164823017Y-113657573D01*
X164824647Y-113648971D01*
X164826079Y-113640333D01*
X164827315Y-113631662D01*
X164828352Y-113622962D01*
X164831633Y-113586091D01*
X164834399Y-113549184D01*
X164836651Y-113512245D01*
X164838388Y-113475281D01*
X164839609Y-113438295D01*
X164840315Y-113401295D01*
X164840505Y-113364285D01*
X164840179Y-113327270D01*
X164840179Y-112996952D01*
X164820793Y-112997266D01*
X164803534Y-112997894D01*
X164788187Y-112998904D01*
X164774536Y-113000364D01*
X164762369Y-113002340D01*
X164751468Y-113004900D01*
X164741619Y-113008112D01*
X164737022Y-113009983D01*
X164732608Y-113012042D01*
X164728349Y-113014298D01*
X164724219Y-113016758D01*
X164716237Y-113022327D01*
X164708447Y-113028817D01*
X164700635Y-113036294D01*
X164692586Y-113044827D01*
X164684084Y-113054481D01*
X164664862Y-113077428D01*
X164648094Y-113097529D01*
X164638787Y-113108523D01*
X164628826Y-113120127D01*
X164140496Y-113726076D01*
X163996922Y-113903218D01*
X163908644Y-113899897D01*
X163831814Y-113897614D01*
X163795002Y-113896861D01*
X163762983Y-113896576D01*
X163672939Y-113897652D01*
X163583311Y-113900019D01*
X163487075Y-113903461D01*
X163487075Y-113782505D01*
X163501289Y-113780287D01*
X163521922Y-113779218D01*
X163542332Y-113776960D01*
X163562475Y-113773538D01*
X163582306Y-113768975D01*
X163601778Y-113763294D01*
X163620848Y-113756520D01*
X163639469Y-113748676D01*
X163657598Y-113739786D01*
X163675188Y-113729874D01*
X163692195Y-113718963D01*
X163708574Y-113707077D01*
X163724279Y-113694240D01*
X163739266Y-113680475D01*
X163753489Y-113665807D01*
X163766904Y-113650259D01*
X163779465Y-113633855D01*
X164364545Y-112962184D01*
X164336009Y-112957942D01*
X164308179Y-112952755D01*
X164281068Y-112946636D01*
X164254688Y-112939600D01*
X164229054Y-112931658D01*
X164204177Y-112922825D01*
X164180072Y-112913114D01*
X164156751Y-112902538D01*
X164134228Y-112891112D01*
X164112516Y-112878847D01*
X164091627Y-112865758D01*
X164071575Y-112851857D01*
X164052373Y-112837159D01*
X164034035Y-112821677D01*
X164016572Y-112805424D01*
X164000000Y-112788414D01*
X163984330Y-112770659D01*
X163969575Y-112752174D01*
X163955750Y-112732972D01*
X163942867Y-112713066D01*
X163930938Y-112692469D01*
X163919979Y-112671195D01*
X163910000Y-112649258D01*
X163901016Y-112626670D01*
X163893040Y-112603445D01*
X163886085Y-112579597D01*
X163880164Y-112555139D01*
X163875289Y-112530085D01*
X163871476Y-112504447D01*
X163868735Y-112478239D01*
X163867940Y-112465368D01*
X164238348Y-112465368D01*
X164238932Y-112499427D01*
X164240697Y-112531660D01*
X164243659Y-112562106D01*
X164247836Y-112590803D01*
X164253246Y-112617790D01*
X164259907Y-112643104D01*
X164267835Y-112666783D01*
X164277049Y-112688867D01*
X164287566Y-112709393D01*
X164299403Y-112728399D01*
X164312579Y-112745924D01*
X164327110Y-112762006D01*
X164343014Y-112776683D01*
X164360310Y-112789994D01*
X164379013Y-112801976D01*
X164399143Y-112812668D01*
X164421177Y-112821478D01*
X164447853Y-112829180D01*
X164478334Y-112835847D01*
X164511783Y-112841556D01*
X164547364Y-112846379D01*
X164584240Y-112850392D01*
X164658531Y-112856285D01*
X164727963Y-112859831D01*
X164785844Y-112861625D01*
X164840180Y-112862346D01*
X164840338Y-112142662D01*
X164840483Y-112131532D01*
X164840366Y-112119872D01*
X164840117Y-112113983D01*
X164839694Y-112108131D01*
X164839059Y-112102371D01*
X164838175Y-112096761D01*
X164837008Y-112091356D01*
X164835519Y-112086213D01*
X164833672Y-112081388D01*
X164832603Y-112079113D01*
X164831431Y-112076939D01*
X164830151Y-112074872D01*
X164828759Y-112072920D01*
X164827251Y-112071090D01*
X164825621Y-112069389D01*
X164823865Y-112067824D01*
X164821978Y-112066401D01*
X164819957Y-112065129D01*
X164817796Y-112064014D01*
X164794763Y-112062637D01*
X164771715Y-112061599D01*
X164748658Y-112060901D01*
X164725594Y-112060542D01*
X164702528Y-112060523D01*
X164679462Y-112060845D01*
X164656401Y-112061505D01*
X164633349Y-112062506D01*
X164610136Y-112062935D01*
X164587557Y-112064218D01*
X164565618Y-112066348D01*
X164544325Y-112069318D01*
X164523687Y-112073121D01*
X164503708Y-112077751D01*
X164484397Y-112083199D01*
X164465760Y-112089460D01*
X164447803Y-112096525D01*
X164430534Y-112104390D01*
X164413960Y-112113045D01*
X164398087Y-112122486D01*
X164382921Y-112132704D01*
X164368471Y-112143692D01*
X164354742Y-112155444D01*
X164341742Y-112167953D01*
X164329476Y-112181212D01*
X164317953Y-112195214D01*
X164307179Y-112209952D01*
X164297160Y-112225419D01*
X164287904Y-112241608D01*
X164279416Y-112258513D01*
X164271705Y-112276125D01*
X164264777Y-112294439D01*
X164258638Y-112313448D01*
X164253296Y-112333143D01*
X164248757Y-112353520D01*
X164245028Y-112374570D01*
X164242116Y-112396287D01*
X164240027Y-112418663D01*
X164238769Y-112441692D01*
X164238348Y-112465368D01*
X163867940Y-112465368D01*
X163867081Y-112451475D01*
X163866527Y-112424167D01*
X163865274Y-112392788D01*
X163866274Y-112361693D01*
X163869473Y-112330985D01*
X163874815Y-112300768D01*
X163882245Y-112271141D01*
X163891710Y-112242209D01*
X163903155Y-112214073D01*
X163916524Y-112186835D01*
X163931763Y-112160597D01*
X163948818Y-112135462D01*
X163967634Y-112111533D01*
X163988155Y-112088910D01*
X164010329Y-112067696D01*
X164034099Y-112047995D01*
X164059411Y-112029906D01*
X164086210Y-112013534D01*
X164113938Y-112000992D01*
X164141995Y-111989339D01*
X164170359Y-111978582D01*
X164199011Y-111968722D01*
X164227927Y-111959766D01*
X164257086Y-111951717D01*
X164286467Y-111944579D01*
X164316048Y-111938356D01*
X164345807Y-111933053D01*
X164375724Y-111928673D01*
X164405776Y-111925222D01*
X164435942Y-111922703D01*
X164466201Y-111921119D01*
X164496531Y-111920477D01*
X164526910Y-111920779D01*
X164557316Y-111922030D01*
X164706037Y-111925907D01*
X164812395Y-111927830D01*
X164931126Y-111928652D01*
X165084264Y-111927580D01*
X165255773Y-111925222D01*
X165453193Y-111921792D01*
X165453193Y-112044885D01*
X165428750Y-112044885D01*
X165393345Y-112044891D01*
X165375555Y-112045247D01*
X165357881Y-112046010D01*
X165340453Y-112047308D01*
X165323403Y-112049267D01*
X165306859Y-112052018D01*
X165290953Y-112055687D01*
X165275815Y-112060402D01*
X165261576Y-112066291D01*
X165254835Y-112069717D01*
X165248366Y-112073483D01*
X165242188Y-112077608D01*
X165236316Y-112082106D01*
X165230766Y-112086993D01*
X165225555Y-112092286D01*
X165220699Y-112098001D01*
X165216215Y-112104153D01*
X165212118Y-112110759D01*
X165208426Y-112117834D01*
X165205153Y-112125395D01*
X165202995Y-112131532D01*
X165202318Y-112133458D01*
X165194998Y-112178624D01*
G37*
G36*
X162058919Y-112437796D02*
G01*
X161936699Y-112437796D01*
X161936143Y-112421603D01*
X161934750Y-112391178D01*
X161932666Y-112362574D01*
X161929881Y-112335735D01*
X161926389Y-112310604D01*
X161922180Y-112287126D01*
X161917248Y-112265244D01*
X161911583Y-112244903D01*
X161905179Y-112226046D01*
X161898027Y-112208617D01*
X161890119Y-112192561D01*
X161881447Y-112177821D01*
X161872003Y-112164341D01*
X161861780Y-112152065D01*
X161850769Y-112140938D01*
X161838962Y-112130902D01*
X161826351Y-112121902D01*
X161812929Y-112113882D01*
X161798686Y-112106786D01*
X161783617Y-112100557D01*
X161767711Y-112095140D01*
X161750962Y-112090478D01*
X161733362Y-112086516D01*
X161714901Y-112083198D01*
X161695574Y-112080467D01*
X161654283Y-112076542D01*
X161609427Y-112074294D01*
X161560941Y-112073274D01*
X161508761Y-112073034D01*
X161493899Y-112073024D01*
X161479159Y-112072954D01*
X161452545Y-112072832D01*
X161426745Y-112073030D01*
X161402191Y-112073863D01*
X161390517Y-112074615D01*
X161379317Y-112075643D01*
X161368645Y-112076987D01*
X161358556Y-112078685D01*
X161349104Y-112080777D01*
X161340342Y-112083302D01*
X161332326Y-112086298D01*
X161325108Y-112089807D01*
X161318745Y-112093865D01*
X161313288Y-112098513D01*
X161311586Y-112100436D01*
X161309992Y-112102435D01*
X161308509Y-112104504D01*
X161307138Y-112106640D01*
X161305880Y-112108837D01*
X161304738Y-112111091D01*
X161303713Y-112113398D01*
X161302807Y-112115752D01*
X161302021Y-112118149D01*
X161301358Y-112120584D01*
X161300818Y-112123052D01*
X161300403Y-112125550D01*
X161300116Y-112128072D01*
X161299957Y-112130613D01*
X161299929Y-112133169D01*
X161300033Y-112135735D01*
X161300033Y-113486842D01*
X161300417Y-113523064D01*
X161301791Y-113556598D01*
X161304486Y-113587511D01*
X161308834Y-113615871D01*
X161311731Y-113629116D01*
X161315165Y-113641747D01*
X161319177Y-113653774D01*
X161323810Y-113665206D01*
X161329104Y-113676051D01*
X161335101Y-113686317D01*
X161341842Y-113696012D01*
X161349369Y-113705146D01*
X161357723Y-113713727D01*
X161366946Y-113721764D01*
X161377078Y-113729264D01*
X161388161Y-113736236D01*
X161400238Y-113742690D01*
X161413348Y-113748633D01*
X161427533Y-113754073D01*
X161442836Y-113759020D01*
X161459297Y-113763482D01*
X161476957Y-113767467D01*
X161495859Y-113770984D01*
X161516043Y-113774042D01*
X161537550Y-113776648D01*
X161560423Y-113778812D01*
X161610431Y-113781846D01*
X161626544Y-113782481D01*
X161626544Y-113904938D01*
X161438178Y-113898905D01*
X161268506Y-113894758D01*
X161183986Y-113893391D01*
X161106985Y-113892873D01*
X160972219Y-113894758D01*
X160817484Y-113898905D01*
X160637022Y-113904938D01*
X160637022Y-113782478D01*
X160653129Y-113781843D01*
X160703150Y-113778810D01*
X160747542Y-113774040D01*
X160767729Y-113770983D01*
X160786634Y-113767466D01*
X160804297Y-113763480D01*
X160820760Y-113759019D01*
X160836063Y-113754072D01*
X160850249Y-113748631D01*
X160863360Y-113742688D01*
X160875436Y-113736235D01*
X160886518Y-113729262D01*
X160896649Y-113721762D01*
X160905870Y-113713726D01*
X160914222Y-113705145D01*
X160921747Y-113696011D01*
X160928486Y-113686315D01*
X160934480Y-113676049D01*
X160939772Y-113665204D01*
X160944402Y-113653773D01*
X160948412Y-113641745D01*
X160951843Y-113629114D01*
X160954738Y-113615869D01*
X160959080Y-113587509D01*
X160961772Y-113556596D01*
X160963143Y-113523062D01*
X160963527Y-113486840D01*
X160963527Y-112135730D01*
X160963571Y-112133394D01*
X160963494Y-112131070D01*
X160963296Y-112128763D01*
X160962981Y-112126477D01*
X160962549Y-112124216D01*
X160962003Y-112121984D01*
X160961343Y-112119786D01*
X160960572Y-112117627D01*
X160959691Y-112115509D01*
X160958701Y-112113439D01*
X160957606Y-112111419D01*
X160956405Y-112109455D01*
X160955102Y-112107550D01*
X160953697Y-112105710D01*
X160952192Y-112103938D01*
X160950589Y-112102238D01*
X160947373Y-112099336D01*
X160943836Y-112096623D01*
X160939991Y-112094093D01*
X160935853Y-112091740D01*
X160931435Y-112089557D01*
X160926750Y-112087540D01*
X160916636Y-112083973D01*
X160905621Y-112080990D01*
X160893815Y-112078543D01*
X160881326Y-112076580D01*
X160868265Y-112075055D01*
X160854741Y-112073916D01*
X160840863Y-112073115D01*
X160812485Y-112072328D01*
X160784006Y-112072300D01*
X160756304Y-112072636D01*
X160736063Y-112072924D01*
X160716537Y-112073033D01*
X160665890Y-112074015D01*
X160619549Y-112077061D01*
X160577345Y-112082325D01*
X160557740Y-112085837D01*
X160539105Y-112089960D01*
X160521419Y-112094714D01*
X160504660Y-112100117D01*
X160488807Y-112106190D01*
X160473838Y-112112951D01*
X160459732Y-112120419D01*
X160446469Y-112128614D01*
X160434025Y-112137554D01*
X160422381Y-112147258D01*
X160411515Y-112157746D01*
X160401405Y-112169037D01*
X160392030Y-112181149D01*
X160383368Y-112194102D01*
X160375399Y-112207916D01*
X160368102Y-112222608D01*
X160361453Y-112238199D01*
X160355433Y-112254706D01*
X160350020Y-112272151D01*
X160345193Y-112290550D01*
X160337210Y-112330292D01*
X160331313Y-112374085D01*
X160327331Y-112422082D01*
X160326378Y-112437798D01*
X160205027Y-112437798D01*
X160205027Y-111923826D01*
X161131973Y-111928465D01*
X162058919Y-111923826D01*
X162058919Y-112437796D01*
G37*
M02*
