%TF.GenerationSoftware,KiCad,Pcbnew,6.0.7+dfsg-1build1*%
%TF.CreationDate,2022-11-02T19:08:18-04:00*%
%TF.ProjectId,Fc,46632e6b-6963-4616-945f-706362585858,rev?*%
%TF.SameCoordinates,Original*%
%TF.FileFunction,Soldermask,Bot*%
%TF.FilePolarity,Negative*%
%FSLAX46Y46*%
G04 Gerber Fmt 4.6, Leading zero omitted, Abs format (unit mm)*
G04 Created by KiCad (PCBNEW 6.0.7+dfsg-1build1) date 2022-11-02 19:08:18*
%MOMM*%
%LPD*%
G01*
G04 APERTURE LIST*
%ADD10O,0.800000X0.800000*%
%ADD11O,1.450000X2.000000*%
%ADD12O,1.150000X1.800000*%
%ADD13R,1.700000X1.700000*%
%ADD14C,1.700000*%
%ADD15R,1.900000X1.900000*%
%ADD16C,1.900000*%
%ADD17O,1.700000X1.700000*%
%ADD18R,2.200000X2.200000*%
%ADD19C,2.200000*%
G04 APERTURE END LIST*
D10*
%TO.C,J8*%
X174165000Y-104560000D03*
X179165000Y-104560000D03*
D11*
X172940000Y-103510000D03*
X180390000Y-103510000D03*
D12*
X172790000Y-107310000D03*
X180540000Y-107310000D03*
%TD*%
D13*
%TO.C,J7*%
X145705000Y-108470000D03*
%TD*%
%TO.C,J6*%
X150355000Y-103820000D03*
%TD*%
%TO.C,J5*%
X145705000Y-103820000D03*
%TD*%
%TO.C,J4*%
X145705000Y-113120000D03*
%TD*%
%TO.C,J3*%
X150355000Y-108470000D03*
%TD*%
%TO.C,U10*%
X85035000Y-111435000D03*
D14*
X85035000Y-113975000D03*
X85035000Y-116515000D03*
X85035000Y-119055000D03*
X85035000Y-121595000D03*
X85035000Y-124135000D03*
X85035000Y-126675000D03*
X85035000Y-129215000D03*
X97735000Y-129215000D03*
X97735000Y-126675000D03*
X97735000Y-124135000D03*
X97735000Y-121595000D03*
X97735000Y-119055000D03*
X97735000Y-116515000D03*
X97735000Y-113975000D03*
X97735000Y-111435000D03*
%TD*%
D15*
%TO.C,S2*%
X126705000Y-90510000D03*
D16*
X129205000Y-90510000D03*
X131705000Y-90510000D03*
%TD*%
D13*
%TO.C,RPI_UART1*%
X53390000Y-129790000D03*
D17*
X53390000Y-132330000D03*
X53390000Y-134870000D03*
X53390000Y-137410000D03*
%TD*%
D18*
%TO.C,S1*%
X142875000Y-71120000D03*
D19*
X149375000Y-71120000D03*
X142875000Y-75620000D03*
X149375000Y-75620000D03*
%TD*%
D13*
%TO.C,J1*%
X98280000Y-93830000D03*
D17*
X98280000Y-96370000D03*
%TD*%
D13*
%TO.C,J2*%
X46355000Y-51435000D03*
D17*
X43815000Y-51435000D03*
X46355000Y-53975000D03*
X43815000Y-53975000D03*
X46355000Y-56515000D03*
X43815000Y-56515000D03*
X46355000Y-59055000D03*
X43815000Y-59055000D03*
X46355000Y-61595000D03*
X43815000Y-61595000D03*
X46355000Y-64135000D03*
X43815000Y-64135000D03*
X46355000Y-66675000D03*
X43815000Y-66675000D03*
X46355000Y-69215000D03*
X43815000Y-69215000D03*
X46355000Y-71755000D03*
X43815000Y-71755000D03*
X46355000Y-74295000D03*
X43815000Y-74295000D03*
X46355000Y-76835000D03*
X43815000Y-76835000D03*
X46355000Y-79375000D03*
X43815000Y-79375000D03*
X46355000Y-81915000D03*
X43815000Y-81915000D03*
X46355000Y-84455000D03*
X43815000Y-84455000D03*
X46355000Y-86995000D03*
X43815000Y-86995000D03*
X46355000Y-89535000D03*
X43815000Y-89535000D03*
X46355000Y-92075000D03*
X43815000Y-92075000D03*
X46355000Y-94615000D03*
X43815000Y-94615000D03*
X46355000Y-97155000D03*
X43815000Y-97155000D03*
X46355000Y-99695000D03*
X43815000Y-99695000D03*
X46355000Y-102235000D03*
X43815000Y-102235000D03*
X46355000Y-104775000D03*
X43815000Y-104775000D03*
X46355000Y-107315000D03*
X43815000Y-107315000D03*
X46355000Y-109855000D03*
X43815000Y-109855000D03*
X46355000Y-112395000D03*
X43815000Y-112395000D03*
X46355000Y-114935000D03*
X43815000Y-114935000D03*
X46355000Y-117475000D03*
X43815000Y-117475000D03*
X46355000Y-120015000D03*
X43815000Y-120015000D03*
X46355000Y-122555000D03*
X43815000Y-122555000D03*
X46355000Y-125095000D03*
X43815000Y-125095000D03*
X46355000Y-127635000D03*
X43815000Y-127635000D03*
X46355000Y-130175000D03*
X43815000Y-130175000D03*
%TD*%
M02*
