%TF.GenerationSoftware,KiCad,Pcbnew,6.0.7+dfsg-1build1*%
%TF.CreationDate,2022-11-02T19:08:18-04:00*%
%TF.ProjectId,Fc,46632e6b-6963-4616-945f-706362585858,rev?*%
%TF.SameCoordinates,Original*%
%TF.FileFunction,Copper,L1,Top*%
%TF.FilePolarity,Positive*%
%FSLAX46Y46*%
G04 Gerber Fmt 4.6, Leading zero omitted, Abs format (unit mm)*
G04 Created by KiCad (PCBNEW 6.0.7+dfsg-1build1) date 2022-11-02 19:08:18*
%MOMM*%
%LPD*%
G01*
G04 APERTURE LIST*
G04 Aperture macros list*
%AMRoundRect*
0 Rectangle with rounded corners*
0 $1 Rounding radius*
0 $2 $3 $4 $5 $6 $7 $8 $9 X,Y pos of 4 corners*
0 Add a 4 corners polygon primitive as box body*
4,1,4,$2,$3,$4,$5,$6,$7,$8,$9,$2,$3,0*
0 Add four circle primitives for the rounded corners*
1,1,$1+$1,$2,$3*
1,1,$1+$1,$4,$5*
1,1,$1+$1,$6,$7*
1,1,$1+$1,$8,$9*
0 Add four rect primitives between the rounded corners*
20,1,$1+$1,$2,$3,$4,$5,0*
20,1,$1+$1,$4,$5,$6,$7,0*
20,1,$1+$1,$6,$7,$8,$9,0*
20,1,$1+$1,$8,$9,$2,$3,0*%
G04 Aperture macros list end*
%TA.AperFunction,EtchedComponent*%
%ADD10C,0.100000*%
%TD*%
%TA.AperFunction,SMDPad,CuDef*%
%ADD11R,2.000000X2.000000*%
%TD*%
%TA.AperFunction,SMDPad,CuDef*%
%ADD12RoundRect,0.200000X-0.200000X-0.275000X0.200000X-0.275000X0.200000X0.275000X-0.200000X0.275000X0*%
%TD*%
%TA.AperFunction,SMDPad,CuDef*%
%ADD13RoundRect,0.135000X-0.135000X-0.185000X0.135000X-0.185000X0.135000X0.185000X-0.135000X0.185000X0*%
%TD*%
%TA.AperFunction,SMDPad,CuDef*%
%ADD14R,0.450000X1.300000*%
%TD*%
%TA.AperFunction,ComponentPad*%
%ADD15O,1.450000X2.000000*%
%TD*%
%TA.AperFunction,ComponentPad*%
%ADD16O,1.150000X1.800000*%
%TD*%
%TA.AperFunction,ComponentPad*%
%ADD17R,1.700000X1.700000*%
%TD*%
%TA.AperFunction,SMDPad,CuDef*%
%ADD18R,0.600000X0.450000*%
%TD*%
%TA.AperFunction,SMDPad,CuDef*%
%ADD19RoundRect,0.140000X-0.140000X-0.170000X0.140000X-0.170000X0.140000X0.170000X-0.140000X0.170000X0*%
%TD*%
%TA.AperFunction,ComponentPad*%
%ADD20C,1.700000*%
%TD*%
%TA.AperFunction,SMDPad,CuDef*%
%ADD21R,0.650000X0.400000*%
%TD*%
%TA.AperFunction,SMDPad,CuDef*%
%ADD22R,2.000000X0.600000*%
%TD*%
%TA.AperFunction,SMDPad,CuDef*%
%ADD23RoundRect,0.087500X-0.187500X-0.087500X0.187500X-0.087500X0.187500X0.087500X-0.187500X0.087500X0*%
%TD*%
%TA.AperFunction,SMDPad,CuDef*%
%ADD24RoundRect,0.087500X-0.087500X-0.187500X0.087500X-0.187500X0.087500X0.187500X-0.087500X0.187500X0*%
%TD*%
%TA.AperFunction,SMDPad,CuDef*%
%ADD25RoundRect,0.147500X-0.147500X-0.172500X0.147500X-0.172500X0.147500X0.172500X-0.147500X0.172500X0*%
%TD*%
%TA.AperFunction,SMDPad,CuDef*%
%ADD26RoundRect,0.250000X-1.412500X-0.550000X1.412500X-0.550000X1.412500X0.550000X-1.412500X0.550000X0*%
%TD*%
%TA.AperFunction,ComponentPad*%
%ADD27R,1.900000X1.900000*%
%TD*%
%TA.AperFunction,ComponentPad*%
%ADD28C,1.900000*%
%TD*%
%TA.AperFunction,SMDPad,CuDef*%
%ADD29RoundRect,0.218750X-0.218750X-0.256250X0.218750X-0.256250X0.218750X0.256250X-0.218750X0.256250X0*%
%TD*%
%TA.AperFunction,SMDPad,CuDef*%
%ADD30RoundRect,0.250000X-0.362500X-1.425000X0.362500X-1.425000X0.362500X1.425000X-0.362500X1.425000X0*%
%TD*%
%TA.AperFunction,ComponentPad*%
%ADD31O,1.700000X1.700000*%
%TD*%
%TA.AperFunction,SMDPad,CuDef*%
%ADD32RoundRect,0.237500X-0.300000X-0.237500X0.300000X-0.237500X0.300000X0.237500X-0.300000X0.237500X0*%
%TD*%
%TA.AperFunction,SMDPad,CuDef*%
%ADD33RoundRect,0.250000X-0.262500X-0.450000X0.262500X-0.450000X0.262500X0.450000X-0.262500X0.450000X0*%
%TD*%
%TA.AperFunction,SMDPad,CuDef*%
%ADD34RoundRect,0.250000X-0.325000X-1.100000X0.325000X-1.100000X0.325000X1.100000X-0.325000X1.100000X0*%
%TD*%
%TA.AperFunction,SMDPad,CuDef*%
%ADD35RoundRect,0.125000X-0.537500X-0.125000X0.537500X-0.125000X0.537500X0.125000X-0.537500X0.125000X0*%
%TD*%
%TA.AperFunction,ComponentPad*%
%ADD36R,2.200000X2.200000*%
%TD*%
%TA.AperFunction,ComponentPad*%
%ADD37C,2.200000*%
%TD*%
%TA.AperFunction,SMDPad,CuDef*%
%ADD38R,3.098800X5.003800*%
%TD*%
%TA.AperFunction,SMDPad,CuDef*%
%ADD39R,0.704800X0.299974*%
%TD*%
%TA.AperFunction,SMDPad,CuDef*%
%ADD40R,0.299974X0.704800*%
%TD*%
%TA.AperFunction,SMDPad,CuDef*%
%ADD41R,3.700000X1.600000*%
%TD*%
%TA.AperFunction,SMDPad,CuDef*%
%ADD42RoundRect,0.225000X-0.225000X-0.250000X0.225000X-0.250000X0.225000X0.250000X-0.225000X0.250000X0*%
%TD*%
%TA.AperFunction,SMDPad,CuDef*%
%ADD43R,1.400000X1.200000*%
%TD*%
%TA.AperFunction,SMDPad,CuDef*%
%ADD44RoundRect,0.160000X-0.197500X-0.160000X0.197500X-0.160000X0.197500X0.160000X-0.197500X0.160000X0*%
%TD*%
%TA.AperFunction,SMDPad,CuDef*%
%ADD45RoundRect,0.075000X-0.350000X-0.075000X0.350000X-0.075000X0.350000X0.075000X-0.350000X0.075000X0*%
%TD*%
%TA.AperFunction,SMDPad,CuDef*%
%ADD46RoundRect,0.075000X0.075000X-0.350000X0.075000X0.350000X-0.075000X0.350000X-0.075000X-0.350000X0*%
%TD*%
%TA.AperFunction,SMDPad,CuDef*%
%ADD47RoundRect,0.250000X-0.250000X-0.475000X0.250000X-0.475000X0.250000X0.475000X-0.250000X0.475000X0*%
%TD*%
%TA.AperFunction,SMDPad,CuDef*%
%ADD48RoundRect,0.075000X-0.725000X-0.075000X0.725000X-0.075000X0.725000X0.075000X-0.725000X0.075000X0*%
%TD*%
%TA.AperFunction,SMDPad,CuDef*%
%ADD49RoundRect,0.075000X-0.075000X-0.725000X0.075000X-0.725000X0.075000X0.725000X-0.075000X0.725000X0*%
%TD*%
%TA.AperFunction,SMDPad,CuDef*%
%ADD50R,0.807999X0.407200*%
%TD*%
%TA.AperFunction,SMDPad,CuDef*%
%ADD51R,1.752600X2.489200*%
%TD*%
G04 APERTURE END LIST*
%TO.C,REG2*%
G36*
X100913900Y-78553401D02*
G01*
X100544900Y-78553401D01*
X100544900Y-76053401D01*
X100913900Y-76053401D01*
X100913900Y-78553401D01*
G37*
D10*
X100913900Y-78553401D02*
X100544900Y-78553401D01*
X100544900Y-76053401D01*
X100913900Y-76053401D01*
X100913900Y-78553401D01*
G36*
X103413400Y-78709401D02*
G01*
X101213400Y-78709401D01*
X101213400Y-75759401D01*
X103413400Y-75759401D01*
X103413400Y-78709401D01*
G37*
X103413400Y-78709401D02*
X101213400Y-78709401D01*
X101213400Y-75759401D01*
X103413400Y-75759401D01*
X103413400Y-78709401D01*
G36*
X105163400Y-78434902D02*
G01*
X103763400Y-78434902D01*
X103763400Y-75759901D01*
X105163400Y-75759901D01*
X105163400Y-78434902D01*
G37*
X105163400Y-78434902D02*
X103763400Y-78434902D01*
X103763400Y-75759901D01*
X105163400Y-75759901D01*
X105163400Y-78434902D01*
G36*
X104587900Y-78709900D02*
G01*
X103762900Y-78709900D01*
X103762900Y-78434900D01*
X104587900Y-78434900D01*
X104587900Y-78709900D01*
G37*
X104587900Y-78709900D02*
X103762900Y-78709900D01*
X103762900Y-78434900D01*
X104587900Y-78434900D01*
X104587900Y-78709900D01*
%TD*%
D11*
%TO.P,TP4,1,1*%
%TO.N,GND*%
X168145000Y-120480000D03*
%TD*%
%TO.P,TP3,1,1*%
%TO.N,+3V3*%
X172195000Y-124530000D03*
%TD*%
%TO.P,TP2,1,1*%
%TO.N,+5V*%
X168145000Y-124530000D03*
%TD*%
%TO.P,TP1,1,1*%
%TO.N,REG_VIN*%
X172195000Y-120480000D03*
%TD*%
D12*
%TO.P,R31,1*%
%TO.N,Net-(R31-Pad1)*%
X148570000Y-124730000D03*
%TO.P,R31,2*%
%TO.N,Net-(R31-Pad2)*%
X150220000Y-124730000D03*
%TD*%
%TO.P,R30,1*%
%TO.N,Net-(R30-Pad1)*%
X152580000Y-127240000D03*
%TO.P,R30,2*%
%TO.N,Net-(R30-Pad2)*%
X154230000Y-127240000D03*
%TD*%
%TO.P,R29,1*%
%TO.N,Net-(R29-Pad1)*%
X144560000Y-122220000D03*
%TO.P,R29,2*%
%TO.N,Net-(R29-Pad2)*%
X146210000Y-122220000D03*
%TD*%
%TO.P,R20,1*%
%TO.N,Net-(R20-Pad1)*%
X152580000Y-124730000D03*
%TO.P,R20,2*%
%TO.N,Net-(R20-Pad2)*%
X154230000Y-124730000D03*
%TD*%
%TO.P,R19,1*%
%TO.N,Net-(R19-Pad1)*%
X148570000Y-122220000D03*
%TO.P,R19,2*%
%TO.N,Net-(R19-Pad2)*%
X150220000Y-122220000D03*
%TD*%
%TO.P,R18,1*%
%TO.N,Net-(R18-Pad1)*%
X144560000Y-127240000D03*
%TO.P,R18,2*%
%TO.N,Net-(R18-Pad2)*%
X146210000Y-127240000D03*
%TD*%
%TO.P,R17,1*%
%TO.N,Net-(R17-Pad1)*%
X156590000Y-119710000D03*
%TO.P,R17,2*%
%TO.N,Net-(R17-Pad2)*%
X158240000Y-119710000D03*
%TD*%
%TO.P,R16,1*%
%TO.N,Net-(R16-Pad1)*%
X148570000Y-119710000D03*
%TO.P,R16,2*%
%TO.N,Net-(R16-Pad2)*%
X150220000Y-119710000D03*
%TD*%
%TO.P,R15,1*%
%TO.N,Net-(R15-Pad1)*%
X156590000Y-122220000D03*
%TO.P,R15,2*%
%TO.N,Net-(R15-Pad2)*%
X158240000Y-122220000D03*
%TD*%
%TO.P,R14,1*%
%TO.N,Net-(R14-Pad1)*%
X148570000Y-127240000D03*
%TO.P,R14,2*%
%TO.N,Net-(R14-Pad2)*%
X150220000Y-127240000D03*
%TD*%
%TO.P,R13,1*%
%TO.N,Net-(R13-Pad1)*%
X144560000Y-124730000D03*
%TO.P,R13,2*%
%TO.N,Net-(R13-Pad2)*%
X146210000Y-124730000D03*
%TD*%
%TO.P,R12,1*%
%TO.N,Net-(R12-Pad1)*%
X152580000Y-122220000D03*
%TO.P,R12,2*%
%TO.N,Net-(R12-Pad2)*%
X154230000Y-122220000D03*
%TD*%
%TO.P,R11,1*%
%TO.N,Net-(R11-Pad1)*%
X152580000Y-119710000D03*
%TO.P,R11,2*%
%TO.N,Net-(R11-Pad2)*%
X154230000Y-119710000D03*
%TD*%
%TO.P,R10,1*%
%TO.N,Net-(R10-Pad1)*%
X144560000Y-119710000D03*
%TO.P,R10,2*%
%TO.N,Net-(R10-Pad2)*%
X146210000Y-119710000D03*
%TD*%
D13*
%TO.P,R9,1*%
%TO.N,+3V3*%
X160365000Y-119450000D03*
%TO.P,R9,2*%
%TO.N,Net-(R9-Pad2)*%
X161385000Y-119450000D03*
%TD*%
%TO.P,R4T5,1*%
%TO.N,Net-(R2T5-Pad1)*%
X165265000Y-102490000D03*
%TO.P,R4T5,2*%
%TO.N,THRM5*%
X166285000Y-102490000D03*
%TD*%
%TO.P,R4T4,1*%
%TO.N,Net-(R2T4-Pad1)*%
X156535000Y-106470000D03*
%TO.P,R4T4,2*%
%TO.N,THRM4*%
X157555000Y-106470000D03*
%TD*%
%TO.P,R4T3,1*%
%TO.N,Net-(R2T3-Pad1)*%
X151885000Y-111790000D03*
%TO.P,R4T3,2*%
%TO.N,THRM3*%
X152905000Y-111790000D03*
%TD*%
%TO.P,R4T2,1*%
%TO.N,Net-(R2T2-Pad1)*%
X153625000Y-104480000D03*
%TO.P,R4T2,2*%
%TO.N,THRM2*%
X154645000Y-104480000D03*
%TD*%
%TO.P,R4T1,1*%
%TO.N,Net-(R2T1-Pad1)*%
X156535000Y-104480000D03*
%TO.P,R4T1,2*%
%TO.N,THRM1*%
X157555000Y-104480000D03*
%TD*%
%TO.P,R3T5,1*%
%TO.N,+3V3*%
X154795000Y-112440000D03*
%TO.P,R3T5,2*%
%TO.N,Net-(R2T5-Pad1)*%
X155815000Y-112440000D03*
%TD*%
%TO.P,R3T4,1*%
%TO.N,+3V3*%
X153625000Y-108460000D03*
%TO.P,R3T4,2*%
%TO.N,Net-(R2T4-Pad1)*%
X154645000Y-108460000D03*
%TD*%
%TO.P,R3T3,1*%
%TO.N,+3V3*%
X148975000Y-111790000D03*
%TO.P,R3T3,2*%
%TO.N,Net-(R2T3-Pad1)*%
X149995000Y-111790000D03*
%TD*%
%TO.P,R3T2,1*%
%TO.N,+3V3*%
X162355000Y-104480000D03*
%TO.P,R3T2,2*%
%TO.N,Net-(R2T2-Pad1)*%
X163375000Y-104480000D03*
%TD*%
%TO.P,R3T1,1*%
%TO.N,+3V3*%
X156535000Y-102490000D03*
%TO.P,R3T1,2*%
%TO.N,Net-(R2T1-Pad1)*%
X157555000Y-102490000D03*
%TD*%
%TO.P,R2T5,1*%
%TO.N,Net-(R2T5-Pad1)*%
X148975000Y-113780000D03*
%TO.P,R2T5,2*%
%TO.N,GND*%
X149995000Y-113780000D03*
%TD*%
%TO.P,R2T4,1*%
%TO.N,Net-(R2T4-Pad1)*%
X151885000Y-113780000D03*
%TO.P,R2T4,2*%
%TO.N,GND*%
X152905000Y-113780000D03*
%TD*%
%TO.P,R2T3,1*%
%TO.N,Net-(R2T3-Pad1)*%
X156535000Y-108460000D03*
%TO.P,R2T3,2*%
%TO.N,GND*%
X157555000Y-108460000D03*
%TD*%
%TO.P,R2T2,1*%
%TO.N,Net-(R2T2-Pad1)*%
X162355000Y-102490000D03*
%TO.P,R2T2,2*%
%TO.N,GND*%
X163375000Y-102490000D03*
%TD*%
%TO.P,R2T1,1*%
%TO.N,Net-(R2T1-Pad1)*%
X153625000Y-106470000D03*
%TO.P,R2T1,2*%
%TO.N,GND*%
X154645000Y-106470000D03*
%TD*%
%TO.P,R1T5,1*%
%TO.N,T5*%
X159445000Y-104480000D03*
%TO.P,R1T5,2*%
%TO.N,GND*%
X160465000Y-104480000D03*
%TD*%
%TO.P,R1T4,1*%
%TO.N,T4*%
X159445000Y-102490000D03*
%TO.P,R1T4,2*%
%TO.N,GND*%
X160465000Y-102490000D03*
%TD*%
%TO.P,R1T3,1*%
%TO.N,T3*%
X154795000Y-110450000D03*
%TO.P,R1T3,2*%
%TO.N,GND*%
X155815000Y-110450000D03*
%TD*%
%TO.P,R1T2,1*%
%TO.N,T2*%
X153625000Y-102490000D03*
%TO.P,R1T2,2*%
%TO.N,GND*%
X154645000Y-102490000D03*
%TD*%
%TO.P,R1T1,1*%
%TO.N,T1*%
X159445000Y-106470000D03*
%TO.P,R1T1,2*%
%TO.N,GND*%
X160465000Y-106470000D03*
%TD*%
D14*
%TO.P,J8,1,VBUS*%
%TO.N,VBUS*%
X175365000Y-103460000D03*
%TO.P,J8,2,D-*%
%TO.N,USB_D-*%
X176015000Y-103460000D03*
%TO.P,J8,3,D+*%
%TO.N,USB_D+*%
X176665000Y-103460000D03*
%TO.P,J8,4,ID*%
%TO.N,unconnected-(J8-Pad4)*%
X177315000Y-103460000D03*
%TO.P,J8,5,GND*%
%TO.N,GND*%
X177965000Y-103460000D03*
D15*
%TO.P,J8,6,Shield*%
%TO.N,unconnected-(J8-Pad6)*%
X172940000Y-103510000D03*
X180390000Y-103510000D03*
D16*
X172790000Y-107310000D03*
X180540000Y-107310000D03*
%TD*%
D17*
%TO.P,J7,1,Pin_1*%
%TO.N,T5*%
X145705000Y-108470000D03*
%TD*%
%TO.P,J6,1,Pin_1*%
%TO.N,T4*%
X150355000Y-103820000D03*
%TD*%
%TO.P,J5,1,Pin_1*%
%TO.N,T3*%
X145705000Y-103820000D03*
%TD*%
%TO.P,J4,1,Pin_1*%
%TO.N,T2*%
X145705000Y-113120000D03*
%TD*%
%TO.P,J3,1,Pin_1*%
%TO.N,T1*%
X150355000Y-108470000D03*
%TD*%
D18*
%TO.P,D5,1,K*%
%TO.N,+5V*%
X183215000Y-105920000D03*
%TO.P,D5,2,A*%
%TO.N,5VBAT*%
X185315000Y-105920000D03*
%TD*%
%TO.P,D4,1,K*%
%TO.N,+5V*%
X183215000Y-102970000D03*
%TO.P,D4,2,A*%
%TO.N,VBUS*%
X185315000Y-102970000D03*
%TD*%
D19*
%TO.P,C35,1*%
%TO.N,Net-(C35-Pad1)*%
X162365000Y-106460000D03*
%TO.P,C35,2*%
%TO.N,GND*%
X163325000Y-106460000D03*
%TD*%
%TO.P,C16,1*%
%TO.N,+3V3*%
X157715000Y-110440000D03*
%TO.P,C16,2*%
%TO.N,GND*%
X158675000Y-110440000D03*
%TD*%
%TO.P,C15,1*%
%TO.N,+3V3*%
X159455000Y-108450000D03*
%TO.P,C15,2*%
%TO.N,GND*%
X160415000Y-108450000D03*
%TD*%
%TO.P,C10,1*%
%TO.N,GND*%
X156365000Y-124460000D03*
%TO.P,C10,2*%
%TO.N,+3V3*%
X157325000Y-124460000D03*
%TD*%
D17*
%TO.P,U10,1,DIG1_C*%
%TO.N,Net-(R12-Pad2)*%
X85035000Y-111435000D03*
D20*
%TO.P,U10,2,DIG1_E*%
%TO.N,Net-(R14-Pad2)*%
X85035000Y-113975000D03*
%TO.P,U10,3,DIG1_D*%
%TO.N,Net-(R13-Pad2)*%
X85035000Y-116515000D03*
%TO.P,U10,4,DIG1_CA*%
%TO.N,+3V3*%
X85035000Y-119055000D03*
%TO.P,U10,5,DIG2_CA*%
X85035000Y-121595000D03*
%TO.P,U10,6,DIG2_D*%
%TO.N,Net-(R20-Pad1)*%
X85035000Y-124135000D03*
%TO.P,U10,7,DIG2_E*%
%TO.N,Net-(R29-Pad1)*%
X85035000Y-126675000D03*
%TO.P,U10,8,DIG2_C*%
%TO.N,Net-(R19-Pad1)*%
X85035000Y-129215000D03*
%TO.P,U10,9,DIG2_G*%
%TO.N,Net-(R31-Pad1)*%
X97735000Y-129215000D03*
%TO.P,U10,10,DIG2_A*%
%TO.N,Net-(R17-Pad1)*%
X97735000Y-126675000D03*
%TO.P,U10,11,DIG2_F*%
%TO.N,Net-(R30-Pad1)*%
X97735000Y-124135000D03*
%TO.P,U10,12,DIG2_B*%
%TO.N,Net-(R18-Pad1)*%
X97735000Y-121595000D03*
%TO.P,U10,13,DIG1_B*%
%TO.N,Net-(R11-Pad2)*%
X97735000Y-119055000D03*
%TO.P,U10,14,DIG1_F*%
%TO.N,Net-(R15-Pad2)*%
X97735000Y-116515000D03*
%TO.P,U10,15,DIG1_A*%
%TO.N,Net-(R10-Pad2)*%
X97735000Y-113975000D03*
%TO.P,U10,16,DIG1_G*%
%TO.N,Net-(R16-Pad2)*%
X97735000Y-111435000D03*
%TD*%
D21*
%TO.P,U9,1,+*%
%TO.N,T5*%
X92450000Y-138640000D03*
%TO.P,U9,2,V-*%
%TO.N,GND*%
X92450000Y-139290000D03*
%TO.P,U9,3,-*%
%TO.N,Net-(R2T5-Pad1)*%
X92450000Y-139940000D03*
%TO.P,U9,4*%
%TO.N,THRM5*%
X94350000Y-139940000D03*
%TO.P,U9,5,V+*%
%TO.N,+3V3*%
X94350000Y-138640000D03*
%TD*%
%TO.P,U8,1,+*%
%TO.N,T4*%
X88200000Y-138640000D03*
%TO.P,U8,2,V-*%
%TO.N,GND*%
X88200000Y-139290000D03*
%TO.P,U8,3,-*%
%TO.N,Net-(R2T4-Pad1)*%
X88200000Y-139940000D03*
%TO.P,U8,4*%
%TO.N,THRM4*%
X90100000Y-139940000D03*
%TO.P,U8,5,V+*%
%TO.N,+3V3*%
X90100000Y-138640000D03*
%TD*%
%TO.P,U7,1,+*%
%TO.N,T3*%
X83650000Y-143190000D03*
%TO.P,U7,2,V-*%
%TO.N,GND*%
X83650000Y-143840000D03*
%TO.P,U7,3,-*%
%TO.N,Net-(R2T3-Pad1)*%
X83650000Y-144490000D03*
%TO.P,U7,4*%
%TO.N,THRM3*%
X85550000Y-144490000D03*
%TO.P,U7,5,V+*%
%TO.N,+3V3*%
X85550000Y-143190000D03*
%TD*%
%TO.P,U6,1,+*%
%TO.N,T2*%
X87900000Y-143190000D03*
%TO.P,U6,2,V-*%
%TO.N,GND*%
X87900000Y-143840000D03*
%TO.P,U6,3,-*%
%TO.N,Net-(R2T2-Pad1)*%
X87900000Y-144490000D03*
%TO.P,U6,4*%
%TO.N,THRM2*%
X89800000Y-144490000D03*
%TO.P,U6,5,V+*%
%TO.N,+3V3*%
X89800000Y-143190000D03*
%TD*%
%TO.P,U5,1,+*%
%TO.N,T1*%
X92150000Y-142490000D03*
%TO.P,U5,2,V-*%
%TO.N,GND*%
X92150000Y-143140000D03*
%TO.P,U5,3,-*%
%TO.N,Net-(R2T1-Pad1)*%
X92150000Y-143790000D03*
%TO.P,U5,4*%
%TO.N,THRM1*%
X94050000Y-143790000D03*
%TO.P,U5,5,V+*%
%TO.N,+3V3*%
X94050000Y-142490000D03*
%TD*%
D22*
%TO.P,U4,1,GPB0*%
%TO.N,Net-(R10-Pad1)*%
X101930000Y-110795000D03*
%TO.P,U4,2,GPB1*%
%TO.N,Net-(R11-Pad1)*%
X101930000Y-112065000D03*
%TO.P,U4,3,GPB2*%
%TO.N,Net-(R12-Pad1)*%
X101930000Y-113335000D03*
%TO.P,U4,4,GPB3*%
%TO.N,Net-(R13-Pad1)*%
X101930000Y-114605000D03*
%TO.P,U4,5,GPB4*%
%TO.N,Net-(R14-Pad1)*%
X101930000Y-115875000D03*
%TO.P,U4,6,GPB5*%
%TO.N,Net-(R15-Pad1)*%
X101930000Y-117145000D03*
%TO.P,U4,7,GPB6*%
%TO.N,Net-(R16-Pad1)*%
X101930000Y-118415000D03*
%TO.P,U4,8,GPB7*%
%TO.N,unconnected-(U4-Pad8)*%
X101930000Y-119685000D03*
%TO.P,U4,9,VDD*%
%TO.N,+3V3*%
X101930000Y-120955000D03*
%TO.P,U4,10,VSS*%
%TO.N,GND*%
X101930000Y-122225000D03*
%TO.P,U4,11,NC*%
%TO.N,unconnected-(U4-Pad11)*%
X101930000Y-123495000D03*
%TO.P,U4,12,SCK*%
%TO.N,I2C1_SCL*%
X101930000Y-124765000D03*
%TO.P,U4,13,SDA*%
%TO.N,I2C1_SDA*%
X101930000Y-126035000D03*
%TO.P,U4,14,NC*%
%TO.N,unconnected-(U4-Pad14)*%
X101930000Y-127305000D03*
%TO.P,U4,15,A0*%
%TO.N,GND*%
X111330000Y-127305000D03*
%TO.P,U4,16,A1*%
X111330000Y-126035000D03*
%TO.P,U4,17,A2*%
X111330000Y-124765000D03*
%TO.P,U4,18,~{RESET}*%
%TO.N,Net-(R9-Pad2)*%
X111330000Y-123495000D03*
%TO.P,U4,19,INTB*%
%TO.N,unconnected-(U4-Pad19)*%
X111330000Y-122225000D03*
%TO.P,U4,20,INTA*%
%TO.N,unconnected-(U4-Pad20)*%
X111330000Y-120955000D03*
%TO.P,U4,21,GPA0*%
%TO.N,Net-(R17-Pad2)*%
X111330000Y-119685000D03*
%TO.P,U4,22,GPA1*%
%TO.N,Net-(R18-Pad2)*%
X111330000Y-118415000D03*
%TO.P,U4,23,GPA2*%
%TO.N,Net-(R19-Pad2)*%
X111330000Y-117145000D03*
%TO.P,U4,24,GPA3*%
%TO.N,Net-(R20-Pad2)*%
X111330000Y-115875000D03*
%TO.P,U4,25,GPA4*%
%TO.N,Net-(R29-Pad2)*%
X111330000Y-114605000D03*
%TO.P,U4,26,GPA5*%
%TO.N,Net-(R30-Pad2)*%
X111330000Y-113335000D03*
%TO.P,U4,27,GPA6*%
%TO.N,Net-(R31-Pad2)*%
X111330000Y-112065000D03*
%TO.P,U4,28,GPA7*%
%TO.N,unconnected-(U4-Pad28)*%
X111330000Y-110795000D03*
%TD*%
D23*
%TO.P,U3,1,VDDIO*%
%TO.N,+3V3*%
X83525000Y-138640000D03*
%TO.P,U3,2,SCL/SPC*%
%TO.N,SPI3_SCK*%
X83525000Y-139140000D03*
%TO.P,U3,3,SDA/SDI*%
%TO.N,SPI3_MOSI*%
X83525000Y-139640000D03*
%TO.P,U3,4,SAO/SD0*%
%TO.N,SPI3_MISO*%
X83525000Y-140140000D03*
%TO.P,U3,5,~{CS}*%
%TO.N,GND*%
X83525000Y-140640000D03*
D24*
%TO.P,U3,6,INT*%
%TO.N,INT0*%
X84250000Y-140865000D03*
%TO.P,U3,7,RESV*%
%TO.N,unconnected-(U3-Pad7)*%
X84750000Y-140865000D03*
%TO.P,U3,8,FSYNC*%
%TO.N,GND*%
X85250000Y-140865000D03*
D23*
%TO.P,U3,9,GND*%
X85975000Y-140640000D03*
%TO.P,U3,10,GND*%
X85975000Y-140140000D03*
%TO.P,U3,11,GND*%
X85975000Y-139640000D03*
%TO.P,U3,12,GND*%
X85975000Y-139140000D03*
%TO.P,U3,13,GND*%
X85975000Y-138640000D03*
D24*
%TO.P,U3,14,REGOUT*%
%TO.N,Net-(C35-Pad1)*%
X85250000Y-138415000D03*
%TO.P,U3,15,GND*%
%TO.N,GND*%
X84750000Y-138415000D03*
%TO.P,U3,16,VDD*%
%TO.N,+3V3*%
X84250000Y-138415000D03*
%TD*%
D13*
%TO.P,R43,1*%
%TO.N,Net-(PWR1-Pad1)*%
X116960000Y-114290000D03*
%TO.P,R43,2*%
%TO.N,GND*%
X117980000Y-114290000D03*
%TD*%
%TO.P,R42,1*%
%TO.N,LED8*%
X117190000Y-112300000D03*
%TO.P,R42,2*%
%TO.N,Net-(NAV1-Pad2)*%
X118210000Y-112300000D03*
%TD*%
%TO.P,R41,1*%
%TO.N,LED7*%
X120100000Y-112300000D03*
%TO.P,R41,2*%
%TO.N,Net-(GOAL1-Pad2)*%
X121120000Y-112300000D03*
%TD*%
%TO.P,R40,1*%
%TO.N,LED6*%
X119870000Y-114290000D03*
%TO.P,R40,2*%
%TO.N,Net-(R40-Pad2)*%
X120890000Y-114290000D03*
%TD*%
%TO.P,R39,1*%
%TO.N,LED5*%
X120330000Y-110310000D03*
%TO.P,R39,2*%
%TO.N,Net-(R39-Pad2)*%
X121350000Y-110310000D03*
%TD*%
%TO.P,R38,1*%
%TO.N,LED4*%
X114050000Y-118270000D03*
%TO.P,R38,2*%
%TO.N,Net-(MT4-Pad2)*%
X115070000Y-118270000D03*
%TD*%
%TO.P,R37,1*%
%TO.N,TIM1_CH3*%
X123240000Y-110310000D03*
%TO.P,R37,2*%
%TO.N,Net-(D2-Pad1)*%
X124260000Y-110310000D03*
%TD*%
%TO.P,R36,1*%
%TO.N,TIM1_CH2*%
X114050000Y-114290000D03*
%TO.P,R36,2*%
%TO.N,Net-(D2-Pad2)*%
X115070000Y-114290000D03*
%TD*%
%TO.P,R35,1*%
%TO.N,TIM1_CH1*%
X114050000Y-116280000D03*
%TO.P,R35,2*%
%TO.N,Net-(D2-Pad3)*%
X115070000Y-116280000D03*
%TD*%
%TO.P,R34,1*%
%TO.N,LED3*%
X116960000Y-116280000D03*
%TO.P,R34,2*%
%TO.N,Net-(R34-Pad2)*%
X117980000Y-116280000D03*
%TD*%
%TO.P,R33,1*%
%TO.N,LED2*%
X95980000Y-132190000D03*
%TO.P,R33,2*%
%TO.N,Net-(R33-Pad2)*%
X97000000Y-132190000D03*
%TD*%
%TO.P,R32,1*%
%TO.N,LED1*%
X114050000Y-120260000D03*
%TO.P,R32,2*%
%TO.N,Net-(R32-Pad2)*%
X115070000Y-120260000D03*
%TD*%
D25*
%TO.P,PWR1,1,K*%
%TO.N,Net-(PWR1-Pad1)*%
X83680000Y-132190000D03*
%TO.P,PWR1,2,A*%
%TO.N,+3V3*%
X84650000Y-132190000D03*
%TD*%
%TO.P,NAV1,1,K*%
%TO.N,GND*%
X89960000Y-132190000D03*
%TO.P,NAV1,2,A*%
%TO.N,Net-(NAV1-Pad2)*%
X90930000Y-132190000D03*
%TD*%
%TO.P,MT4,1,K*%
%TO.N,GND*%
X101360000Y-129780000D03*
%TO.P,MT4,2,A*%
%TO.N,Net-(MT4-Pad2)*%
X102330000Y-129780000D03*
%TD*%
%TO.P,MT3,1,K*%
%TO.N,GND*%
X104500000Y-129780000D03*
%TO.P,MT3,2,A*%
%TO.N,Net-(R34-Pad2)*%
X105470000Y-129780000D03*
%TD*%
%TO.P,MT2,1,K*%
%TO.N,GND*%
X114310000Y-110310000D03*
%TO.P,MT2,2,A*%
%TO.N,Net-(R33-Pad2)*%
X115280000Y-110310000D03*
%TD*%
%TO.P,MT1,1,K*%
%TO.N,GND*%
X101360000Y-131770000D03*
%TO.P,MT1,2,A*%
%TO.N,Net-(R32-Pad2)*%
X102330000Y-131770000D03*
%TD*%
%TO.P,GOAL1,1,K*%
%TO.N,GND*%
X93100000Y-132190000D03*
%TO.P,GOAL1,2,A*%
%TO.N,Net-(GOAL1-Pad2)*%
X94070000Y-132190000D03*
%TD*%
%TO.P,FATAL1,1,K*%
%TO.N,GND*%
X86820000Y-132190000D03*
%TO.P,FATAL1,2,A*%
%TO.N,Net-(R40-Pad2)*%
X87790000Y-132190000D03*
%TD*%
%TO.P,ESCT1,1,K*%
%TO.N,GND*%
X117450000Y-110310000D03*
%TO.P,ESCT1,2,A*%
%TO.N,Net-(R39-Pad2)*%
X118420000Y-110310000D03*
%TD*%
%TO.P,D2,1,BA*%
%TO.N,Net-(D2-Pad1)*%
X114310000Y-112300000D03*
%TO.P,D2,2,GA*%
%TO.N,Net-(D2-Pad2)*%
X115280000Y-112300000D03*
%TD*%
D19*
%TO.P,C9,1*%
%TO.N,+3V3*%
X130850000Y-110300000D03*
%TO.P,C9,2*%
%TO.N,GND*%
X131810000Y-110300000D03*
%TD*%
D26*
%TO.P,C33,1*%
%TO.N,5VBAT*%
X126062500Y-54300000D03*
%TO.P,C33,2*%
%TO.N,GND*%
X131137500Y-54300000D03*
%TD*%
D19*
%TO.P,C7,1*%
%TO.N,+3V3*%
X162605000Y-70230000D03*
%TO.P,C7,2*%
%TO.N,GND*%
X163565000Y-70230000D03*
%TD*%
D27*
%TO.P,S2,1*%
%TO.N,GND*%
X126705000Y-90510000D03*
D28*
%TO.P,S2,2*%
%TO.N,Net-(R6-Pad2)*%
X129205000Y-90510000D03*
%TO.P,S2,3*%
%TO.N,+3V3*%
X131705000Y-90510000D03*
%TD*%
D13*
%TO.P,R2,1*%
%TO.N,+3V3*%
X158475000Y-74220000D03*
%TO.P,R2,2*%
%TO.N,I2C1_SDA*%
X159495000Y-74220000D03*
%TD*%
D29*
%TO.P,5VPWR1,1,K*%
%TO.N,Net-(5VPWR1-Pad1)*%
X117842500Y-69660000D03*
%TO.P,5VPWR1,2,A*%
%TO.N,5VBAT*%
X119417500Y-69660000D03*
%TD*%
D30*
%TO.P,R22,1*%
%TO.N,REG_VIN*%
X115177500Y-65920000D03*
%TO.P,R22,2*%
%TO.N,VBAT*%
X121102500Y-65920000D03*
%TD*%
D13*
%TO.P,R16,1*%
%TO.N,LED5*%
X141945000Y-86450000D03*
%TO.P,R16,2*%
%TO.N,Net-(R16-Pad2)*%
X142965000Y-86450000D03*
%TD*%
D17*
%TO.P,RPI_UART1,1,Pin_1*%
%TO.N,+5V*%
X53390000Y-129790000D03*
D31*
%TO.P,RPI_UART1,2,Pin_2*%
%TO.N,GND*%
X53390000Y-132330000D03*
%TO.P,RPI_UART1,3,Pin_3*%
%TO.N,Net-(J2-Pad8)*%
X53390000Y-134870000D03*
%TO.P,RPI_UART1,4,Pin_4*%
%TO.N,Net-(J2-Pad10)*%
X53390000Y-137410000D03*
%TD*%
D19*
%TO.P,C6,1*%
%TO.N,+3V3*%
X147875000Y-88390000D03*
%TO.P,C6,2*%
%TO.N,GND*%
X148835000Y-88390000D03*
%TD*%
D32*
%TO.P,C1,1*%
%TO.N,+3V3*%
X152562500Y-70500000D03*
%TO.P,C1,2*%
%TO.N,GND*%
X154287500Y-70500000D03*
%TD*%
D33*
%TO.P,R21,1*%
%TO.N,REG_VIN*%
X116677500Y-74090000D03*
%TO.P,R21,2*%
%TO.N,REG_EN*%
X118502500Y-74090000D03*
%TD*%
D34*
%TO.P,C26,1*%
%TO.N,REG_VIN*%
X123835000Y-65600000D03*
%TO.P,C26,2*%
%TO.N,GND*%
X126785000Y-65600000D03*
%TD*%
D35*
%TO.P,U2,1,IN+*%
%TO.N,VBAT*%
X135012500Y-51475000D03*
%TO.P,U2,2,IN-*%
%TO.N,REG_VIN*%
X135012500Y-52125000D03*
%TO.P,U2,3,GND*%
%TO.N,GND*%
X135012500Y-52775000D03*
%TO.P,U2,4,VS*%
%TO.N,+3V3*%
X135012500Y-53425000D03*
%TO.P,U2,5,SCL*%
%TO.N,I2C3_SCL*%
X137287500Y-53425000D03*
%TO.P,U2,6,SDA*%
%TO.N,I2C3_SDA*%
X137287500Y-52775000D03*
%TO.P,U2,7,A0*%
%TO.N,GND*%
X137287500Y-52125000D03*
%TO.P,U2,8,A1*%
X137287500Y-51475000D03*
%TD*%
D13*
%TO.P,R15,1*%
%TO.N,LED4*%
X144855000Y-84460000D03*
%TO.P,R15,2*%
%TO.N,Net-(FATAL1-Pad2)*%
X145875000Y-84460000D03*
%TD*%
D19*
%TO.P,C19,1*%
%TO.N,NRST*%
X145005000Y-90400000D03*
%TO.P,C19,2*%
%TO.N,GND*%
X145965000Y-90400000D03*
%TD*%
D33*
%TO.P,R25,1*%
%TO.N,Net-(C31-Pad2)*%
X107197500Y-84830000D03*
%TO.P,R25,2*%
%TO.N,REG_FB*%
X109022500Y-84830000D03*
%TD*%
D13*
%TO.P,R1,1*%
%TO.N,+3V3*%
X144855000Y-86450000D03*
%TO.P,R1,2*%
%TO.N,I2C1_SCL*%
X145875000Y-86450000D03*
%TD*%
D36*
%TO.P,S1,1*%
%TO.N,NRST*%
X142875000Y-71120000D03*
D37*
%TO.P,S1,2*%
X149375000Y-71120000D03*
%TO.P,S1,3*%
%TO.N,GND*%
X142875000Y-75620000D03*
%TO.P,S1,4*%
X149375000Y-75620000D03*
%TD*%
D38*
%TO.P,L1,1,1*%
%TO.N,REG_CS*%
X92974401Y-53314600D03*
%TO.P,L1,2,2*%
%TO.N,5VBAT*%
X103875599Y-53314600D03*
%TD*%
D19*
%TO.P,C10,1*%
%TO.N,+3V3*%
X142775000Y-92680000D03*
%TO.P,C10,2*%
%TO.N,GND*%
X143735000Y-92680000D03*
%TD*%
D13*
%TO.P,R10,1*%
%TO.N,LED2*%
X158475000Y-72230000D03*
%TO.P,R10,2*%
%TO.N,Net-(D1-Pad2)*%
X159495000Y-72230000D03*
%TD*%
D19*
%TO.P,C21,1*%
%TO.N,VREF+*%
X147775000Y-84450000D03*
%TO.P,C21,2*%
%TO.N,GND*%
X148735000Y-84450000D03*
%TD*%
%TO.P,C8,1*%
%TO.N,+3V3*%
X150645000Y-84640000D03*
%TO.P,C8,2*%
%TO.N,GND*%
X151605000Y-84640000D03*
%TD*%
%TO.P,C20,1*%
%TO.N,VREF+*%
X156995000Y-80680000D03*
%TO.P,C20,2*%
%TO.N,GND*%
X157955000Y-80680000D03*
%TD*%
D25*
%TO.P,D1,1,BA*%
%TO.N,Net-(D1-Pad1)*%
X152455000Y-74740000D03*
%TO.P,D1,2,GA*%
%TO.N,Net-(D1-Pad2)*%
X153425000Y-74740000D03*
%TD*%
D13*
%TO.P,R11,1*%
%TO.N,LED3*%
X148445000Y-78490000D03*
%TO.P,R11,2*%
%TO.N,Net-(D1-Pad1)*%
X149465000Y-78490000D03*
%TD*%
D39*
%TO.P,REG2,1,PVDD*%
%TO.N,REG_VDD*%
X100261000Y-73728402D03*
%TO.P,REG2,2,PGND*%
%TO.N,GND*%
X100261000Y-74378400D03*
%TO.P,REG2,3,NC*%
%TO.N,unconnected-(REG2-Pad3)*%
X100261000Y-75028402D03*
%TO.P,REG2,4,SW*%
%TO.N,REG_CS*%
X100261000Y-75678400D03*
%TO.P,REG2,5,PGND*%
%TO.N,GND*%
X100261000Y-76328402D03*
%TO.P,REG2,6,PGND*%
X100261000Y-76978400D03*
%TO.P,REG2,7,PGND*%
X100261000Y-77628402D03*
%TO.P,REG2,8,PGND*%
X100261000Y-78278400D03*
D40*
%TO.P,REG2,9,SW*%
%TO.N,REG_CS*%
X101188399Y-79055800D03*
%TO.P,REG2,10,SW*%
X101838401Y-79055800D03*
%TO.P,REG2,11,SW*%
X102488399Y-79055800D03*
%TO.P,REG2,12,SW*%
X103138401Y-79055800D03*
%TO.P,REG2,13,PVIN*%
%TO.N,REG_VIN*%
X103788399Y-79055800D03*
%TO.P,REG2,14,PVIN*%
X104438401Y-79055800D03*
D39*
%TO.P,REG2,15,PVIN*%
X105365800Y-78278400D03*
%TO.P,REG2,16,PVIN*%
X105365800Y-77628402D03*
%TO.P,REG2,17,PVIN*%
X105365800Y-76978400D03*
%TO.P,REG2,18,PVIN*%
X105365800Y-76328402D03*
%TO.P,REG2,19,PVIN*%
X105365800Y-75678400D03*
%TO.P,REG2,20,BST*%
%TO.N,REG_BST*%
X105365800Y-75028402D03*
%TO.P,REG2,21,PGND*%
%TO.N,GND*%
X105365800Y-74378400D03*
%TO.P,REG2,22,CS*%
%TO.N,REG_CS*%
X105365800Y-73728402D03*
D40*
%TO.P,REG2,23,SGND*%
%TO.N,GND*%
X104438401Y-72951002D03*
%TO.P,REG2,24,FB*%
%TO.N,REG_FB*%
X103788399Y-72951002D03*
%TO.P,REG2,25,PG*%
%TO.N,REG_PG*%
X103138401Y-72951002D03*
%TO.P,REG2,26,EN*%
%TO.N,REG_EN*%
X102488399Y-72951002D03*
%TO.P,REG2,27,VIN*%
%TO.N,REG_VIN*%
X101838401Y-72951002D03*
%TO.P,REG2,28,VDD*%
%TO.N,REG_VDD*%
X101188399Y-72951002D03*
D41*
%TO.P,REG2,29,EPAD*%
%TO.N,unconnected-(REG2-Pad29)*%
X102813400Y-74453401D03*
%TD*%
D42*
%TO.P,C28,1*%
%TO.N,+3V3*%
X121865000Y-72130000D03*
%TO.P,C28,2*%
%TO.N,GND*%
X123415000Y-72130000D03*
%TD*%
D43*
%TO.P,25MHz1,1,1*%
%TO.N,HSE_IN*%
X137185000Y-90810000D03*
%TO.P,25MHz1,2,2*%
%TO.N,GND*%
X139385000Y-90810000D03*
%TO.P,25MHz1,3,3*%
%TO.N,Net-(25MHz1-Pad3)*%
X139385000Y-89110000D03*
%TO.P,25MHz1,4,4*%
%TO.N,GND*%
X137185000Y-89110000D03*
%TD*%
D18*
%TO.P,D3,1,K*%
%TO.N,REG_BST*%
X134650000Y-56150000D03*
%TO.P,D3,2,A*%
%TO.N,REG_VDD*%
X136750000Y-56150000D03*
%TD*%
D13*
%TO.P,R18,1*%
%TO.N,LED7*%
X145085000Y-82470000D03*
%TO.P,R18,2*%
%TO.N,Net-(GOAL1-Pad2)*%
X146105000Y-82470000D03*
%TD*%
D25*
%TO.P,FATAL1,1,K*%
%TO.N,GND*%
X130105000Y-94280000D03*
%TO.P,FATAL1,2,A*%
%TO.N,Net-(FATAL1-Pad2)*%
X131075000Y-94280000D03*
%TD*%
D44*
%TO.P,R3,1*%
%TO.N,+3V3*%
X123537500Y-94280000D03*
%TO.P,R3,2*%
%TO.N,I2C3_SCL*%
X124732500Y-94280000D03*
%TD*%
%TO.P,R4,1*%
%TO.N,+3V3*%
X136687500Y-93180000D03*
%TO.P,R4,2*%
%TO.N,I2C3_SDA*%
X137882500Y-93180000D03*
%TD*%
D13*
%TO.P,R13,1*%
%TO.N,TIM1_CH2*%
X132985000Y-94280000D03*
%TO.P,R13,2*%
%TO.N,Net-(D2-Pad2)*%
X134005000Y-94280000D03*
%TD*%
D25*
%TO.P,WD1,1,K*%
%TO.N,GND*%
X152455000Y-72750000D03*
%TO.P,WD1,2,A*%
%TO.N,Net-(R16-Pad2)*%
X153425000Y-72750000D03*
%TD*%
D19*
%TO.P,C15,1*%
%TO.N,GND*%
X52020000Y-140700000D03*
%TO.P,C15,2*%
%TO.N,+3V3*%
X52980000Y-140700000D03*
%TD*%
D44*
%TO.P,R7,1*%
%TO.N,HSE_OUT*%
X142027500Y-78490000D03*
%TO.P,R7,2*%
%TO.N,Net-(25MHz1-Pad3)*%
X143222500Y-78490000D03*
%TD*%
D19*
%TO.P,C12,1*%
%TO.N,+3V3*%
X147775000Y-86420000D03*
%TO.P,C12,2*%
%TO.N,GND*%
X148735000Y-86420000D03*
%TD*%
D44*
%TO.P,R5,1*%
%TO.N,VDDA*%
X145277500Y-78490000D03*
%TO.P,R5,2*%
%TO.N,VREF+*%
X146472500Y-78490000D03*
%TD*%
D12*
%TO.P,R28,1*%
%TO.N,GND*%
X116525000Y-76880000D03*
%TO.P,R28,2*%
%TO.N,Net-(5VPWR1-Pad1)*%
X118175000Y-76880000D03*
%TD*%
D34*
%TO.P,C34,1*%
%TO.N,5VBAT*%
X112285000Y-70490000D03*
%TO.P,C34,2*%
%TO.N,GND*%
X115235000Y-70490000D03*
%TD*%
D45*
%TO.P,U3,1,CLKIN*%
%TO.N,unconnected-(U3-Pad1)*%
X59440000Y-45990000D03*
%TO.P,U3,2*%
%TO.N,N/C*%
X59440000Y-46490000D03*
%TO.P,U3,3*%
X59440000Y-46990000D03*
%TO.P,U3,4*%
X59440000Y-47490000D03*
%TO.P,U3,5*%
X59440000Y-47990000D03*
%TO.P,U3,6,AUX_SDA*%
%TO.N,unconnected-(U3-Pad6)*%
X59440000Y-48490000D03*
D46*
%TO.P,U3,7,AUX_SCL*%
%TO.N,unconnected-(U3-Pad7)*%
X60140000Y-49190000D03*
%TO.P,U3,8,~{CS}*%
%TO.N,GND*%
X60640000Y-49190000D03*
%TO.P,U3,9,AD0/MISO*%
%TO.N,SPI3_MISO*%
X61140000Y-49190000D03*
%TO.P,U3,10,REGOUT*%
%TO.N,Net-(C16-Pad1)*%
X61640000Y-49190000D03*
%TO.P,U3,11,FSYNC*%
%TO.N,unconnected-(U3-Pad11)*%
X62140000Y-49190000D03*
%TO.P,U3,12,INT*%
%TO.N,INT0*%
X62640000Y-49190000D03*
D45*
%TO.P,U3,13,VDD*%
%TO.N,+3V3*%
X63340000Y-48490000D03*
%TO.P,U3,14*%
%TO.N,N/C*%
X63340000Y-47990000D03*
%TO.P,U3,15*%
X63340000Y-47490000D03*
%TO.P,U3,16*%
X63340000Y-46990000D03*
%TO.P,U3,17*%
X63340000Y-46490000D03*
%TO.P,U3,18,GND*%
%TO.N,GND*%
X63340000Y-45990000D03*
D46*
%TO.P,U3,19*%
%TO.N,N/C*%
X62640000Y-45290000D03*
%TO.P,U3,20,CPOUT*%
%TO.N,Net-(C36-Pad1)*%
X62140000Y-45290000D03*
%TO.P,U3,21*%
%TO.N,N/C*%
X61640000Y-45290000D03*
%TO.P,U3,22*%
X61140000Y-45290000D03*
%TO.P,U3,23,SCL/SCLK*%
%TO.N,SPI3_SCK*%
X60640000Y-45290000D03*
%TO.P,U3,24,SDA/MOSI*%
%TO.N,SPI3_MOSI*%
X60140000Y-45290000D03*
%TD*%
D13*
%TO.P,R14,1*%
%TO.N,TIM1_CH3*%
X139855000Y-93180000D03*
%TO.P,R14,2*%
%TO.N,Net-(D2-Pad1)*%
X140875000Y-93180000D03*
%TD*%
D29*
%TO.P,LED1,1,K*%
%TO.N,Net-(LED1-Pad1)*%
X97212500Y-100000000D03*
%TO.P,LED1,2,A*%
%TO.N,+3V3*%
X98787500Y-100000000D03*
%TD*%
D47*
%TO.P,C32,1*%
%TO.N,5VBAT*%
X112210000Y-74120000D03*
%TO.P,C32,2*%
%TO.N,GND*%
X114110000Y-74120000D03*
%TD*%
D13*
%TO.P,R8,1*%
%TO.N,Net-(R6-Pad2)*%
X159685000Y-70240000D03*
%TO.P,R8,2*%
%TO.N,Net-(BOOT1-Pad2)*%
X160705000Y-70240000D03*
%TD*%
D48*
%TO.P,U1,1,PE2*%
%TO.N,LED3*%
X71065000Y-60040000D03*
%TO.P,U1,2,PE3*%
%TO.N,LED4*%
X71065000Y-60540000D03*
%TO.P,U1,3,PE4*%
%TO.N,LED5*%
X71065000Y-61040000D03*
%TO.P,U1,4,PE5*%
%TO.N,LED6*%
X71065000Y-61540000D03*
%TO.P,U1,5,PE6*%
%TO.N,LED7*%
X71065000Y-62040000D03*
%TO.P,U1,6,VBAT*%
%TO.N,+3V3*%
X71065000Y-62540000D03*
%TO.P,U1,7,PC13*%
%TO.N,LED8*%
X71065000Y-63040000D03*
%TO.P,U1,8,PC14*%
%TO.N,unconnected-(U1-Pad8)*%
X71065000Y-63540000D03*
%TO.P,U1,9,PC15*%
%TO.N,unconnected-(U1-Pad9)*%
X71065000Y-64040000D03*
%TO.P,U1,10,VSS*%
%TO.N,GND*%
X71065000Y-64540000D03*
%TO.P,U1,11,VDD*%
%TO.N,+3V3*%
X71065000Y-65040000D03*
%TO.P,U1,12,PH0*%
%TO.N,HSE_IN*%
X71065000Y-65540000D03*
%TO.P,U1,13,PH1*%
%TO.N,HSE_OUT*%
X71065000Y-66040000D03*
%TO.P,U1,14,NRST*%
%TO.N,NRST*%
X71065000Y-66540000D03*
%TO.P,U1,15,PC0*%
%TO.N,unconnected-(U1-Pad15)*%
X71065000Y-67040000D03*
%TO.P,U1,16,PC1*%
%TO.N,unconnected-(U1-Pad16)*%
X71065000Y-67540000D03*
%TO.P,U1,17,PC2*%
%TO.N,SPI2_MISO*%
X71065000Y-68040000D03*
%TO.P,U1,18,PC3*%
%TO.N,SPI2_MOSI*%
X71065000Y-68540000D03*
%TO.P,U1,19,VDD*%
%TO.N,+3V3*%
X71065000Y-69040000D03*
%TO.P,U1,20,VSSA*%
%TO.N,GND*%
X71065000Y-69540000D03*
%TO.P,U1,21,VREF+*%
%TO.N,VREF+*%
X71065000Y-70040000D03*
%TO.P,U1,22,VDDA*%
%TO.N,VDDA*%
X71065000Y-70540000D03*
%TO.P,U1,23,PA0*%
%TO.N,THRM1*%
X71065000Y-71040000D03*
%TO.P,U1,24,PA1*%
%TO.N,THRM2*%
X71065000Y-71540000D03*
%TO.P,U1,25,PA2*%
%TO.N,THRM3*%
X71065000Y-72040000D03*
D49*
%TO.P,U1,26,PA3*%
%TO.N,USART2_RX*%
X72740000Y-73715000D03*
%TO.P,U1,27,VSS*%
%TO.N,GND*%
X73240000Y-73715000D03*
%TO.P,U1,28,VDD*%
%TO.N,+3V3*%
X73740000Y-73715000D03*
%TO.P,U1,29,PA4*%
%TO.N,unconnected-(U1-Pad29)*%
X74240000Y-73715000D03*
%TO.P,U1,30,PA5*%
%TO.N,SPI1_SCK*%
X74740000Y-73715000D03*
%TO.P,U1,31,PA6*%
%TO.N,SPI1_MISO*%
X75240000Y-73715000D03*
%TO.P,U1,32,PA7*%
%TO.N,SPI1_MOSI*%
X75740000Y-73715000D03*
%TO.P,U1,33,PC4*%
%TO.N,unconnected-(U1-Pad33)*%
X76240000Y-73715000D03*
%TO.P,U1,34,PC5*%
%TO.N,THRM5*%
X76740000Y-73715000D03*
%TO.P,U1,35,PB0*%
%TO.N,THRM4*%
X77240000Y-73715000D03*
%TO.P,U1,36,PB1*%
%TO.N,unconnected-(U1-Pad36)*%
X77740000Y-73715000D03*
%TO.P,U1,37,PB2*%
%TO.N,unconnected-(U1-Pad37)*%
X78240000Y-73715000D03*
%TO.P,U1,38,PE7*%
%TO.N,unconnected-(U1-Pad38)*%
X78740000Y-73715000D03*
%TO.P,U1,39,PE8*%
%TO.N,unconnected-(U1-Pad39)*%
X79240000Y-73715000D03*
%TO.P,U1,40,PE9*%
%TO.N,TIM1_CH1*%
X79740000Y-73715000D03*
%TO.P,U1,41,PE10*%
%TO.N,unconnected-(U1-Pad41)*%
X80240000Y-73715000D03*
%TO.P,U1,42,PE11*%
%TO.N,TIM1_CH2*%
X80740000Y-73715000D03*
%TO.P,U1,43,PE12*%
%TO.N,unconnected-(U1-Pad43)*%
X81240000Y-73715000D03*
%TO.P,U1,44,PE13*%
%TO.N,TIM1_CH3*%
X81740000Y-73715000D03*
%TO.P,U1,45,PE14*%
%TO.N,unconnected-(U1-Pad45)*%
X82240000Y-73715000D03*
%TO.P,U1,46,PE15*%
%TO.N,unconnected-(U1-Pad46)*%
X82740000Y-73715000D03*
%TO.P,U1,47,PB10*%
%TO.N,TIM2_CH3*%
X83240000Y-73715000D03*
%TO.P,U1,48,PB11*%
%TO.N,TIM2_CH4*%
X83740000Y-73715000D03*
%TO.P,U1,49,VCAP_1*%
%TO.N,Net-(CV1-Pad1)*%
X84240000Y-73715000D03*
%TO.P,U1,50,VDD*%
%TO.N,+3V3*%
X84740000Y-73715000D03*
D48*
%TO.P,U1,51,PB12*%
%TO.N,unconnected-(U1-Pad51)*%
X86415000Y-72040000D03*
%TO.P,U1,52,PB13*%
%TO.N,unconnected-(U1-Pad52)*%
X86415000Y-71540000D03*
%TO.P,U1,53,PB14*%
%TO.N,unconnected-(U1-Pad53)*%
X86415000Y-71040000D03*
%TO.P,U1,54,PB15*%
%TO.N,unconnected-(U1-Pad54)*%
X86415000Y-70540000D03*
%TO.P,U1,55,PD8*%
%TO.N,USART3_TX*%
X86415000Y-70040000D03*
%TO.P,U1,56,PD9*%
%TO.N,USART3_RX*%
X86415000Y-69540000D03*
%TO.P,U1,57,PD10*%
%TO.N,INT0*%
X86415000Y-69040000D03*
%TO.P,U1,58,PD11*%
%TO.N,INT1*%
X86415000Y-68540000D03*
%TO.P,U1,59,PD12*%
%TO.N,INT2*%
X86415000Y-68040000D03*
%TO.P,U1,60,PD13*%
%TO.N,INT3*%
X86415000Y-67540000D03*
%TO.P,U1,61,PD14*%
%TO.N,unconnected-(U1-Pad61)*%
X86415000Y-67040000D03*
%TO.P,U1,62,PD15*%
%TO.N,unconnected-(U1-Pad62)*%
X86415000Y-66540000D03*
%TO.P,U1,63,PC6*%
%TO.N,unconnected-(U1-Pad63)*%
X86415000Y-66040000D03*
%TO.P,U1,64,PC7*%
%TO.N,unconnected-(U1-Pad64)*%
X86415000Y-65540000D03*
%TO.P,U1,65,PC8*%
%TO.N,unconnected-(U1-Pad65)*%
X86415000Y-65040000D03*
%TO.P,U1,66,PC9*%
%TO.N,I2C3_SDA*%
X86415000Y-64540000D03*
%TO.P,U1,67,PA8*%
%TO.N,I2C3_SCL*%
X86415000Y-64040000D03*
%TO.P,U1,68,PA9*%
%TO.N,unconnected-(U1-Pad68)*%
X86415000Y-63540000D03*
%TO.P,U1,69,PA10*%
%TO.N,unconnected-(U1-Pad69)*%
X86415000Y-63040000D03*
%TO.P,U1,70,PA11*%
%TO.N,USB_D-*%
X86415000Y-62540000D03*
%TO.P,U1,71,PA12*%
%TO.N,USB_D+*%
X86415000Y-62040000D03*
%TO.P,U1,72,PA13*%
%TO.N,SPI2_SCK*%
X86415000Y-61540000D03*
%TO.P,U1,73,VCAP_2*%
%TO.N,Net-(CV2-Pad1)*%
X86415000Y-61040000D03*
%TO.P,U1,74,VSS*%
%TO.N,GND*%
X86415000Y-60540000D03*
%TO.P,U1,75,VDD*%
%TO.N,+3V3*%
X86415000Y-60040000D03*
D49*
%TO.P,U1,76,PA14*%
%TO.N,unconnected-(U1-Pad76)*%
X84740000Y-58365000D03*
%TO.P,U1,77,PA15*%
%TO.N,TIM2_CH1*%
X84240000Y-58365000D03*
%TO.P,U1,78,PC10*%
%TO.N,SPI3_SCK*%
X83740000Y-58365000D03*
%TO.P,U1,79,PC11*%
%TO.N,SPI3_MISO*%
X83240000Y-58365000D03*
%TO.P,U1,80,PC12*%
%TO.N,UART5_TX*%
X82740000Y-58365000D03*
%TO.P,U1,81,PD0*%
%TO.N,unconnected-(U1-Pad81)*%
X82240000Y-58365000D03*
%TO.P,U1,82,PD1*%
%TO.N,unconnected-(U1-Pad82)*%
X81740000Y-58365000D03*
%TO.P,U1,83,PD2*%
%TO.N,UART5_RX*%
X81240000Y-58365000D03*
%TO.P,U1,84,PD3*%
%TO.N,unconnected-(U1-Pad84)*%
X80740000Y-58365000D03*
%TO.P,U1,85,PD4*%
%TO.N,unconnected-(U1-Pad85)*%
X80240000Y-58365000D03*
%TO.P,U1,86,PD5*%
%TO.N,USART2_TX*%
X79740000Y-58365000D03*
%TO.P,U1,87,PD6*%
%TO.N,unconnected-(U1-Pad87)*%
X79240000Y-58365000D03*
%TO.P,U1,88,PD7*%
%TO.N,unconnected-(U1-Pad88)*%
X78740000Y-58365000D03*
%TO.P,U1,89,PB3*%
%TO.N,TIM2_CH2*%
X78240000Y-58365000D03*
%TO.P,U1,90,PB4*%
%TO.N,unconnected-(U1-Pad90)*%
X77740000Y-58365000D03*
%TO.P,U1,91,PB5*%
%TO.N,SPI3_MOSI*%
X77240000Y-58365000D03*
%TO.P,U1,92,PB6*%
%TO.N,I2C1_SCL*%
X76740000Y-58365000D03*
%TO.P,U1,93,PB7*%
%TO.N,I2C1_SDA*%
X76240000Y-58365000D03*
%TO.P,U1,94,BOOT0*%
%TO.N,BOOT0*%
X75740000Y-58365000D03*
%TO.P,U1,95,PB8*%
%TO.N,unconnected-(U1-Pad95)*%
X75240000Y-58365000D03*
%TO.P,U1,96,PB9*%
%TO.N,unconnected-(U1-Pad96)*%
X74740000Y-58365000D03*
%TO.P,U1,97,PE0*%
%TO.N,LED1*%
X74240000Y-58365000D03*
%TO.P,U1,98,PE1*%
%TO.N,LED2*%
X73740000Y-58365000D03*
%TO.P,U1,99,VSS*%
%TO.N,GND*%
X73240000Y-58365000D03*
%TO.P,U1,100,VDD*%
%TO.N,+3V3*%
X72740000Y-58365000D03*
%TD*%
D13*
%TO.P,R17,1*%
%TO.N,LED6*%
X152195000Y-76730000D03*
%TO.P,R17,2*%
%TO.N,Net-(R17-Pad2)*%
X153215000Y-76730000D03*
%TD*%
D19*
%TO.P,C30,1*%
%TO.N,+3V3*%
X130320000Y-62310000D03*
%TO.P,C30,2*%
%TO.N,GND*%
X131280000Y-62310000D03*
%TD*%
D33*
%TO.P,R26,1*%
%TO.N,5VBAT*%
X129327500Y-59850000D03*
%TO.P,R26,2*%
%TO.N,REG_FB*%
X131152500Y-59850000D03*
%TD*%
D19*
%TO.P,C16,1*%
%TO.N,Net-(C16-Pad1)*%
X65520000Y-45050000D03*
%TO.P,C16,2*%
%TO.N,GND*%
X66480000Y-45050000D03*
%TD*%
%TO.P,CV2,1*%
%TO.N,Net-(CV2-Pad1)*%
X165475000Y-70230000D03*
%TO.P,CV2,2*%
%TO.N,GND*%
X166435000Y-70230000D03*
%TD*%
%TO.P,C27,1*%
%TO.N,REG_VDD*%
X138780000Y-55660000D03*
%TO.P,C27,2*%
%TO.N,GND*%
X139740000Y-55660000D03*
%TD*%
D25*
%TO.P,GOAL1,1,K*%
%TO.N,GND*%
X156805000Y-70240000D03*
%TO.P,GOAL1,2,A*%
%TO.N,Net-(GOAL1-Pad2)*%
X157775000Y-70240000D03*
%TD*%
D33*
%TO.P,R24,1*%
%TO.N,REG_VDD*%
X124917500Y-59850000D03*
%TO.P,R24,2*%
%TO.N,REG_PG*%
X126742500Y-59850000D03*
%TD*%
D19*
%TO.P,C23,1*%
%TO.N,Net-(25MHz1-Pad3)*%
X141865000Y-90710000D03*
%TO.P,C23,2*%
%TO.N,GND*%
X142825000Y-90710000D03*
%TD*%
%TO.P,C17,1*%
%TO.N,VDDA*%
X161395000Y-74190000D03*
%TO.P,C17,2*%
%TO.N,GND*%
X162355000Y-74190000D03*
%TD*%
D42*
%TO.P,C24,1*%
%TO.N,+5V*%
X134805000Y-58880000D03*
%TO.P,C24,2*%
%TO.N,GND*%
X136355000Y-58880000D03*
%TD*%
D12*
%TO.P,R23,1*%
%TO.N,GND*%
X121815000Y-69620000D03*
%TO.P,R23,2*%
%TO.N,Net-(LED1-Pad1)*%
X123465000Y-69620000D03*
%TD*%
D19*
%TO.P,C31,1*%
%TO.N,REG_CS*%
X124580000Y-62310000D03*
%TO.P,C31,2*%
%TO.N,Net-(C31-Pad2)*%
X125540000Y-62310000D03*
%TD*%
%TO.P,C14,1*%
%TO.N,+3V3*%
X154125000Y-80700000D03*
%TO.P,C14,2*%
%TO.N,GND*%
X155085000Y-80700000D03*
%TD*%
D25*
%TO.P,FB1,1*%
%TO.N,VDDA*%
X151380000Y-78720000D03*
%TO.P,FB1,2*%
%TO.N,+3V3*%
X152350000Y-78720000D03*
%TD*%
D19*
%TO.P,C5,1*%
%TO.N,+3V3*%
X157985000Y-76720000D03*
%TO.P,C5,2*%
%TO.N,GND*%
X158945000Y-76720000D03*
%TD*%
D13*
%TO.P,R19,1*%
%TO.N,LED8*%
X147995000Y-82470000D03*
%TO.P,R19,2*%
%TO.N,Net-(NAV1-Pad2)*%
X149015000Y-82470000D03*
%TD*%
D25*
%TO.P,PWR1,1,K*%
%TO.N,Net-(PWR1-Pad1)*%
X142115000Y-88730000D03*
%TO.P,PWR1,2,A*%
%TO.N,+3V3*%
X143085000Y-88730000D03*
%TD*%
D19*
%TO.P,CV1,1*%
%TO.N,Net-(CV1-Pad1)*%
X153785000Y-82670000D03*
%TO.P,CV1,2*%
%TO.N,GND*%
X154745000Y-82670000D03*
%TD*%
D13*
%TO.P,R20,1*%
%TO.N,Net-(PWR1-Pad1)*%
X141945000Y-84460000D03*
%TO.P,R20,2*%
%TO.N,GND*%
X142965000Y-84460000D03*
%TD*%
D19*
%TO.P,C4,1*%
%TO.N,+3V3*%
X155115000Y-76720000D03*
%TO.P,C4,2*%
%TO.N,GND*%
X156075000Y-76720000D03*
%TD*%
%TO.P,C29,1*%
%TO.N,REG_BST*%
X127450000Y-62310000D03*
%TO.P,C29,2*%
%TO.N,REG_CS*%
X128410000Y-62310000D03*
%TD*%
D25*
%TO.P,BOOT1,1,K*%
%TO.N,GND*%
X126965000Y-94280000D03*
%TO.P,BOOT1,2,A*%
%TO.N,Net-(BOOT1-Pad2)*%
X127935000Y-94280000D03*
%TD*%
D26*
%TO.P,C25,1*%
%TO.N,REG_VIN*%
X98392500Y-87430000D03*
%TO.P,C25,2*%
%TO.N,GND*%
X103467500Y-87430000D03*
%TD*%
D19*
%TO.P,C11,1*%
%TO.N,+3V3*%
X150915000Y-82670000D03*
%TO.P,C11,2*%
%TO.N,GND*%
X151875000Y-82670000D03*
%TD*%
D25*
%TO.P,NAV1,1,K*%
%TO.N,GND*%
X155595000Y-72750000D03*
%TO.P,NAV1,2,A*%
%TO.N,Net-(NAV1-Pad2)*%
X156565000Y-72750000D03*
%TD*%
%TO.P,WD2,1,K*%
%TO.N,GND*%
X145455000Y-80480000D03*
%TO.P,WD2,2,A*%
%TO.N,Net-(R17-Pad2)*%
X146425000Y-80480000D03*
%TD*%
D19*
%TO.P,C2,1*%
%TO.N,+3V3*%
X164265000Y-72200000D03*
%TO.P,C2,2*%
%TO.N,GND*%
X165225000Y-72200000D03*
%TD*%
D44*
%TO.P,R6,1*%
%TO.N,BOOT0*%
X142027500Y-80480000D03*
%TO.P,R6,2*%
%TO.N,Net-(R6-Pad2)*%
X143222500Y-80480000D03*
%TD*%
D13*
%TO.P,R9,1*%
%TO.N,LED1*%
X155335000Y-74740000D03*
%TO.P,R9,2*%
%TO.N,Net-(D1-Pad3)*%
X156355000Y-74740000D03*
%TD*%
D19*
%TO.P,C9,1*%
%TO.N,+3V3*%
X154275000Y-78710000D03*
%TO.P,C9,2*%
%TO.N,GND*%
X155235000Y-78710000D03*
%TD*%
D50*
%TO.P,REG1,1,OUT*%
%TO.N,+3V3*%
X117266000Y-57505999D03*
%TO.P,REG1,2,ADJ/SENSE*%
X117266000Y-58456000D03*
%TO.P,REG1,3,GND*%
%TO.N,GND*%
X117266000Y-59406001D03*
%TO.P,REG1,4,PG*%
%TO.N,unconnected-(REG1-Pad4)*%
X120156800Y-59406001D03*
%TO.P,REG1,5,EN*%
%TO.N,+5V*%
X120156800Y-58456000D03*
%TO.P,REG1,6,IN*%
X120156800Y-57505999D03*
D51*
%TO.P,REG1,7,GND*%
%TO.N,GND*%
X118711400Y-58456000D03*
%TD*%
D19*
%TO.P,C13,1*%
%TO.N,+3V3*%
X161395000Y-72220000D03*
%TO.P,C13,2*%
%TO.N,GND*%
X162355000Y-72220000D03*
%TD*%
D17*
%TO.P,J1,1,Pin_1*%
%TO.N,VBAT*%
X98280000Y-93830000D03*
D31*
%TO.P,J1,2,Pin_2*%
%TO.N,GND*%
X98280000Y-96370000D03*
%TD*%
D25*
%TO.P,D2,1,BA*%
%TO.N,Net-(D2-Pad1)*%
X142205000Y-82470000D03*
%TO.P,D2,2,GA*%
%TO.N,Net-(D2-Pad2)*%
X143175000Y-82470000D03*
%TD*%
D19*
%TO.P,C22,1*%
%TO.N,HSE_IN*%
X151255000Y-80700000D03*
%TO.P,C22,2*%
%TO.N,GND*%
X152215000Y-80700000D03*
%TD*%
D13*
%TO.P,R12,1*%
%TO.N,TIM1_CH1*%
X148335000Y-80480000D03*
%TO.P,R12,2*%
%TO.N,Net-(D2-Pad3)*%
X149355000Y-80480000D03*
%TD*%
D19*
%TO.P,C3,1*%
%TO.N,+3V3*%
X157145000Y-78690000D03*
%TO.P,C3,2*%
%TO.N,GND*%
X158105000Y-78690000D03*
%TD*%
%TO.P,C36,1*%
%TO.N,Net-(C36-Pad1)*%
X59170000Y-51400000D03*
%TO.P,C36,2*%
%TO.N,GND*%
X60130000Y-51400000D03*
%TD*%
%TO.P,C18,1*%
%TO.N,VDDA*%
X145005000Y-88430000D03*
%TO.P,C18,2*%
%TO.N,GND*%
X145965000Y-88430000D03*
%TD*%
D17*
%TO.P,J2,1,3V3*%
%TO.N,unconnected-(J2-Pad1)*%
X46355000Y-51435000D03*
D31*
%TO.P,J2,2,5V*%
%TO.N,+5V*%
X43815000Y-51435000D03*
%TO.P,J2,3,SDA/GPIO2*%
%TO.N,unconnected-(J2-Pad3)*%
X46355000Y-53975000D03*
%TO.P,J2,4,5V*%
%TO.N,+5V*%
X43815000Y-53975000D03*
%TO.P,J2,5,SCL/GPIO3*%
%TO.N,unconnected-(J2-Pad5)*%
X46355000Y-56515000D03*
%TO.P,J2,6,GND*%
%TO.N,GND*%
X43815000Y-56515000D03*
%TO.P,J2,7,GCLK0/GPIO4*%
%TO.N,unconnected-(J2-Pad7)*%
X46355000Y-59055000D03*
%TO.P,J2,8,GPIO14/TXD*%
%TO.N,Net-(J2-Pad8)*%
X43815000Y-59055000D03*
%TO.P,J2,9,GND*%
%TO.N,GND*%
X46355000Y-61595000D03*
%TO.P,J2,10,GPIO15/RXD*%
%TO.N,Net-(J2-Pad10)*%
X43815000Y-61595000D03*
%TO.P,J2,11,GPIO17*%
%TO.N,unconnected-(J2-Pad11)*%
X46355000Y-64135000D03*
%TO.P,J2,12,GPIO18/PWM0*%
%TO.N,unconnected-(J2-Pad12)*%
X43815000Y-64135000D03*
%TO.P,J2,13,GPIO27*%
%TO.N,unconnected-(J2-Pad13)*%
X46355000Y-66675000D03*
%TO.P,J2,14,GND*%
%TO.N,GND*%
X43815000Y-66675000D03*
%TO.P,J2,15,GPIO22*%
%TO.N,unconnected-(J2-Pad15)*%
X46355000Y-69215000D03*
%TO.P,J2,16,GPIO23*%
%TO.N,unconnected-(J2-Pad16)*%
X43815000Y-69215000D03*
%TO.P,J2,17,3V3*%
%TO.N,unconnected-(J2-Pad17)*%
X46355000Y-71755000D03*
%TO.P,J2,18,GPIO24*%
%TO.N,unconnected-(J2-Pad18)*%
X43815000Y-71755000D03*
%TO.P,J2,19,MOSI0/GPIO10*%
%TO.N,SPI2_MOSI*%
X46355000Y-74295000D03*
%TO.P,J2,20,GND*%
%TO.N,GND*%
X43815000Y-74295000D03*
%TO.P,J2,21,MISO0/GPIO9*%
%TO.N,SPI2_MISO*%
X46355000Y-76835000D03*
%TO.P,J2,22,GPIO25*%
%TO.N,unconnected-(J2-Pad22)*%
X43815000Y-76835000D03*
%TO.P,J2,23,SCLK0/GPIO11*%
%TO.N,SPI2_SCK*%
X46355000Y-79375000D03*
%TO.P,J2,24,~{CE0}/GPIO8*%
%TO.N,unconnected-(J2-Pad24)*%
X43815000Y-79375000D03*
%TO.P,J2,25,GND*%
%TO.N,GND*%
X46355000Y-81915000D03*
%TO.P,J2,26,~{CE1}/GPIO7*%
%TO.N,unconnected-(J2-Pad26)*%
X43815000Y-81915000D03*
%TO.P,J2,27,ID_SD/GPIO0*%
%TO.N,unconnected-(J2-Pad27)*%
X46355000Y-84455000D03*
%TO.P,J2,28,ID_SC/GPIO1*%
%TO.N,unconnected-(J2-Pad28)*%
X43815000Y-84455000D03*
%TO.P,J2,29,GCLK1/GPIO5*%
%TO.N,unconnected-(J2-Pad29)*%
X46355000Y-86995000D03*
%TO.P,J2,30,GND*%
%TO.N,GND*%
X43815000Y-86995000D03*
%TO.P,J2,31,GCLK2/GPIO6*%
%TO.N,unconnected-(J2-Pad31)*%
X46355000Y-89535000D03*
%TO.P,J2,32,PWM0/GPIO12*%
%TO.N,unconnected-(J2-Pad32)*%
X43815000Y-89535000D03*
%TO.P,J2,33,PWM1/GPIO13*%
%TO.N,unconnected-(J2-Pad33)*%
X46355000Y-92075000D03*
%TO.P,J2,34,GND*%
%TO.N,GND*%
X43815000Y-92075000D03*
%TO.P,J2,35,GPIO19/MISO1*%
%TO.N,unconnected-(J2-Pad35)*%
X46355000Y-94615000D03*
%TO.P,J2,36,GPIO16*%
%TO.N,unconnected-(J2-Pad36)*%
X43815000Y-94615000D03*
%TO.P,J2,37,GPIO26*%
%TO.N,unconnected-(J2-Pad37)*%
X46355000Y-97155000D03*
%TO.P,J2,38,GPIO20/MOSI1*%
%TO.N,unconnected-(J2-Pad38)*%
X43815000Y-97155000D03*
%TO.P,J2,39,GND*%
%TO.N,GND*%
X46355000Y-99695000D03*
%TO.P,J2,40,GPIO21/SCLK1*%
%TO.N,unconnected-(J2-Pad40)*%
X43815000Y-99695000D03*
%TO.P,J2,41*%
%TO.N,N/C*%
X46355000Y-102235000D03*
%TO.P,J2,42*%
X43815000Y-102235000D03*
%TO.P,J2,43*%
X46355000Y-104775000D03*
%TO.P,J2,44*%
X43815000Y-104775000D03*
%TO.P,J2,45*%
X46355000Y-107315000D03*
%TO.P,J2,46*%
X43815000Y-107315000D03*
%TO.P,J2,47*%
X46355000Y-109855000D03*
%TO.P,J2,48*%
X43815000Y-109855000D03*
%TO.P,J2,49*%
X46355000Y-112395000D03*
%TO.P,J2,50*%
X43815000Y-112395000D03*
%TO.P,J2,51*%
X46355000Y-114935000D03*
%TO.P,J2,52*%
X43815000Y-114935000D03*
%TO.P,J2,53*%
X46355000Y-117475000D03*
%TO.P,J2,54*%
X43815000Y-117475000D03*
%TO.P,J2,55*%
X46355000Y-120015000D03*
%TO.P,J2,56*%
X43815000Y-120015000D03*
%TO.P,J2,57*%
X46355000Y-122555000D03*
%TO.P,J2,58*%
X43815000Y-122555000D03*
%TO.P,J2,59*%
X46355000Y-125095000D03*
%TO.P,J2,60*%
X43815000Y-125095000D03*
%TO.P,J2,61*%
X46355000Y-127635000D03*
%TO.P,J2,62*%
X43815000Y-127635000D03*
%TO.P,J2,63*%
X46355000Y-130175000D03*
%TO.P,J2,64*%
X43815000Y-130175000D03*
%TD*%
D33*
%TO.P,R27,1*%
%TO.N,REG_FB*%
X112227500Y-77100000D03*
%TO.P,R27,2*%
%TO.N,GND*%
X114052500Y-77100000D03*
%TD*%
M02*
