%TF.GenerationSoftware,KiCad,Pcbnew,6.0.7+dfsg-1build1*%
%TF.CreationDate,2022-11-02T19:08:18-04:00*%
%TF.ProjectId,Fc,46632e6b-6963-4616-945f-706362585858,rev?*%
%TF.SameCoordinates,Original*%
%TF.FileFunction,Paste,Top*%
%TF.FilePolarity,Positive*%
%FSLAX46Y46*%
G04 Gerber Fmt 4.6, Leading zero omitted, Abs format (unit mm)*
G04 Created by KiCad (PCBNEW 6.0.7+dfsg-1build1) date 2022-11-02 19:08:18*
%MOMM*%
%LPD*%
G01*
G04 APERTURE LIST*
G04 Aperture macros list*
%AMRoundRect*
0 Rectangle with rounded corners*
0 $1 Rounding radius*
0 $2 $3 $4 $5 $6 $7 $8 $9 X,Y pos of 4 corners*
0 Add a 4 corners polygon primitive as box body*
4,1,4,$2,$3,$4,$5,$6,$7,$8,$9,$2,$3,0*
0 Add four circle primitives for the rounded corners*
1,1,$1+$1,$2,$3*
1,1,$1+$1,$4,$5*
1,1,$1+$1,$6,$7*
1,1,$1+$1,$8,$9*
0 Add four rect primitives between the rounded corners*
20,1,$1+$1,$2,$3,$4,$5,0*
20,1,$1+$1,$4,$5,$6,$7,0*
20,1,$1+$1,$6,$7,$8,$9,0*
20,1,$1+$1,$8,$9,$2,$3,0*%
G04 Aperture macros list end*
%ADD10C,0.100000*%
%ADD11RoundRect,0.200000X-0.200000X-0.275000X0.200000X-0.275000X0.200000X0.275000X-0.200000X0.275000X0*%
%ADD12RoundRect,0.135000X-0.135000X-0.185000X0.135000X-0.185000X0.135000X0.185000X-0.135000X0.185000X0*%
%ADD13R,0.450000X1.300000*%
%ADD14R,0.600000X0.450000*%
%ADD15RoundRect,0.140000X-0.140000X-0.170000X0.140000X-0.170000X0.140000X0.170000X-0.140000X0.170000X0*%
%ADD16R,0.650000X0.400000*%
%ADD17R,2.000000X0.600000*%
%ADD18RoundRect,0.087500X-0.187500X-0.087500X0.187500X-0.087500X0.187500X0.087500X-0.187500X0.087500X0*%
%ADD19RoundRect,0.087500X-0.087500X-0.187500X0.087500X-0.187500X0.087500X0.187500X-0.087500X0.187500X0*%
%ADD20RoundRect,0.147500X-0.147500X-0.172500X0.147500X-0.172500X0.147500X0.172500X-0.147500X0.172500X0*%
%ADD21RoundRect,0.250000X-1.412500X-0.550000X1.412500X-0.550000X1.412500X0.550000X-1.412500X0.550000X0*%
%ADD22RoundRect,0.218750X-0.218750X-0.256250X0.218750X-0.256250X0.218750X0.256250X-0.218750X0.256250X0*%
%ADD23RoundRect,0.250000X-0.362500X-1.425000X0.362500X-1.425000X0.362500X1.425000X-0.362500X1.425000X0*%
%ADD24RoundRect,0.237500X-0.300000X-0.237500X0.300000X-0.237500X0.300000X0.237500X-0.300000X0.237500X0*%
%ADD25RoundRect,0.250000X-0.262500X-0.450000X0.262500X-0.450000X0.262500X0.450000X-0.262500X0.450000X0*%
%ADD26RoundRect,0.250000X-0.325000X-1.100000X0.325000X-1.100000X0.325000X1.100000X-0.325000X1.100000X0*%
%ADD27RoundRect,0.125000X-0.537500X-0.125000X0.537500X-0.125000X0.537500X0.125000X-0.537500X0.125000X0*%
%ADD28R,3.098800X5.003800*%
%ADD29R,0.704800X0.299974*%
%ADD30R,0.299974X0.704800*%
%ADD31R,3.700000X1.600000*%
%ADD32RoundRect,0.225000X-0.225000X-0.250000X0.225000X-0.250000X0.225000X0.250000X-0.225000X0.250000X0*%
%ADD33R,1.400000X1.200000*%
%ADD34RoundRect,0.160000X-0.197500X-0.160000X0.197500X-0.160000X0.197500X0.160000X-0.197500X0.160000X0*%
%ADD35RoundRect,0.075000X-0.350000X-0.075000X0.350000X-0.075000X0.350000X0.075000X-0.350000X0.075000X0*%
%ADD36RoundRect,0.075000X0.075000X-0.350000X0.075000X0.350000X-0.075000X0.350000X-0.075000X-0.350000X0*%
%ADD37RoundRect,0.250000X-0.250000X-0.475000X0.250000X-0.475000X0.250000X0.475000X-0.250000X0.475000X0*%
%ADD38RoundRect,0.075000X-0.725000X-0.075000X0.725000X-0.075000X0.725000X0.075000X-0.725000X0.075000X0*%
%ADD39RoundRect,0.075000X-0.075000X-0.725000X0.075000X-0.725000X0.075000X0.725000X-0.075000X0.725000X0*%
%ADD40R,0.807999X0.407200*%
%ADD41R,1.752600X2.489200*%
G04 APERTURE END LIST*
%TO.C,REG2*%
G36*
X101973399Y-73351001D02*
G01*
X101703400Y-73351001D01*
X101703400Y-72551003D01*
X101973399Y-72551003D01*
X101973399Y-73351001D01*
G37*
D10*
X101973399Y-73351001D02*
X101703400Y-73351001D01*
X101703400Y-72551003D01*
X101973399Y-72551003D01*
X101973399Y-73351001D01*
G36*
X105840798Y-77190902D02*
G01*
X104890800Y-77190902D01*
X104890800Y-76765901D01*
X105840798Y-76765901D01*
X105840798Y-77190902D01*
G37*
X105840798Y-77190902D02*
X104890800Y-77190902D01*
X104890800Y-76765901D01*
X105840798Y-76765901D01*
X105840798Y-77190902D01*
G36*
X100660999Y-77763400D02*
G01*
X99861001Y-77763400D01*
X99861001Y-77493401D01*
X100660999Y-77493401D01*
X100660999Y-77763400D01*
G37*
X100660999Y-77763400D02*
X99861001Y-77763400D01*
X99861001Y-77493401D01*
X100660999Y-77493401D01*
X100660999Y-77763400D01*
G36*
X100660999Y-75813401D02*
G01*
X99861001Y-75813401D01*
X99861001Y-75543402D01*
X100660999Y-75543402D01*
X100660999Y-75813401D01*
G37*
X100660999Y-75813401D02*
X99861001Y-75813401D01*
X99861001Y-75543402D01*
X100660999Y-75543402D01*
X100660999Y-75813401D01*
G36*
X100660999Y-76463400D02*
G01*
X99861001Y-76463400D01*
X99861001Y-76193401D01*
X100660999Y-76193401D01*
X100660999Y-76463400D01*
G37*
X100660999Y-76463400D02*
X99861001Y-76463400D01*
X99861001Y-76193401D01*
X100660999Y-76193401D01*
X100660999Y-76463400D01*
G36*
X104650900Y-79530801D02*
G01*
X104225902Y-79530801D01*
X104225902Y-78580802D01*
X104650900Y-78580802D01*
X104650900Y-79530801D01*
G37*
X104650900Y-79530801D02*
X104225902Y-79530801D01*
X104225902Y-78580802D01*
X104650900Y-78580802D01*
X104650900Y-79530801D01*
G36*
X103350900Y-73426000D02*
G01*
X102925902Y-73426000D01*
X102925902Y-72476001D01*
X103350900Y-72476001D01*
X103350900Y-73426000D01*
G37*
X103350900Y-73426000D02*
X102925902Y-73426000D01*
X102925902Y-72476001D01*
X103350900Y-72476001D01*
X103350900Y-73426000D01*
G36*
X101400901Y-73426000D02*
G01*
X100975900Y-73426000D01*
X100975900Y-72476001D01*
X101400901Y-72476001D01*
X101400901Y-73426000D01*
G37*
X101400901Y-73426000D02*
X100975900Y-73426000D01*
X100975900Y-72476001D01*
X101400901Y-72476001D01*
X101400901Y-73426000D01*
G36*
X102623400Y-73351001D02*
G01*
X102353401Y-73351001D01*
X102353401Y-72551003D01*
X102623400Y-72551003D01*
X102623400Y-73351001D01*
G37*
X102623400Y-73351001D02*
X102353401Y-73351001D01*
X102353401Y-72551003D01*
X102623400Y-72551003D01*
X102623400Y-73351001D01*
G36*
X105840798Y-75240901D02*
G01*
X104890800Y-75240901D01*
X104890800Y-74815900D01*
X105840798Y-74815900D01*
X105840798Y-75240901D01*
G37*
X105840798Y-75240901D02*
X104890800Y-75240901D01*
X104890800Y-74815900D01*
X105840798Y-74815900D01*
X105840798Y-75240901D01*
G36*
X105840798Y-74590899D02*
G01*
X104890800Y-74590899D01*
X104890800Y-74165901D01*
X105840798Y-74165901D01*
X105840798Y-74590899D01*
G37*
X105840798Y-74590899D02*
X104890800Y-74590899D01*
X104890800Y-74165901D01*
X105840798Y-74165901D01*
X105840798Y-74590899D01*
G36*
X102050900Y-73426000D02*
G01*
X101625902Y-73426000D01*
X101625902Y-72476001D01*
X102050900Y-72476001D01*
X102050900Y-73426000D01*
G37*
X102050900Y-73426000D02*
X101625902Y-73426000D01*
X101625902Y-72476001D01*
X102050900Y-72476001D01*
X102050900Y-73426000D01*
G36*
X105950899Y-79530801D02*
G01*
X105525899Y-79530801D01*
X105525899Y-78580802D01*
X105950899Y-78580802D01*
X105950899Y-79530801D01*
G37*
X105950899Y-79530801D02*
X105525899Y-79530801D01*
X105525899Y-78580802D01*
X105950899Y-78580802D01*
X105950899Y-79530801D01*
G36*
X105300901Y-79530801D02*
G01*
X104875900Y-79530801D01*
X104875900Y-78580802D01*
X105300901Y-78580802D01*
X105300901Y-79530801D01*
G37*
X105300901Y-79530801D02*
X104875900Y-79530801D01*
X104875900Y-78580802D01*
X105300901Y-78580802D01*
X105300901Y-79530801D01*
G36*
X105840798Y-78490902D02*
G01*
X104890800Y-78490902D01*
X104890800Y-78065901D01*
X105840798Y-78065901D01*
X105840798Y-78490902D01*
G37*
X105840798Y-78490902D02*
X104890800Y-78490902D01*
X104890800Y-78065901D01*
X105840798Y-78065901D01*
X105840798Y-78490902D01*
G36*
X100660999Y-75163400D02*
G01*
X99861001Y-75163400D01*
X99861001Y-74893401D01*
X100660999Y-74893401D01*
X100660999Y-75163400D01*
G37*
X100660999Y-75163400D02*
X99861001Y-75163400D01*
X99861001Y-74893401D01*
X100660999Y-74893401D01*
X100660999Y-75163400D01*
G36*
X105840798Y-76540901D02*
G01*
X104890800Y-76540901D01*
X104890800Y-76115903D01*
X105840798Y-76115903D01*
X105840798Y-76540901D01*
G37*
X105840798Y-76540901D02*
X104890800Y-76540901D01*
X104890800Y-76115903D01*
X105840798Y-76115903D01*
X105840798Y-76540901D01*
G36*
X100660999Y-78413401D02*
G01*
X99861001Y-78413401D01*
X99861001Y-78143402D01*
X100660999Y-78143402D01*
X100660999Y-78413401D01*
G37*
X100660999Y-78413401D02*
X99861001Y-78413401D01*
X99861001Y-78143402D01*
X100660999Y-78143402D01*
X100660999Y-78413401D01*
G36*
X102700901Y-73426000D02*
G01*
X102275900Y-73426000D01*
X102275900Y-72476001D01*
X102700901Y-72476001D01*
X102700901Y-73426000D01*
G37*
X102700901Y-73426000D02*
X102275900Y-73426000D01*
X102275900Y-72476001D01*
X102700901Y-72476001D01*
X102700901Y-73426000D01*
G36*
X104000901Y-79530801D02*
G01*
X103575900Y-79530801D01*
X103575900Y-78580802D01*
X104000901Y-78580802D01*
X104000901Y-79530801D01*
G37*
X104000901Y-79530801D02*
X103575900Y-79530801D01*
X103575900Y-78580802D01*
X104000901Y-78580802D01*
X104000901Y-79530801D01*
G36*
X105840798Y-73940901D02*
G01*
X104890800Y-73940901D01*
X104890800Y-73515900D01*
X105840798Y-73515900D01*
X105840798Y-73940901D01*
G37*
X105840798Y-73940901D02*
X104890800Y-73940901D01*
X104890800Y-73515900D01*
X105840798Y-73515900D01*
X105840798Y-73940901D01*
G36*
X104650900Y-73426000D02*
G01*
X104225902Y-73426000D01*
X104225902Y-72476001D01*
X104650900Y-72476001D01*
X104650900Y-73426000D01*
G37*
X104650900Y-73426000D02*
X104225902Y-73426000D01*
X104225902Y-72476001D01*
X104650900Y-72476001D01*
X104650900Y-73426000D01*
G36*
X105840798Y-75890902D02*
G01*
X104890800Y-75890902D01*
X104890800Y-75465901D01*
X105840798Y-75465901D01*
X105840798Y-75890902D01*
G37*
X105840798Y-75890902D02*
X104890800Y-75890902D01*
X104890800Y-75465901D01*
X105840798Y-75465901D01*
X105840798Y-75890902D01*
G36*
X104000901Y-73426000D02*
G01*
X103575900Y-73426000D01*
X103575900Y-72476001D01*
X104000901Y-72476001D01*
X104000901Y-73426000D01*
G37*
X104000901Y-73426000D02*
X103575900Y-73426000D01*
X103575900Y-72476001D01*
X104000901Y-72476001D01*
X104000901Y-73426000D01*
G36*
X100660999Y-74513401D02*
G01*
X99861001Y-74513401D01*
X99861001Y-74243402D01*
X100660999Y-74243402D01*
X100660999Y-74513401D01*
G37*
X100660999Y-74513401D02*
X99861001Y-74513401D01*
X99861001Y-74243402D01*
X100660999Y-74243402D01*
X100660999Y-74513401D01*
G36*
X100660999Y-77113401D02*
G01*
X99861001Y-77113401D01*
X99861001Y-76843402D01*
X100660999Y-76843402D01*
X100660999Y-77113401D01*
G37*
X100660999Y-77113401D02*
X99861001Y-77113401D01*
X99861001Y-76843402D01*
X100660999Y-76843402D01*
X100660999Y-77113401D01*
G36*
X105840798Y-77840901D02*
G01*
X104890800Y-77840901D01*
X104890800Y-77415903D01*
X105840798Y-77415903D01*
X105840798Y-77840901D01*
G37*
X105840798Y-77840901D02*
X104890800Y-77840901D01*
X104890800Y-77415903D01*
X105840798Y-77415903D01*
X105840798Y-77840901D01*
%TD*%
D11*
%TO.C,R31*%
X148570000Y-124730000D03*
X150220000Y-124730000D03*
%TD*%
%TO.C,R30*%
X152580000Y-127240000D03*
X154230000Y-127240000D03*
%TD*%
%TO.C,R29*%
X144560000Y-122220000D03*
X146210000Y-122220000D03*
%TD*%
%TO.C,R20*%
X152580000Y-124730000D03*
X154230000Y-124730000D03*
%TD*%
%TO.C,R19*%
X148570000Y-122220000D03*
X150220000Y-122220000D03*
%TD*%
%TO.C,R18*%
X144560000Y-127240000D03*
X146210000Y-127240000D03*
%TD*%
%TO.C,R17*%
X156590000Y-119710000D03*
X158240000Y-119710000D03*
%TD*%
%TO.C,R16*%
X148570000Y-119710000D03*
X150220000Y-119710000D03*
%TD*%
%TO.C,R15*%
X156590000Y-122220000D03*
X158240000Y-122220000D03*
%TD*%
%TO.C,R14*%
X148570000Y-127240000D03*
X150220000Y-127240000D03*
%TD*%
%TO.C,R13*%
X144560000Y-124730000D03*
X146210000Y-124730000D03*
%TD*%
%TO.C,R12*%
X152580000Y-122220000D03*
X154230000Y-122220000D03*
%TD*%
%TO.C,R11*%
X152580000Y-119710000D03*
X154230000Y-119710000D03*
%TD*%
%TO.C,R10*%
X144560000Y-119710000D03*
X146210000Y-119710000D03*
%TD*%
D12*
%TO.C,R9*%
X160365000Y-119450000D03*
X161385000Y-119450000D03*
%TD*%
%TO.C,R4T5*%
X165265000Y-102490000D03*
X166285000Y-102490000D03*
%TD*%
%TO.C,R4T4*%
X156535000Y-106470000D03*
X157555000Y-106470000D03*
%TD*%
%TO.C,R4T3*%
X151885000Y-111790000D03*
X152905000Y-111790000D03*
%TD*%
%TO.C,R4T2*%
X153625000Y-104480000D03*
X154645000Y-104480000D03*
%TD*%
%TO.C,R4T1*%
X156535000Y-104480000D03*
X157555000Y-104480000D03*
%TD*%
%TO.C,R3T5*%
X154795000Y-112440000D03*
X155815000Y-112440000D03*
%TD*%
%TO.C,R3T4*%
X153625000Y-108460000D03*
X154645000Y-108460000D03*
%TD*%
%TO.C,R3T3*%
X148975000Y-111790000D03*
X149995000Y-111790000D03*
%TD*%
%TO.C,R3T2*%
X162355000Y-104480000D03*
X163375000Y-104480000D03*
%TD*%
%TO.C,R3T1*%
X156535000Y-102490000D03*
X157555000Y-102490000D03*
%TD*%
%TO.C,R2T5*%
X148975000Y-113780000D03*
X149995000Y-113780000D03*
%TD*%
%TO.C,R2T4*%
X151885000Y-113780000D03*
X152905000Y-113780000D03*
%TD*%
%TO.C,R2T3*%
X156535000Y-108460000D03*
X157555000Y-108460000D03*
%TD*%
%TO.C,R2T2*%
X162355000Y-102490000D03*
X163375000Y-102490000D03*
%TD*%
%TO.C,R2T1*%
X153625000Y-106470000D03*
X154645000Y-106470000D03*
%TD*%
%TO.C,R1T5*%
X159445000Y-104480000D03*
X160465000Y-104480000D03*
%TD*%
%TO.C,R1T4*%
X159445000Y-102490000D03*
X160465000Y-102490000D03*
%TD*%
%TO.C,R1T3*%
X154795000Y-110450000D03*
X155815000Y-110450000D03*
%TD*%
%TO.C,R1T2*%
X153625000Y-102490000D03*
X154645000Y-102490000D03*
%TD*%
%TO.C,R1T1*%
X159445000Y-106470000D03*
X160465000Y-106470000D03*
%TD*%
D13*
%TO.C,J8*%
X175365000Y-103460000D03*
X176015000Y-103460000D03*
X176665000Y-103460000D03*
X177315000Y-103460000D03*
X177965000Y-103460000D03*
%TD*%
D14*
%TO.C,D5*%
X183215000Y-105920000D03*
X185315000Y-105920000D03*
%TD*%
%TO.C,D4*%
X183215000Y-102970000D03*
X185315000Y-102970000D03*
%TD*%
D15*
%TO.C,C35*%
X162365000Y-106460000D03*
X163325000Y-106460000D03*
%TD*%
%TO.C,C16*%
X157715000Y-110440000D03*
X158675000Y-110440000D03*
%TD*%
%TO.C,C15*%
X159455000Y-108450000D03*
X160415000Y-108450000D03*
%TD*%
%TO.C,C10*%
X156365000Y-124460000D03*
X157325000Y-124460000D03*
%TD*%
D16*
%TO.C,U9*%
X92450000Y-138640000D03*
X92450000Y-139290000D03*
X92450000Y-139940000D03*
X94350000Y-139940000D03*
X94350000Y-138640000D03*
%TD*%
%TO.C,U8*%
X88200000Y-138640000D03*
X88200000Y-139290000D03*
X88200000Y-139940000D03*
X90100000Y-139940000D03*
X90100000Y-138640000D03*
%TD*%
%TO.C,U7*%
X83650000Y-143190000D03*
X83650000Y-143840000D03*
X83650000Y-144490000D03*
X85550000Y-144490000D03*
X85550000Y-143190000D03*
%TD*%
%TO.C,U6*%
X87900000Y-143190000D03*
X87900000Y-143840000D03*
X87900000Y-144490000D03*
X89800000Y-144490000D03*
X89800000Y-143190000D03*
%TD*%
%TO.C,U5*%
X92150000Y-142490000D03*
X92150000Y-143140000D03*
X92150000Y-143790000D03*
X94050000Y-143790000D03*
X94050000Y-142490000D03*
%TD*%
D17*
%TO.C,U4*%
X101930000Y-110795000D03*
X101930000Y-112065000D03*
X101930000Y-113335000D03*
X101930000Y-114605000D03*
X101930000Y-115875000D03*
X101930000Y-117145000D03*
X101930000Y-118415000D03*
X101930000Y-119685000D03*
X101930000Y-120955000D03*
X101930000Y-122225000D03*
X101930000Y-123495000D03*
X101930000Y-124765000D03*
X101930000Y-126035000D03*
X101930000Y-127305000D03*
X111330000Y-127305000D03*
X111330000Y-126035000D03*
X111330000Y-124765000D03*
X111330000Y-123495000D03*
X111330000Y-122225000D03*
X111330000Y-120955000D03*
X111330000Y-119685000D03*
X111330000Y-118415000D03*
X111330000Y-117145000D03*
X111330000Y-115875000D03*
X111330000Y-114605000D03*
X111330000Y-113335000D03*
X111330000Y-112065000D03*
X111330000Y-110795000D03*
%TD*%
D18*
%TO.C,U3*%
X83525000Y-138640000D03*
X83525000Y-139140000D03*
X83525000Y-139640000D03*
X83525000Y-140140000D03*
X83525000Y-140640000D03*
D19*
X84250000Y-140865000D03*
X84750000Y-140865000D03*
X85250000Y-140865000D03*
D18*
X85975000Y-140640000D03*
X85975000Y-140140000D03*
X85975000Y-139640000D03*
X85975000Y-139140000D03*
X85975000Y-138640000D03*
D19*
X85250000Y-138415000D03*
X84750000Y-138415000D03*
X84250000Y-138415000D03*
%TD*%
D12*
%TO.C,R43*%
X116960000Y-114290000D03*
X117980000Y-114290000D03*
%TD*%
%TO.C,R42*%
X117190000Y-112300000D03*
X118210000Y-112300000D03*
%TD*%
%TO.C,R41*%
X120100000Y-112300000D03*
X121120000Y-112300000D03*
%TD*%
%TO.C,R40*%
X119870000Y-114290000D03*
X120890000Y-114290000D03*
%TD*%
%TO.C,R39*%
X120330000Y-110310000D03*
X121350000Y-110310000D03*
%TD*%
%TO.C,R38*%
X114050000Y-118270000D03*
X115070000Y-118270000D03*
%TD*%
%TO.C,R37*%
X123240000Y-110310000D03*
X124260000Y-110310000D03*
%TD*%
%TO.C,R36*%
X114050000Y-114290000D03*
X115070000Y-114290000D03*
%TD*%
%TO.C,R35*%
X114050000Y-116280000D03*
X115070000Y-116280000D03*
%TD*%
%TO.C,R34*%
X116960000Y-116280000D03*
X117980000Y-116280000D03*
%TD*%
%TO.C,R33*%
X95980000Y-132190000D03*
X97000000Y-132190000D03*
%TD*%
%TO.C,R32*%
X114050000Y-120260000D03*
X115070000Y-120260000D03*
%TD*%
D20*
%TO.C,PWR1*%
X83680000Y-132190000D03*
X84650000Y-132190000D03*
%TD*%
%TO.C,NAV1*%
X89960000Y-132190000D03*
X90930000Y-132190000D03*
%TD*%
%TO.C,MT4*%
X101360000Y-129780000D03*
X102330000Y-129780000D03*
%TD*%
%TO.C,MT3*%
X104500000Y-129780000D03*
X105470000Y-129780000D03*
%TD*%
%TO.C,MT2*%
X114310000Y-110310000D03*
X115280000Y-110310000D03*
%TD*%
%TO.C,MT1*%
X101360000Y-131770000D03*
X102330000Y-131770000D03*
%TD*%
%TO.C,GOAL1*%
X93100000Y-132190000D03*
X94070000Y-132190000D03*
%TD*%
%TO.C,FATAL1*%
X86820000Y-132190000D03*
X87790000Y-132190000D03*
%TD*%
%TO.C,ESCT1*%
X117450000Y-110310000D03*
X118420000Y-110310000D03*
%TD*%
%TO.C,D2*%
X114310000Y-112300000D03*
X115280000Y-112300000D03*
%TD*%
D15*
%TO.C,C9*%
X130850000Y-110300000D03*
X131810000Y-110300000D03*
%TD*%
D21*
%TO.C,C33*%
X126062500Y-54300000D03*
X131137500Y-54300000D03*
%TD*%
D15*
%TO.C,C7*%
X162605000Y-70230000D03*
X163565000Y-70230000D03*
%TD*%
D12*
%TO.C,R2*%
X158475000Y-74220000D03*
X159495000Y-74220000D03*
%TD*%
D22*
%TO.C,5VPWR1*%
X117842500Y-69660000D03*
X119417500Y-69660000D03*
%TD*%
D23*
%TO.C,R22*%
X115177500Y-65920000D03*
X121102500Y-65920000D03*
%TD*%
D12*
%TO.C,R16*%
X141945000Y-86450000D03*
X142965000Y-86450000D03*
%TD*%
D15*
%TO.C,C6*%
X147875000Y-88390000D03*
X148835000Y-88390000D03*
%TD*%
D24*
%TO.C,C1*%
X152562500Y-70500000D03*
X154287500Y-70500000D03*
%TD*%
D25*
%TO.C,R21*%
X116677500Y-74090000D03*
X118502500Y-74090000D03*
%TD*%
D26*
%TO.C,C26*%
X123835000Y-65600000D03*
X126785000Y-65600000D03*
%TD*%
D27*
%TO.C,U2*%
X135012500Y-51475000D03*
X135012500Y-52125000D03*
X135012500Y-52775000D03*
X135012500Y-53425000D03*
X137287500Y-53425000D03*
X137287500Y-52775000D03*
X137287500Y-52125000D03*
X137287500Y-51475000D03*
%TD*%
D12*
%TO.C,R15*%
X144855000Y-84460000D03*
X145875000Y-84460000D03*
%TD*%
D15*
%TO.C,C19*%
X145005000Y-90400000D03*
X145965000Y-90400000D03*
%TD*%
D25*
%TO.C,R25*%
X107197500Y-84830000D03*
X109022500Y-84830000D03*
%TD*%
D12*
%TO.C,R1*%
X144855000Y-86450000D03*
X145875000Y-86450000D03*
%TD*%
D28*
%TO.C,L1*%
X92974401Y-53314600D03*
X103875599Y-53314600D03*
%TD*%
D15*
%TO.C,C10*%
X142775000Y-92680000D03*
X143735000Y-92680000D03*
%TD*%
D12*
%TO.C,R10*%
X158475000Y-72230000D03*
X159495000Y-72230000D03*
%TD*%
D15*
%TO.C,C21*%
X147775000Y-84450000D03*
X148735000Y-84450000D03*
%TD*%
%TO.C,C8*%
X150645000Y-84640000D03*
X151605000Y-84640000D03*
%TD*%
%TO.C,C20*%
X156995000Y-80680000D03*
X157955000Y-80680000D03*
%TD*%
D20*
%TO.C,D1*%
X152455000Y-74740000D03*
X153425000Y-74740000D03*
%TD*%
D12*
%TO.C,R11*%
X148445000Y-78490000D03*
X149465000Y-78490000D03*
%TD*%
D29*
%TO.C,REG2*%
X100261000Y-73728402D03*
X100261000Y-74378400D03*
X100261000Y-75028402D03*
X100261000Y-75678400D03*
X100261000Y-76328402D03*
X100261000Y-76978400D03*
X100261000Y-77628402D03*
X100261000Y-78278400D03*
D30*
X101188399Y-79055800D03*
X101838401Y-79055800D03*
X102488399Y-79055800D03*
X103138401Y-79055800D03*
X103788399Y-79055800D03*
X104438401Y-79055800D03*
D29*
X105365800Y-78278400D03*
X105365800Y-77628402D03*
X105365800Y-76978400D03*
X105365800Y-76328402D03*
X105365800Y-75678400D03*
X105365800Y-75028402D03*
X105365800Y-74378400D03*
X105365800Y-73728402D03*
D30*
X104438401Y-72951002D03*
X103788399Y-72951002D03*
X103138401Y-72951002D03*
X102488399Y-72951002D03*
X101838401Y-72951002D03*
X101188399Y-72951002D03*
D31*
X102813400Y-74453401D03*
%TD*%
D32*
%TO.C,C28*%
X121865000Y-72130000D03*
X123415000Y-72130000D03*
%TD*%
D33*
%TO.C,25MHz1*%
X137185000Y-90810000D03*
X139385000Y-90810000D03*
X139385000Y-89110000D03*
X137185000Y-89110000D03*
%TD*%
D14*
%TO.C,D3*%
X134650000Y-56150000D03*
X136750000Y-56150000D03*
%TD*%
D12*
%TO.C,R18*%
X145085000Y-82470000D03*
X146105000Y-82470000D03*
%TD*%
D20*
%TO.C,FATAL1*%
X130105000Y-94280000D03*
X131075000Y-94280000D03*
%TD*%
D34*
%TO.C,R3*%
X123537500Y-94280000D03*
X124732500Y-94280000D03*
%TD*%
%TO.C,R4*%
X136687500Y-93180000D03*
X137882500Y-93180000D03*
%TD*%
D12*
%TO.C,R13*%
X132985000Y-94280000D03*
X134005000Y-94280000D03*
%TD*%
D20*
%TO.C,WD1*%
X152455000Y-72750000D03*
X153425000Y-72750000D03*
%TD*%
D15*
%TO.C,C15*%
X52020000Y-140700000D03*
X52980000Y-140700000D03*
%TD*%
D34*
%TO.C,R7*%
X142027500Y-78490000D03*
X143222500Y-78490000D03*
%TD*%
D15*
%TO.C,C12*%
X147775000Y-86420000D03*
X148735000Y-86420000D03*
%TD*%
D34*
%TO.C,R5*%
X145277500Y-78490000D03*
X146472500Y-78490000D03*
%TD*%
D11*
%TO.C,R28*%
X116525000Y-76880000D03*
X118175000Y-76880000D03*
%TD*%
D26*
%TO.C,C34*%
X112285000Y-70490000D03*
X115235000Y-70490000D03*
%TD*%
D35*
%TO.C,U3*%
X59440000Y-45990000D03*
X59440000Y-46490000D03*
X59440000Y-46990000D03*
X59440000Y-47490000D03*
X59440000Y-47990000D03*
X59440000Y-48490000D03*
D36*
X60140000Y-49190000D03*
X60640000Y-49190000D03*
X61140000Y-49190000D03*
X61640000Y-49190000D03*
X62140000Y-49190000D03*
X62640000Y-49190000D03*
D35*
X63340000Y-48490000D03*
X63340000Y-47990000D03*
X63340000Y-47490000D03*
X63340000Y-46990000D03*
X63340000Y-46490000D03*
X63340000Y-45990000D03*
D36*
X62640000Y-45290000D03*
X62140000Y-45290000D03*
X61640000Y-45290000D03*
X61140000Y-45290000D03*
X60640000Y-45290000D03*
X60140000Y-45290000D03*
%TD*%
D12*
%TO.C,R14*%
X139855000Y-93180000D03*
X140875000Y-93180000D03*
%TD*%
D22*
%TO.C,LED1*%
X97212500Y-100000000D03*
X98787500Y-100000000D03*
%TD*%
D37*
%TO.C,C32*%
X112210000Y-74120000D03*
X114110000Y-74120000D03*
%TD*%
D12*
%TO.C,R8*%
X159685000Y-70240000D03*
X160705000Y-70240000D03*
%TD*%
D38*
%TO.C,U1*%
X71065000Y-60040000D03*
X71065000Y-60540000D03*
X71065000Y-61040000D03*
X71065000Y-61540000D03*
X71065000Y-62040000D03*
X71065000Y-62540000D03*
X71065000Y-63040000D03*
X71065000Y-63540000D03*
X71065000Y-64040000D03*
X71065000Y-64540000D03*
X71065000Y-65040000D03*
X71065000Y-65540000D03*
X71065000Y-66040000D03*
X71065000Y-66540000D03*
X71065000Y-67040000D03*
X71065000Y-67540000D03*
X71065000Y-68040000D03*
X71065000Y-68540000D03*
X71065000Y-69040000D03*
X71065000Y-69540000D03*
X71065000Y-70040000D03*
X71065000Y-70540000D03*
X71065000Y-71040000D03*
X71065000Y-71540000D03*
X71065000Y-72040000D03*
D39*
X72740000Y-73715000D03*
X73240000Y-73715000D03*
X73740000Y-73715000D03*
X74240000Y-73715000D03*
X74740000Y-73715000D03*
X75240000Y-73715000D03*
X75740000Y-73715000D03*
X76240000Y-73715000D03*
X76740000Y-73715000D03*
X77240000Y-73715000D03*
X77740000Y-73715000D03*
X78240000Y-73715000D03*
X78740000Y-73715000D03*
X79240000Y-73715000D03*
X79740000Y-73715000D03*
X80240000Y-73715000D03*
X80740000Y-73715000D03*
X81240000Y-73715000D03*
X81740000Y-73715000D03*
X82240000Y-73715000D03*
X82740000Y-73715000D03*
X83240000Y-73715000D03*
X83740000Y-73715000D03*
X84240000Y-73715000D03*
X84740000Y-73715000D03*
D38*
X86415000Y-72040000D03*
X86415000Y-71540000D03*
X86415000Y-71040000D03*
X86415000Y-70540000D03*
X86415000Y-70040000D03*
X86415000Y-69540000D03*
X86415000Y-69040000D03*
X86415000Y-68540000D03*
X86415000Y-68040000D03*
X86415000Y-67540000D03*
X86415000Y-67040000D03*
X86415000Y-66540000D03*
X86415000Y-66040000D03*
X86415000Y-65540000D03*
X86415000Y-65040000D03*
X86415000Y-64540000D03*
X86415000Y-64040000D03*
X86415000Y-63540000D03*
X86415000Y-63040000D03*
X86415000Y-62540000D03*
X86415000Y-62040000D03*
X86415000Y-61540000D03*
X86415000Y-61040000D03*
X86415000Y-60540000D03*
X86415000Y-60040000D03*
D39*
X84740000Y-58365000D03*
X84240000Y-58365000D03*
X83740000Y-58365000D03*
X83240000Y-58365000D03*
X82740000Y-58365000D03*
X82240000Y-58365000D03*
X81740000Y-58365000D03*
X81240000Y-58365000D03*
X80740000Y-58365000D03*
X80240000Y-58365000D03*
X79740000Y-58365000D03*
X79240000Y-58365000D03*
X78740000Y-58365000D03*
X78240000Y-58365000D03*
X77740000Y-58365000D03*
X77240000Y-58365000D03*
X76740000Y-58365000D03*
X76240000Y-58365000D03*
X75740000Y-58365000D03*
X75240000Y-58365000D03*
X74740000Y-58365000D03*
X74240000Y-58365000D03*
X73740000Y-58365000D03*
X73240000Y-58365000D03*
X72740000Y-58365000D03*
%TD*%
D12*
%TO.C,R17*%
X152195000Y-76730000D03*
X153215000Y-76730000D03*
%TD*%
D15*
%TO.C,C30*%
X130320000Y-62310000D03*
X131280000Y-62310000D03*
%TD*%
D25*
%TO.C,R26*%
X129327500Y-59850000D03*
X131152500Y-59850000D03*
%TD*%
D15*
%TO.C,C16*%
X65520000Y-45050000D03*
X66480000Y-45050000D03*
%TD*%
%TO.C,CV2*%
X165475000Y-70230000D03*
X166435000Y-70230000D03*
%TD*%
%TO.C,C27*%
X138780000Y-55660000D03*
X139740000Y-55660000D03*
%TD*%
D20*
%TO.C,GOAL1*%
X156805000Y-70240000D03*
X157775000Y-70240000D03*
%TD*%
D25*
%TO.C,R24*%
X124917500Y-59850000D03*
X126742500Y-59850000D03*
%TD*%
D15*
%TO.C,C23*%
X141865000Y-90710000D03*
X142825000Y-90710000D03*
%TD*%
%TO.C,C17*%
X161395000Y-74190000D03*
X162355000Y-74190000D03*
%TD*%
D32*
%TO.C,C24*%
X134805000Y-58880000D03*
X136355000Y-58880000D03*
%TD*%
D11*
%TO.C,R23*%
X121815000Y-69620000D03*
X123465000Y-69620000D03*
%TD*%
D15*
%TO.C,C31*%
X124580000Y-62310000D03*
X125540000Y-62310000D03*
%TD*%
%TO.C,C14*%
X154125000Y-80700000D03*
X155085000Y-80700000D03*
%TD*%
D20*
%TO.C,FB1*%
X151380000Y-78720000D03*
X152350000Y-78720000D03*
%TD*%
D15*
%TO.C,C5*%
X157985000Y-76720000D03*
X158945000Y-76720000D03*
%TD*%
D12*
%TO.C,R19*%
X147995000Y-82470000D03*
X149015000Y-82470000D03*
%TD*%
D20*
%TO.C,PWR1*%
X142115000Y-88730000D03*
X143085000Y-88730000D03*
%TD*%
D15*
%TO.C,CV1*%
X153785000Y-82670000D03*
X154745000Y-82670000D03*
%TD*%
D12*
%TO.C,R20*%
X141945000Y-84460000D03*
X142965000Y-84460000D03*
%TD*%
D15*
%TO.C,C4*%
X155115000Y-76720000D03*
X156075000Y-76720000D03*
%TD*%
%TO.C,C29*%
X127450000Y-62310000D03*
X128410000Y-62310000D03*
%TD*%
D20*
%TO.C,BOOT1*%
X126965000Y-94280000D03*
X127935000Y-94280000D03*
%TD*%
D21*
%TO.C,C25*%
X98392500Y-87430000D03*
X103467500Y-87430000D03*
%TD*%
D15*
%TO.C,C11*%
X150915000Y-82670000D03*
X151875000Y-82670000D03*
%TD*%
D20*
%TO.C,NAV1*%
X155595000Y-72750000D03*
X156565000Y-72750000D03*
%TD*%
%TO.C,WD2*%
X145455000Y-80480000D03*
X146425000Y-80480000D03*
%TD*%
D15*
%TO.C,C2*%
X164265000Y-72200000D03*
X165225000Y-72200000D03*
%TD*%
D34*
%TO.C,R6*%
X142027500Y-80480000D03*
X143222500Y-80480000D03*
%TD*%
D12*
%TO.C,R9*%
X155335000Y-74740000D03*
X156355000Y-74740000D03*
%TD*%
D15*
%TO.C,C9*%
X154275000Y-78710000D03*
X155235000Y-78710000D03*
%TD*%
D40*
%TO.C,REG1*%
X117266000Y-57505999D03*
X117266000Y-58456000D03*
X117266000Y-59406001D03*
X120156800Y-59406001D03*
X120156800Y-58456000D03*
X120156800Y-57505999D03*
D41*
X118711400Y-58456000D03*
%TD*%
D15*
%TO.C,C13*%
X161395000Y-72220000D03*
X162355000Y-72220000D03*
%TD*%
D20*
%TO.C,D2*%
X142205000Y-82470000D03*
X143175000Y-82470000D03*
%TD*%
D15*
%TO.C,C22*%
X151255000Y-80700000D03*
X152215000Y-80700000D03*
%TD*%
D12*
%TO.C,R12*%
X148335000Y-80480000D03*
X149355000Y-80480000D03*
%TD*%
D15*
%TO.C,C3*%
X157145000Y-78690000D03*
X158105000Y-78690000D03*
%TD*%
%TO.C,C36*%
X59170000Y-51400000D03*
X60130000Y-51400000D03*
%TD*%
%TO.C,C18*%
X145005000Y-88430000D03*
X145965000Y-88430000D03*
%TD*%
D25*
%TO.C,R27*%
X112227500Y-77100000D03*
X114052500Y-77100000D03*
%TD*%
M02*
