%TF.GenerationSoftware,KiCad,Pcbnew,6.0.7+dfsg-1build1*%
%TF.CreationDate,2022-11-02T19:08:18-04:00*%
%TF.ProjectId,Fc,46632e6b-6963-4616-945f-706362585858,rev?*%
%TF.SameCoordinates,Original*%
%TF.FileFunction,Legend,Top*%
%TF.FilePolarity,Positive*%
%FSLAX46Y46*%
G04 Gerber Fmt 4.6, Leading zero omitted, Abs format (unit mm)*
G04 Created by KiCad (PCBNEW 6.0.7+dfsg-1build1) date 2022-11-02 19:08:18*
%MOMM*%
%LPD*%
G01*
G04 APERTURE LIST*
%ADD10C,0.150000*%
%ADD11C,0.120000*%
%ADD12C,0.100000*%
G04 APERTURE END LIST*
D10*
%TO.C,TP4*%
X166883095Y-117934380D02*
X167454523Y-117934380D01*
X167168809Y-118934380D02*
X167168809Y-117934380D01*
X167787857Y-118934380D02*
X167787857Y-117934380D01*
X168168809Y-117934380D01*
X168264047Y-117982000D01*
X168311666Y-118029619D01*
X168359285Y-118124857D01*
X168359285Y-118267714D01*
X168311666Y-118362952D01*
X168264047Y-118410571D01*
X168168809Y-118458190D01*
X167787857Y-118458190D01*
X169216428Y-118267714D02*
X169216428Y-118934380D01*
X168978333Y-117886761D02*
X168740238Y-118601047D01*
X169359285Y-118601047D01*
%TO.C,TP3*%
X170933095Y-121984380D02*
X171504523Y-121984380D01*
X171218809Y-122984380D02*
X171218809Y-121984380D01*
X171837857Y-122984380D02*
X171837857Y-121984380D01*
X172218809Y-121984380D01*
X172314047Y-122032000D01*
X172361666Y-122079619D01*
X172409285Y-122174857D01*
X172409285Y-122317714D01*
X172361666Y-122412952D01*
X172314047Y-122460571D01*
X172218809Y-122508190D01*
X171837857Y-122508190D01*
X172742619Y-121984380D02*
X173361666Y-121984380D01*
X173028333Y-122365333D01*
X173171190Y-122365333D01*
X173266428Y-122412952D01*
X173314047Y-122460571D01*
X173361666Y-122555809D01*
X173361666Y-122793904D01*
X173314047Y-122889142D01*
X173266428Y-122936761D01*
X173171190Y-122984380D01*
X172885476Y-122984380D01*
X172790238Y-122936761D01*
X172742619Y-122889142D01*
%TO.C,TP2*%
X166883095Y-121984380D02*
X167454523Y-121984380D01*
X167168809Y-122984380D02*
X167168809Y-121984380D01*
X167787857Y-122984380D02*
X167787857Y-121984380D01*
X168168809Y-121984380D01*
X168264047Y-122032000D01*
X168311666Y-122079619D01*
X168359285Y-122174857D01*
X168359285Y-122317714D01*
X168311666Y-122412952D01*
X168264047Y-122460571D01*
X168168809Y-122508190D01*
X167787857Y-122508190D01*
X168740238Y-122079619D02*
X168787857Y-122032000D01*
X168883095Y-121984380D01*
X169121190Y-121984380D01*
X169216428Y-122032000D01*
X169264047Y-122079619D01*
X169311666Y-122174857D01*
X169311666Y-122270095D01*
X169264047Y-122412952D01*
X168692619Y-122984380D01*
X169311666Y-122984380D01*
%TO.C,TP1*%
X170933095Y-117934380D02*
X171504523Y-117934380D01*
X171218809Y-118934380D02*
X171218809Y-117934380D01*
X171837857Y-118934380D02*
X171837857Y-117934380D01*
X172218809Y-117934380D01*
X172314047Y-117982000D01*
X172361666Y-118029619D01*
X172409285Y-118124857D01*
X172409285Y-118267714D01*
X172361666Y-118362952D01*
X172314047Y-118410571D01*
X172218809Y-118458190D01*
X171837857Y-118458190D01*
X173361666Y-118934380D02*
X172790238Y-118934380D01*
X173075952Y-118934380D02*
X173075952Y-117934380D01*
X172980714Y-118077238D01*
X172885476Y-118172476D01*
X172790238Y-118220095D01*
%TO.C,R31*%
X148752142Y-123752380D02*
X148418809Y-123276190D01*
X148180714Y-123752380D02*
X148180714Y-122752380D01*
X148561666Y-122752380D01*
X148656904Y-122800000D01*
X148704523Y-122847619D01*
X148752142Y-122942857D01*
X148752142Y-123085714D01*
X148704523Y-123180952D01*
X148656904Y-123228571D01*
X148561666Y-123276190D01*
X148180714Y-123276190D01*
X149085476Y-122752380D02*
X149704523Y-122752380D01*
X149371190Y-123133333D01*
X149514047Y-123133333D01*
X149609285Y-123180952D01*
X149656904Y-123228571D01*
X149704523Y-123323809D01*
X149704523Y-123561904D01*
X149656904Y-123657142D01*
X149609285Y-123704761D01*
X149514047Y-123752380D01*
X149228333Y-123752380D01*
X149133095Y-123704761D01*
X149085476Y-123657142D01*
X150656904Y-123752380D02*
X150085476Y-123752380D01*
X150371190Y-123752380D02*
X150371190Y-122752380D01*
X150275952Y-122895238D01*
X150180714Y-122990476D01*
X150085476Y-123038095D01*
%TO.C,R30*%
X152762142Y-126262380D02*
X152428809Y-125786190D01*
X152190714Y-126262380D02*
X152190714Y-125262380D01*
X152571666Y-125262380D01*
X152666904Y-125310000D01*
X152714523Y-125357619D01*
X152762142Y-125452857D01*
X152762142Y-125595714D01*
X152714523Y-125690952D01*
X152666904Y-125738571D01*
X152571666Y-125786190D01*
X152190714Y-125786190D01*
X153095476Y-125262380D02*
X153714523Y-125262380D01*
X153381190Y-125643333D01*
X153524047Y-125643333D01*
X153619285Y-125690952D01*
X153666904Y-125738571D01*
X153714523Y-125833809D01*
X153714523Y-126071904D01*
X153666904Y-126167142D01*
X153619285Y-126214761D01*
X153524047Y-126262380D01*
X153238333Y-126262380D01*
X153143095Y-126214761D01*
X153095476Y-126167142D01*
X154333571Y-125262380D02*
X154428809Y-125262380D01*
X154524047Y-125310000D01*
X154571666Y-125357619D01*
X154619285Y-125452857D01*
X154666904Y-125643333D01*
X154666904Y-125881428D01*
X154619285Y-126071904D01*
X154571666Y-126167142D01*
X154524047Y-126214761D01*
X154428809Y-126262380D01*
X154333571Y-126262380D01*
X154238333Y-126214761D01*
X154190714Y-126167142D01*
X154143095Y-126071904D01*
X154095476Y-125881428D01*
X154095476Y-125643333D01*
X154143095Y-125452857D01*
X154190714Y-125357619D01*
X154238333Y-125310000D01*
X154333571Y-125262380D01*
%TO.C,R29*%
X144742142Y-121242380D02*
X144408809Y-120766190D01*
X144170714Y-121242380D02*
X144170714Y-120242380D01*
X144551666Y-120242380D01*
X144646904Y-120290000D01*
X144694523Y-120337619D01*
X144742142Y-120432857D01*
X144742142Y-120575714D01*
X144694523Y-120670952D01*
X144646904Y-120718571D01*
X144551666Y-120766190D01*
X144170714Y-120766190D01*
X145123095Y-120337619D02*
X145170714Y-120290000D01*
X145265952Y-120242380D01*
X145504047Y-120242380D01*
X145599285Y-120290000D01*
X145646904Y-120337619D01*
X145694523Y-120432857D01*
X145694523Y-120528095D01*
X145646904Y-120670952D01*
X145075476Y-121242380D01*
X145694523Y-121242380D01*
X146170714Y-121242380D02*
X146361190Y-121242380D01*
X146456428Y-121194761D01*
X146504047Y-121147142D01*
X146599285Y-121004285D01*
X146646904Y-120813809D01*
X146646904Y-120432857D01*
X146599285Y-120337619D01*
X146551666Y-120290000D01*
X146456428Y-120242380D01*
X146265952Y-120242380D01*
X146170714Y-120290000D01*
X146123095Y-120337619D01*
X146075476Y-120432857D01*
X146075476Y-120670952D01*
X146123095Y-120766190D01*
X146170714Y-120813809D01*
X146265952Y-120861428D01*
X146456428Y-120861428D01*
X146551666Y-120813809D01*
X146599285Y-120766190D01*
X146646904Y-120670952D01*
%TO.C,R20*%
X152762142Y-123752380D02*
X152428809Y-123276190D01*
X152190714Y-123752380D02*
X152190714Y-122752380D01*
X152571666Y-122752380D01*
X152666904Y-122800000D01*
X152714523Y-122847619D01*
X152762142Y-122942857D01*
X152762142Y-123085714D01*
X152714523Y-123180952D01*
X152666904Y-123228571D01*
X152571666Y-123276190D01*
X152190714Y-123276190D01*
X153143095Y-122847619D02*
X153190714Y-122800000D01*
X153285952Y-122752380D01*
X153524047Y-122752380D01*
X153619285Y-122800000D01*
X153666904Y-122847619D01*
X153714523Y-122942857D01*
X153714523Y-123038095D01*
X153666904Y-123180952D01*
X153095476Y-123752380D01*
X153714523Y-123752380D01*
X154333571Y-122752380D02*
X154428809Y-122752380D01*
X154524047Y-122800000D01*
X154571666Y-122847619D01*
X154619285Y-122942857D01*
X154666904Y-123133333D01*
X154666904Y-123371428D01*
X154619285Y-123561904D01*
X154571666Y-123657142D01*
X154524047Y-123704761D01*
X154428809Y-123752380D01*
X154333571Y-123752380D01*
X154238333Y-123704761D01*
X154190714Y-123657142D01*
X154143095Y-123561904D01*
X154095476Y-123371428D01*
X154095476Y-123133333D01*
X154143095Y-122942857D01*
X154190714Y-122847619D01*
X154238333Y-122800000D01*
X154333571Y-122752380D01*
%TO.C,R19*%
X148752142Y-121242380D02*
X148418809Y-120766190D01*
X148180714Y-121242380D02*
X148180714Y-120242380D01*
X148561666Y-120242380D01*
X148656904Y-120290000D01*
X148704523Y-120337619D01*
X148752142Y-120432857D01*
X148752142Y-120575714D01*
X148704523Y-120670952D01*
X148656904Y-120718571D01*
X148561666Y-120766190D01*
X148180714Y-120766190D01*
X149704523Y-121242380D02*
X149133095Y-121242380D01*
X149418809Y-121242380D02*
X149418809Y-120242380D01*
X149323571Y-120385238D01*
X149228333Y-120480476D01*
X149133095Y-120528095D01*
X150180714Y-121242380D02*
X150371190Y-121242380D01*
X150466428Y-121194761D01*
X150514047Y-121147142D01*
X150609285Y-121004285D01*
X150656904Y-120813809D01*
X150656904Y-120432857D01*
X150609285Y-120337619D01*
X150561666Y-120290000D01*
X150466428Y-120242380D01*
X150275952Y-120242380D01*
X150180714Y-120290000D01*
X150133095Y-120337619D01*
X150085476Y-120432857D01*
X150085476Y-120670952D01*
X150133095Y-120766190D01*
X150180714Y-120813809D01*
X150275952Y-120861428D01*
X150466428Y-120861428D01*
X150561666Y-120813809D01*
X150609285Y-120766190D01*
X150656904Y-120670952D01*
%TO.C,R18*%
X144742142Y-126262380D02*
X144408809Y-125786190D01*
X144170714Y-126262380D02*
X144170714Y-125262380D01*
X144551666Y-125262380D01*
X144646904Y-125310000D01*
X144694523Y-125357619D01*
X144742142Y-125452857D01*
X144742142Y-125595714D01*
X144694523Y-125690952D01*
X144646904Y-125738571D01*
X144551666Y-125786190D01*
X144170714Y-125786190D01*
X145694523Y-126262380D02*
X145123095Y-126262380D01*
X145408809Y-126262380D02*
X145408809Y-125262380D01*
X145313571Y-125405238D01*
X145218333Y-125500476D01*
X145123095Y-125548095D01*
X146265952Y-125690952D02*
X146170714Y-125643333D01*
X146123095Y-125595714D01*
X146075476Y-125500476D01*
X146075476Y-125452857D01*
X146123095Y-125357619D01*
X146170714Y-125310000D01*
X146265952Y-125262380D01*
X146456428Y-125262380D01*
X146551666Y-125310000D01*
X146599285Y-125357619D01*
X146646904Y-125452857D01*
X146646904Y-125500476D01*
X146599285Y-125595714D01*
X146551666Y-125643333D01*
X146456428Y-125690952D01*
X146265952Y-125690952D01*
X146170714Y-125738571D01*
X146123095Y-125786190D01*
X146075476Y-125881428D01*
X146075476Y-126071904D01*
X146123095Y-126167142D01*
X146170714Y-126214761D01*
X146265952Y-126262380D01*
X146456428Y-126262380D01*
X146551666Y-126214761D01*
X146599285Y-126167142D01*
X146646904Y-126071904D01*
X146646904Y-125881428D01*
X146599285Y-125786190D01*
X146551666Y-125738571D01*
X146456428Y-125690952D01*
%TO.C,R17*%
X156772142Y-118732380D02*
X156438809Y-118256190D01*
X156200714Y-118732380D02*
X156200714Y-117732380D01*
X156581666Y-117732380D01*
X156676904Y-117780000D01*
X156724523Y-117827619D01*
X156772142Y-117922857D01*
X156772142Y-118065714D01*
X156724523Y-118160952D01*
X156676904Y-118208571D01*
X156581666Y-118256190D01*
X156200714Y-118256190D01*
X157724523Y-118732380D02*
X157153095Y-118732380D01*
X157438809Y-118732380D02*
X157438809Y-117732380D01*
X157343571Y-117875238D01*
X157248333Y-117970476D01*
X157153095Y-118018095D01*
X158057857Y-117732380D02*
X158724523Y-117732380D01*
X158295952Y-118732380D01*
%TO.C,R16*%
X148752142Y-118732380D02*
X148418809Y-118256190D01*
X148180714Y-118732380D02*
X148180714Y-117732380D01*
X148561666Y-117732380D01*
X148656904Y-117780000D01*
X148704523Y-117827619D01*
X148752142Y-117922857D01*
X148752142Y-118065714D01*
X148704523Y-118160952D01*
X148656904Y-118208571D01*
X148561666Y-118256190D01*
X148180714Y-118256190D01*
X149704523Y-118732380D02*
X149133095Y-118732380D01*
X149418809Y-118732380D02*
X149418809Y-117732380D01*
X149323571Y-117875238D01*
X149228333Y-117970476D01*
X149133095Y-118018095D01*
X150561666Y-117732380D02*
X150371190Y-117732380D01*
X150275952Y-117780000D01*
X150228333Y-117827619D01*
X150133095Y-117970476D01*
X150085476Y-118160952D01*
X150085476Y-118541904D01*
X150133095Y-118637142D01*
X150180714Y-118684761D01*
X150275952Y-118732380D01*
X150466428Y-118732380D01*
X150561666Y-118684761D01*
X150609285Y-118637142D01*
X150656904Y-118541904D01*
X150656904Y-118303809D01*
X150609285Y-118208571D01*
X150561666Y-118160952D01*
X150466428Y-118113333D01*
X150275952Y-118113333D01*
X150180714Y-118160952D01*
X150133095Y-118208571D01*
X150085476Y-118303809D01*
%TO.C,R15*%
X156772142Y-121242380D02*
X156438809Y-120766190D01*
X156200714Y-121242380D02*
X156200714Y-120242380D01*
X156581666Y-120242380D01*
X156676904Y-120290000D01*
X156724523Y-120337619D01*
X156772142Y-120432857D01*
X156772142Y-120575714D01*
X156724523Y-120670952D01*
X156676904Y-120718571D01*
X156581666Y-120766190D01*
X156200714Y-120766190D01*
X157724523Y-121242380D02*
X157153095Y-121242380D01*
X157438809Y-121242380D02*
X157438809Y-120242380D01*
X157343571Y-120385238D01*
X157248333Y-120480476D01*
X157153095Y-120528095D01*
X158629285Y-120242380D02*
X158153095Y-120242380D01*
X158105476Y-120718571D01*
X158153095Y-120670952D01*
X158248333Y-120623333D01*
X158486428Y-120623333D01*
X158581666Y-120670952D01*
X158629285Y-120718571D01*
X158676904Y-120813809D01*
X158676904Y-121051904D01*
X158629285Y-121147142D01*
X158581666Y-121194761D01*
X158486428Y-121242380D01*
X158248333Y-121242380D01*
X158153095Y-121194761D01*
X158105476Y-121147142D01*
%TO.C,R14*%
X148752142Y-126262380D02*
X148418809Y-125786190D01*
X148180714Y-126262380D02*
X148180714Y-125262380D01*
X148561666Y-125262380D01*
X148656904Y-125310000D01*
X148704523Y-125357619D01*
X148752142Y-125452857D01*
X148752142Y-125595714D01*
X148704523Y-125690952D01*
X148656904Y-125738571D01*
X148561666Y-125786190D01*
X148180714Y-125786190D01*
X149704523Y-126262380D02*
X149133095Y-126262380D01*
X149418809Y-126262380D02*
X149418809Y-125262380D01*
X149323571Y-125405238D01*
X149228333Y-125500476D01*
X149133095Y-125548095D01*
X150561666Y-125595714D02*
X150561666Y-126262380D01*
X150323571Y-125214761D02*
X150085476Y-125929047D01*
X150704523Y-125929047D01*
%TO.C,R13*%
X144742142Y-123752380D02*
X144408809Y-123276190D01*
X144170714Y-123752380D02*
X144170714Y-122752380D01*
X144551666Y-122752380D01*
X144646904Y-122800000D01*
X144694523Y-122847619D01*
X144742142Y-122942857D01*
X144742142Y-123085714D01*
X144694523Y-123180952D01*
X144646904Y-123228571D01*
X144551666Y-123276190D01*
X144170714Y-123276190D01*
X145694523Y-123752380D02*
X145123095Y-123752380D01*
X145408809Y-123752380D02*
X145408809Y-122752380D01*
X145313571Y-122895238D01*
X145218333Y-122990476D01*
X145123095Y-123038095D01*
X146027857Y-122752380D02*
X146646904Y-122752380D01*
X146313571Y-123133333D01*
X146456428Y-123133333D01*
X146551666Y-123180952D01*
X146599285Y-123228571D01*
X146646904Y-123323809D01*
X146646904Y-123561904D01*
X146599285Y-123657142D01*
X146551666Y-123704761D01*
X146456428Y-123752380D01*
X146170714Y-123752380D01*
X146075476Y-123704761D01*
X146027857Y-123657142D01*
%TO.C,R12*%
X152762142Y-121242380D02*
X152428809Y-120766190D01*
X152190714Y-121242380D02*
X152190714Y-120242380D01*
X152571666Y-120242380D01*
X152666904Y-120290000D01*
X152714523Y-120337619D01*
X152762142Y-120432857D01*
X152762142Y-120575714D01*
X152714523Y-120670952D01*
X152666904Y-120718571D01*
X152571666Y-120766190D01*
X152190714Y-120766190D01*
X153714523Y-121242380D02*
X153143095Y-121242380D01*
X153428809Y-121242380D02*
X153428809Y-120242380D01*
X153333571Y-120385238D01*
X153238333Y-120480476D01*
X153143095Y-120528095D01*
X154095476Y-120337619D02*
X154143095Y-120290000D01*
X154238333Y-120242380D01*
X154476428Y-120242380D01*
X154571666Y-120290000D01*
X154619285Y-120337619D01*
X154666904Y-120432857D01*
X154666904Y-120528095D01*
X154619285Y-120670952D01*
X154047857Y-121242380D01*
X154666904Y-121242380D01*
%TO.C,R11*%
X152762142Y-118732380D02*
X152428809Y-118256190D01*
X152190714Y-118732380D02*
X152190714Y-117732380D01*
X152571666Y-117732380D01*
X152666904Y-117780000D01*
X152714523Y-117827619D01*
X152762142Y-117922857D01*
X152762142Y-118065714D01*
X152714523Y-118160952D01*
X152666904Y-118208571D01*
X152571666Y-118256190D01*
X152190714Y-118256190D01*
X153714523Y-118732380D02*
X153143095Y-118732380D01*
X153428809Y-118732380D02*
X153428809Y-117732380D01*
X153333571Y-117875238D01*
X153238333Y-117970476D01*
X153143095Y-118018095D01*
X154666904Y-118732380D02*
X154095476Y-118732380D01*
X154381190Y-118732380D02*
X154381190Y-117732380D01*
X154285952Y-117875238D01*
X154190714Y-117970476D01*
X154095476Y-118018095D01*
%TO.C,R10*%
X144742142Y-118732380D02*
X144408809Y-118256190D01*
X144170714Y-118732380D02*
X144170714Y-117732380D01*
X144551666Y-117732380D01*
X144646904Y-117780000D01*
X144694523Y-117827619D01*
X144742142Y-117922857D01*
X144742142Y-118065714D01*
X144694523Y-118160952D01*
X144646904Y-118208571D01*
X144551666Y-118256190D01*
X144170714Y-118256190D01*
X145694523Y-118732380D02*
X145123095Y-118732380D01*
X145408809Y-118732380D02*
X145408809Y-117732380D01*
X145313571Y-117875238D01*
X145218333Y-117970476D01*
X145123095Y-118018095D01*
X146313571Y-117732380D02*
X146408809Y-117732380D01*
X146504047Y-117780000D01*
X146551666Y-117827619D01*
X146599285Y-117922857D01*
X146646904Y-118113333D01*
X146646904Y-118351428D01*
X146599285Y-118541904D01*
X146551666Y-118637142D01*
X146504047Y-118684761D01*
X146408809Y-118732380D01*
X146313571Y-118732380D01*
X146218333Y-118684761D01*
X146170714Y-118637142D01*
X146123095Y-118541904D01*
X146075476Y-118351428D01*
X146075476Y-118113333D01*
X146123095Y-117922857D01*
X146170714Y-117827619D01*
X146218333Y-117780000D01*
X146313571Y-117732380D01*
%TO.C,R9*%
X160708333Y-118732380D02*
X160375000Y-118256190D01*
X160136904Y-118732380D02*
X160136904Y-117732380D01*
X160517857Y-117732380D01*
X160613095Y-117780000D01*
X160660714Y-117827619D01*
X160708333Y-117922857D01*
X160708333Y-118065714D01*
X160660714Y-118160952D01*
X160613095Y-118208571D01*
X160517857Y-118256190D01*
X160136904Y-118256190D01*
X161184523Y-118732380D02*
X161375000Y-118732380D01*
X161470238Y-118684761D01*
X161517857Y-118637142D01*
X161613095Y-118494285D01*
X161660714Y-118303809D01*
X161660714Y-117922857D01*
X161613095Y-117827619D01*
X161565476Y-117780000D01*
X161470238Y-117732380D01*
X161279761Y-117732380D01*
X161184523Y-117780000D01*
X161136904Y-117827619D01*
X161089285Y-117922857D01*
X161089285Y-118160952D01*
X161136904Y-118256190D01*
X161184523Y-118303809D01*
X161279761Y-118351428D01*
X161470238Y-118351428D01*
X161565476Y-118303809D01*
X161613095Y-118256190D01*
X161660714Y-118160952D01*
%TO.C,R4T5*%
X164751190Y-101772380D02*
X164417857Y-101296190D01*
X164179761Y-101772380D02*
X164179761Y-100772380D01*
X164560714Y-100772380D01*
X164655952Y-100820000D01*
X164703571Y-100867619D01*
X164751190Y-100962857D01*
X164751190Y-101105714D01*
X164703571Y-101200952D01*
X164655952Y-101248571D01*
X164560714Y-101296190D01*
X164179761Y-101296190D01*
X165608333Y-101105714D02*
X165608333Y-101772380D01*
X165370238Y-100724761D02*
X165132142Y-101439047D01*
X165751190Y-101439047D01*
X165989285Y-100772380D02*
X166560714Y-100772380D01*
X166275000Y-101772380D02*
X166275000Y-100772380D01*
X167370238Y-100772380D02*
X166894047Y-100772380D01*
X166846428Y-101248571D01*
X166894047Y-101200952D01*
X166989285Y-101153333D01*
X167227380Y-101153333D01*
X167322619Y-101200952D01*
X167370238Y-101248571D01*
X167417857Y-101343809D01*
X167417857Y-101581904D01*
X167370238Y-101677142D01*
X167322619Y-101724761D01*
X167227380Y-101772380D01*
X166989285Y-101772380D01*
X166894047Y-101724761D01*
X166846428Y-101677142D01*
%TO.C,R4T4*%
X156021190Y-105752380D02*
X155687857Y-105276190D01*
X155449761Y-105752380D02*
X155449761Y-104752380D01*
X155830714Y-104752380D01*
X155925952Y-104800000D01*
X155973571Y-104847619D01*
X156021190Y-104942857D01*
X156021190Y-105085714D01*
X155973571Y-105180952D01*
X155925952Y-105228571D01*
X155830714Y-105276190D01*
X155449761Y-105276190D01*
X156878333Y-105085714D02*
X156878333Y-105752380D01*
X156640238Y-104704761D02*
X156402142Y-105419047D01*
X157021190Y-105419047D01*
X157259285Y-104752380D02*
X157830714Y-104752380D01*
X157545000Y-105752380D02*
X157545000Y-104752380D01*
X158592619Y-105085714D02*
X158592619Y-105752380D01*
X158354523Y-104704761D02*
X158116428Y-105419047D01*
X158735476Y-105419047D01*
%TO.C,R4T3*%
X151371190Y-111072380D02*
X151037857Y-110596190D01*
X150799761Y-111072380D02*
X150799761Y-110072380D01*
X151180714Y-110072380D01*
X151275952Y-110120000D01*
X151323571Y-110167619D01*
X151371190Y-110262857D01*
X151371190Y-110405714D01*
X151323571Y-110500952D01*
X151275952Y-110548571D01*
X151180714Y-110596190D01*
X150799761Y-110596190D01*
X152228333Y-110405714D02*
X152228333Y-111072380D01*
X151990238Y-110024761D02*
X151752142Y-110739047D01*
X152371190Y-110739047D01*
X152609285Y-110072380D02*
X153180714Y-110072380D01*
X152895000Y-111072380D02*
X152895000Y-110072380D01*
X153418809Y-110072380D02*
X154037857Y-110072380D01*
X153704523Y-110453333D01*
X153847380Y-110453333D01*
X153942619Y-110500952D01*
X153990238Y-110548571D01*
X154037857Y-110643809D01*
X154037857Y-110881904D01*
X153990238Y-110977142D01*
X153942619Y-111024761D01*
X153847380Y-111072380D01*
X153561666Y-111072380D01*
X153466428Y-111024761D01*
X153418809Y-110977142D01*
%TO.C,R4T2*%
X153111190Y-103762380D02*
X152777857Y-103286190D01*
X152539761Y-103762380D02*
X152539761Y-102762380D01*
X152920714Y-102762380D01*
X153015952Y-102810000D01*
X153063571Y-102857619D01*
X153111190Y-102952857D01*
X153111190Y-103095714D01*
X153063571Y-103190952D01*
X153015952Y-103238571D01*
X152920714Y-103286190D01*
X152539761Y-103286190D01*
X153968333Y-103095714D02*
X153968333Y-103762380D01*
X153730238Y-102714761D02*
X153492142Y-103429047D01*
X154111190Y-103429047D01*
X154349285Y-102762380D02*
X154920714Y-102762380D01*
X154635000Y-103762380D02*
X154635000Y-102762380D01*
X155206428Y-102857619D02*
X155254047Y-102810000D01*
X155349285Y-102762380D01*
X155587380Y-102762380D01*
X155682619Y-102810000D01*
X155730238Y-102857619D01*
X155777857Y-102952857D01*
X155777857Y-103048095D01*
X155730238Y-103190952D01*
X155158809Y-103762380D01*
X155777857Y-103762380D01*
%TO.C,R4T1*%
X156021190Y-103762380D02*
X155687857Y-103286190D01*
X155449761Y-103762380D02*
X155449761Y-102762380D01*
X155830714Y-102762380D01*
X155925952Y-102810000D01*
X155973571Y-102857619D01*
X156021190Y-102952857D01*
X156021190Y-103095714D01*
X155973571Y-103190952D01*
X155925952Y-103238571D01*
X155830714Y-103286190D01*
X155449761Y-103286190D01*
X156878333Y-103095714D02*
X156878333Y-103762380D01*
X156640238Y-102714761D02*
X156402142Y-103429047D01*
X157021190Y-103429047D01*
X157259285Y-102762380D02*
X157830714Y-102762380D01*
X157545000Y-103762380D02*
X157545000Y-102762380D01*
X158687857Y-103762380D02*
X158116428Y-103762380D01*
X158402142Y-103762380D02*
X158402142Y-102762380D01*
X158306904Y-102905238D01*
X158211666Y-103000476D01*
X158116428Y-103048095D01*
%TO.C,R3T5*%
X154281190Y-111722380D02*
X153947857Y-111246190D01*
X153709761Y-111722380D02*
X153709761Y-110722380D01*
X154090714Y-110722380D01*
X154185952Y-110770000D01*
X154233571Y-110817619D01*
X154281190Y-110912857D01*
X154281190Y-111055714D01*
X154233571Y-111150952D01*
X154185952Y-111198571D01*
X154090714Y-111246190D01*
X153709761Y-111246190D01*
X154614523Y-110722380D02*
X155233571Y-110722380D01*
X154900238Y-111103333D01*
X155043095Y-111103333D01*
X155138333Y-111150952D01*
X155185952Y-111198571D01*
X155233571Y-111293809D01*
X155233571Y-111531904D01*
X155185952Y-111627142D01*
X155138333Y-111674761D01*
X155043095Y-111722380D01*
X154757380Y-111722380D01*
X154662142Y-111674761D01*
X154614523Y-111627142D01*
X155519285Y-110722380D02*
X156090714Y-110722380D01*
X155805000Y-111722380D02*
X155805000Y-110722380D01*
X156900238Y-110722380D02*
X156424047Y-110722380D01*
X156376428Y-111198571D01*
X156424047Y-111150952D01*
X156519285Y-111103333D01*
X156757380Y-111103333D01*
X156852619Y-111150952D01*
X156900238Y-111198571D01*
X156947857Y-111293809D01*
X156947857Y-111531904D01*
X156900238Y-111627142D01*
X156852619Y-111674761D01*
X156757380Y-111722380D01*
X156519285Y-111722380D01*
X156424047Y-111674761D01*
X156376428Y-111627142D01*
%TO.C,R3T4*%
X153111190Y-107742380D02*
X152777857Y-107266190D01*
X152539761Y-107742380D02*
X152539761Y-106742380D01*
X152920714Y-106742380D01*
X153015952Y-106790000D01*
X153063571Y-106837619D01*
X153111190Y-106932857D01*
X153111190Y-107075714D01*
X153063571Y-107170952D01*
X153015952Y-107218571D01*
X152920714Y-107266190D01*
X152539761Y-107266190D01*
X153444523Y-106742380D02*
X154063571Y-106742380D01*
X153730238Y-107123333D01*
X153873095Y-107123333D01*
X153968333Y-107170952D01*
X154015952Y-107218571D01*
X154063571Y-107313809D01*
X154063571Y-107551904D01*
X154015952Y-107647142D01*
X153968333Y-107694761D01*
X153873095Y-107742380D01*
X153587380Y-107742380D01*
X153492142Y-107694761D01*
X153444523Y-107647142D01*
X154349285Y-106742380D02*
X154920714Y-106742380D01*
X154635000Y-107742380D02*
X154635000Y-106742380D01*
X155682619Y-107075714D02*
X155682619Y-107742380D01*
X155444523Y-106694761D02*
X155206428Y-107409047D01*
X155825476Y-107409047D01*
%TO.C,R3T3*%
X148461190Y-111072380D02*
X148127857Y-110596190D01*
X147889761Y-111072380D02*
X147889761Y-110072380D01*
X148270714Y-110072380D01*
X148365952Y-110120000D01*
X148413571Y-110167619D01*
X148461190Y-110262857D01*
X148461190Y-110405714D01*
X148413571Y-110500952D01*
X148365952Y-110548571D01*
X148270714Y-110596190D01*
X147889761Y-110596190D01*
X148794523Y-110072380D02*
X149413571Y-110072380D01*
X149080238Y-110453333D01*
X149223095Y-110453333D01*
X149318333Y-110500952D01*
X149365952Y-110548571D01*
X149413571Y-110643809D01*
X149413571Y-110881904D01*
X149365952Y-110977142D01*
X149318333Y-111024761D01*
X149223095Y-111072380D01*
X148937380Y-111072380D01*
X148842142Y-111024761D01*
X148794523Y-110977142D01*
X149699285Y-110072380D02*
X150270714Y-110072380D01*
X149985000Y-111072380D02*
X149985000Y-110072380D01*
X150508809Y-110072380D02*
X151127857Y-110072380D01*
X150794523Y-110453333D01*
X150937380Y-110453333D01*
X151032619Y-110500952D01*
X151080238Y-110548571D01*
X151127857Y-110643809D01*
X151127857Y-110881904D01*
X151080238Y-110977142D01*
X151032619Y-111024761D01*
X150937380Y-111072380D01*
X150651666Y-111072380D01*
X150556428Y-111024761D01*
X150508809Y-110977142D01*
%TO.C,R3T2*%
X161841190Y-103762380D02*
X161507857Y-103286190D01*
X161269761Y-103762380D02*
X161269761Y-102762380D01*
X161650714Y-102762380D01*
X161745952Y-102810000D01*
X161793571Y-102857619D01*
X161841190Y-102952857D01*
X161841190Y-103095714D01*
X161793571Y-103190952D01*
X161745952Y-103238571D01*
X161650714Y-103286190D01*
X161269761Y-103286190D01*
X162174523Y-102762380D02*
X162793571Y-102762380D01*
X162460238Y-103143333D01*
X162603095Y-103143333D01*
X162698333Y-103190952D01*
X162745952Y-103238571D01*
X162793571Y-103333809D01*
X162793571Y-103571904D01*
X162745952Y-103667142D01*
X162698333Y-103714761D01*
X162603095Y-103762380D01*
X162317380Y-103762380D01*
X162222142Y-103714761D01*
X162174523Y-103667142D01*
X163079285Y-102762380D02*
X163650714Y-102762380D01*
X163365000Y-103762380D02*
X163365000Y-102762380D01*
X163936428Y-102857619D02*
X163984047Y-102810000D01*
X164079285Y-102762380D01*
X164317380Y-102762380D01*
X164412619Y-102810000D01*
X164460238Y-102857619D01*
X164507857Y-102952857D01*
X164507857Y-103048095D01*
X164460238Y-103190952D01*
X163888809Y-103762380D01*
X164507857Y-103762380D01*
%TO.C,R3T1*%
X156021190Y-101772380D02*
X155687857Y-101296190D01*
X155449761Y-101772380D02*
X155449761Y-100772380D01*
X155830714Y-100772380D01*
X155925952Y-100820000D01*
X155973571Y-100867619D01*
X156021190Y-100962857D01*
X156021190Y-101105714D01*
X155973571Y-101200952D01*
X155925952Y-101248571D01*
X155830714Y-101296190D01*
X155449761Y-101296190D01*
X156354523Y-100772380D02*
X156973571Y-100772380D01*
X156640238Y-101153333D01*
X156783095Y-101153333D01*
X156878333Y-101200952D01*
X156925952Y-101248571D01*
X156973571Y-101343809D01*
X156973571Y-101581904D01*
X156925952Y-101677142D01*
X156878333Y-101724761D01*
X156783095Y-101772380D01*
X156497380Y-101772380D01*
X156402142Y-101724761D01*
X156354523Y-101677142D01*
X157259285Y-100772380D02*
X157830714Y-100772380D01*
X157545000Y-101772380D02*
X157545000Y-100772380D01*
X158687857Y-101772380D02*
X158116428Y-101772380D01*
X158402142Y-101772380D02*
X158402142Y-100772380D01*
X158306904Y-100915238D01*
X158211666Y-101010476D01*
X158116428Y-101058095D01*
%TO.C,R2T5*%
X148461190Y-113062380D02*
X148127857Y-112586190D01*
X147889761Y-113062380D02*
X147889761Y-112062380D01*
X148270714Y-112062380D01*
X148365952Y-112110000D01*
X148413571Y-112157619D01*
X148461190Y-112252857D01*
X148461190Y-112395714D01*
X148413571Y-112490952D01*
X148365952Y-112538571D01*
X148270714Y-112586190D01*
X147889761Y-112586190D01*
X148842142Y-112157619D02*
X148889761Y-112110000D01*
X148985000Y-112062380D01*
X149223095Y-112062380D01*
X149318333Y-112110000D01*
X149365952Y-112157619D01*
X149413571Y-112252857D01*
X149413571Y-112348095D01*
X149365952Y-112490952D01*
X148794523Y-113062380D01*
X149413571Y-113062380D01*
X149699285Y-112062380D02*
X150270714Y-112062380D01*
X149985000Y-113062380D02*
X149985000Y-112062380D01*
X151080238Y-112062380D02*
X150604047Y-112062380D01*
X150556428Y-112538571D01*
X150604047Y-112490952D01*
X150699285Y-112443333D01*
X150937380Y-112443333D01*
X151032619Y-112490952D01*
X151080238Y-112538571D01*
X151127857Y-112633809D01*
X151127857Y-112871904D01*
X151080238Y-112967142D01*
X151032619Y-113014761D01*
X150937380Y-113062380D01*
X150699285Y-113062380D01*
X150604047Y-113014761D01*
X150556428Y-112967142D01*
%TO.C,R2T4*%
X151371190Y-113062380D02*
X151037857Y-112586190D01*
X150799761Y-113062380D02*
X150799761Y-112062380D01*
X151180714Y-112062380D01*
X151275952Y-112110000D01*
X151323571Y-112157619D01*
X151371190Y-112252857D01*
X151371190Y-112395714D01*
X151323571Y-112490952D01*
X151275952Y-112538571D01*
X151180714Y-112586190D01*
X150799761Y-112586190D01*
X151752142Y-112157619D02*
X151799761Y-112110000D01*
X151895000Y-112062380D01*
X152133095Y-112062380D01*
X152228333Y-112110000D01*
X152275952Y-112157619D01*
X152323571Y-112252857D01*
X152323571Y-112348095D01*
X152275952Y-112490952D01*
X151704523Y-113062380D01*
X152323571Y-113062380D01*
X152609285Y-112062380D02*
X153180714Y-112062380D01*
X152895000Y-113062380D02*
X152895000Y-112062380D01*
X153942619Y-112395714D02*
X153942619Y-113062380D01*
X153704523Y-112014761D02*
X153466428Y-112729047D01*
X154085476Y-112729047D01*
%TO.C,R2T3*%
X156021190Y-107742380D02*
X155687857Y-107266190D01*
X155449761Y-107742380D02*
X155449761Y-106742380D01*
X155830714Y-106742380D01*
X155925952Y-106790000D01*
X155973571Y-106837619D01*
X156021190Y-106932857D01*
X156021190Y-107075714D01*
X155973571Y-107170952D01*
X155925952Y-107218571D01*
X155830714Y-107266190D01*
X155449761Y-107266190D01*
X156402142Y-106837619D02*
X156449761Y-106790000D01*
X156545000Y-106742380D01*
X156783095Y-106742380D01*
X156878333Y-106790000D01*
X156925952Y-106837619D01*
X156973571Y-106932857D01*
X156973571Y-107028095D01*
X156925952Y-107170952D01*
X156354523Y-107742380D01*
X156973571Y-107742380D01*
X157259285Y-106742380D02*
X157830714Y-106742380D01*
X157545000Y-107742380D02*
X157545000Y-106742380D01*
X158068809Y-106742380D02*
X158687857Y-106742380D01*
X158354523Y-107123333D01*
X158497380Y-107123333D01*
X158592619Y-107170952D01*
X158640238Y-107218571D01*
X158687857Y-107313809D01*
X158687857Y-107551904D01*
X158640238Y-107647142D01*
X158592619Y-107694761D01*
X158497380Y-107742380D01*
X158211666Y-107742380D01*
X158116428Y-107694761D01*
X158068809Y-107647142D01*
%TO.C,R2T2*%
X161841190Y-101772380D02*
X161507857Y-101296190D01*
X161269761Y-101772380D02*
X161269761Y-100772380D01*
X161650714Y-100772380D01*
X161745952Y-100820000D01*
X161793571Y-100867619D01*
X161841190Y-100962857D01*
X161841190Y-101105714D01*
X161793571Y-101200952D01*
X161745952Y-101248571D01*
X161650714Y-101296190D01*
X161269761Y-101296190D01*
X162222142Y-100867619D02*
X162269761Y-100820000D01*
X162365000Y-100772380D01*
X162603095Y-100772380D01*
X162698333Y-100820000D01*
X162745952Y-100867619D01*
X162793571Y-100962857D01*
X162793571Y-101058095D01*
X162745952Y-101200952D01*
X162174523Y-101772380D01*
X162793571Y-101772380D01*
X163079285Y-100772380D02*
X163650714Y-100772380D01*
X163365000Y-101772380D02*
X163365000Y-100772380D01*
X163936428Y-100867619D02*
X163984047Y-100820000D01*
X164079285Y-100772380D01*
X164317380Y-100772380D01*
X164412619Y-100820000D01*
X164460238Y-100867619D01*
X164507857Y-100962857D01*
X164507857Y-101058095D01*
X164460238Y-101200952D01*
X163888809Y-101772380D01*
X164507857Y-101772380D01*
%TO.C,R2T1*%
X153111190Y-105752380D02*
X152777857Y-105276190D01*
X152539761Y-105752380D02*
X152539761Y-104752380D01*
X152920714Y-104752380D01*
X153015952Y-104800000D01*
X153063571Y-104847619D01*
X153111190Y-104942857D01*
X153111190Y-105085714D01*
X153063571Y-105180952D01*
X153015952Y-105228571D01*
X152920714Y-105276190D01*
X152539761Y-105276190D01*
X153492142Y-104847619D02*
X153539761Y-104800000D01*
X153635000Y-104752380D01*
X153873095Y-104752380D01*
X153968333Y-104800000D01*
X154015952Y-104847619D01*
X154063571Y-104942857D01*
X154063571Y-105038095D01*
X154015952Y-105180952D01*
X153444523Y-105752380D01*
X154063571Y-105752380D01*
X154349285Y-104752380D02*
X154920714Y-104752380D01*
X154635000Y-105752380D02*
X154635000Y-104752380D01*
X155777857Y-105752380D02*
X155206428Y-105752380D01*
X155492142Y-105752380D02*
X155492142Y-104752380D01*
X155396904Y-104895238D01*
X155301666Y-104990476D01*
X155206428Y-105038095D01*
%TO.C,R1T5*%
X158931190Y-103762380D02*
X158597857Y-103286190D01*
X158359761Y-103762380D02*
X158359761Y-102762380D01*
X158740714Y-102762380D01*
X158835952Y-102810000D01*
X158883571Y-102857619D01*
X158931190Y-102952857D01*
X158931190Y-103095714D01*
X158883571Y-103190952D01*
X158835952Y-103238571D01*
X158740714Y-103286190D01*
X158359761Y-103286190D01*
X159883571Y-103762380D02*
X159312142Y-103762380D01*
X159597857Y-103762380D02*
X159597857Y-102762380D01*
X159502619Y-102905238D01*
X159407380Y-103000476D01*
X159312142Y-103048095D01*
X160169285Y-102762380D02*
X160740714Y-102762380D01*
X160455000Y-103762380D02*
X160455000Y-102762380D01*
X161550238Y-102762380D02*
X161074047Y-102762380D01*
X161026428Y-103238571D01*
X161074047Y-103190952D01*
X161169285Y-103143333D01*
X161407380Y-103143333D01*
X161502619Y-103190952D01*
X161550238Y-103238571D01*
X161597857Y-103333809D01*
X161597857Y-103571904D01*
X161550238Y-103667142D01*
X161502619Y-103714761D01*
X161407380Y-103762380D01*
X161169285Y-103762380D01*
X161074047Y-103714761D01*
X161026428Y-103667142D01*
%TO.C,R1T4*%
X158931190Y-101772380D02*
X158597857Y-101296190D01*
X158359761Y-101772380D02*
X158359761Y-100772380D01*
X158740714Y-100772380D01*
X158835952Y-100820000D01*
X158883571Y-100867619D01*
X158931190Y-100962857D01*
X158931190Y-101105714D01*
X158883571Y-101200952D01*
X158835952Y-101248571D01*
X158740714Y-101296190D01*
X158359761Y-101296190D01*
X159883571Y-101772380D02*
X159312142Y-101772380D01*
X159597857Y-101772380D02*
X159597857Y-100772380D01*
X159502619Y-100915238D01*
X159407380Y-101010476D01*
X159312142Y-101058095D01*
X160169285Y-100772380D02*
X160740714Y-100772380D01*
X160455000Y-101772380D02*
X160455000Y-100772380D01*
X161502619Y-101105714D02*
X161502619Y-101772380D01*
X161264523Y-100724761D02*
X161026428Y-101439047D01*
X161645476Y-101439047D01*
%TO.C,R1T3*%
X154281190Y-109732380D02*
X153947857Y-109256190D01*
X153709761Y-109732380D02*
X153709761Y-108732380D01*
X154090714Y-108732380D01*
X154185952Y-108780000D01*
X154233571Y-108827619D01*
X154281190Y-108922857D01*
X154281190Y-109065714D01*
X154233571Y-109160952D01*
X154185952Y-109208571D01*
X154090714Y-109256190D01*
X153709761Y-109256190D01*
X155233571Y-109732380D02*
X154662142Y-109732380D01*
X154947857Y-109732380D02*
X154947857Y-108732380D01*
X154852619Y-108875238D01*
X154757380Y-108970476D01*
X154662142Y-109018095D01*
X155519285Y-108732380D02*
X156090714Y-108732380D01*
X155805000Y-109732380D02*
X155805000Y-108732380D01*
X156328809Y-108732380D02*
X156947857Y-108732380D01*
X156614523Y-109113333D01*
X156757380Y-109113333D01*
X156852619Y-109160952D01*
X156900238Y-109208571D01*
X156947857Y-109303809D01*
X156947857Y-109541904D01*
X156900238Y-109637142D01*
X156852619Y-109684761D01*
X156757380Y-109732380D01*
X156471666Y-109732380D01*
X156376428Y-109684761D01*
X156328809Y-109637142D01*
%TO.C,R1T2*%
X153111190Y-101772380D02*
X152777857Y-101296190D01*
X152539761Y-101772380D02*
X152539761Y-100772380D01*
X152920714Y-100772380D01*
X153015952Y-100820000D01*
X153063571Y-100867619D01*
X153111190Y-100962857D01*
X153111190Y-101105714D01*
X153063571Y-101200952D01*
X153015952Y-101248571D01*
X152920714Y-101296190D01*
X152539761Y-101296190D01*
X154063571Y-101772380D02*
X153492142Y-101772380D01*
X153777857Y-101772380D02*
X153777857Y-100772380D01*
X153682619Y-100915238D01*
X153587380Y-101010476D01*
X153492142Y-101058095D01*
X154349285Y-100772380D02*
X154920714Y-100772380D01*
X154635000Y-101772380D02*
X154635000Y-100772380D01*
X155206428Y-100867619D02*
X155254047Y-100820000D01*
X155349285Y-100772380D01*
X155587380Y-100772380D01*
X155682619Y-100820000D01*
X155730238Y-100867619D01*
X155777857Y-100962857D01*
X155777857Y-101058095D01*
X155730238Y-101200952D01*
X155158809Y-101772380D01*
X155777857Y-101772380D01*
%TO.C,R1T1*%
X158931190Y-105752380D02*
X158597857Y-105276190D01*
X158359761Y-105752380D02*
X158359761Y-104752380D01*
X158740714Y-104752380D01*
X158835952Y-104800000D01*
X158883571Y-104847619D01*
X158931190Y-104942857D01*
X158931190Y-105085714D01*
X158883571Y-105180952D01*
X158835952Y-105228571D01*
X158740714Y-105276190D01*
X158359761Y-105276190D01*
X159883571Y-105752380D02*
X159312142Y-105752380D01*
X159597857Y-105752380D02*
X159597857Y-104752380D01*
X159502619Y-104895238D01*
X159407380Y-104990476D01*
X159312142Y-105038095D01*
X160169285Y-104752380D02*
X160740714Y-104752380D01*
X160455000Y-105752380D02*
X160455000Y-104752380D01*
X161597857Y-105752380D02*
X161026428Y-105752380D01*
X161312142Y-105752380D02*
X161312142Y-104752380D01*
X161216904Y-104895238D01*
X161121666Y-104990476D01*
X161026428Y-105038095D01*
%TO.C,J8*%
X176331666Y-101312380D02*
X176331666Y-102026666D01*
X176284047Y-102169523D01*
X176188809Y-102264761D01*
X176045952Y-102312380D01*
X175950714Y-102312380D01*
X176950714Y-101740952D02*
X176855476Y-101693333D01*
X176807857Y-101645714D01*
X176760238Y-101550476D01*
X176760238Y-101502857D01*
X176807857Y-101407619D01*
X176855476Y-101360000D01*
X176950714Y-101312380D01*
X177141190Y-101312380D01*
X177236428Y-101360000D01*
X177284047Y-101407619D01*
X177331666Y-101502857D01*
X177331666Y-101550476D01*
X177284047Y-101645714D01*
X177236428Y-101693333D01*
X177141190Y-101740952D01*
X176950714Y-101740952D01*
X176855476Y-101788571D01*
X176807857Y-101836190D01*
X176760238Y-101931428D01*
X176760238Y-102121904D01*
X176807857Y-102217142D01*
X176855476Y-102264761D01*
X176950714Y-102312380D01*
X177141190Y-102312380D01*
X177236428Y-102264761D01*
X177284047Y-102217142D01*
X177331666Y-102121904D01*
X177331666Y-101931428D01*
X177284047Y-101836190D01*
X177236428Y-101788571D01*
X177141190Y-101740952D01*
%TO.C,J7*%
X145371666Y-105592380D02*
X145371666Y-106306666D01*
X145324047Y-106449523D01*
X145228809Y-106544761D01*
X145085952Y-106592380D01*
X144990714Y-106592380D01*
X145752619Y-105592380D02*
X146419285Y-105592380D01*
X145990714Y-106592380D01*
%TO.C,J6*%
X150021666Y-100942380D02*
X150021666Y-101656666D01*
X149974047Y-101799523D01*
X149878809Y-101894761D01*
X149735952Y-101942380D01*
X149640714Y-101942380D01*
X150926428Y-100942380D02*
X150735952Y-100942380D01*
X150640714Y-100990000D01*
X150593095Y-101037619D01*
X150497857Y-101180476D01*
X150450238Y-101370952D01*
X150450238Y-101751904D01*
X150497857Y-101847142D01*
X150545476Y-101894761D01*
X150640714Y-101942380D01*
X150831190Y-101942380D01*
X150926428Y-101894761D01*
X150974047Y-101847142D01*
X151021666Y-101751904D01*
X151021666Y-101513809D01*
X150974047Y-101418571D01*
X150926428Y-101370952D01*
X150831190Y-101323333D01*
X150640714Y-101323333D01*
X150545476Y-101370952D01*
X150497857Y-101418571D01*
X150450238Y-101513809D01*
%TO.C,J5*%
X145371666Y-100942380D02*
X145371666Y-101656666D01*
X145324047Y-101799523D01*
X145228809Y-101894761D01*
X145085952Y-101942380D01*
X144990714Y-101942380D01*
X146324047Y-100942380D02*
X145847857Y-100942380D01*
X145800238Y-101418571D01*
X145847857Y-101370952D01*
X145943095Y-101323333D01*
X146181190Y-101323333D01*
X146276428Y-101370952D01*
X146324047Y-101418571D01*
X146371666Y-101513809D01*
X146371666Y-101751904D01*
X146324047Y-101847142D01*
X146276428Y-101894761D01*
X146181190Y-101942380D01*
X145943095Y-101942380D01*
X145847857Y-101894761D01*
X145800238Y-101847142D01*
%TO.C,J4*%
X145371666Y-110242380D02*
X145371666Y-110956666D01*
X145324047Y-111099523D01*
X145228809Y-111194761D01*
X145085952Y-111242380D01*
X144990714Y-111242380D01*
X146276428Y-110575714D02*
X146276428Y-111242380D01*
X146038333Y-110194761D02*
X145800238Y-110909047D01*
X146419285Y-110909047D01*
%TO.C,J3*%
X150021666Y-105592380D02*
X150021666Y-106306666D01*
X149974047Y-106449523D01*
X149878809Y-106544761D01*
X149735952Y-106592380D01*
X149640714Y-106592380D01*
X150402619Y-105592380D02*
X151021666Y-105592380D01*
X150688333Y-105973333D01*
X150831190Y-105973333D01*
X150926428Y-106020952D01*
X150974047Y-106068571D01*
X151021666Y-106163809D01*
X151021666Y-106401904D01*
X150974047Y-106497142D01*
X150926428Y-106544761D01*
X150831190Y-106592380D01*
X150545476Y-106592380D01*
X150450238Y-106544761D01*
X150402619Y-106497142D01*
%TO.C,D5*%
X183526904Y-104522380D02*
X183526904Y-103522380D01*
X183765000Y-103522380D01*
X183907857Y-103570000D01*
X184003095Y-103665238D01*
X184050714Y-103760476D01*
X184098333Y-103950952D01*
X184098333Y-104093809D01*
X184050714Y-104284285D01*
X184003095Y-104379523D01*
X183907857Y-104474761D01*
X183765000Y-104522380D01*
X183526904Y-104522380D01*
X185003095Y-103522380D02*
X184526904Y-103522380D01*
X184479285Y-103998571D01*
X184526904Y-103950952D01*
X184622142Y-103903333D01*
X184860238Y-103903333D01*
X184955476Y-103950952D01*
X185003095Y-103998571D01*
X185050714Y-104093809D01*
X185050714Y-104331904D01*
X185003095Y-104427142D01*
X184955476Y-104474761D01*
X184860238Y-104522380D01*
X184622142Y-104522380D01*
X184526904Y-104474761D01*
X184479285Y-104427142D01*
%TO.C,D4*%
X183526904Y-101572380D02*
X183526904Y-100572380D01*
X183765000Y-100572380D01*
X183907857Y-100620000D01*
X184003095Y-100715238D01*
X184050714Y-100810476D01*
X184098333Y-101000952D01*
X184098333Y-101143809D01*
X184050714Y-101334285D01*
X184003095Y-101429523D01*
X183907857Y-101524761D01*
X183765000Y-101572380D01*
X183526904Y-101572380D01*
X184955476Y-100905714D02*
X184955476Y-101572380D01*
X184717380Y-100524761D02*
X184479285Y-101239047D01*
X185098333Y-101239047D01*
%TO.C,C35*%
X162202142Y-105657142D02*
X162154523Y-105704761D01*
X162011666Y-105752380D01*
X161916428Y-105752380D01*
X161773571Y-105704761D01*
X161678333Y-105609523D01*
X161630714Y-105514285D01*
X161583095Y-105323809D01*
X161583095Y-105180952D01*
X161630714Y-104990476D01*
X161678333Y-104895238D01*
X161773571Y-104800000D01*
X161916428Y-104752380D01*
X162011666Y-104752380D01*
X162154523Y-104800000D01*
X162202142Y-104847619D01*
X162535476Y-104752380D02*
X163154523Y-104752380D01*
X162821190Y-105133333D01*
X162964047Y-105133333D01*
X163059285Y-105180952D01*
X163106904Y-105228571D01*
X163154523Y-105323809D01*
X163154523Y-105561904D01*
X163106904Y-105657142D01*
X163059285Y-105704761D01*
X162964047Y-105752380D01*
X162678333Y-105752380D01*
X162583095Y-105704761D01*
X162535476Y-105657142D01*
X164059285Y-104752380D02*
X163583095Y-104752380D01*
X163535476Y-105228571D01*
X163583095Y-105180952D01*
X163678333Y-105133333D01*
X163916428Y-105133333D01*
X164011666Y-105180952D01*
X164059285Y-105228571D01*
X164106904Y-105323809D01*
X164106904Y-105561904D01*
X164059285Y-105657142D01*
X164011666Y-105704761D01*
X163916428Y-105752380D01*
X163678333Y-105752380D01*
X163583095Y-105704761D01*
X163535476Y-105657142D01*
%TO.C,C16*%
X157552142Y-109637142D02*
X157504523Y-109684761D01*
X157361666Y-109732380D01*
X157266428Y-109732380D01*
X157123571Y-109684761D01*
X157028333Y-109589523D01*
X156980714Y-109494285D01*
X156933095Y-109303809D01*
X156933095Y-109160952D01*
X156980714Y-108970476D01*
X157028333Y-108875238D01*
X157123571Y-108780000D01*
X157266428Y-108732380D01*
X157361666Y-108732380D01*
X157504523Y-108780000D01*
X157552142Y-108827619D01*
X158504523Y-109732380D02*
X157933095Y-109732380D01*
X158218809Y-109732380D02*
X158218809Y-108732380D01*
X158123571Y-108875238D01*
X158028333Y-108970476D01*
X157933095Y-109018095D01*
X159361666Y-108732380D02*
X159171190Y-108732380D01*
X159075952Y-108780000D01*
X159028333Y-108827619D01*
X158933095Y-108970476D01*
X158885476Y-109160952D01*
X158885476Y-109541904D01*
X158933095Y-109637142D01*
X158980714Y-109684761D01*
X159075952Y-109732380D01*
X159266428Y-109732380D01*
X159361666Y-109684761D01*
X159409285Y-109637142D01*
X159456904Y-109541904D01*
X159456904Y-109303809D01*
X159409285Y-109208571D01*
X159361666Y-109160952D01*
X159266428Y-109113333D01*
X159075952Y-109113333D01*
X158980714Y-109160952D01*
X158933095Y-109208571D01*
X158885476Y-109303809D01*
%TO.C,C15*%
X159292142Y-107647142D02*
X159244523Y-107694761D01*
X159101666Y-107742380D01*
X159006428Y-107742380D01*
X158863571Y-107694761D01*
X158768333Y-107599523D01*
X158720714Y-107504285D01*
X158673095Y-107313809D01*
X158673095Y-107170952D01*
X158720714Y-106980476D01*
X158768333Y-106885238D01*
X158863571Y-106790000D01*
X159006428Y-106742380D01*
X159101666Y-106742380D01*
X159244523Y-106790000D01*
X159292142Y-106837619D01*
X160244523Y-107742380D02*
X159673095Y-107742380D01*
X159958809Y-107742380D02*
X159958809Y-106742380D01*
X159863571Y-106885238D01*
X159768333Y-106980476D01*
X159673095Y-107028095D01*
X161149285Y-106742380D02*
X160673095Y-106742380D01*
X160625476Y-107218571D01*
X160673095Y-107170952D01*
X160768333Y-107123333D01*
X161006428Y-107123333D01*
X161101666Y-107170952D01*
X161149285Y-107218571D01*
X161196904Y-107313809D01*
X161196904Y-107551904D01*
X161149285Y-107647142D01*
X161101666Y-107694761D01*
X161006428Y-107742380D01*
X160768333Y-107742380D01*
X160673095Y-107694761D01*
X160625476Y-107647142D01*
%TO.C,C10*%
X156202142Y-123657142D02*
X156154523Y-123704761D01*
X156011666Y-123752380D01*
X155916428Y-123752380D01*
X155773571Y-123704761D01*
X155678333Y-123609523D01*
X155630714Y-123514285D01*
X155583095Y-123323809D01*
X155583095Y-123180952D01*
X155630714Y-122990476D01*
X155678333Y-122895238D01*
X155773571Y-122800000D01*
X155916428Y-122752380D01*
X156011666Y-122752380D01*
X156154523Y-122800000D01*
X156202142Y-122847619D01*
X157154523Y-123752380D02*
X156583095Y-123752380D01*
X156868809Y-123752380D02*
X156868809Y-122752380D01*
X156773571Y-122895238D01*
X156678333Y-122990476D01*
X156583095Y-123038095D01*
X157773571Y-122752380D02*
X157868809Y-122752380D01*
X157964047Y-122800000D01*
X158011666Y-122847619D01*
X158059285Y-122942857D01*
X158106904Y-123133333D01*
X158106904Y-123371428D01*
X158059285Y-123561904D01*
X158011666Y-123657142D01*
X157964047Y-123704761D01*
X157868809Y-123752380D01*
X157773571Y-123752380D01*
X157678333Y-123704761D01*
X157630714Y-123657142D01*
X157583095Y-123561904D01*
X157535476Y-123371428D01*
X157535476Y-123133333D01*
X157583095Y-122942857D01*
X157630714Y-122847619D01*
X157678333Y-122800000D01*
X157773571Y-122752380D01*
%TO.C,U10*%
X84296904Y-108677380D02*
X84296904Y-109486904D01*
X84344523Y-109582142D01*
X84392142Y-109629761D01*
X84487380Y-109677380D01*
X84677857Y-109677380D01*
X84773095Y-109629761D01*
X84820714Y-109582142D01*
X84868333Y-109486904D01*
X84868333Y-108677380D01*
X85868333Y-109677380D02*
X85296904Y-109677380D01*
X85582619Y-109677380D02*
X85582619Y-108677380D01*
X85487380Y-108820238D01*
X85392142Y-108915476D01*
X85296904Y-108963095D01*
X86487380Y-108677380D02*
X86582619Y-108677380D01*
X86677857Y-108725000D01*
X86725476Y-108772619D01*
X86773095Y-108867857D01*
X86820714Y-109058333D01*
X86820714Y-109296428D01*
X86773095Y-109486904D01*
X86725476Y-109582142D01*
X86677857Y-109629761D01*
X86582619Y-109677380D01*
X86487380Y-109677380D01*
X86392142Y-109629761D01*
X86344523Y-109582142D01*
X86296904Y-109486904D01*
X86249285Y-109296428D01*
X86249285Y-109058333D01*
X86296904Y-108867857D01*
X86344523Y-108772619D01*
X86392142Y-108725000D01*
X86487380Y-108677380D01*
%TO.C,U9*%
X92638095Y-136742380D02*
X92638095Y-137551904D01*
X92685714Y-137647142D01*
X92733333Y-137694761D01*
X92828571Y-137742380D01*
X93019047Y-137742380D01*
X93114285Y-137694761D01*
X93161904Y-137647142D01*
X93209523Y-137551904D01*
X93209523Y-136742380D01*
X93733333Y-137742380D02*
X93923809Y-137742380D01*
X94019047Y-137694761D01*
X94066666Y-137647142D01*
X94161904Y-137504285D01*
X94209523Y-137313809D01*
X94209523Y-136932857D01*
X94161904Y-136837619D01*
X94114285Y-136790000D01*
X94019047Y-136742380D01*
X93828571Y-136742380D01*
X93733333Y-136790000D01*
X93685714Y-136837619D01*
X93638095Y-136932857D01*
X93638095Y-137170952D01*
X93685714Y-137266190D01*
X93733333Y-137313809D01*
X93828571Y-137361428D01*
X94019047Y-137361428D01*
X94114285Y-137313809D01*
X94161904Y-137266190D01*
X94209523Y-137170952D01*
%TO.C,U8*%
X88388095Y-136742380D02*
X88388095Y-137551904D01*
X88435714Y-137647142D01*
X88483333Y-137694761D01*
X88578571Y-137742380D01*
X88769047Y-137742380D01*
X88864285Y-137694761D01*
X88911904Y-137647142D01*
X88959523Y-137551904D01*
X88959523Y-136742380D01*
X89578571Y-137170952D02*
X89483333Y-137123333D01*
X89435714Y-137075714D01*
X89388095Y-136980476D01*
X89388095Y-136932857D01*
X89435714Y-136837619D01*
X89483333Y-136790000D01*
X89578571Y-136742380D01*
X89769047Y-136742380D01*
X89864285Y-136790000D01*
X89911904Y-136837619D01*
X89959523Y-136932857D01*
X89959523Y-136980476D01*
X89911904Y-137075714D01*
X89864285Y-137123333D01*
X89769047Y-137170952D01*
X89578571Y-137170952D01*
X89483333Y-137218571D01*
X89435714Y-137266190D01*
X89388095Y-137361428D01*
X89388095Y-137551904D01*
X89435714Y-137647142D01*
X89483333Y-137694761D01*
X89578571Y-137742380D01*
X89769047Y-137742380D01*
X89864285Y-137694761D01*
X89911904Y-137647142D01*
X89959523Y-137551904D01*
X89959523Y-137361428D01*
X89911904Y-137266190D01*
X89864285Y-137218571D01*
X89769047Y-137170952D01*
%TO.C,U7*%
X83838095Y-141292380D02*
X83838095Y-142101904D01*
X83885714Y-142197142D01*
X83933333Y-142244761D01*
X84028571Y-142292380D01*
X84219047Y-142292380D01*
X84314285Y-142244761D01*
X84361904Y-142197142D01*
X84409523Y-142101904D01*
X84409523Y-141292380D01*
X84790476Y-141292380D02*
X85457142Y-141292380D01*
X85028571Y-142292380D01*
%TO.C,U6*%
X88088095Y-141292380D02*
X88088095Y-142101904D01*
X88135714Y-142197142D01*
X88183333Y-142244761D01*
X88278571Y-142292380D01*
X88469047Y-142292380D01*
X88564285Y-142244761D01*
X88611904Y-142197142D01*
X88659523Y-142101904D01*
X88659523Y-141292380D01*
X89564285Y-141292380D02*
X89373809Y-141292380D01*
X89278571Y-141340000D01*
X89230952Y-141387619D01*
X89135714Y-141530476D01*
X89088095Y-141720952D01*
X89088095Y-142101904D01*
X89135714Y-142197142D01*
X89183333Y-142244761D01*
X89278571Y-142292380D01*
X89469047Y-142292380D01*
X89564285Y-142244761D01*
X89611904Y-142197142D01*
X89659523Y-142101904D01*
X89659523Y-141863809D01*
X89611904Y-141768571D01*
X89564285Y-141720952D01*
X89469047Y-141673333D01*
X89278571Y-141673333D01*
X89183333Y-141720952D01*
X89135714Y-141768571D01*
X89088095Y-141863809D01*
%TO.C,U5*%
X92338095Y-140592380D02*
X92338095Y-141401904D01*
X92385714Y-141497142D01*
X92433333Y-141544761D01*
X92528571Y-141592380D01*
X92719047Y-141592380D01*
X92814285Y-141544761D01*
X92861904Y-141497142D01*
X92909523Y-141401904D01*
X92909523Y-140592380D01*
X93861904Y-140592380D02*
X93385714Y-140592380D01*
X93338095Y-141068571D01*
X93385714Y-141020952D01*
X93480952Y-140973333D01*
X93719047Y-140973333D01*
X93814285Y-141020952D01*
X93861904Y-141068571D01*
X93909523Y-141163809D01*
X93909523Y-141401904D01*
X93861904Y-141497142D01*
X93814285Y-141544761D01*
X93719047Y-141592380D01*
X93480952Y-141592380D01*
X93385714Y-141544761D01*
X93338095Y-141497142D01*
%TO.C,U4*%
X105868095Y-108462380D02*
X105868095Y-109271904D01*
X105915714Y-109367142D01*
X105963333Y-109414761D01*
X106058571Y-109462380D01*
X106249047Y-109462380D01*
X106344285Y-109414761D01*
X106391904Y-109367142D01*
X106439523Y-109271904D01*
X106439523Y-108462380D01*
X107344285Y-108795714D02*
X107344285Y-109462380D01*
X107106190Y-108414761D02*
X106868095Y-109129047D01*
X107487142Y-109129047D01*
%TO.C,U3*%
X83988095Y-136642380D02*
X83988095Y-137451904D01*
X84035714Y-137547142D01*
X84083333Y-137594761D01*
X84178571Y-137642380D01*
X84369047Y-137642380D01*
X84464285Y-137594761D01*
X84511904Y-137547142D01*
X84559523Y-137451904D01*
X84559523Y-136642380D01*
X84940476Y-136642380D02*
X85559523Y-136642380D01*
X85226190Y-137023333D01*
X85369047Y-137023333D01*
X85464285Y-137070952D01*
X85511904Y-137118571D01*
X85559523Y-137213809D01*
X85559523Y-137451904D01*
X85511904Y-137547142D01*
X85464285Y-137594761D01*
X85369047Y-137642380D01*
X85083333Y-137642380D01*
X84988095Y-137594761D01*
X84940476Y-137547142D01*
%TO.C,R43*%
X116827142Y-113572380D02*
X116493809Y-113096190D01*
X116255714Y-113572380D02*
X116255714Y-112572380D01*
X116636666Y-112572380D01*
X116731904Y-112620000D01*
X116779523Y-112667619D01*
X116827142Y-112762857D01*
X116827142Y-112905714D01*
X116779523Y-113000952D01*
X116731904Y-113048571D01*
X116636666Y-113096190D01*
X116255714Y-113096190D01*
X117684285Y-112905714D02*
X117684285Y-113572380D01*
X117446190Y-112524761D02*
X117208095Y-113239047D01*
X117827142Y-113239047D01*
X118112857Y-112572380D02*
X118731904Y-112572380D01*
X118398571Y-112953333D01*
X118541428Y-112953333D01*
X118636666Y-113000952D01*
X118684285Y-113048571D01*
X118731904Y-113143809D01*
X118731904Y-113381904D01*
X118684285Y-113477142D01*
X118636666Y-113524761D01*
X118541428Y-113572380D01*
X118255714Y-113572380D01*
X118160476Y-113524761D01*
X118112857Y-113477142D01*
%TO.C,R42*%
X117057142Y-111582380D02*
X116723809Y-111106190D01*
X116485714Y-111582380D02*
X116485714Y-110582380D01*
X116866666Y-110582380D01*
X116961904Y-110630000D01*
X117009523Y-110677619D01*
X117057142Y-110772857D01*
X117057142Y-110915714D01*
X117009523Y-111010952D01*
X116961904Y-111058571D01*
X116866666Y-111106190D01*
X116485714Y-111106190D01*
X117914285Y-110915714D02*
X117914285Y-111582380D01*
X117676190Y-110534761D02*
X117438095Y-111249047D01*
X118057142Y-111249047D01*
X118390476Y-110677619D02*
X118438095Y-110630000D01*
X118533333Y-110582380D01*
X118771428Y-110582380D01*
X118866666Y-110630000D01*
X118914285Y-110677619D01*
X118961904Y-110772857D01*
X118961904Y-110868095D01*
X118914285Y-111010952D01*
X118342857Y-111582380D01*
X118961904Y-111582380D01*
%TO.C,R41*%
X119967142Y-111582380D02*
X119633809Y-111106190D01*
X119395714Y-111582380D02*
X119395714Y-110582380D01*
X119776666Y-110582380D01*
X119871904Y-110630000D01*
X119919523Y-110677619D01*
X119967142Y-110772857D01*
X119967142Y-110915714D01*
X119919523Y-111010952D01*
X119871904Y-111058571D01*
X119776666Y-111106190D01*
X119395714Y-111106190D01*
X120824285Y-110915714D02*
X120824285Y-111582380D01*
X120586190Y-110534761D02*
X120348095Y-111249047D01*
X120967142Y-111249047D01*
X121871904Y-111582380D02*
X121300476Y-111582380D01*
X121586190Y-111582380D02*
X121586190Y-110582380D01*
X121490952Y-110725238D01*
X121395714Y-110820476D01*
X121300476Y-110868095D01*
%TO.C,R40*%
X119737142Y-113572380D02*
X119403809Y-113096190D01*
X119165714Y-113572380D02*
X119165714Y-112572380D01*
X119546666Y-112572380D01*
X119641904Y-112620000D01*
X119689523Y-112667619D01*
X119737142Y-112762857D01*
X119737142Y-112905714D01*
X119689523Y-113000952D01*
X119641904Y-113048571D01*
X119546666Y-113096190D01*
X119165714Y-113096190D01*
X120594285Y-112905714D02*
X120594285Y-113572380D01*
X120356190Y-112524761D02*
X120118095Y-113239047D01*
X120737142Y-113239047D01*
X121308571Y-112572380D02*
X121403809Y-112572380D01*
X121499047Y-112620000D01*
X121546666Y-112667619D01*
X121594285Y-112762857D01*
X121641904Y-112953333D01*
X121641904Y-113191428D01*
X121594285Y-113381904D01*
X121546666Y-113477142D01*
X121499047Y-113524761D01*
X121403809Y-113572380D01*
X121308571Y-113572380D01*
X121213333Y-113524761D01*
X121165714Y-113477142D01*
X121118095Y-113381904D01*
X121070476Y-113191428D01*
X121070476Y-112953333D01*
X121118095Y-112762857D01*
X121165714Y-112667619D01*
X121213333Y-112620000D01*
X121308571Y-112572380D01*
%TO.C,R39*%
X120197142Y-109592380D02*
X119863809Y-109116190D01*
X119625714Y-109592380D02*
X119625714Y-108592380D01*
X120006666Y-108592380D01*
X120101904Y-108640000D01*
X120149523Y-108687619D01*
X120197142Y-108782857D01*
X120197142Y-108925714D01*
X120149523Y-109020952D01*
X120101904Y-109068571D01*
X120006666Y-109116190D01*
X119625714Y-109116190D01*
X120530476Y-108592380D02*
X121149523Y-108592380D01*
X120816190Y-108973333D01*
X120959047Y-108973333D01*
X121054285Y-109020952D01*
X121101904Y-109068571D01*
X121149523Y-109163809D01*
X121149523Y-109401904D01*
X121101904Y-109497142D01*
X121054285Y-109544761D01*
X120959047Y-109592380D01*
X120673333Y-109592380D01*
X120578095Y-109544761D01*
X120530476Y-109497142D01*
X121625714Y-109592380D02*
X121816190Y-109592380D01*
X121911428Y-109544761D01*
X121959047Y-109497142D01*
X122054285Y-109354285D01*
X122101904Y-109163809D01*
X122101904Y-108782857D01*
X122054285Y-108687619D01*
X122006666Y-108640000D01*
X121911428Y-108592380D01*
X121720952Y-108592380D01*
X121625714Y-108640000D01*
X121578095Y-108687619D01*
X121530476Y-108782857D01*
X121530476Y-109020952D01*
X121578095Y-109116190D01*
X121625714Y-109163809D01*
X121720952Y-109211428D01*
X121911428Y-109211428D01*
X122006666Y-109163809D01*
X122054285Y-109116190D01*
X122101904Y-109020952D01*
%TO.C,R38*%
X113917142Y-117552380D02*
X113583809Y-117076190D01*
X113345714Y-117552380D02*
X113345714Y-116552380D01*
X113726666Y-116552380D01*
X113821904Y-116600000D01*
X113869523Y-116647619D01*
X113917142Y-116742857D01*
X113917142Y-116885714D01*
X113869523Y-116980952D01*
X113821904Y-117028571D01*
X113726666Y-117076190D01*
X113345714Y-117076190D01*
X114250476Y-116552380D02*
X114869523Y-116552380D01*
X114536190Y-116933333D01*
X114679047Y-116933333D01*
X114774285Y-116980952D01*
X114821904Y-117028571D01*
X114869523Y-117123809D01*
X114869523Y-117361904D01*
X114821904Y-117457142D01*
X114774285Y-117504761D01*
X114679047Y-117552380D01*
X114393333Y-117552380D01*
X114298095Y-117504761D01*
X114250476Y-117457142D01*
X115440952Y-116980952D02*
X115345714Y-116933333D01*
X115298095Y-116885714D01*
X115250476Y-116790476D01*
X115250476Y-116742857D01*
X115298095Y-116647619D01*
X115345714Y-116600000D01*
X115440952Y-116552380D01*
X115631428Y-116552380D01*
X115726666Y-116600000D01*
X115774285Y-116647619D01*
X115821904Y-116742857D01*
X115821904Y-116790476D01*
X115774285Y-116885714D01*
X115726666Y-116933333D01*
X115631428Y-116980952D01*
X115440952Y-116980952D01*
X115345714Y-117028571D01*
X115298095Y-117076190D01*
X115250476Y-117171428D01*
X115250476Y-117361904D01*
X115298095Y-117457142D01*
X115345714Y-117504761D01*
X115440952Y-117552380D01*
X115631428Y-117552380D01*
X115726666Y-117504761D01*
X115774285Y-117457142D01*
X115821904Y-117361904D01*
X115821904Y-117171428D01*
X115774285Y-117076190D01*
X115726666Y-117028571D01*
X115631428Y-116980952D01*
%TO.C,R37*%
X123107142Y-109592380D02*
X122773809Y-109116190D01*
X122535714Y-109592380D02*
X122535714Y-108592380D01*
X122916666Y-108592380D01*
X123011904Y-108640000D01*
X123059523Y-108687619D01*
X123107142Y-108782857D01*
X123107142Y-108925714D01*
X123059523Y-109020952D01*
X123011904Y-109068571D01*
X122916666Y-109116190D01*
X122535714Y-109116190D01*
X123440476Y-108592380D02*
X124059523Y-108592380D01*
X123726190Y-108973333D01*
X123869047Y-108973333D01*
X123964285Y-109020952D01*
X124011904Y-109068571D01*
X124059523Y-109163809D01*
X124059523Y-109401904D01*
X124011904Y-109497142D01*
X123964285Y-109544761D01*
X123869047Y-109592380D01*
X123583333Y-109592380D01*
X123488095Y-109544761D01*
X123440476Y-109497142D01*
X124392857Y-108592380D02*
X125059523Y-108592380D01*
X124630952Y-109592380D01*
%TO.C,R36*%
X113917142Y-113572380D02*
X113583809Y-113096190D01*
X113345714Y-113572380D02*
X113345714Y-112572380D01*
X113726666Y-112572380D01*
X113821904Y-112620000D01*
X113869523Y-112667619D01*
X113917142Y-112762857D01*
X113917142Y-112905714D01*
X113869523Y-113000952D01*
X113821904Y-113048571D01*
X113726666Y-113096190D01*
X113345714Y-113096190D01*
X114250476Y-112572380D02*
X114869523Y-112572380D01*
X114536190Y-112953333D01*
X114679047Y-112953333D01*
X114774285Y-113000952D01*
X114821904Y-113048571D01*
X114869523Y-113143809D01*
X114869523Y-113381904D01*
X114821904Y-113477142D01*
X114774285Y-113524761D01*
X114679047Y-113572380D01*
X114393333Y-113572380D01*
X114298095Y-113524761D01*
X114250476Y-113477142D01*
X115726666Y-112572380D02*
X115536190Y-112572380D01*
X115440952Y-112620000D01*
X115393333Y-112667619D01*
X115298095Y-112810476D01*
X115250476Y-113000952D01*
X115250476Y-113381904D01*
X115298095Y-113477142D01*
X115345714Y-113524761D01*
X115440952Y-113572380D01*
X115631428Y-113572380D01*
X115726666Y-113524761D01*
X115774285Y-113477142D01*
X115821904Y-113381904D01*
X115821904Y-113143809D01*
X115774285Y-113048571D01*
X115726666Y-113000952D01*
X115631428Y-112953333D01*
X115440952Y-112953333D01*
X115345714Y-113000952D01*
X115298095Y-113048571D01*
X115250476Y-113143809D01*
%TO.C,R35*%
X113917142Y-115562380D02*
X113583809Y-115086190D01*
X113345714Y-115562380D02*
X113345714Y-114562380D01*
X113726666Y-114562380D01*
X113821904Y-114610000D01*
X113869523Y-114657619D01*
X113917142Y-114752857D01*
X113917142Y-114895714D01*
X113869523Y-114990952D01*
X113821904Y-115038571D01*
X113726666Y-115086190D01*
X113345714Y-115086190D01*
X114250476Y-114562380D02*
X114869523Y-114562380D01*
X114536190Y-114943333D01*
X114679047Y-114943333D01*
X114774285Y-114990952D01*
X114821904Y-115038571D01*
X114869523Y-115133809D01*
X114869523Y-115371904D01*
X114821904Y-115467142D01*
X114774285Y-115514761D01*
X114679047Y-115562380D01*
X114393333Y-115562380D01*
X114298095Y-115514761D01*
X114250476Y-115467142D01*
X115774285Y-114562380D02*
X115298095Y-114562380D01*
X115250476Y-115038571D01*
X115298095Y-114990952D01*
X115393333Y-114943333D01*
X115631428Y-114943333D01*
X115726666Y-114990952D01*
X115774285Y-115038571D01*
X115821904Y-115133809D01*
X115821904Y-115371904D01*
X115774285Y-115467142D01*
X115726666Y-115514761D01*
X115631428Y-115562380D01*
X115393333Y-115562380D01*
X115298095Y-115514761D01*
X115250476Y-115467142D01*
%TO.C,R34*%
X116827142Y-115562380D02*
X116493809Y-115086190D01*
X116255714Y-115562380D02*
X116255714Y-114562380D01*
X116636666Y-114562380D01*
X116731904Y-114610000D01*
X116779523Y-114657619D01*
X116827142Y-114752857D01*
X116827142Y-114895714D01*
X116779523Y-114990952D01*
X116731904Y-115038571D01*
X116636666Y-115086190D01*
X116255714Y-115086190D01*
X117160476Y-114562380D02*
X117779523Y-114562380D01*
X117446190Y-114943333D01*
X117589047Y-114943333D01*
X117684285Y-114990952D01*
X117731904Y-115038571D01*
X117779523Y-115133809D01*
X117779523Y-115371904D01*
X117731904Y-115467142D01*
X117684285Y-115514761D01*
X117589047Y-115562380D01*
X117303333Y-115562380D01*
X117208095Y-115514761D01*
X117160476Y-115467142D01*
X118636666Y-114895714D02*
X118636666Y-115562380D01*
X118398571Y-114514761D02*
X118160476Y-115229047D01*
X118779523Y-115229047D01*
%TO.C,R33*%
X95847142Y-131472380D02*
X95513809Y-130996190D01*
X95275714Y-131472380D02*
X95275714Y-130472380D01*
X95656666Y-130472380D01*
X95751904Y-130520000D01*
X95799523Y-130567619D01*
X95847142Y-130662857D01*
X95847142Y-130805714D01*
X95799523Y-130900952D01*
X95751904Y-130948571D01*
X95656666Y-130996190D01*
X95275714Y-130996190D01*
X96180476Y-130472380D02*
X96799523Y-130472380D01*
X96466190Y-130853333D01*
X96609047Y-130853333D01*
X96704285Y-130900952D01*
X96751904Y-130948571D01*
X96799523Y-131043809D01*
X96799523Y-131281904D01*
X96751904Y-131377142D01*
X96704285Y-131424761D01*
X96609047Y-131472380D01*
X96323333Y-131472380D01*
X96228095Y-131424761D01*
X96180476Y-131377142D01*
X97132857Y-130472380D02*
X97751904Y-130472380D01*
X97418571Y-130853333D01*
X97561428Y-130853333D01*
X97656666Y-130900952D01*
X97704285Y-130948571D01*
X97751904Y-131043809D01*
X97751904Y-131281904D01*
X97704285Y-131377142D01*
X97656666Y-131424761D01*
X97561428Y-131472380D01*
X97275714Y-131472380D01*
X97180476Y-131424761D01*
X97132857Y-131377142D01*
%TO.C,R32*%
X113917142Y-119542380D02*
X113583809Y-119066190D01*
X113345714Y-119542380D02*
X113345714Y-118542380D01*
X113726666Y-118542380D01*
X113821904Y-118590000D01*
X113869523Y-118637619D01*
X113917142Y-118732857D01*
X113917142Y-118875714D01*
X113869523Y-118970952D01*
X113821904Y-119018571D01*
X113726666Y-119066190D01*
X113345714Y-119066190D01*
X114250476Y-118542380D02*
X114869523Y-118542380D01*
X114536190Y-118923333D01*
X114679047Y-118923333D01*
X114774285Y-118970952D01*
X114821904Y-119018571D01*
X114869523Y-119113809D01*
X114869523Y-119351904D01*
X114821904Y-119447142D01*
X114774285Y-119494761D01*
X114679047Y-119542380D01*
X114393333Y-119542380D01*
X114298095Y-119494761D01*
X114250476Y-119447142D01*
X115250476Y-118637619D02*
X115298095Y-118590000D01*
X115393333Y-118542380D01*
X115631428Y-118542380D01*
X115726666Y-118590000D01*
X115774285Y-118637619D01*
X115821904Y-118732857D01*
X115821904Y-118828095D01*
X115774285Y-118970952D01*
X115202857Y-119542380D01*
X115821904Y-119542380D01*
%TO.C,PWR1*%
X82355476Y-131472380D02*
X82355476Y-130472380D01*
X82736428Y-130472380D01*
X82831666Y-130520000D01*
X82879285Y-130567619D01*
X82926904Y-130662857D01*
X82926904Y-130805714D01*
X82879285Y-130900952D01*
X82831666Y-130948571D01*
X82736428Y-130996190D01*
X82355476Y-130996190D01*
X83260238Y-130472380D02*
X83498333Y-131472380D01*
X83688809Y-130758095D01*
X83879285Y-131472380D01*
X84117380Y-130472380D01*
X85069761Y-131472380D02*
X84736428Y-130996190D01*
X84498333Y-131472380D02*
X84498333Y-130472380D01*
X84879285Y-130472380D01*
X84974523Y-130520000D01*
X85022142Y-130567619D01*
X85069761Y-130662857D01*
X85069761Y-130805714D01*
X85022142Y-130900952D01*
X84974523Y-130948571D01*
X84879285Y-130996190D01*
X84498333Y-130996190D01*
X86022142Y-131472380D02*
X85450714Y-131472380D01*
X85736428Y-131472380D02*
X85736428Y-130472380D01*
X85641190Y-130615238D01*
X85545952Y-130710476D01*
X85450714Y-130758095D01*
%TO.C,NAV1*%
X88825952Y-131472380D02*
X88825952Y-130472380D01*
X89397380Y-131472380D01*
X89397380Y-130472380D01*
X89825952Y-131186666D02*
X90302142Y-131186666D01*
X89730714Y-131472380D02*
X90064047Y-130472380D01*
X90397380Y-131472380D01*
X90587857Y-130472380D02*
X90921190Y-131472380D01*
X91254523Y-130472380D01*
X92111666Y-131472380D02*
X91540238Y-131472380D01*
X91825952Y-131472380D02*
X91825952Y-130472380D01*
X91730714Y-130615238D01*
X91635476Y-130710476D01*
X91540238Y-130758095D01*
%TO.C,MT4*%
X100654523Y-129062380D02*
X100654523Y-128062380D01*
X100987857Y-128776666D01*
X101321190Y-128062380D01*
X101321190Y-129062380D01*
X101654523Y-128062380D02*
X102225952Y-128062380D01*
X101940238Y-129062380D02*
X101940238Y-128062380D01*
X102987857Y-128395714D02*
X102987857Y-129062380D01*
X102749761Y-128014761D02*
X102511666Y-128729047D01*
X103130714Y-128729047D01*
%TO.C,MT3*%
X103794523Y-129062380D02*
X103794523Y-128062380D01*
X104127857Y-128776666D01*
X104461190Y-128062380D01*
X104461190Y-129062380D01*
X104794523Y-128062380D02*
X105365952Y-128062380D01*
X105080238Y-129062380D02*
X105080238Y-128062380D01*
X105604047Y-128062380D02*
X106223095Y-128062380D01*
X105889761Y-128443333D01*
X106032619Y-128443333D01*
X106127857Y-128490952D01*
X106175476Y-128538571D01*
X106223095Y-128633809D01*
X106223095Y-128871904D01*
X106175476Y-128967142D01*
X106127857Y-129014761D01*
X106032619Y-129062380D01*
X105746904Y-129062380D01*
X105651666Y-129014761D01*
X105604047Y-128967142D01*
%TO.C,MT2*%
X113604523Y-109592380D02*
X113604523Y-108592380D01*
X113937857Y-109306666D01*
X114271190Y-108592380D01*
X114271190Y-109592380D01*
X114604523Y-108592380D02*
X115175952Y-108592380D01*
X114890238Y-109592380D02*
X114890238Y-108592380D01*
X115461666Y-108687619D02*
X115509285Y-108640000D01*
X115604523Y-108592380D01*
X115842619Y-108592380D01*
X115937857Y-108640000D01*
X115985476Y-108687619D01*
X116033095Y-108782857D01*
X116033095Y-108878095D01*
X115985476Y-109020952D01*
X115414047Y-109592380D01*
X116033095Y-109592380D01*
%TO.C,MT1*%
X100654523Y-131052380D02*
X100654523Y-130052380D01*
X100987857Y-130766666D01*
X101321190Y-130052380D01*
X101321190Y-131052380D01*
X101654523Y-130052380D02*
X102225952Y-130052380D01*
X101940238Y-131052380D02*
X101940238Y-130052380D01*
X103083095Y-131052380D02*
X102511666Y-131052380D01*
X102797380Y-131052380D02*
X102797380Y-130052380D01*
X102702142Y-130195238D01*
X102606904Y-130290476D01*
X102511666Y-130338095D01*
%TO.C,GOAL1*%
X92013571Y-130520000D02*
X91918333Y-130472380D01*
X91775476Y-130472380D01*
X91632619Y-130520000D01*
X91537380Y-130615238D01*
X91489761Y-130710476D01*
X91442142Y-130900952D01*
X91442142Y-131043809D01*
X91489761Y-131234285D01*
X91537380Y-131329523D01*
X91632619Y-131424761D01*
X91775476Y-131472380D01*
X91870714Y-131472380D01*
X92013571Y-131424761D01*
X92061190Y-131377142D01*
X92061190Y-131043809D01*
X91870714Y-131043809D01*
X92680238Y-130472380D02*
X92870714Y-130472380D01*
X92965952Y-130520000D01*
X93061190Y-130615238D01*
X93108809Y-130805714D01*
X93108809Y-131139047D01*
X93061190Y-131329523D01*
X92965952Y-131424761D01*
X92870714Y-131472380D01*
X92680238Y-131472380D01*
X92585000Y-131424761D01*
X92489761Y-131329523D01*
X92442142Y-131139047D01*
X92442142Y-130805714D01*
X92489761Y-130615238D01*
X92585000Y-130520000D01*
X92680238Y-130472380D01*
X93489761Y-131186666D02*
X93965952Y-131186666D01*
X93394523Y-131472380D02*
X93727857Y-130472380D01*
X94061190Y-131472380D01*
X94870714Y-131472380D02*
X94394523Y-131472380D01*
X94394523Y-130472380D01*
X95727857Y-131472380D02*
X95156428Y-131472380D01*
X95442142Y-131472380D02*
X95442142Y-130472380D01*
X95346904Y-130615238D01*
X95251666Y-130710476D01*
X95156428Y-130758095D01*
%TO.C,FATAL1*%
X85328809Y-130948571D02*
X84995476Y-130948571D01*
X84995476Y-131472380D02*
X84995476Y-130472380D01*
X85471666Y-130472380D01*
X85805000Y-131186666D02*
X86281190Y-131186666D01*
X85709761Y-131472380D02*
X86043095Y-130472380D01*
X86376428Y-131472380D01*
X86566904Y-130472380D02*
X87138333Y-130472380D01*
X86852619Y-131472380D02*
X86852619Y-130472380D01*
X87424047Y-131186666D02*
X87900238Y-131186666D01*
X87328809Y-131472380D02*
X87662142Y-130472380D01*
X87995476Y-131472380D01*
X88805000Y-131472380D02*
X88328809Y-131472380D01*
X88328809Y-130472380D01*
X89662142Y-131472380D02*
X89090714Y-131472380D01*
X89376428Y-131472380D02*
X89376428Y-130472380D01*
X89281190Y-130615238D01*
X89185952Y-130710476D01*
X89090714Y-130758095D01*
%TO.C,ESCT1*%
X115887380Y-109068571D02*
X116220714Y-109068571D01*
X116363571Y-109592380D02*
X115887380Y-109592380D01*
X115887380Y-108592380D01*
X116363571Y-108592380D01*
X116744523Y-109544761D02*
X116887380Y-109592380D01*
X117125476Y-109592380D01*
X117220714Y-109544761D01*
X117268333Y-109497142D01*
X117315952Y-109401904D01*
X117315952Y-109306666D01*
X117268333Y-109211428D01*
X117220714Y-109163809D01*
X117125476Y-109116190D01*
X116935000Y-109068571D01*
X116839761Y-109020952D01*
X116792142Y-108973333D01*
X116744523Y-108878095D01*
X116744523Y-108782857D01*
X116792142Y-108687619D01*
X116839761Y-108640000D01*
X116935000Y-108592380D01*
X117173095Y-108592380D01*
X117315952Y-108640000D01*
X118315952Y-109497142D02*
X118268333Y-109544761D01*
X118125476Y-109592380D01*
X118030238Y-109592380D01*
X117887380Y-109544761D01*
X117792142Y-109449523D01*
X117744523Y-109354285D01*
X117696904Y-109163809D01*
X117696904Y-109020952D01*
X117744523Y-108830476D01*
X117792142Y-108735238D01*
X117887380Y-108640000D01*
X118030238Y-108592380D01*
X118125476Y-108592380D01*
X118268333Y-108640000D01*
X118315952Y-108687619D01*
X118601666Y-108592380D02*
X119173095Y-108592380D01*
X118887380Y-109592380D02*
X118887380Y-108592380D01*
X120030238Y-109592380D02*
X119458809Y-109592380D01*
X119744523Y-109592380D02*
X119744523Y-108592380D01*
X119649285Y-108735238D01*
X119554047Y-108830476D01*
X119458809Y-108878095D01*
%TO.C,D2*%
X114056904Y-111582380D02*
X114056904Y-110582380D01*
X114295000Y-110582380D01*
X114437857Y-110630000D01*
X114533095Y-110725238D01*
X114580714Y-110820476D01*
X114628333Y-111010952D01*
X114628333Y-111153809D01*
X114580714Y-111344285D01*
X114533095Y-111439523D01*
X114437857Y-111534761D01*
X114295000Y-111582380D01*
X114056904Y-111582380D01*
X115009285Y-110677619D02*
X115056904Y-110630000D01*
X115152142Y-110582380D01*
X115390238Y-110582380D01*
X115485476Y-110630000D01*
X115533095Y-110677619D01*
X115580714Y-110772857D01*
X115580714Y-110868095D01*
X115533095Y-111010952D01*
X114961666Y-111582380D01*
X115580714Y-111582380D01*
%TO.C,C9*%
X131163333Y-109497142D02*
X131115714Y-109544761D01*
X130972857Y-109592380D01*
X130877619Y-109592380D01*
X130734761Y-109544761D01*
X130639523Y-109449523D01*
X130591904Y-109354285D01*
X130544285Y-109163809D01*
X130544285Y-109020952D01*
X130591904Y-108830476D01*
X130639523Y-108735238D01*
X130734761Y-108640000D01*
X130877619Y-108592380D01*
X130972857Y-108592380D01*
X131115714Y-108640000D01*
X131163333Y-108687619D01*
X131639523Y-109592380D02*
X131830000Y-109592380D01*
X131925238Y-109544761D01*
X131972857Y-109497142D01*
X132068095Y-109354285D01*
X132115714Y-109163809D01*
X132115714Y-108782857D01*
X132068095Y-108687619D01*
X132020476Y-108640000D01*
X131925238Y-108592380D01*
X131734761Y-108592380D01*
X131639523Y-108640000D01*
X131591904Y-108687619D01*
X131544285Y-108782857D01*
X131544285Y-109020952D01*
X131591904Y-109116190D01*
X131639523Y-109163809D01*
X131734761Y-109211428D01*
X131925238Y-109211428D01*
X132020476Y-109163809D01*
X132068095Y-109116190D01*
X132115714Y-109020952D01*
%TO.C,C33*%
X127957142Y-50307142D02*
X127909523Y-50354761D01*
X127766666Y-50402380D01*
X127671428Y-50402380D01*
X127528571Y-50354761D01*
X127433333Y-50259523D01*
X127385714Y-50164285D01*
X127338095Y-49973809D01*
X127338095Y-49830952D01*
X127385714Y-49640476D01*
X127433333Y-49545238D01*
X127528571Y-49450000D01*
X127671428Y-49402380D01*
X127766666Y-49402380D01*
X127909523Y-49450000D01*
X127957142Y-49497619D01*
X128290476Y-49402380D02*
X128909523Y-49402380D01*
X128576190Y-49783333D01*
X128719047Y-49783333D01*
X128814285Y-49830952D01*
X128861904Y-49878571D01*
X128909523Y-49973809D01*
X128909523Y-50211904D01*
X128861904Y-50307142D01*
X128814285Y-50354761D01*
X128719047Y-50402380D01*
X128433333Y-50402380D01*
X128338095Y-50354761D01*
X128290476Y-50307142D01*
X129242857Y-49402380D02*
X129861904Y-49402380D01*
X129528571Y-49783333D01*
X129671428Y-49783333D01*
X129766666Y-49830952D01*
X129814285Y-49878571D01*
X129861904Y-49973809D01*
X129861904Y-50211904D01*
X129814285Y-50307142D01*
X129766666Y-50354761D01*
X129671428Y-50402380D01*
X129385714Y-50402380D01*
X129290476Y-50354761D01*
X129242857Y-50307142D01*
%TO.C,C7*%
X162918333Y-69427142D02*
X162870714Y-69474761D01*
X162727857Y-69522380D01*
X162632619Y-69522380D01*
X162489761Y-69474761D01*
X162394523Y-69379523D01*
X162346904Y-69284285D01*
X162299285Y-69093809D01*
X162299285Y-68950952D01*
X162346904Y-68760476D01*
X162394523Y-68665238D01*
X162489761Y-68570000D01*
X162632619Y-68522380D01*
X162727857Y-68522380D01*
X162870714Y-68570000D01*
X162918333Y-68617619D01*
X163251666Y-68522380D02*
X163918333Y-68522380D01*
X163489761Y-69522380D01*
%TO.C,S2*%
X128433095Y-87894761D02*
X128575952Y-87942380D01*
X128814047Y-87942380D01*
X128909285Y-87894761D01*
X128956904Y-87847142D01*
X129004523Y-87751904D01*
X129004523Y-87656666D01*
X128956904Y-87561428D01*
X128909285Y-87513809D01*
X128814047Y-87466190D01*
X128623571Y-87418571D01*
X128528333Y-87370952D01*
X128480714Y-87323333D01*
X128433095Y-87228095D01*
X128433095Y-87132857D01*
X128480714Y-87037619D01*
X128528333Y-86990000D01*
X128623571Y-86942380D01*
X128861666Y-86942380D01*
X129004523Y-86990000D01*
X129385476Y-87037619D02*
X129433095Y-86990000D01*
X129528333Y-86942380D01*
X129766428Y-86942380D01*
X129861666Y-86990000D01*
X129909285Y-87037619D01*
X129956904Y-87132857D01*
X129956904Y-87228095D01*
X129909285Y-87370952D01*
X129337857Y-87942380D01*
X129956904Y-87942380D01*
%TO.C,R2*%
X158818333Y-73502380D02*
X158485000Y-73026190D01*
X158246904Y-73502380D02*
X158246904Y-72502380D01*
X158627857Y-72502380D01*
X158723095Y-72550000D01*
X158770714Y-72597619D01*
X158818333Y-72692857D01*
X158818333Y-72835714D01*
X158770714Y-72930952D01*
X158723095Y-72978571D01*
X158627857Y-73026190D01*
X158246904Y-73026190D01*
X159199285Y-72597619D02*
X159246904Y-72550000D01*
X159342142Y-72502380D01*
X159580238Y-72502380D01*
X159675476Y-72550000D01*
X159723095Y-72597619D01*
X159770714Y-72692857D01*
X159770714Y-72788095D01*
X159723095Y-72930952D01*
X159151666Y-73502380D01*
X159770714Y-73502380D01*
%TO.C,5VPWR1*%
X116391904Y-67682380D02*
X115915714Y-67682380D01*
X115868095Y-68158571D01*
X115915714Y-68110952D01*
X116010952Y-68063333D01*
X116249047Y-68063333D01*
X116344285Y-68110952D01*
X116391904Y-68158571D01*
X116439523Y-68253809D01*
X116439523Y-68491904D01*
X116391904Y-68587142D01*
X116344285Y-68634761D01*
X116249047Y-68682380D01*
X116010952Y-68682380D01*
X115915714Y-68634761D01*
X115868095Y-68587142D01*
X116725238Y-67682380D02*
X117058571Y-68682380D01*
X117391904Y-67682380D01*
X117725238Y-68682380D02*
X117725238Y-67682380D01*
X118106190Y-67682380D01*
X118201428Y-67730000D01*
X118249047Y-67777619D01*
X118296666Y-67872857D01*
X118296666Y-68015714D01*
X118249047Y-68110952D01*
X118201428Y-68158571D01*
X118106190Y-68206190D01*
X117725238Y-68206190D01*
X118630000Y-67682380D02*
X118868095Y-68682380D01*
X119058571Y-67968095D01*
X119249047Y-68682380D01*
X119487142Y-67682380D01*
X120439523Y-68682380D02*
X120106190Y-68206190D01*
X119868095Y-68682380D02*
X119868095Y-67682380D01*
X120249047Y-67682380D01*
X120344285Y-67730000D01*
X120391904Y-67777619D01*
X120439523Y-67872857D01*
X120439523Y-68015714D01*
X120391904Y-68110952D01*
X120344285Y-68158571D01*
X120249047Y-68206190D01*
X119868095Y-68206190D01*
X121391904Y-68682380D02*
X120820476Y-68682380D01*
X121106190Y-68682380D02*
X121106190Y-67682380D01*
X121010952Y-67825238D01*
X120915714Y-67920476D01*
X120820476Y-67968095D01*
%TO.C,R22*%
X117497142Y-63752380D02*
X117163809Y-63276190D01*
X116925714Y-63752380D02*
X116925714Y-62752380D01*
X117306666Y-62752380D01*
X117401904Y-62800000D01*
X117449523Y-62847619D01*
X117497142Y-62942857D01*
X117497142Y-63085714D01*
X117449523Y-63180952D01*
X117401904Y-63228571D01*
X117306666Y-63276190D01*
X116925714Y-63276190D01*
X117878095Y-62847619D02*
X117925714Y-62800000D01*
X118020952Y-62752380D01*
X118259047Y-62752380D01*
X118354285Y-62800000D01*
X118401904Y-62847619D01*
X118449523Y-62942857D01*
X118449523Y-63038095D01*
X118401904Y-63180952D01*
X117830476Y-63752380D01*
X118449523Y-63752380D01*
X118830476Y-62847619D02*
X118878095Y-62800000D01*
X118973333Y-62752380D01*
X119211428Y-62752380D01*
X119306666Y-62800000D01*
X119354285Y-62847619D01*
X119401904Y-62942857D01*
X119401904Y-63038095D01*
X119354285Y-63180952D01*
X118782857Y-63752380D01*
X119401904Y-63752380D01*
%TO.C,R16*%
X141812142Y-85732380D02*
X141478809Y-85256190D01*
X141240714Y-85732380D02*
X141240714Y-84732380D01*
X141621666Y-84732380D01*
X141716904Y-84780000D01*
X141764523Y-84827619D01*
X141812142Y-84922857D01*
X141812142Y-85065714D01*
X141764523Y-85160952D01*
X141716904Y-85208571D01*
X141621666Y-85256190D01*
X141240714Y-85256190D01*
X142764523Y-85732380D02*
X142193095Y-85732380D01*
X142478809Y-85732380D02*
X142478809Y-84732380D01*
X142383571Y-84875238D01*
X142288333Y-84970476D01*
X142193095Y-85018095D01*
X143621666Y-84732380D02*
X143431190Y-84732380D01*
X143335952Y-84780000D01*
X143288333Y-84827619D01*
X143193095Y-84970476D01*
X143145476Y-85160952D01*
X143145476Y-85541904D01*
X143193095Y-85637142D01*
X143240714Y-85684761D01*
X143335952Y-85732380D01*
X143526428Y-85732380D01*
X143621666Y-85684761D01*
X143669285Y-85637142D01*
X143716904Y-85541904D01*
X143716904Y-85303809D01*
X143669285Y-85208571D01*
X143621666Y-85160952D01*
X143526428Y-85113333D01*
X143335952Y-85113333D01*
X143240714Y-85160952D01*
X143193095Y-85208571D01*
X143145476Y-85303809D01*
%TO.C,RPI_UART1*%
X50270952Y-127912380D02*
X49937619Y-127436190D01*
X49699523Y-127912380D02*
X49699523Y-126912380D01*
X50080476Y-126912380D01*
X50175714Y-126960000D01*
X50223333Y-127007619D01*
X50270952Y-127102857D01*
X50270952Y-127245714D01*
X50223333Y-127340952D01*
X50175714Y-127388571D01*
X50080476Y-127436190D01*
X49699523Y-127436190D01*
X50699523Y-127912380D02*
X50699523Y-126912380D01*
X51080476Y-126912380D01*
X51175714Y-126960000D01*
X51223333Y-127007619D01*
X51270952Y-127102857D01*
X51270952Y-127245714D01*
X51223333Y-127340952D01*
X51175714Y-127388571D01*
X51080476Y-127436190D01*
X50699523Y-127436190D01*
X51699523Y-127912380D02*
X51699523Y-126912380D01*
X51937619Y-128007619D02*
X52699523Y-128007619D01*
X52937619Y-126912380D02*
X52937619Y-127721904D01*
X52985238Y-127817142D01*
X53032857Y-127864761D01*
X53128095Y-127912380D01*
X53318571Y-127912380D01*
X53413809Y-127864761D01*
X53461428Y-127817142D01*
X53509047Y-127721904D01*
X53509047Y-126912380D01*
X53937619Y-127626666D02*
X54413809Y-127626666D01*
X53842380Y-127912380D02*
X54175714Y-126912380D01*
X54509047Y-127912380D01*
X55413809Y-127912380D02*
X55080476Y-127436190D01*
X54842380Y-127912380D02*
X54842380Y-126912380D01*
X55223333Y-126912380D01*
X55318571Y-126960000D01*
X55366190Y-127007619D01*
X55413809Y-127102857D01*
X55413809Y-127245714D01*
X55366190Y-127340952D01*
X55318571Y-127388571D01*
X55223333Y-127436190D01*
X54842380Y-127436190D01*
X55699523Y-126912380D02*
X56270952Y-126912380D01*
X55985238Y-127912380D02*
X55985238Y-126912380D01*
X57128095Y-127912380D02*
X56556666Y-127912380D01*
X56842380Y-127912380D02*
X56842380Y-126912380D01*
X56747142Y-127055238D01*
X56651904Y-127150476D01*
X56556666Y-127198095D01*
%TO.C,C6*%
X148188333Y-87587142D02*
X148140714Y-87634761D01*
X147997857Y-87682380D01*
X147902619Y-87682380D01*
X147759761Y-87634761D01*
X147664523Y-87539523D01*
X147616904Y-87444285D01*
X147569285Y-87253809D01*
X147569285Y-87110952D01*
X147616904Y-86920476D01*
X147664523Y-86825238D01*
X147759761Y-86730000D01*
X147902619Y-86682380D01*
X147997857Y-86682380D01*
X148140714Y-86730000D01*
X148188333Y-86777619D01*
X149045476Y-86682380D02*
X148855000Y-86682380D01*
X148759761Y-86730000D01*
X148712142Y-86777619D01*
X148616904Y-86920476D01*
X148569285Y-87110952D01*
X148569285Y-87491904D01*
X148616904Y-87587142D01*
X148664523Y-87634761D01*
X148759761Y-87682380D01*
X148950238Y-87682380D01*
X149045476Y-87634761D01*
X149093095Y-87587142D01*
X149140714Y-87491904D01*
X149140714Y-87253809D01*
X149093095Y-87158571D01*
X149045476Y-87110952D01*
X148950238Y-87063333D01*
X148759761Y-87063333D01*
X148664523Y-87110952D01*
X148616904Y-87158571D01*
X148569285Y-87253809D01*
%TO.C,C1*%
X153258333Y-69427142D02*
X153210714Y-69474761D01*
X153067857Y-69522380D01*
X152972619Y-69522380D01*
X152829761Y-69474761D01*
X152734523Y-69379523D01*
X152686904Y-69284285D01*
X152639285Y-69093809D01*
X152639285Y-68950952D01*
X152686904Y-68760476D01*
X152734523Y-68665238D01*
X152829761Y-68570000D01*
X152972619Y-68522380D01*
X153067857Y-68522380D01*
X153210714Y-68570000D01*
X153258333Y-68617619D01*
X154210714Y-69522380D02*
X153639285Y-69522380D01*
X153925000Y-69522380D02*
X153925000Y-68522380D01*
X153829761Y-68665238D01*
X153734523Y-68760476D01*
X153639285Y-68808095D01*
%TO.C,R21*%
X116947142Y-72892380D02*
X116613809Y-72416190D01*
X116375714Y-72892380D02*
X116375714Y-71892380D01*
X116756666Y-71892380D01*
X116851904Y-71940000D01*
X116899523Y-71987619D01*
X116947142Y-72082857D01*
X116947142Y-72225714D01*
X116899523Y-72320952D01*
X116851904Y-72368571D01*
X116756666Y-72416190D01*
X116375714Y-72416190D01*
X117328095Y-71987619D02*
X117375714Y-71940000D01*
X117470952Y-71892380D01*
X117709047Y-71892380D01*
X117804285Y-71940000D01*
X117851904Y-71987619D01*
X117899523Y-72082857D01*
X117899523Y-72178095D01*
X117851904Y-72320952D01*
X117280476Y-72892380D01*
X117899523Y-72892380D01*
X118851904Y-72892380D02*
X118280476Y-72892380D01*
X118566190Y-72892380D02*
X118566190Y-71892380D01*
X118470952Y-72035238D01*
X118375714Y-72130476D01*
X118280476Y-72178095D01*
%TO.C,C26*%
X124667142Y-63657142D02*
X124619523Y-63704761D01*
X124476666Y-63752380D01*
X124381428Y-63752380D01*
X124238571Y-63704761D01*
X124143333Y-63609523D01*
X124095714Y-63514285D01*
X124048095Y-63323809D01*
X124048095Y-63180952D01*
X124095714Y-62990476D01*
X124143333Y-62895238D01*
X124238571Y-62800000D01*
X124381428Y-62752380D01*
X124476666Y-62752380D01*
X124619523Y-62800000D01*
X124667142Y-62847619D01*
X125048095Y-62847619D02*
X125095714Y-62800000D01*
X125190952Y-62752380D01*
X125429047Y-62752380D01*
X125524285Y-62800000D01*
X125571904Y-62847619D01*
X125619523Y-62942857D01*
X125619523Y-63038095D01*
X125571904Y-63180952D01*
X125000476Y-63752380D01*
X125619523Y-63752380D01*
X126476666Y-62752380D02*
X126286190Y-62752380D01*
X126190952Y-62800000D01*
X126143333Y-62847619D01*
X126048095Y-62990476D01*
X126000476Y-63180952D01*
X126000476Y-63561904D01*
X126048095Y-63657142D01*
X126095714Y-63704761D01*
X126190952Y-63752380D01*
X126381428Y-63752380D01*
X126476666Y-63704761D01*
X126524285Y-63657142D01*
X126571904Y-63561904D01*
X126571904Y-63323809D01*
X126524285Y-63228571D01*
X126476666Y-63180952D01*
X126381428Y-63133333D01*
X126190952Y-63133333D01*
X126095714Y-63180952D01*
X126048095Y-63228571D01*
X126000476Y-63323809D01*
%TO.C,U2*%
X135388095Y-49502380D02*
X135388095Y-50311904D01*
X135435714Y-50407142D01*
X135483333Y-50454761D01*
X135578571Y-50502380D01*
X135769047Y-50502380D01*
X135864285Y-50454761D01*
X135911904Y-50407142D01*
X135959523Y-50311904D01*
X135959523Y-49502380D01*
X136388095Y-49597619D02*
X136435714Y-49550000D01*
X136530952Y-49502380D01*
X136769047Y-49502380D01*
X136864285Y-49550000D01*
X136911904Y-49597619D01*
X136959523Y-49692857D01*
X136959523Y-49788095D01*
X136911904Y-49930952D01*
X136340476Y-50502380D01*
X136959523Y-50502380D01*
%TO.C,R15*%
X144722142Y-83742380D02*
X144388809Y-83266190D01*
X144150714Y-83742380D02*
X144150714Y-82742380D01*
X144531666Y-82742380D01*
X144626904Y-82790000D01*
X144674523Y-82837619D01*
X144722142Y-82932857D01*
X144722142Y-83075714D01*
X144674523Y-83170952D01*
X144626904Y-83218571D01*
X144531666Y-83266190D01*
X144150714Y-83266190D01*
X145674523Y-83742380D02*
X145103095Y-83742380D01*
X145388809Y-83742380D02*
X145388809Y-82742380D01*
X145293571Y-82885238D01*
X145198333Y-82980476D01*
X145103095Y-83028095D01*
X146579285Y-82742380D02*
X146103095Y-82742380D01*
X146055476Y-83218571D01*
X146103095Y-83170952D01*
X146198333Y-83123333D01*
X146436428Y-83123333D01*
X146531666Y-83170952D01*
X146579285Y-83218571D01*
X146626904Y-83313809D01*
X146626904Y-83551904D01*
X146579285Y-83647142D01*
X146531666Y-83694761D01*
X146436428Y-83742380D01*
X146198333Y-83742380D01*
X146103095Y-83694761D01*
X146055476Y-83647142D01*
%TO.C,C19*%
X144842142Y-89597142D02*
X144794523Y-89644761D01*
X144651666Y-89692380D01*
X144556428Y-89692380D01*
X144413571Y-89644761D01*
X144318333Y-89549523D01*
X144270714Y-89454285D01*
X144223095Y-89263809D01*
X144223095Y-89120952D01*
X144270714Y-88930476D01*
X144318333Y-88835238D01*
X144413571Y-88740000D01*
X144556428Y-88692380D01*
X144651666Y-88692380D01*
X144794523Y-88740000D01*
X144842142Y-88787619D01*
X145794523Y-89692380D02*
X145223095Y-89692380D01*
X145508809Y-89692380D02*
X145508809Y-88692380D01*
X145413571Y-88835238D01*
X145318333Y-88930476D01*
X145223095Y-88978095D01*
X146270714Y-89692380D02*
X146461190Y-89692380D01*
X146556428Y-89644761D01*
X146604047Y-89597142D01*
X146699285Y-89454285D01*
X146746904Y-89263809D01*
X146746904Y-88882857D01*
X146699285Y-88787619D01*
X146651666Y-88740000D01*
X146556428Y-88692380D01*
X146365952Y-88692380D01*
X146270714Y-88740000D01*
X146223095Y-88787619D01*
X146175476Y-88882857D01*
X146175476Y-89120952D01*
X146223095Y-89216190D01*
X146270714Y-89263809D01*
X146365952Y-89311428D01*
X146556428Y-89311428D01*
X146651666Y-89263809D01*
X146699285Y-89216190D01*
X146746904Y-89120952D01*
%TO.C,R25*%
X107467142Y-83632380D02*
X107133809Y-83156190D01*
X106895714Y-83632380D02*
X106895714Y-82632380D01*
X107276666Y-82632380D01*
X107371904Y-82680000D01*
X107419523Y-82727619D01*
X107467142Y-82822857D01*
X107467142Y-82965714D01*
X107419523Y-83060952D01*
X107371904Y-83108571D01*
X107276666Y-83156190D01*
X106895714Y-83156190D01*
X107848095Y-82727619D02*
X107895714Y-82680000D01*
X107990952Y-82632380D01*
X108229047Y-82632380D01*
X108324285Y-82680000D01*
X108371904Y-82727619D01*
X108419523Y-82822857D01*
X108419523Y-82918095D01*
X108371904Y-83060952D01*
X107800476Y-83632380D01*
X108419523Y-83632380D01*
X109324285Y-82632380D02*
X108848095Y-82632380D01*
X108800476Y-83108571D01*
X108848095Y-83060952D01*
X108943333Y-83013333D01*
X109181428Y-83013333D01*
X109276666Y-83060952D01*
X109324285Y-83108571D01*
X109371904Y-83203809D01*
X109371904Y-83441904D01*
X109324285Y-83537142D01*
X109276666Y-83584761D01*
X109181428Y-83632380D01*
X108943333Y-83632380D01*
X108848095Y-83584761D01*
X108800476Y-83537142D01*
%TO.C,R1*%
X145198333Y-85732380D02*
X144865000Y-85256190D01*
X144626904Y-85732380D02*
X144626904Y-84732380D01*
X145007857Y-84732380D01*
X145103095Y-84780000D01*
X145150714Y-84827619D01*
X145198333Y-84922857D01*
X145198333Y-85065714D01*
X145150714Y-85160952D01*
X145103095Y-85208571D01*
X145007857Y-85256190D01*
X144626904Y-85256190D01*
X146150714Y-85732380D02*
X145579285Y-85732380D01*
X145865000Y-85732380D02*
X145865000Y-84732380D01*
X145769761Y-84875238D01*
X145674523Y-84970476D01*
X145579285Y-85018095D01*
%TO.C,S1*%
X145923095Y-69187961D02*
X146065952Y-69235580D01*
X146304047Y-69235580D01*
X146399285Y-69187961D01*
X146446904Y-69140342D01*
X146494523Y-69045104D01*
X146494523Y-68949866D01*
X146446904Y-68854628D01*
X146399285Y-68807009D01*
X146304047Y-68759390D01*
X146113571Y-68711771D01*
X146018333Y-68664152D01*
X145970714Y-68616533D01*
X145923095Y-68521295D01*
X145923095Y-68426057D01*
X145970714Y-68330819D01*
X146018333Y-68283200D01*
X146113571Y-68235580D01*
X146351666Y-68235580D01*
X146494523Y-68283200D01*
X147446904Y-69235580D02*
X146875476Y-69235580D01*
X147161190Y-69235580D02*
X147161190Y-68235580D01*
X147065952Y-68378438D01*
X146970714Y-68473676D01*
X146875476Y-68521295D01*
%TO.C,L1*%
X98258333Y-53766980D02*
X97782142Y-53766980D01*
X97782142Y-52766980D01*
X99115476Y-53766980D02*
X98544047Y-53766980D01*
X98829761Y-53766980D02*
X98829761Y-52766980D01*
X98734523Y-52909838D01*
X98639285Y-53005076D01*
X98544047Y-53052695D01*
X97782142Y-53766980D02*
X97210714Y-53766980D01*
X97496428Y-53766980D02*
X97496428Y-52766980D01*
X97401190Y-52909838D01*
X97305952Y-53005076D01*
X97210714Y-53052695D01*
X98686904Y-52766980D02*
X98210714Y-52766980D01*
X98163095Y-53243171D01*
X98210714Y-53195552D01*
X98305952Y-53147933D01*
X98544047Y-53147933D01*
X98639285Y-53195552D01*
X98686904Y-53243171D01*
X98734523Y-53338409D01*
X98734523Y-53576504D01*
X98686904Y-53671742D01*
X98639285Y-53719361D01*
X98544047Y-53766980D01*
X98305952Y-53766980D01*
X98210714Y-53719361D01*
X98163095Y-53671742D01*
X99591666Y-53100314D02*
X99591666Y-53766980D01*
X99163095Y-53100314D02*
X99163095Y-53624123D01*
X99210714Y-53719361D01*
X99305952Y-53766980D01*
X99448809Y-53766980D01*
X99544047Y-53719361D01*
X99591666Y-53671742D01*
X98425000Y-52766980D02*
X98425000Y-53005076D01*
X98186904Y-52909838D02*
X98425000Y-53005076D01*
X98663095Y-52909838D01*
X98282142Y-53195552D02*
X98425000Y-53005076D01*
X98567857Y-53195552D01*
%TO.C,C10*%
X142612142Y-91877142D02*
X142564523Y-91924761D01*
X142421666Y-91972380D01*
X142326428Y-91972380D01*
X142183571Y-91924761D01*
X142088333Y-91829523D01*
X142040714Y-91734285D01*
X141993095Y-91543809D01*
X141993095Y-91400952D01*
X142040714Y-91210476D01*
X142088333Y-91115238D01*
X142183571Y-91020000D01*
X142326428Y-90972380D01*
X142421666Y-90972380D01*
X142564523Y-91020000D01*
X142612142Y-91067619D01*
X143564523Y-91972380D02*
X142993095Y-91972380D01*
X143278809Y-91972380D02*
X143278809Y-90972380D01*
X143183571Y-91115238D01*
X143088333Y-91210476D01*
X142993095Y-91258095D01*
X144183571Y-90972380D02*
X144278809Y-90972380D01*
X144374047Y-91020000D01*
X144421666Y-91067619D01*
X144469285Y-91162857D01*
X144516904Y-91353333D01*
X144516904Y-91591428D01*
X144469285Y-91781904D01*
X144421666Y-91877142D01*
X144374047Y-91924761D01*
X144278809Y-91972380D01*
X144183571Y-91972380D01*
X144088333Y-91924761D01*
X144040714Y-91877142D01*
X143993095Y-91781904D01*
X143945476Y-91591428D01*
X143945476Y-91353333D01*
X143993095Y-91162857D01*
X144040714Y-91067619D01*
X144088333Y-91020000D01*
X144183571Y-90972380D01*
%TO.C,R10*%
X158342142Y-71512380D02*
X158008809Y-71036190D01*
X157770714Y-71512380D02*
X157770714Y-70512380D01*
X158151666Y-70512380D01*
X158246904Y-70560000D01*
X158294523Y-70607619D01*
X158342142Y-70702857D01*
X158342142Y-70845714D01*
X158294523Y-70940952D01*
X158246904Y-70988571D01*
X158151666Y-71036190D01*
X157770714Y-71036190D01*
X159294523Y-71512380D02*
X158723095Y-71512380D01*
X159008809Y-71512380D02*
X159008809Y-70512380D01*
X158913571Y-70655238D01*
X158818333Y-70750476D01*
X158723095Y-70798095D01*
X159913571Y-70512380D02*
X160008809Y-70512380D01*
X160104047Y-70560000D01*
X160151666Y-70607619D01*
X160199285Y-70702857D01*
X160246904Y-70893333D01*
X160246904Y-71131428D01*
X160199285Y-71321904D01*
X160151666Y-71417142D01*
X160104047Y-71464761D01*
X160008809Y-71512380D01*
X159913571Y-71512380D01*
X159818333Y-71464761D01*
X159770714Y-71417142D01*
X159723095Y-71321904D01*
X159675476Y-71131428D01*
X159675476Y-70893333D01*
X159723095Y-70702857D01*
X159770714Y-70607619D01*
X159818333Y-70560000D01*
X159913571Y-70512380D01*
%TO.C,C21*%
X147612142Y-83647142D02*
X147564523Y-83694761D01*
X147421666Y-83742380D01*
X147326428Y-83742380D01*
X147183571Y-83694761D01*
X147088333Y-83599523D01*
X147040714Y-83504285D01*
X146993095Y-83313809D01*
X146993095Y-83170952D01*
X147040714Y-82980476D01*
X147088333Y-82885238D01*
X147183571Y-82790000D01*
X147326428Y-82742380D01*
X147421666Y-82742380D01*
X147564523Y-82790000D01*
X147612142Y-82837619D01*
X147993095Y-82837619D02*
X148040714Y-82790000D01*
X148135952Y-82742380D01*
X148374047Y-82742380D01*
X148469285Y-82790000D01*
X148516904Y-82837619D01*
X148564523Y-82932857D01*
X148564523Y-83028095D01*
X148516904Y-83170952D01*
X147945476Y-83742380D01*
X148564523Y-83742380D01*
X149516904Y-83742380D02*
X148945476Y-83742380D01*
X149231190Y-83742380D02*
X149231190Y-82742380D01*
X149135952Y-82885238D01*
X149040714Y-82980476D01*
X148945476Y-83028095D01*
%TO.C,C8*%
X150958333Y-83837142D02*
X150910714Y-83884761D01*
X150767857Y-83932380D01*
X150672619Y-83932380D01*
X150529761Y-83884761D01*
X150434523Y-83789523D01*
X150386904Y-83694285D01*
X150339285Y-83503809D01*
X150339285Y-83360952D01*
X150386904Y-83170476D01*
X150434523Y-83075238D01*
X150529761Y-82980000D01*
X150672619Y-82932380D01*
X150767857Y-82932380D01*
X150910714Y-82980000D01*
X150958333Y-83027619D01*
X151529761Y-83360952D02*
X151434523Y-83313333D01*
X151386904Y-83265714D01*
X151339285Y-83170476D01*
X151339285Y-83122857D01*
X151386904Y-83027619D01*
X151434523Y-82980000D01*
X151529761Y-82932380D01*
X151720238Y-82932380D01*
X151815476Y-82980000D01*
X151863095Y-83027619D01*
X151910714Y-83122857D01*
X151910714Y-83170476D01*
X151863095Y-83265714D01*
X151815476Y-83313333D01*
X151720238Y-83360952D01*
X151529761Y-83360952D01*
X151434523Y-83408571D01*
X151386904Y-83456190D01*
X151339285Y-83551428D01*
X151339285Y-83741904D01*
X151386904Y-83837142D01*
X151434523Y-83884761D01*
X151529761Y-83932380D01*
X151720238Y-83932380D01*
X151815476Y-83884761D01*
X151863095Y-83837142D01*
X151910714Y-83741904D01*
X151910714Y-83551428D01*
X151863095Y-83456190D01*
X151815476Y-83408571D01*
X151720238Y-83360952D01*
%TO.C,C20*%
X156832142Y-79877142D02*
X156784523Y-79924761D01*
X156641666Y-79972380D01*
X156546428Y-79972380D01*
X156403571Y-79924761D01*
X156308333Y-79829523D01*
X156260714Y-79734285D01*
X156213095Y-79543809D01*
X156213095Y-79400952D01*
X156260714Y-79210476D01*
X156308333Y-79115238D01*
X156403571Y-79020000D01*
X156546428Y-78972380D01*
X156641666Y-78972380D01*
X156784523Y-79020000D01*
X156832142Y-79067619D01*
X157213095Y-79067619D02*
X157260714Y-79020000D01*
X157355952Y-78972380D01*
X157594047Y-78972380D01*
X157689285Y-79020000D01*
X157736904Y-79067619D01*
X157784523Y-79162857D01*
X157784523Y-79258095D01*
X157736904Y-79400952D01*
X157165476Y-79972380D01*
X157784523Y-79972380D01*
X158403571Y-78972380D02*
X158498809Y-78972380D01*
X158594047Y-79020000D01*
X158641666Y-79067619D01*
X158689285Y-79162857D01*
X158736904Y-79353333D01*
X158736904Y-79591428D01*
X158689285Y-79781904D01*
X158641666Y-79877142D01*
X158594047Y-79924761D01*
X158498809Y-79972380D01*
X158403571Y-79972380D01*
X158308333Y-79924761D01*
X158260714Y-79877142D01*
X158213095Y-79781904D01*
X158165476Y-79591428D01*
X158165476Y-79353333D01*
X158213095Y-79162857D01*
X158260714Y-79067619D01*
X158308333Y-79020000D01*
X158403571Y-78972380D01*
%TO.C,D1*%
X152201904Y-74022380D02*
X152201904Y-73022380D01*
X152440000Y-73022380D01*
X152582857Y-73070000D01*
X152678095Y-73165238D01*
X152725714Y-73260476D01*
X152773333Y-73450952D01*
X152773333Y-73593809D01*
X152725714Y-73784285D01*
X152678095Y-73879523D01*
X152582857Y-73974761D01*
X152440000Y-74022380D01*
X152201904Y-74022380D01*
X153725714Y-74022380D02*
X153154285Y-74022380D01*
X153440000Y-74022380D02*
X153440000Y-73022380D01*
X153344761Y-73165238D01*
X153249523Y-73260476D01*
X153154285Y-73308095D01*
%TO.C,R11*%
X148312142Y-77772380D02*
X147978809Y-77296190D01*
X147740714Y-77772380D02*
X147740714Y-76772380D01*
X148121666Y-76772380D01*
X148216904Y-76820000D01*
X148264523Y-76867619D01*
X148312142Y-76962857D01*
X148312142Y-77105714D01*
X148264523Y-77200952D01*
X148216904Y-77248571D01*
X148121666Y-77296190D01*
X147740714Y-77296190D01*
X149264523Y-77772380D02*
X148693095Y-77772380D01*
X148978809Y-77772380D02*
X148978809Y-76772380D01*
X148883571Y-76915238D01*
X148788333Y-77010476D01*
X148693095Y-77058095D01*
X150216904Y-77772380D02*
X149645476Y-77772380D01*
X149931190Y-77772380D02*
X149931190Y-76772380D01*
X149835952Y-76915238D01*
X149740714Y-77010476D01*
X149645476Y-77058095D01*
%TO.C,REG2*%
X101694352Y-76455781D02*
X101361019Y-75979591D01*
X101122923Y-76455781D02*
X101122923Y-75455781D01*
X101503876Y-75455781D01*
X101599114Y-75503401D01*
X101646733Y-75551020D01*
X101694352Y-75646258D01*
X101694352Y-75789115D01*
X101646733Y-75884353D01*
X101599114Y-75931972D01*
X101503876Y-75979591D01*
X101122923Y-75979591D01*
X102122923Y-75931972D02*
X102456257Y-75931972D01*
X102599114Y-76455781D02*
X102122923Y-76455781D01*
X102122923Y-75455781D01*
X102599114Y-75455781D01*
X103551495Y-75503401D02*
X103456257Y-75455781D01*
X103313400Y-75455781D01*
X103170542Y-75503401D01*
X103075304Y-75598639D01*
X103027685Y-75693877D01*
X102980066Y-75884353D01*
X102980066Y-76027210D01*
X103027685Y-76217686D01*
X103075304Y-76312924D01*
X103170542Y-76408162D01*
X103313400Y-76455781D01*
X103408638Y-76455781D01*
X103551495Y-76408162D01*
X103599114Y-76360543D01*
X103599114Y-76027210D01*
X103408638Y-76027210D01*
X103980066Y-75551020D02*
X104027685Y-75503401D01*
X104122923Y-75455781D01*
X104361019Y-75455781D01*
X104456257Y-75503401D01*
X104503876Y-75551020D01*
X104551495Y-75646258D01*
X104551495Y-75741496D01*
X104503876Y-75884353D01*
X103932447Y-76455781D01*
X104551495Y-76455781D01*
X96646733Y-76455781D02*
X96646733Y-75455781D01*
X96980066Y-76170067D01*
X97313400Y-75455781D01*
X97313400Y-76455781D01*
X97789590Y-76455781D02*
X97789590Y-75455781D01*
X98837209Y-76360543D02*
X98789590Y-76408162D01*
X98646733Y-76455781D01*
X98551495Y-76455781D01*
X98408638Y-76408162D01*
X98313400Y-76312924D01*
X98265780Y-76217686D01*
X98218161Y-76027210D01*
X98218161Y-75884353D01*
X98265780Y-75693877D01*
X98313400Y-75598639D01*
X98408638Y-75503401D01*
X98551495Y-75455781D01*
X98646733Y-75455781D01*
X98789590Y-75503401D01*
X98837209Y-75551020D01*
X99218161Y-75551020D02*
X99265780Y-75503401D01*
X99361019Y-75455781D01*
X99599114Y-75455781D01*
X99694352Y-75503401D01*
X99741971Y-75551020D01*
X99789590Y-75646258D01*
X99789590Y-75741496D01*
X99741971Y-75884353D01*
X99170542Y-76455781D01*
X99789590Y-76455781D01*
X100646733Y-75455781D02*
X100456257Y-75455781D01*
X100361019Y-75503401D01*
X100313400Y-75551020D01*
X100218161Y-75693877D01*
X100170542Y-75884353D01*
X100170542Y-76265305D01*
X100218161Y-76360543D01*
X100265780Y-76408162D01*
X100361019Y-76455781D01*
X100551495Y-76455781D01*
X100646733Y-76408162D01*
X100694352Y-76360543D01*
X100741971Y-76265305D01*
X100741971Y-76027210D01*
X100694352Y-75931972D01*
X100646733Y-75884353D01*
X100551495Y-75836734D01*
X100361019Y-75836734D01*
X100265780Y-75884353D01*
X100218161Y-75931972D01*
X100170542Y-76027210D01*
X101218161Y-76455781D02*
X101408638Y-76455781D01*
X101503876Y-76408162D01*
X101551495Y-76360543D01*
X101646733Y-76217686D01*
X101694352Y-76027210D01*
X101694352Y-75646258D01*
X101646733Y-75551020D01*
X101599114Y-75503401D01*
X101503876Y-75455781D01*
X101313400Y-75455781D01*
X101218161Y-75503401D01*
X101170542Y-75551020D01*
X101122923Y-75646258D01*
X101122923Y-75884353D01*
X101170542Y-75979591D01*
X101218161Y-76027210D01*
X101313400Y-76074829D01*
X101503876Y-76074829D01*
X101599114Y-76027210D01*
X101646733Y-75979591D01*
X101694352Y-75884353D01*
X102313400Y-75455781D02*
X102408638Y-75455781D01*
X102503876Y-75503401D01*
X102551495Y-75551020D01*
X102599114Y-75646258D01*
X102646733Y-75836734D01*
X102646733Y-76074829D01*
X102599114Y-76265305D01*
X102551495Y-76360543D01*
X102503876Y-76408162D01*
X102408638Y-76455781D01*
X102313400Y-76455781D01*
X102218161Y-76408162D01*
X102170542Y-76360543D01*
X102122923Y-76265305D01*
X102075304Y-76074829D01*
X102075304Y-75836734D01*
X102122923Y-75646258D01*
X102170542Y-75551020D01*
X102218161Y-75503401D01*
X102313400Y-75455781D01*
X102980066Y-75455781D02*
X103599114Y-75455781D01*
X103265780Y-75836734D01*
X103408638Y-75836734D01*
X103503876Y-75884353D01*
X103551495Y-75931972D01*
X103599114Y-76027210D01*
X103599114Y-76265305D01*
X103551495Y-76360543D01*
X103503876Y-76408162D01*
X103408638Y-76455781D01*
X103122923Y-76455781D01*
X103027685Y-76408162D01*
X102980066Y-76360543D01*
X104218161Y-75979591D02*
X104218161Y-76455781D01*
X103884828Y-75455781D02*
X104218161Y-75979591D01*
X104551495Y-75455781D01*
X105170542Y-75455781D02*
X105170542Y-76170067D01*
X105122923Y-76312924D01*
X105027685Y-76408162D01*
X104884828Y-76455781D01*
X104789590Y-76455781D01*
X106122923Y-76455781D02*
X105646733Y-76455781D01*
X105646733Y-75455781D01*
X106456257Y-76074829D02*
X107218161Y-76074829D01*
X107551495Y-75455781D02*
X108122923Y-75455781D01*
X107837209Y-76455781D02*
X107837209Y-75455781D01*
X109027685Y-76455781D02*
X108694352Y-75979591D01*
X108456257Y-76455781D02*
X108456257Y-75455781D01*
X108837209Y-75455781D01*
X108932447Y-75503401D01*
X108980066Y-75551020D01*
X109027685Y-75646258D01*
X109027685Y-75789115D01*
X108980066Y-75884353D01*
X108932447Y-75931972D01*
X108837209Y-75979591D01*
X108456257Y-75979591D01*
X99273600Y-72855781D02*
X99273600Y-73093877D01*
X99035504Y-72998639D02*
X99273600Y-73093877D01*
X99511695Y-72998639D01*
X99130742Y-73284353D02*
X99273600Y-73093877D01*
X99416457Y-73284353D01*
X99273600Y-72855781D02*
X99273600Y-73093877D01*
X99035504Y-72998639D02*
X99273600Y-73093877D01*
X99511695Y-72998639D01*
X99130742Y-73284353D02*
X99273600Y-73093877D01*
X99416457Y-73284353D01*
%TO.C,C28*%
X121997142Y-71057142D02*
X121949523Y-71104761D01*
X121806666Y-71152380D01*
X121711428Y-71152380D01*
X121568571Y-71104761D01*
X121473333Y-71009523D01*
X121425714Y-70914285D01*
X121378095Y-70723809D01*
X121378095Y-70580952D01*
X121425714Y-70390476D01*
X121473333Y-70295238D01*
X121568571Y-70200000D01*
X121711428Y-70152380D01*
X121806666Y-70152380D01*
X121949523Y-70200000D01*
X121997142Y-70247619D01*
X122378095Y-70247619D02*
X122425714Y-70200000D01*
X122520952Y-70152380D01*
X122759047Y-70152380D01*
X122854285Y-70200000D01*
X122901904Y-70247619D01*
X122949523Y-70342857D01*
X122949523Y-70438095D01*
X122901904Y-70580952D01*
X122330476Y-71152380D01*
X122949523Y-71152380D01*
X123520952Y-70580952D02*
X123425714Y-70533333D01*
X123378095Y-70485714D01*
X123330476Y-70390476D01*
X123330476Y-70342857D01*
X123378095Y-70247619D01*
X123425714Y-70200000D01*
X123520952Y-70152380D01*
X123711428Y-70152380D01*
X123806666Y-70200000D01*
X123854285Y-70247619D01*
X123901904Y-70342857D01*
X123901904Y-70390476D01*
X123854285Y-70485714D01*
X123806666Y-70533333D01*
X123711428Y-70580952D01*
X123520952Y-70580952D01*
X123425714Y-70628571D01*
X123378095Y-70676190D01*
X123330476Y-70771428D01*
X123330476Y-70961904D01*
X123378095Y-71057142D01*
X123425714Y-71104761D01*
X123520952Y-71152380D01*
X123711428Y-71152380D01*
X123806666Y-71104761D01*
X123854285Y-71057142D01*
X123901904Y-70961904D01*
X123901904Y-70771428D01*
X123854285Y-70676190D01*
X123806666Y-70628571D01*
X123711428Y-70580952D01*
%TO.C,25MHz1*%
X135546904Y-87057619D02*
X135594523Y-87010000D01*
X135689761Y-86962380D01*
X135927857Y-86962380D01*
X136023095Y-87010000D01*
X136070714Y-87057619D01*
X136118333Y-87152857D01*
X136118333Y-87248095D01*
X136070714Y-87390952D01*
X135499285Y-87962380D01*
X136118333Y-87962380D01*
X137023095Y-86962380D02*
X136546904Y-86962380D01*
X136499285Y-87438571D01*
X136546904Y-87390952D01*
X136642142Y-87343333D01*
X136880238Y-87343333D01*
X136975476Y-87390952D01*
X137023095Y-87438571D01*
X137070714Y-87533809D01*
X137070714Y-87771904D01*
X137023095Y-87867142D01*
X136975476Y-87914761D01*
X136880238Y-87962380D01*
X136642142Y-87962380D01*
X136546904Y-87914761D01*
X136499285Y-87867142D01*
X137499285Y-87962380D02*
X137499285Y-86962380D01*
X137832619Y-87676666D01*
X138165952Y-86962380D01*
X138165952Y-87962380D01*
X138642142Y-87962380D02*
X138642142Y-86962380D01*
X138642142Y-87438571D02*
X139213571Y-87438571D01*
X139213571Y-87962380D02*
X139213571Y-86962380D01*
X139594523Y-87295714D02*
X140118333Y-87295714D01*
X139594523Y-87962380D01*
X140118333Y-87962380D01*
X141023095Y-87962380D02*
X140451666Y-87962380D01*
X140737380Y-87962380D02*
X140737380Y-86962380D01*
X140642142Y-87105238D01*
X140546904Y-87200476D01*
X140451666Y-87248095D01*
%TO.C,D3*%
X134961904Y-54752380D02*
X134961904Y-53752380D01*
X135200000Y-53752380D01*
X135342857Y-53800000D01*
X135438095Y-53895238D01*
X135485714Y-53990476D01*
X135533333Y-54180952D01*
X135533333Y-54323809D01*
X135485714Y-54514285D01*
X135438095Y-54609523D01*
X135342857Y-54704761D01*
X135200000Y-54752380D01*
X134961904Y-54752380D01*
X135866666Y-53752380D02*
X136485714Y-53752380D01*
X136152380Y-54133333D01*
X136295238Y-54133333D01*
X136390476Y-54180952D01*
X136438095Y-54228571D01*
X136485714Y-54323809D01*
X136485714Y-54561904D01*
X136438095Y-54657142D01*
X136390476Y-54704761D01*
X136295238Y-54752380D01*
X136009523Y-54752380D01*
X135914285Y-54704761D01*
X135866666Y-54657142D01*
%TO.C,R18*%
X144952142Y-81752380D02*
X144618809Y-81276190D01*
X144380714Y-81752380D02*
X144380714Y-80752380D01*
X144761666Y-80752380D01*
X144856904Y-80800000D01*
X144904523Y-80847619D01*
X144952142Y-80942857D01*
X144952142Y-81085714D01*
X144904523Y-81180952D01*
X144856904Y-81228571D01*
X144761666Y-81276190D01*
X144380714Y-81276190D01*
X145904523Y-81752380D02*
X145333095Y-81752380D01*
X145618809Y-81752380D02*
X145618809Y-80752380D01*
X145523571Y-80895238D01*
X145428333Y-80990476D01*
X145333095Y-81038095D01*
X146475952Y-81180952D02*
X146380714Y-81133333D01*
X146333095Y-81085714D01*
X146285476Y-80990476D01*
X146285476Y-80942857D01*
X146333095Y-80847619D01*
X146380714Y-80800000D01*
X146475952Y-80752380D01*
X146666428Y-80752380D01*
X146761666Y-80800000D01*
X146809285Y-80847619D01*
X146856904Y-80942857D01*
X146856904Y-80990476D01*
X146809285Y-81085714D01*
X146761666Y-81133333D01*
X146666428Y-81180952D01*
X146475952Y-81180952D01*
X146380714Y-81228571D01*
X146333095Y-81276190D01*
X146285476Y-81371428D01*
X146285476Y-81561904D01*
X146333095Y-81657142D01*
X146380714Y-81704761D01*
X146475952Y-81752380D01*
X146666428Y-81752380D01*
X146761666Y-81704761D01*
X146809285Y-81657142D01*
X146856904Y-81561904D01*
X146856904Y-81371428D01*
X146809285Y-81276190D01*
X146761666Y-81228571D01*
X146666428Y-81180952D01*
%TO.C,FATAL1*%
X128613809Y-93038571D02*
X128280476Y-93038571D01*
X128280476Y-93562380D02*
X128280476Y-92562380D01*
X128756666Y-92562380D01*
X129090000Y-93276666D02*
X129566190Y-93276666D01*
X128994761Y-93562380D02*
X129328095Y-92562380D01*
X129661428Y-93562380D01*
X129851904Y-92562380D02*
X130423333Y-92562380D01*
X130137619Y-93562380D02*
X130137619Y-92562380D01*
X130709047Y-93276666D02*
X131185238Y-93276666D01*
X130613809Y-93562380D02*
X130947142Y-92562380D01*
X131280476Y-93562380D01*
X132090000Y-93562380D02*
X131613809Y-93562380D01*
X131613809Y-92562380D01*
X132947142Y-93562380D02*
X132375714Y-93562380D01*
X132661428Y-93562380D02*
X132661428Y-92562380D01*
X132566190Y-92705238D01*
X132470952Y-92800476D01*
X132375714Y-92848095D01*
%TO.C,R3*%
X123968333Y-93562380D02*
X123635000Y-93086190D01*
X123396904Y-93562380D02*
X123396904Y-92562380D01*
X123777857Y-92562380D01*
X123873095Y-92610000D01*
X123920714Y-92657619D01*
X123968333Y-92752857D01*
X123968333Y-92895714D01*
X123920714Y-92990952D01*
X123873095Y-93038571D01*
X123777857Y-93086190D01*
X123396904Y-93086190D01*
X124301666Y-92562380D02*
X124920714Y-92562380D01*
X124587380Y-92943333D01*
X124730238Y-92943333D01*
X124825476Y-92990952D01*
X124873095Y-93038571D01*
X124920714Y-93133809D01*
X124920714Y-93371904D01*
X124873095Y-93467142D01*
X124825476Y-93514761D01*
X124730238Y-93562380D01*
X124444523Y-93562380D01*
X124349285Y-93514761D01*
X124301666Y-93467142D01*
%TO.C,R4*%
X137118333Y-92462380D02*
X136785000Y-91986190D01*
X136546904Y-92462380D02*
X136546904Y-91462380D01*
X136927857Y-91462380D01*
X137023095Y-91510000D01*
X137070714Y-91557619D01*
X137118333Y-91652857D01*
X137118333Y-91795714D01*
X137070714Y-91890952D01*
X137023095Y-91938571D01*
X136927857Y-91986190D01*
X136546904Y-91986190D01*
X137975476Y-91795714D02*
X137975476Y-92462380D01*
X137737380Y-91414761D02*
X137499285Y-92129047D01*
X138118333Y-92129047D01*
%TO.C,R13*%
X132852142Y-93562380D02*
X132518809Y-93086190D01*
X132280714Y-93562380D02*
X132280714Y-92562380D01*
X132661666Y-92562380D01*
X132756904Y-92610000D01*
X132804523Y-92657619D01*
X132852142Y-92752857D01*
X132852142Y-92895714D01*
X132804523Y-92990952D01*
X132756904Y-93038571D01*
X132661666Y-93086190D01*
X132280714Y-93086190D01*
X133804523Y-93562380D02*
X133233095Y-93562380D01*
X133518809Y-93562380D02*
X133518809Y-92562380D01*
X133423571Y-92705238D01*
X133328333Y-92800476D01*
X133233095Y-92848095D01*
X134137857Y-92562380D02*
X134756904Y-92562380D01*
X134423571Y-92943333D01*
X134566428Y-92943333D01*
X134661666Y-92990952D01*
X134709285Y-93038571D01*
X134756904Y-93133809D01*
X134756904Y-93371904D01*
X134709285Y-93467142D01*
X134661666Y-93514761D01*
X134566428Y-93562380D01*
X134280714Y-93562380D01*
X134185476Y-93514761D01*
X134137857Y-93467142D01*
%TO.C,WD1*%
X151535238Y-71032380D02*
X151773333Y-72032380D01*
X151963809Y-71318095D01*
X152154285Y-72032380D01*
X152392380Y-71032380D01*
X152773333Y-72032380D02*
X152773333Y-71032380D01*
X153011428Y-71032380D01*
X153154285Y-71080000D01*
X153249523Y-71175238D01*
X153297142Y-71270476D01*
X153344761Y-71460952D01*
X153344761Y-71603809D01*
X153297142Y-71794285D01*
X153249523Y-71889523D01*
X153154285Y-71984761D01*
X153011428Y-72032380D01*
X152773333Y-72032380D01*
X154297142Y-72032380D02*
X153725714Y-72032380D01*
X154011428Y-72032380D02*
X154011428Y-71032380D01*
X153916190Y-71175238D01*
X153820952Y-71270476D01*
X153725714Y-71318095D01*
%TO.C,C15*%
X51857142Y-139897142D02*
X51809523Y-139944761D01*
X51666666Y-139992380D01*
X51571428Y-139992380D01*
X51428571Y-139944761D01*
X51333333Y-139849523D01*
X51285714Y-139754285D01*
X51238095Y-139563809D01*
X51238095Y-139420952D01*
X51285714Y-139230476D01*
X51333333Y-139135238D01*
X51428571Y-139040000D01*
X51571428Y-138992380D01*
X51666666Y-138992380D01*
X51809523Y-139040000D01*
X51857142Y-139087619D01*
X52809523Y-139992380D02*
X52238095Y-139992380D01*
X52523809Y-139992380D02*
X52523809Y-138992380D01*
X52428571Y-139135238D01*
X52333333Y-139230476D01*
X52238095Y-139278095D01*
X53714285Y-138992380D02*
X53238095Y-138992380D01*
X53190476Y-139468571D01*
X53238095Y-139420952D01*
X53333333Y-139373333D01*
X53571428Y-139373333D01*
X53666666Y-139420952D01*
X53714285Y-139468571D01*
X53761904Y-139563809D01*
X53761904Y-139801904D01*
X53714285Y-139897142D01*
X53666666Y-139944761D01*
X53571428Y-139992380D01*
X53333333Y-139992380D01*
X53238095Y-139944761D01*
X53190476Y-139897142D01*
%TO.C,R7*%
X142458333Y-77772380D02*
X142125000Y-77296190D01*
X141886904Y-77772380D02*
X141886904Y-76772380D01*
X142267857Y-76772380D01*
X142363095Y-76820000D01*
X142410714Y-76867619D01*
X142458333Y-76962857D01*
X142458333Y-77105714D01*
X142410714Y-77200952D01*
X142363095Y-77248571D01*
X142267857Y-77296190D01*
X141886904Y-77296190D01*
X142791666Y-76772380D02*
X143458333Y-76772380D01*
X143029761Y-77772380D01*
%TO.C,C12*%
X147612142Y-85617142D02*
X147564523Y-85664761D01*
X147421666Y-85712380D01*
X147326428Y-85712380D01*
X147183571Y-85664761D01*
X147088333Y-85569523D01*
X147040714Y-85474285D01*
X146993095Y-85283809D01*
X146993095Y-85140952D01*
X147040714Y-84950476D01*
X147088333Y-84855238D01*
X147183571Y-84760000D01*
X147326428Y-84712380D01*
X147421666Y-84712380D01*
X147564523Y-84760000D01*
X147612142Y-84807619D01*
X148564523Y-85712380D02*
X147993095Y-85712380D01*
X148278809Y-85712380D02*
X148278809Y-84712380D01*
X148183571Y-84855238D01*
X148088333Y-84950476D01*
X147993095Y-84998095D01*
X148945476Y-84807619D02*
X148993095Y-84760000D01*
X149088333Y-84712380D01*
X149326428Y-84712380D01*
X149421666Y-84760000D01*
X149469285Y-84807619D01*
X149516904Y-84902857D01*
X149516904Y-84998095D01*
X149469285Y-85140952D01*
X148897857Y-85712380D01*
X149516904Y-85712380D01*
%TO.C,R5*%
X145708333Y-77772380D02*
X145375000Y-77296190D01*
X145136904Y-77772380D02*
X145136904Y-76772380D01*
X145517857Y-76772380D01*
X145613095Y-76820000D01*
X145660714Y-76867619D01*
X145708333Y-76962857D01*
X145708333Y-77105714D01*
X145660714Y-77200952D01*
X145613095Y-77248571D01*
X145517857Y-77296190D01*
X145136904Y-77296190D01*
X146613095Y-76772380D02*
X146136904Y-76772380D01*
X146089285Y-77248571D01*
X146136904Y-77200952D01*
X146232142Y-77153333D01*
X146470238Y-77153333D01*
X146565476Y-77200952D01*
X146613095Y-77248571D01*
X146660714Y-77343809D01*
X146660714Y-77581904D01*
X146613095Y-77677142D01*
X146565476Y-77724761D01*
X146470238Y-77772380D01*
X146232142Y-77772380D01*
X146136904Y-77724761D01*
X146089285Y-77677142D01*
%TO.C,R28*%
X116707142Y-75902380D02*
X116373809Y-75426190D01*
X116135714Y-75902380D02*
X116135714Y-74902380D01*
X116516666Y-74902380D01*
X116611904Y-74950000D01*
X116659523Y-74997619D01*
X116707142Y-75092857D01*
X116707142Y-75235714D01*
X116659523Y-75330952D01*
X116611904Y-75378571D01*
X116516666Y-75426190D01*
X116135714Y-75426190D01*
X117088095Y-74997619D02*
X117135714Y-74950000D01*
X117230952Y-74902380D01*
X117469047Y-74902380D01*
X117564285Y-74950000D01*
X117611904Y-74997619D01*
X117659523Y-75092857D01*
X117659523Y-75188095D01*
X117611904Y-75330952D01*
X117040476Y-75902380D01*
X117659523Y-75902380D01*
X118230952Y-75330952D02*
X118135714Y-75283333D01*
X118088095Y-75235714D01*
X118040476Y-75140476D01*
X118040476Y-75092857D01*
X118088095Y-74997619D01*
X118135714Y-74950000D01*
X118230952Y-74902380D01*
X118421428Y-74902380D01*
X118516666Y-74950000D01*
X118564285Y-74997619D01*
X118611904Y-75092857D01*
X118611904Y-75140476D01*
X118564285Y-75235714D01*
X118516666Y-75283333D01*
X118421428Y-75330952D01*
X118230952Y-75330952D01*
X118135714Y-75378571D01*
X118088095Y-75426190D01*
X118040476Y-75521428D01*
X118040476Y-75711904D01*
X118088095Y-75807142D01*
X118135714Y-75854761D01*
X118230952Y-75902380D01*
X118421428Y-75902380D01*
X118516666Y-75854761D01*
X118564285Y-75807142D01*
X118611904Y-75711904D01*
X118611904Y-75521428D01*
X118564285Y-75426190D01*
X118516666Y-75378571D01*
X118421428Y-75330952D01*
%TO.C,C34*%
X113117142Y-68547142D02*
X113069523Y-68594761D01*
X112926666Y-68642380D01*
X112831428Y-68642380D01*
X112688571Y-68594761D01*
X112593333Y-68499523D01*
X112545714Y-68404285D01*
X112498095Y-68213809D01*
X112498095Y-68070952D01*
X112545714Y-67880476D01*
X112593333Y-67785238D01*
X112688571Y-67690000D01*
X112831428Y-67642380D01*
X112926666Y-67642380D01*
X113069523Y-67690000D01*
X113117142Y-67737619D01*
X113450476Y-67642380D02*
X114069523Y-67642380D01*
X113736190Y-68023333D01*
X113879047Y-68023333D01*
X113974285Y-68070952D01*
X114021904Y-68118571D01*
X114069523Y-68213809D01*
X114069523Y-68451904D01*
X114021904Y-68547142D01*
X113974285Y-68594761D01*
X113879047Y-68642380D01*
X113593333Y-68642380D01*
X113498095Y-68594761D01*
X113450476Y-68547142D01*
X114926666Y-67975714D02*
X114926666Y-68642380D01*
X114688571Y-67594761D02*
X114450476Y-68309047D01*
X115069523Y-68309047D01*
%TO.C,U3*%
X60628095Y-43317380D02*
X60628095Y-44126904D01*
X60675714Y-44222142D01*
X60723333Y-44269761D01*
X60818571Y-44317380D01*
X61009047Y-44317380D01*
X61104285Y-44269761D01*
X61151904Y-44222142D01*
X61199523Y-44126904D01*
X61199523Y-43317380D01*
X61580476Y-43317380D02*
X62199523Y-43317380D01*
X61866190Y-43698333D01*
X62009047Y-43698333D01*
X62104285Y-43745952D01*
X62151904Y-43793571D01*
X62199523Y-43888809D01*
X62199523Y-44126904D01*
X62151904Y-44222142D01*
X62104285Y-44269761D01*
X62009047Y-44317380D01*
X61723333Y-44317380D01*
X61628095Y-44269761D01*
X61580476Y-44222142D01*
%TO.C,R14*%
X139722142Y-92462380D02*
X139388809Y-91986190D01*
X139150714Y-92462380D02*
X139150714Y-91462380D01*
X139531666Y-91462380D01*
X139626904Y-91510000D01*
X139674523Y-91557619D01*
X139722142Y-91652857D01*
X139722142Y-91795714D01*
X139674523Y-91890952D01*
X139626904Y-91938571D01*
X139531666Y-91986190D01*
X139150714Y-91986190D01*
X140674523Y-92462380D02*
X140103095Y-92462380D01*
X140388809Y-92462380D02*
X140388809Y-91462380D01*
X140293571Y-91605238D01*
X140198333Y-91700476D01*
X140103095Y-91748095D01*
X141531666Y-91795714D02*
X141531666Y-92462380D01*
X141293571Y-91414761D02*
X141055476Y-92129047D01*
X141674523Y-92129047D01*
%TO.C,LED1*%
X96880952Y-99022380D02*
X96404761Y-99022380D01*
X96404761Y-98022380D01*
X97214285Y-98498571D02*
X97547619Y-98498571D01*
X97690476Y-99022380D02*
X97214285Y-99022380D01*
X97214285Y-98022380D01*
X97690476Y-98022380D01*
X98119047Y-99022380D02*
X98119047Y-98022380D01*
X98357142Y-98022380D01*
X98500000Y-98070000D01*
X98595238Y-98165238D01*
X98642857Y-98260476D01*
X98690476Y-98450952D01*
X98690476Y-98593809D01*
X98642857Y-98784285D01*
X98595238Y-98879523D01*
X98500000Y-98974761D01*
X98357142Y-99022380D01*
X98119047Y-99022380D01*
X99642857Y-99022380D02*
X99071428Y-99022380D01*
X99357142Y-99022380D02*
X99357142Y-98022380D01*
X99261904Y-98165238D01*
X99166666Y-98260476D01*
X99071428Y-98308095D01*
%TO.C,C32*%
X112517142Y-72797142D02*
X112469523Y-72844761D01*
X112326666Y-72892380D01*
X112231428Y-72892380D01*
X112088571Y-72844761D01*
X111993333Y-72749523D01*
X111945714Y-72654285D01*
X111898095Y-72463809D01*
X111898095Y-72320952D01*
X111945714Y-72130476D01*
X111993333Y-72035238D01*
X112088571Y-71940000D01*
X112231428Y-71892380D01*
X112326666Y-71892380D01*
X112469523Y-71940000D01*
X112517142Y-71987619D01*
X112850476Y-71892380D02*
X113469523Y-71892380D01*
X113136190Y-72273333D01*
X113279047Y-72273333D01*
X113374285Y-72320952D01*
X113421904Y-72368571D01*
X113469523Y-72463809D01*
X113469523Y-72701904D01*
X113421904Y-72797142D01*
X113374285Y-72844761D01*
X113279047Y-72892380D01*
X112993333Y-72892380D01*
X112898095Y-72844761D01*
X112850476Y-72797142D01*
X113850476Y-71987619D02*
X113898095Y-71940000D01*
X113993333Y-71892380D01*
X114231428Y-71892380D01*
X114326666Y-71940000D01*
X114374285Y-71987619D01*
X114421904Y-72082857D01*
X114421904Y-72178095D01*
X114374285Y-72320952D01*
X113802857Y-72892380D01*
X114421904Y-72892380D01*
%TO.C,R8*%
X160028333Y-69522380D02*
X159695000Y-69046190D01*
X159456904Y-69522380D02*
X159456904Y-68522380D01*
X159837857Y-68522380D01*
X159933095Y-68570000D01*
X159980714Y-68617619D01*
X160028333Y-68712857D01*
X160028333Y-68855714D01*
X159980714Y-68950952D01*
X159933095Y-68998571D01*
X159837857Y-69046190D01*
X159456904Y-69046190D01*
X160599761Y-68950952D02*
X160504523Y-68903333D01*
X160456904Y-68855714D01*
X160409285Y-68760476D01*
X160409285Y-68712857D01*
X160456904Y-68617619D01*
X160504523Y-68570000D01*
X160599761Y-68522380D01*
X160790238Y-68522380D01*
X160885476Y-68570000D01*
X160933095Y-68617619D01*
X160980714Y-68712857D01*
X160980714Y-68760476D01*
X160933095Y-68855714D01*
X160885476Y-68903333D01*
X160790238Y-68950952D01*
X160599761Y-68950952D01*
X160504523Y-68998571D01*
X160456904Y-69046190D01*
X160409285Y-69141428D01*
X160409285Y-69331904D01*
X160456904Y-69427142D01*
X160504523Y-69474761D01*
X160599761Y-69522380D01*
X160790238Y-69522380D01*
X160885476Y-69474761D01*
X160933095Y-69427142D01*
X160980714Y-69331904D01*
X160980714Y-69141428D01*
X160933095Y-69046190D01*
X160885476Y-68998571D01*
X160790238Y-68950952D01*
%TO.C,U1*%
X77978095Y-56072380D02*
X77978095Y-56881904D01*
X78025714Y-56977142D01*
X78073333Y-57024761D01*
X78168571Y-57072380D01*
X78359047Y-57072380D01*
X78454285Y-57024761D01*
X78501904Y-56977142D01*
X78549523Y-56881904D01*
X78549523Y-56072380D01*
X79549523Y-57072380D02*
X78978095Y-57072380D01*
X79263809Y-57072380D02*
X79263809Y-56072380D01*
X79168571Y-56215238D01*
X79073333Y-56310476D01*
X78978095Y-56358095D01*
%TO.C,R17*%
X152062142Y-76012380D02*
X151728809Y-75536190D01*
X151490714Y-76012380D02*
X151490714Y-75012380D01*
X151871666Y-75012380D01*
X151966904Y-75060000D01*
X152014523Y-75107619D01*
X152062142Y-75202857D01*
X152062142Y-75345714D01*
X152014523Y-75440952D01*
X151966904Y-75488571D01*
X151871666Y-75536190D01*
X151490714Y-75536190D01*
X153014523Y-76012380D02*
X152443095Y-76012380D01*
X152728809Y-76012380D02*
X152728809Y-75012380D01*
X152633571Y-75155238D01*
X152538333Y-75250476D01*
X152443095Y-75298095D01*
X153347857Y-75012380D02*
X154014523Y-75012380D01*
X153585952Y-76012380D01*
%TO.C,C30*%
X130157142Y-61507142D02*
X130109523Y-61554761D01*
X129966666Y-61602380D01*
X129871428Y-61602380D01*
X129728571Y-61554761D01*
X129633333Y-61459523D01*
X129585714Y-61364285D01*
X129538095Y-61173809D01*
X129538095Y-61030952D01*
X129585714Y-60840476D01*
X129633333Y-60745238D01*
X129728571Y-60650000D01*
X129871428Y-60602380D01*
X129966666Y-60602380D01*
X130109523Y-60650000D01*
X130157142Y-60697619D01*
X130490476Y-60602380D02*
X131109523Y-60602380D01*
X130776190Y-60983333D01*
X130919047Y-60983333D01*
X131014285Y-61030952D01*
X131061904Y-61078571D01*
X131109523Y-61173809D01*
X131109523Y-61411904D01*
X131061904Y-61507142D01*
X131014285Y-61554761D01*
X130919047Y-61602380D01*
X130633333Y-61602380D01*
X130538095Y-61554761D01*
X130490476Y-61507142D01*
X131728571Y-60602380D02*
X131823809Y-60602380D01*
X131919047Y-60650000D01*
X131966666Y-60697619D01*
X132014285Y-60792857D01*
X132061904Y-60983333D01*
X132061904Y-61221428D01*
X132014285Y-61411904D01*
X131966666Y-61507142D01*
X131919047Y-61554761D01*
X131823809Y-61602380D01*
X131728571Y-61602380D01*
X131633333Y-61554761D01*
X131585714Y-61507142D01*
X131538095Y-61411904D01*
X131490476Y-61221428D01*
X131490476Y-60983333D01*
X131538095Y-60792857D01*
X131585714Y-60697619D01*
X131633333Y-60650000D01*
X131728571Y-60602380D01*
%TO.C,R26*%
X129597142Y-58652380D02*
X129263809Y-58176190D01*
X129025714Y-58652380D02*
X129025714Y-57652380D01*
X129406666Y-57652380D01*
X129501904Y-57700000D01*
X129549523Y-57747619D01*
X129597142Y-57842857D01*
X129597142Y-57985714D01*
X129549523Y-58080952D01*
X129501904Y-58128571D01*
X129406666Y-58176190D01*
X129025714Y-58176190D01*
X129978095Y-57747619D02*
X130025714Y-57700000D01*
X130120952Y-57652380D01*
X130359047Y-57652380D01*
X130454285Y-57700000D01*
X130501904Y-57747619D01*
X130549523Y-57842857D01*
X130549523Y-57938095D01*
X130501904Y-58080952D01*
X129930476Y-58652380D01*
X130549523Y-58652380D01*
X131406666Y-57652380D02*
X131216190Y-57652380D01*
X131120952Y-57700000D01*
X131073333Y-57747619D01*
X130978095Y-57890476D01*
X130930476Y-58080952D01*
X130930476Y-58461904D01*
X130978095Y-58557142D01*
X131025714Y-58604761D01*
X131120952Y-58652380D01*
X131311428Y-58652380D01*
X131406666Y-58604761D01*
X131454285Y-58557142D01*
X131501904Y-58461904D01*
X131501904Y-58223809D01*
X131454285Y-58128571D01*
X131406666Y-58080952D01*
X131311428Y-58033333D01*
X131120952Y-58033333D01*
X131025714Y-58080952D01*
X130978095Y-58128571D01*
X130930476Y-58223809D01*
%TO.C,C16*%
X65357142Y-44247142D02*
X65309523Y-44294761D01*
X65166666Y-44342380D01*
X65071428Y-44342380D01*
X64928571Y-44294761D01*
X64833333Y-44199523D01*
X64785714Y-44104285D01*
X64738095Y-43913809D01*
X64738095Y-43770952D01*
X64785714Y-43580476D01*
X64833333Y-43485238D01*
X64928571Y-43390000D01*
X65071428Y-43342380D01*
X65166666Y-43342380D01*
X65309523Y-43390000D01*
X65357142Y-43437619D01*
X66309523Y-44342380D02*
X65738095Y-44342380D01*
X66023809Y-44342380D02*
X66023809Y-43342380D01*
X65928571Y-43485238D01*
X65833333Y-43580476D01*
X65738095Y-43628095D01*
X67166666Y-43342380D02*
X66976190Y-43342380D01*
X66880952Y-43390000D01*
X66833333Y-43437619D01*
X66738095Y-43580476D01*
X66690476Y-43770952D01*
X66690476Y-44151904D01*
X66738095Y-44247142D01*
X66785714Y-44294761D01*
X66880952Y-44342380D01*
X67071428Y-44342380D01*
X67166666Y-44294761D01*
X67214285Y-44247142D01*
X67261904Y-44151904D01*
X67261904Y-43913809D01*
X67214285Y-43818571D01*
X67166666Y-43770952D01*
X67071428Y-43723333D01*
X66880952Y-43723333D01*
X66785714Y-43770952D01*
X66738095Y-43818571D01*
X66690476Y-43913809D01*
%TO.C,CV2*%
X165359761Y-69427142D02*
X165312142Y-69474761D01*
X165169285Y-69522380D01*
X165074047Y-69522380D01*
X164931190Y-69474761D01*
X164835952Y-69379523D01*
X164788333Y-69284285D01*
X164740714Y-69093809D01*
X164740714Y-68950952D01*
X164788333Y-68760476D01*
X164835952Y-68665238D01*
X164931190Y-68570000D01*
X165074047Y-68522380D01*
X165169285Y-68522380D01*
X165312142Y-68570000D01*
X165359761Y-68617619D01*
X165645476Y-68522380D02*
X165978809Y-69522380D01*
X166312142Y-68522380D01*
X166597857Y-68617619D02*
X166645476Y-68570000D01*
X166740714Y-68522380D01*
X166978809Y-68522380D01*
X167074047Y-68570000D01*
X167121666Y-68617619D01*
X167169285Y-68712857D01*
X167169285Y-68808095D01*
X167121666Y-68950952D01*
X166550238Y-69522380D01*
X167169285Y-69522380D01*
%TO.C,C27*%
X138617142Y-54857142D02*
X138569523Y-54904761D01*
X138426666Y-54952380D01*
X138331428Y-54952380D01*
X138188571Y-54904761D01*
X138093333Y-54809523D01*
X138045714Y-54714285D01*
X137998095Y-54523809D01*
X137998095Y-54380952D01*
X138045714Y-54190476D01*
X138093333Y-54095238D01*
X138188571Y-54000000D01*
X138331428Y-53952380D01*
X138426666Y-53952380D01*
X138569523Y-54000000D01*
X138617142Y-54047619D01*
X138998095Y-54047619D02*
X139045714Y-54000000D01*
X139140952Y-53952380D01*
X139379047Y-53952380D01*
X139474285Y-54000000D01*
X139521904Y-54047619D01*
X139569523Y-54142857D01*
X139569523Y-54238095D01*
X139521904Y-54380952D01*
X138950476Y-54952380D01*
X139569523Y-54952380D01*
X139902857Y-53952380D02*
X140569523Y-53952380D01*
X140140952Y-54952380D01*
%TO.C,GOAL1*%
X155718571Y-68570000D02*
X155623333Y-68522380D01*
X155480476Y-68522380D01*
X155337619Y-68570000D01*
X155242380Y-68665238D01*
X155194761Y-68760476D01*
X155147142Y-68950952D01*
X155147142Y-69093809D01*
X155194761Y-69284285D01*
X155242380Y-69379523D01*
X155337619Y-69474761D01*
X155480476Y-69522380D01*
X155575714Y-69522380D01*
X155718571Y-69474761D01*
X155766190Y-69427142D01*
X155766190Y-69093809D01*
X155575714Y-69093809D01*
X156385238Y-68522380D02*
X156575714Y-68522380D01*
X156670952Y-68570000D01*
X156766190Y-68665238D01*
X156813809Y-68855714D01*
X156813809Y-69189047D01*
X156766190Y-69379523D01*
X156670952Y-69474761D01*
X156575714Y-69522380D01*
X156385238Y-69522380D01*
X156290000Y-69474761D01*
X156194761Y-69379523D01*
X156147142Y-69189047D01*
X156147142Y-68855714D01*
X156194761Y-68665238D01*
X156290000Y-68570000D01*
X156385238Y-68522380D01*
X157194761Y-69236666D02*
X157670952Y-69236666D01*
X157099523Y-69522380D02*
X157432857Y-68522380D01*
X157766190Y-69522380D01*
X158575714Y-69522380D02*
X158099523Y-69522380D01*
X158099523Y-68522380D01*
X159432857Y-69522380D02*
X158861428Y-69522380D01*
X159147142Y-69522380D02*
X159147142Y-68522380D01*
X159051904Y-68665238D01*
X158956666Y-68760476D01*
X158861428Y-68808095D01*
%TO.C,R24*%
X125187142Y-58652380D02*
X124853809Y-58176190D01*
X124615714Y-58652380D02*
X124615714Y-57652380D01*
X124996666Y-57652380D01*
X125091904Y-57700000D01*
X125139523Y-57747619D01*
X125187142Y-57842857D01*
X125187142Y-57985714D01*
X125139523Y-58080952D01*
X125091904Y-58128571D01*
X124996666Y-58176190D01*
X124615714Y-58176190D01*
X125568095Y-57747619D02*
X125615714Y-57700000D01*
X125710952Y-57652380D01*
X125949047Y-57652380D01*
X126044285Y-57700000D01*
X126091904Y-57747619D01*
X126139523Y-57842857D01*
X126139523Y-57938095D01*
X126091904Y-58080952D01*
X125520476Y-58652380D01*
X126139523Y-58652380D01*
X126996666Y-57985714D02*
X126996666Y-58652380D01*
X126758571Y-57604761D02*
X126520476Y-58319047D01*
X127139523Y-58319047D01*
%TO.C,C23*%
X141702142Y-89907142D02*
X141654523Y-89954761D01*
X141511666Y-90002380D01*
X141416428Y-90002380D01*
X141273571Y-89954761D01*
X141178333Y-89859523D01*
X141130714Y-89764285D01*
X141083095Y-89573809D01*
X141083095Y-89430952D01*
X141130714Y-89240476D01*
X141178333Y-89145238D01*
X141273571Y-89050000D01*
X141416428Y-89002380D01*
X141511666Y-89002380D01*
X141654523Y-89050000D01*
X141702142Y-89097619D01*
X142083095Y-89097619D02*
X142130714Y-89050000D01*
X142225952Y-89002380D01*
X142464047Y-89002380D01*
X142559285Y-89050000D01*
X142606904Y-89097619D01*
X142654523Y-89192857D01*
X142654523Y-89288095D01*
X142606904Y-89430952D01*
X142035476Y-90002380D01*
X142654523Y-90002380D01*
X142987857Y-89002380D02*
X143606904Y-89002380D01*
X143273571Y-89383333D01*
X143416428Y-89383333D01*
X143511666Y-89430952D01*
X143559285Y-89478571D01*
X143606904Y-89573809D01*
X143606904Y-89811904D01*
X143559285Y-89907142D01*
X143511666Y-89954761D01*
X143416428Y-90002380D01*
X143130714Y-90002380D01*
X143035476Y-89954761D01*
X142987857Y-89907142D01*
%TO.C,C17*%
X161232142Y-73387142D02*
X161184523Y-73434761D01*
X161041666Y-73482380D01*
X160946428Y-73482380D01*
X160803571Y-73434761D01*
X160708333Y-73339523D01*
X160660714Y-73244285D01*
X160613095Y-73053809D01*
X160613095Y-72910952D01*
X160660714Y-72720476D01*
X160708333Y-72625238D01*
X160803571Y-72530000D01*
X160946428Y-72482380D01*
X161041666Y-72482380D01*
X161184523Y-72530000D01*
X161232142Y-72577619D01*
X162184523Y-73482380D02*
X161613095Y-73482380D01*
X161898809Y-73482380D02*
X161898809Y-72482380D01*
X161803571Y-72625238D01*
X161708333Y-72720476D01*
X161613095Y-72768095D01*
X162517857Y-72482380D02*
X163184523Y-72482380D01*
X162755952Y-73482380D01*
%TO.C,C24*%
X134937142Y-57807142D02*
X134889523Y-57854761D01*
X134746666Y-57902380D01*
X134651428Y-57902380D01*
X134508571Y-57854761D01*
X134413333Y-57759523D01*
X134365714Y-57664285D01*
X134318095Y-57473809D01*
X134318095Y-57330952D01*
X134365714Y-57140476D01*
X134413333Y-57045238D01*
X134508571Y-56950000D01*
X134651428Y-56902380D01*
X134746666Y-56902380D01*
X134889523Y-56950000D01*
X134937142Y-56997619D01*
X135318095Y-56997619D02*
X135365714Y-56950000D01*
X135460952Y-56902380D01*
X135699047Y-56902380D01*
X135794285Y-56950000D01*
X135841904Y-56997619D01*
X135889523Y-57092857D01*
X135889523Y-57188095D01*
X135841904Y-57330952D01*
X135270476Y-57902380D01*
X135889523Y-57902380D01*
X136746666Y-57235714D02*
X136746666Y-57902380D01*
X136508571Y-56854761D02*
X136270476Y-57569047D01*
X136889523Y-57569047D01*
%TO.C,R23*%
X121997142Y-68642380D02*
X121663809Y-68166190D01*
X121425714Y-68642380D02*
X121425714Y-67642380D01*
X121806666Y-67642380D01*
X121901904Y-67690000D01*
X121949523Y-67737619D01*
X121997142Y-67832857D01*
X121997142Y-67975714D01*
X121949523Y-68070952D01*
X121901904Y-68118571D01*
X121806666Y-68166190D01*
X121425714Y-68166190D01*
X122378095Y-67737619D02*
X122425714Y-67690000D01*
X122520952Y-67642380D01*
X122759047Y-67642380D01*
X122854285Y-67690000D01*
X122901904Y-67737619D01*
X122949523Y-67832857D01*
X122949523Y-67928095D01*
X122901904Y-68070952D01*
X122330476Y-68642380D01*
X122949523Y-68642380D01*
X123282857Y-67642380D02*
X123901904Y-67642380D01*
X123568571Y-68023333D01*
X123711428Y-68023333D01*
X123806666Y-68070952D01*
X123854285Y-68118571D01*
X123901904Y-68213809D01*
X123901904Y-68451904D01*
X123854285Y-68547142D01*
X123806666Y-68594761D01*
X123711428Y-68642380D01*
X123425714Y-68642380D01*
X123330476Y-68594761D01*
X123282857Y-68547142D01*
%TO.C,C31*%
X124417142Y-61507142D02*
X124369523Y-61554761D01*
X124226666Y-61602380D01*
X124131428Y-61602380D01*
X123988571Y-61554761D01*
X123893333Y-61459523D01*
X123845714Y-61364285D01*
X123798095Y-61173809D01*
X123798095Y-61030952D01*
X123845714Y-60840476D01*
X123893333Y-60745238D01*
X123988571Y-60650000D01*
X124131428Y-60602380D01*
X124226666Y-60602380D01*
X124369523Y-60650000D01*
X124417142Y-60697619D01*
X124750476Y-60602380D02*
X125369523Y-60602380D01*
X125036190Y-60983333D01*
X125179047Y-60983333D01*
X125274285Y-61030952D01*
X125321904Y-61078571D01*
X125369523Y-61173809D01*
X125369523Y-61411904D01*
X125321904Y-61507142D01*
X125274285Y-61554761D01*
X125179047Y-61602380D01*
X124893333Y-61602380D01*
X124798095Y-61554761D01*
X124750476Y-61507142D01*
X126321904Y-61602380D02*
X125750476Y-61602380D01*
X126036190Y-61602380D02*
X126036190Y-60602380D01*
X125940952Y-60745238D01*
X125845714Y-60840476D01*
X125750476Y-60888095D01*
%TO.C,C14*%
X153962142Y-79897142D02*
X153914523Y-79944761D01*
X153771666Y-79992380D01*
X153676428Y-79992380D01*
X153533571Y-79944761D01*
X153438333Y-79849523D01*
X153390714Y-79754285D01*
X153343095Y-79563809D01*
X153343095Y-79420952D01*
X153390714Y-79230476D01*
X153438333Y-79135238D01*
X153533571Y-79040000D01*
X153676428Y-78992380D01*
X153771666Y-78992380D01*
X153914523Y-79040000D01*
X153962142Y-79087619D01*
X154914523Y-79992380D02*
X154343095Y-79992380D01*
X154628809Y-79992380D02*
X154628809Y-78992380D01*
X154533571Y-79135238D01*
X154438333Y-79230476D01*
X154343095Y-79278095D01*
X155771666Y-79325714D02*
X155771666Y-79992380D01*
X155533571Y-78944761D02*
X155295476Y-79659047D01*
X155914523Y-79659047D01*
%TO.C,FB1*%
X151031666Y-77478571D02*
X150698333Y-77478571D01*
X150698333Y-78002380D02*
X150698333Y-77002380D01*
X151174523Y-77002380D01*
X151888809Y-77478571D02*
X152031666Y-77526190D01*
X152079285Y-77573809D01*
X152126904Y-77669047D01*
X152126904Y-77811904D01*
X152079285Y-77907142D01*
X152031666Y-77954761D01*
X151936428Y-78002380D01*
X151555476Y-78002380D01*
X151555476Y-77002380D01*
X151888809Y-77002380D01*
X151984047Y-77050000D01*
X152031666Y-77097619D01*
X152079285Y-77192857D01*
X152079285Y-77288095D01*
X152031666Y-77383333D01*
X151984047Y-77430952D01*
X151888809Y-77478571D01*
X151555476Y-77478571D01*
X153079285Y-78002380D02*
X152507857Y-78002380D01*
X152793571Y-78002380D02*
X152793571Y-77002380D01*
X152698333Y-77145238D01*
X152603095Y-77240476D01*
X152507857Y-77288095D01*
%TO.C,C5*%
X158298333Y-75917142D02*
X158250714Y-75964761D01*
X158107857Y-76012380D01*
X158012619Y-76012380D01*
X157869761Y-75964761D01*
X157774523Y-75869523D01*
X157726904Y-75774285D01*
X157679285Y-75583809D01*
X157679285Y-75440952D01*
X157726904Y-75250476D01*
X157774523Y-75155238D01*
X157869761Y-75060000D01*
X158012619Y-75012380D01*
X158107857Y-75012380D01*
X158250714Y-75060000D01*
X158298333Y-75107619D01*
X159203095Y-75012380D02*
X158726904Y-75012380D01*
X158679285Y-75488571D01*
X158726904Y-75440952D01*
X158822142Y-75393333D01*
X159060238Y-75393333D01*
X159155476Y-75440952D01*
X159203095Y-75488571D01*
X159250714Y-75583809D01*
X159250714Y-75821904D01*
X159203095Y-75917142D01*
X159155476Y-75964761D01*
X159060238Y-76012380D01*
X158822142Y-76012380D01*
X158726904Y-75964761D01*
X158679285Y-75917142D01*
%TO.C,R19*%
X147862142Y-81752380D02*
X147528809Y-81276190D01*
X147290714Y-81752380D02*
X147290714Y-80752380D01*
X147671666Y-80752380D01*
X147766904Y-80800000D01*
X147814523Y-80847619D01*
X147862142Y-80942857D01*
X147862142Y-81085714D01*
X147814523Y-81180952D01*
X147766904Y-81228571D01*
X147671666Y-81276190D01*
X147290714Y-81276190D01*
X148814523Y-81752380D02*
X148243095Y-81752380D01*
X148528809Y-81752380D02*
X148528809Y-80752380D01*
X148433571Y-80895238D01*
X148338333Y-80990476D01*
X148243095Y-81038095D01*
X149290714Y-81752380D02*
X149481190Y-81752380D01*
X149576428Y-81704761D01*
X149624047Y-81657142D01*
X149719285Y-81514285D01*
X149766904Y-81323809D01*
X149766904Y-80942857D01*
X149719285Y-80847619D01*
X149671666Y-80800000D01*
X149576428Y-80752380D01*
X149385952Y-80752380D01*
X149290714Y-80800000D01*
X149243095Y-80847619D01*
X149195476Y-80942857D01*
X149195476Y-81180952D01*
X149243095Y-81276190D01*
X149290714Y-81323809D01*
X149385952Y-81371428D01*
X149576428Y-81371428D01*
X149671666Y-81323809D01*
X149719285Y-81276190D01*
X149766904Y-81180952D01*
%TO.C,PWR1*%
X140790476Y-88012380D02*
X140790476Y-87012380D01*
X141171428Y-87012380D01*
X141266666Y-87060000D01*
X141314285Y-87107619D01*
X141361904Y-87202857D01*
X141361904Y-87345714D01*
X141314285Y-87440952D01*
X141266666Y-87488571D01*
X141171428Y-87536190D01*
X140790476Y-87536190D01*
X141695238Y-87012380D02*
X141933333Y-88012380D01*
X142123809Y-87298095D01*
X142314285Y-88012380D01*
X142552380Y-87012380D01*
X143504761Y-88012380D02*
X143171428Y-87536190D01*
X142933333Y-88012380D02*
X142933333Y-87012380D01*
X143314285Y-87012380D01*
X143409523Y-87060000D01*
X143457142Y-87107619D01*
X143504761Y-87202857D01*
X143504761Y-87345714D01*
X143457142Y-87440952D01*
X143409523Y-87488571D01*
X143314285Y-87536190D01*
X142933333Y-87536190D01*
X144457142Y-88012380D02*
X143885714Y-88012380D01*
X144171428Y-88012380D02*
X144171428Y-87012380D01*
X144076190Y-87155238D01*
X143980952Y-87250476D01*
X143885714Y-87298095D01*
%TO.C,CV1*%
X153669761Y-81867142D02*
X153622142Y-81914761D01*
X153479285Y-81962380D01*
X153384047Y-81962380D01*
X153241190Y-81914761D01*
X153145952Y-81819523D01*
X153098333Y-81724285D01*
X153050714Y-81533809D01*
X153050714Y-81390952D01*
X153098333Y-81200476D01*
X153145952Y-81105238D01*
X153241190Y-81010000D01*
X153384047Y-80962380D01*
X153479285Y-80962380D01*
X153622142Y-81010000D01*
X153669761Y-81057619D01*
X153955476Y-80962380D02*
X154288809Y-81962380D01*
X154622142Y-80962380D01*
X155479285Y-81962380D02*
X154907857Y-81962380D01*
X155193571Y-81962380D02*
X155193571Y-80962380D01*
X155098333Y-81105238D01*
X155003095Y-81200476D01*
X154907857Y-81248095D01*
%TO.C,R20*%
X141812142Y-83742380D02*
X141478809Y-83266190D01*
X141240714Y-83742380D02*
X141240714Y-82742380D01*
X141621666Y-82742380D01*
X141716904Y-82790000D01*
X141764523Y-82837619D01*
X141812142Y-82932857D01*
X141812142Y-83075714D01*
X141764523Y-83170952D01*
X141716904Y-83218571D01*
X141621666Y-83266190D01*
X141240714Y-83266190D01*
X142193095Y-82837619D02*
X142240714Y-82790000D01*
X142335952Y-82742380D01*
X142574047Y-82742380D01*
X142669285Y-82790000D01*
X142716904Y-82837619D01*
X142764523Y-82932857D01*
X142764523Y-83028095D01*
X142716904Y-83170952D01*
X142145476Y-83742380D01*
X142764523Y-83742380D01*
X143383571Y-82742380D02*
X143478809Y-82742380D01*
X143574047Y-82790000D01*
X143621666Y-82837619D01*
X143669285Y-82932857D01*
X143716904Y-83123333D01*
X143716904Y-83361428D01*
X143669285Y-83551904D01*
X143621666Y-83647142D01*
X143574047Y-83694761D01*
X143478809Y-83742380D01*
X143383571Y-83742380D01*
X143288333Y-83694761D01*
X143240714Y-83647142D01*
X143193095Y-83551904D01*
X143145476Y-83361428D01*
X143145476Y-83123333D01*
X143193095Y-82932857D01*
X143240714Y-82837619D01*
X143288333Y-82790000D01*
X143383571Y-82742380D01*
%TO.C,C4*%
X155428333Y-75917142D02*
X155380714Y-75964761D01*
X155237857Y-76012380D01*
X155142619Y-76012380D01*
X154999761Y-75964761D01*
X154904523Y-75869523D01*
X154856904Y-75774285D01*
X154809285Y-75583809D01*
X154809285Y-75440952D01*
X154856904Y-75250476D01*
X154904523Y-75155238D01*
X154999761Y-75060000D01*
X155142619Y-75012380D01*
X155237857Y-75012380D01*
X155380714Y-75060000D01*
X155428333Y-75107619D01*
X156285476Y-75345714D02*
X156285476Y-76012380D01*
X156047380Y-74964761D02*
X155809285Y-75679047D01*
X156428333Y-75679047D01*
%TO.C,C29*%
X127287142Y-61507142D02*
X127239523Y-61554761D01*
X127096666Y-61602380D01*
X127001428Y-61602380D01*
X126858571Y-61554761D01*
X126763333Y-61459523D01*
X126715714Y-61364285D01*
X126668095Y-61173809D01*
X126668095Y-61030952D01*
X126715714Y-60840476D01*
X126763333Y-60745238D01*
X126858571Y-60650000D01*
X127001428Y-60602380D01*
X127096666Y-60602380D01*
X127239523Y-60650000D01*
X127287142Y-60697619D01*
X127668095Y-60697619D02*
X127715714Y-60650000D01*
X127810952Y-60602380D01*
X128049047Y-60602380D01*
X128144285Y-60650000D01*
X128191904Y-60697619D01*
X128239523Y-60792857D01*
X128239523Y-60888095D01*
X128191904Y-61030952D01*
X127620476Y-61602380D01*
X128239523Y-61602380D01*
X128715714Y-61602380D02*
X128906190Y-61602380D01*
X129001428Y-61554761D01*
X129049047Y-61507142D01*
X129144285Y-61364285D01*
X129191904Y-61173809D01*
X129191904Y-60792857D01*
X129144285Y-60697619D01*
X129096666Y-60650000D01*
X129001428Y-60602380D01*
X128810952Y-60602380D01*
X128715714Y-60650000D01*
X128668095Y-60697619D01*
X128620476Y-60792857D01*
X128620476Y-61030952D01*
X128668095Y-61126190D01*
X128715714Y-61173809D01*
X128810952Y-61221428D01*
X129001428Y-61221428D01*
X129096666Y-61173809D01*
X129144285Y-61126190D01*
X129191904Y-61030952D01*
%TO.C,BOOT1*%
X125616666Y-93038571D02*
X125759523Y-93086190D01*
X125807142Y-93133809D01*
X125854761Y-93229047D01*
X125854761Y-93371904D01*
X125807142Y-93467142D01*
X125759523Y-93514761D01*
X125664285Y-93562380D01*
X125283333Y-93562380D01*
X125283333Y-92562380D01*
X125616666Y-92562380D01*
X125711904Y-92610000D01*
X125759523Y-92657619D01*
X125807142Y-92752857D01*
X125807142Y-92848095D01*
X125759523Y-92943333D01*
X125711904Y-92990952D01*
X125616666Y-93038571D01*
X125283333Y-93038571D01*
X126473809Y-92562380D02*
X126664285Y-92562380D01*
X126759523Y-92610000D01*
X126854761Y-92705238D01*
X126902380Y-92895714D01*
X126902380Y-93229047D01*
X126854761Y-93419523D01*
X126759523Y-93514761D01*
X126664285Y-93562380D01*
X126473809Y-93562380D01*
X126378571Y-93514761D01*
X126283333Y-93419523D01*
X126235714Y-93229047D01*
X126235714Y-92895714D01*
X126283333Y-92705238D01*
X126378571Y-92610000D01*
X126473809Y-92562380D01*
X127521428Y-92562380D02*
X127711904Y-92562380D01*
X127807142Y-92610000D01*
X127902380Y-92705238D01*
X127950000Y-92895714D01*
X127950000Y-93229047D01*
X127902380Y-93419523D01*
X127807142Y-93514761D01*
X127711904Y-93562380D01*
X127521428Y-93562380D01*
X127426190Y-93514761D01*
X127330952Y-93419523D01*
X127283333Y-93229047D01*
X127283333Y-92895714D01*
X127330952Y-92705238D01*
X127426190Y-92610000D01*
X127521428Y-92562380D01*
X128235714Y-92562380D02*
X128807142Y-92562380D01*
X128521428Y-93562380D02*
X128521428Y-92562380D01*
X129664285Y-93562380D02*
X129092857Y-93562380D01*
X129378571Y-93562380D02*
X129378571Y-92562380D01*
X129283333Y-92705238D01*
X129188095Y-92800476D01*
X129092857Y-92848095D01*
%TO.C,C25*%
X100287142Y-83437142D02*
X100239523Y-83484761D01*
X100096666Y-83532380D01*
X100001428Y-83532380D01*
X99858571Y-83484761D01*
X99763333Y-83389523D01*
X99715714Y-83294285D01*
X99668095Y-83103809D01*
X99668095Y-82960952D01*
X99715714Y-82770476D01*
X99763333Y-82675238D01*
X99858571Y-82580000D01*
X100001428Y-82532380D01*
X100096666Y-82532380D01*
X100239523Y-82580000D01*
X100287142Y-82627619D01*
X100668095Y-82627619D02*
X100715714Y-82580000D01*
X100810952Y-82532380D01*
X101049047Y-82532380D01*
X101144285Y-82580000D01*
X101191904Y-82627619D01*
X101239523Y-82722857D01*
X101239523Y-82818095D01*
X101191904Y-82960952D01*
X100620476Y-83532380D01*
X101239523Y-83532380D01*
X102144285Y-82532380D02*
X101668095Y-82532380D01*
X101620476Y-83008571D01*
X101668095Y-82960952D01*
X101763333Y-82913333D01*
X102001428Y-82913333D01*
X102096666Y-82960952D01*
X102144285Y-83008571D01*
X102191904Y-83103809D01*
X102191904Y-83341904D01*
X102144285Y-83437142D01*
X102096666Y-83484761D01*
X102001428Y-83532380D01*
X101763333Y-83532380D01*
X101668095Y-83484761D01*
X101620476Y-83437142D01*
%TO.C,C11*%
X150752142Y-81867142D02*
X150704523Y-81914761D01*
X150561666Y-81962380D01*
X150466428Y-81962380D01*
X150323571Y-81914761D01*
X150228333Y-81819523D01*
X150180714Y-81724285D01*
X150133095Y-81533809D01*
X150133095Y-81390952D01*
X150180714Y-81200476D01*
X150228333Y-81105238D01*
X150323571Y-81010000D01*
X150466428Y-80962380D01*
X150561666Y-80962380D01*
X150704523Y-81010000D01*
X150752142Y-81057619D01*
X151704523Y-81962380D02*
X151133095Y-81962380D01*
X151418809Y-81962380D02*
X151418809Y-80962380D01*
X151323571Y-81105238D01*
X151228333Y-81200476D01*
X151133095Y-81248095D01*
X152656904Y-81962380D02*
X152085476Y-81962380D01*
X152371190Y-81962380D02*
X152371190Y-80962380D01*
X152275952Y-81105238D01*
X152180714Y-81200476D01*
X152085476Y-81248095D01*
%TO.C,NAV1*%
X154460952Y-72032380D02*
X154460952Y-71032380D01*
X155032380Y-72032380D01*
X155032380Y-71032380D01*
X155460952Y-71746666D02*
X155937142Y-71746666D01*
X155365714Y-72032380D02*
X155699047Y-71032380D01*
X156032380Y-72032380D01*
X156222857Y-71032380D02*
X156556190Y-72032380D01*
X156889523Y-71032380D01*
X157746666Y-72032380D02*
X157175238Y-72032380D01*
X157460952Y-72032380D02*
X157460952Y-71032380D01*
X157365714Y-71175238D01*
X157270476Y-71270476D01*
X157175238Y-71318095D01*
%TO.C,WD2*%
X144535238Y-78762380D02*
X144773333Y-79762380D01*
X144963809Y-79048095D01*
X145154285Y-79762380D01*
X145392380Y-78762380D01*
X145773333Y-79762380D02*
X145773333Y-78762380D01*
X146011428Y-78762380D01*
X146154285Y-78810000D01*
X146249523Y-78905238D01*
X146297142Y-79000476D01*
X146344761Y-79190952D01*
X146344761Y-79333809D01*
X146297142Y-79524285D01*
X146249523Y-79619523D01*
X146154285Y-79714761D01*
X146011428Y-79762380D01*
X145773333Y-79762380D01*
X146725714Y-78857619D02*
X146773333Y-78810000D01*
X146868571Y-78762380D01*
X147106666Y-78762380D01*
X147201904Y-78810000D01*
X147249523Y-78857619D01*
X147297142Y-78952857D01*
X147297142Y-79048095D01*
X147249523Y-79190952D01*
X146678095Y-79762380D01*
X147297142Y-79762380D01*
%TO.C,C2*%
X164578333Y-71397142D02*
X164530714Y-71444761D01*
X164387857Y-71492380D01*
X164292619Y-71492380D01*
X164149761Y-71444761D01*
X164054523Y-71349523D01*
X164006904Y-71254285D01*
X163959285Y-71063809D01*
X163959285Y-70920952D01*
X164006904Y-70730476D01*
X164054523Y-70635238D01*
X164149761Y-70540000D01*
X164292619Y-70492380D01*
X164387857Y-70492380D01*
X164530714Y-70540000D01*
X164578333Y-70587619D01*
X164959285Y-70587619D02*
X165006904Y-70540000D01*
X165102142Y-70492380D01*
X165340238Y-70492380D01*
X165435476Y-70540000D01*
X165483095Y-70587619D01*
X165530714Y-70682857D01*
X165530714Y-70778095D01*
X165483095Y-70920952D01*
X164911666Y-71492380D01*
X165530714Y-71492380D01*
%TO.C,R6*%
X142458333Y-79762380D02*
X142125000Y-79286190D01*
X141886904Y-79762380D02*
X141886904Y-78762380D01*
X142267857Y-78762380D01*
X142363095Y-78810000D01*
X142410714Y-78857619D01*
X142458333Y-78952857D01*
X142458333Y-79095714D01*
X142410714Y-79190952D01*
X142363095Y-79238571D01*
X142267857Y-79286190D01*
X141886904Y-79286190D01*
X143315476Y-78762380D02*
X143125000Y-78762380D01*
X143029761Y-78810000D01*
X142982142Y-78857619D01*
X142886904Y-79000476D01*
X142839285Y-79190952D01*
X142839285Y-79571904D01*
X142886904Y-79667142D01*
X142934523Y-79714761D01*
X143029761Y-79762380D01*
X143220238Y-79762380D01*
X143315476Y-79714761D01*
X143363095Y-79667142D01*
X143410714Y-79571904D01*
X143410714Y-79333809D01*
X143363095Y-79238571D01*
X143315476Y-79190952D01*
X143220238Y-79143333D01*
X143029761Y-79143333D01*
X142934523Y-79190952D01*
X142886904Y-79238571D01*
X142839285Y-79333809D01*
%TO.C,R9*%
X155678333Y-74022380D02*
X155345000Y-73546190D01*
X155106904Y-74022380D02*
X155106904Y-73022380D01*
X155487857Y-73022380D01*
X155583095Y-73070000D01*
X155630714Y-73117619D01*
X155678333Y-73212857D01*
X155678333Y-73355714D01*
X155630714Y-73450952D01*
X155583095Y-73498571D01*
X155487857Y-73546190D01*
X155106904Y-73546190D01*
X156154523Y-74022380D02*
X156345000Y-74022380D01*
X156440238Y-73974761D01*
X156487857Y-73927142D01*
X156583095Y-73784285D01*
X156630714Y-73593809D01*
X156630714Y-73212857D01*
X156583095Y-73117619D01*
X156535476Y-73070000D01*
X156440238Y-73022380D01*
X156249761Y-73022380D01*
X156154523Y-73070000D01*
X156106904Y-73117619D01*
X156059285Y-73212857D01*
X156059285Y-73450952D01*
X156106904Y-73546190D01*
X156154523Y-73593809D01*
X156249761Y-73641428D01*
X156440238Y-73641428D01*
X156535476Y-73593809D01*
X156583095Y-73546190D01*
X156630714Y-73450952D01*
%TO.C,C9*%
X154588333Y-77907142D02*
X154540714Y-77954761D01*
X154397857Y-78002380D01*
X154302619Y-78002380D01*
X154159761Y-77954761D01*
X154064523Y-77859523D01*
X154016904Y-77764285D01*
X153969285Y-77573809D01*
X153969285Y-77430952D01*
X154016904Y-77240476D01*
X154064523Y-77145238D01*
X154159761Y-77050000D01*
X154302619Y-77002380D01*
X154397857Y-77002380D01*
X154540714Y-77050000D01*
X154588333Y-77097619D01*
X155064523Y-78002380D02*
X155255000Y-78002380D01*
X155350238Y-77954761D01*
X155397857Y-77907142D01*
X155493095Y-77764285D01*
X155540714Y-77573809D01*
X155540714Y-77192857D01*
X155493095Y-77097619D01*
X155445476Y-77050000D01*
X155350238Y-77002380D01*
X155159761Y-77002380D01*
X155064523Y-77050000D01*
X155016904Y-77097619D01*
X154969285Y-77192857D01*
X154969285Y-77430952D01*
X155016904Y-77526190D01*
X155064523Y-77573809D01*
X155159761Y-77621428D01*
X155350238Y-77621428D01*
X155445476Y-77573809D01*
X155493095Y-77526190D01*
X155540714Y-77430952D01*
%TO.C,REG1*%
X117592352Y-58908380D02*
X117259019Y-58432190D01*
X117020923Y-58908380D02*
X117020923Y-57908380D01*
X117401876Y-57908380D01*
X117497114Y-57956000D01*
X117544733Y-58003619D01*
X117592352Y-58098857D01*
X117592352Y-58241714D01*
X117544733Y-58336952D01*
X117497114Y-58384571D01*
X117401876Y-58432190D01*
X117020923Y-58432190D01*
X118020923Y-58384571D02*
X118354257Y-58384571D01*
X118497114Y-58908380D02*
X118020923Y-58908380D01*
X118020923Y-57908380D01*
X118497114Y-57908380D01*
X119449495Y-57956000D02*
X119354257Y-57908380D01*
X119211400Y-57908380D01*
X119068542Y-57956000D01*
X118973304Y-58051238D01*
X118925685Y-58146476D01*
X118878066Y-58336952D01*
X118878066Y-58479809D01*
X118925685Y-58670285D01*
X118973304Y-58765523D01*
X119068542Y-58860761D01*
X119211400Y-58908380D01*
X119306638Y-58908380D01*
X119449495Y-58860761D01*
X119497114Y-58813142D01*
X119497114Y-58479809D01*
X119306638Y-58479809D01*
X120449495Y-58908380D02*
X119878066Y-58908380D01*
X120163780Y-58908380D02*
X120163780Y-57908380D01*
X120068542Y-58051238D01*
X119973304Y-58146476D01*
X119878066Y-58194095D01*
X113663780Y-58908380D02*
X113187590Y-58908380D01*
X113187590Y-57908380D01*
X113997114Y-58908380D02*
X113997114Y-57908380D01*
X114235209Y-57908380D01*
X114378066Y-57956000D01*
X114473304Y-58051238D01*
X114520923Y-58146476D01*
X114568542Y-58336952D01*
X114568542Y-58479809D01*
X114520923Y-58670285D01*
X114473304Y-58765523D01*
X114378066Y-58860761D01*
X114235209Y-58908380D01*
X113997114Y-58908380D01*
X114901876Y-57908380D02*
X115520923Y-57908380D01*
X115187590Y-58289333D01*
X115330447Y-58289333D01*
X115425685Y-58336952D01*
X115473304Y-58384571D01*
X115520923Y-58479809D01*
X115520923Y-58717904D01*
X115473304Y-58813142D01*
X115425685Y-58860761D01*
X115330447Y-58908380D01*
X115044733Y-58908380D01*
X114949495Y-58860761D01*
X114901876Y-58813142D01*
X115997114Y-58908380D02*
X116187590Y-58908380D01*
X116282828Y-58860761D01*
X116330447Y-58813142D01*
X116425685Y-58670285D01*
X116473304Y-58479809D01*
X116473304Y-58098857D01*
X116425685Y-58003619D01*
X116378066Y-57956000D01*
X116282828Y-57908380D01*
X116092352Y-57908380D01*
X115997114Y-57956000D01*
X115949495Y-58003619D01*
X115901876Y-58098857D01*
X115901876Y-58336952D01*
X115949495Y-58432190D01*
X115997114Y-58479809D01*
X116092352Y-58527428D01*
X116282828Y-58527428D01*
X116378066Y-58479809D01*
X116425685Y-58432190D01*
X116473304Y-58336952D01*
X116854257Y-58003619D02*
X116901876Y-57956000D01*
X116997114Y-57908380D01*
X117235209Y-57908380D01*
X117330447Y-57956000D01*
X117378066Y-58003619D01*
X117425685Y-58098857D01*
X117425685Y-58194095D01*
X117378066Y-58336952D01*
X116806638Y-58908380D01*
X117425685Y-58908380D01*
X118044733Y-57908380D02*
X118139971Y-57908380D01*
X118235209Y-57956000D01*
X118282828Y-58003619D01*
X118330447Y-58098857D01*
X118378066Y-58289333D01*
X118378066Y-58527428D01*
X118330447Y-58717904D01*
X118282828Y-58813142D01*
X118235209Y-58860761D01*
X118139971Y-58908380D01*
X118044733Y-58908380D01*
X117949495Y-58860761D01*
X117901876Y-58813142D01*
X117854257Y-58717904D01*
X117806638Y-58527428D01*
X117806638Y-58289333D01*
X117854257Y-58098857D01*
X117901876Y-58003619D01*
X117949495Y-57956000D01*
X118044733Y-57908380D01*
X118997114Y-57908380D02*
X119092352Y-57908380D01*
X119187590Y-57956000D01*
X119235209Y-58003619D01*
X119282828Y-58098857D01*
X119330447Y-58289333D01*
X119330447Y-58527428D01*
X119282828Y-58717904D01*
X119235209Y-58813142D01*
X119187590Y-58860761D01*
X119092352Y-58908380D01*
X118997114Y-58908380D01*
X118901876Y-58860761D01*
X118854257Y-58813142D01*
X118806638Y-58717904D01*
X118759019Y-58527428D01*
X118759019Y-58289333D01*
X118806638Y-58098857D01*
X118854257Y-58003619D01*
X118901876Y-57956000D01*
X118997114Y-57908380D01*
X119759019Y-58908380D02*
X119759019Y-57908380D01*
X120139971Y-57908380D01*
X120235209Y-57956000D01*
X120282828Y-58003619D01*
X120330447Y-58098857D01*
X120330447Y-58241714D01*
X120282828Y-58336952D01*
X120235209Y-58384571D01*
X120139971Y-58432190D01*
X119759019Y-58432190D01*
X120759019Y-57908380D02*
X120759019Y-58717904D01*
X120806638Y-58813142D01*
X120854257Y-58860761D01*
X120949495Y-58908380D01*
X121139971Y-58908380D01*
X121235209Y-58860761D01*
X121282828Y-58813142D01*
X121330447Y-58717904D01*
X121330447Y-57908380D01*
X121711400Y-57908380D02*
X122330447Y-57908380D01*
X121997114Y-58289333D01*
X122139971Y-58289333D01*
X122235209Y-58336952D01*
X122282828Y-58384571D01*
X122330447Y-58479809D01*
X122330447Y-58717904D01*
X122282828Y-58813142D01*
X122235209Y-58860761D01*
X122139971Y-58908380D01*
X121854257Y-58908380D01*
X121759019Y-58860761D01*
X121711400Y-58813142D01*
X122663780Y-57908380D02*
X123282828Y-57908380D01*
X122949495Y-58289333D01*
X123092352Y-58289333D01*
X123187590Y-58336952D01*
X123235209Y-58384571D01*
X123282828Y-58479809D01*
X123282828Y-58717904D01*
X123235209Y-58813142D01*
X123187590Y-58860761D01*
X123092352Y-58908380D01*
X122806638Y-58908380D01*
X122711400Y-58860761D01*
X122663780Y-58813142D01*
X124282828Y-58908380D02*
X123949495Y-58432190D01*
X123711400Y-58908380D02*
X123711400Y-57908380D01*
X124092352Y-57908380D01*
X124187590Y-57956000D01*
X124235209Y-58003619D01*
X124282828Y-58098857D01*
X124282828Y-58241714D01*
X124235209Y-58336952D01*
X124187590Y-58384571D01*
X124092352Y-58432190D01*
X123711400Y-58432190D01*
X118711400Y-57908380D02*
X118711400Y-58146476D01*
X118473304Y-58051238D02*
X118711400Y-58146476D01*
X118949495Y-58051238D01*
X118568542Y-58336952D02*
X118711400Y-58146476D01*
X118854257Y-58336952D01*
%TO.C,C13*%
X161232142Y-71417142D02*
X161184523Y-71464761D01*
X161041666Y-71512380D01*
X160946428Y-71512380D01*
X160803571Y-71464761D01*
X160708333Y-71369523D01*
X160660714Y-71274285D01*
X160613095Y-71083809D01*
X160613095Y-70940952D01*
X160660714Y-70750476D01*
X160708333Y-70655238D01*
X160803571Y-70560000D01*
X160946428Y-70512380D01*
X161041666Y-70512380D01*
X161184523Y-70560000D01*
X161232142Y-70607619D01*
X162184523Y-71512380D02*
X161613095Y-71512380D01*
X161898809Y-71512380D02*
X161898809Y-70512380D01*
X161803571Y-70655238D01*
X161708333Y-70750476D01*
X161613095Y-70798095D01*
X162517857Y-70512380D02*
X163136904Y-70512380D01*
X162803571Y-70893333D01*
X162946428Y-70893333D01*
X163041666Y-70940952D01*
X163089285Y-70988571D01*
X163136904Y-71083809D01*
X163136904Y-71321904D01*
X163089285Y-71417142D01*
X163041666Y-71464761D01*
X162946428Y-71512380D01*
X162660714Y-71512380D01*
X162565476Y-71464761D01*
X162517857Y-71417142D01*
%TO.C,J1*%
X97946666Y-90952380D02*
X97946666Y-91666666D01*
X97899047Y-91809523D01*
X97803809Y-91904761D01*
X97660952Y-91952380D01*
X97565714Y-91952380D01*
X98946666Y-91952380D02*
X98375238Y-91952380D01*
X98660952Y-91952380D02*
X98660952Y-90952380D01*
X98565714Y-91095238D01*
X98470476Y-91190476D01*
X98375238Y-91238095D01*
%TO.C,D2*%
X141951904Y-81752380D02*
X141951904Y-80752380D01*
X142190000Y-80752380D01*
X142332857Y-80800000D01*
X142428095Y-80895238D01*
X142475714Y-80990476D01*
X142523333Y-81180952D01*
X142523333Y-81323809D01*
X142475714Y-81514285D01*
X142428095Y-81609523D01*
X142332857Y-81704761D01*
X142190000Y-81752380D01*
X141951904Y-81752380D01*
X142904285Y-80847619D02*
X142951904Y-80800000D01*
X143047142Y-80752380D01*
X143285238Y-80752380D01*
X143380476Y-80800000D01*
X143428095Y-80847619D01*
X143475714Y-80942857D01*
X143475714Y-81038095D01*
X143428095Y-81180952D01*
X142856666Y-81752380D01*
X143475714Y-81752380D01*
%TO.C,C22*%
X151092142Y-79897142D02*
X151044523Y-79944761D01*
X150901666Y-79992380D01*
X150806428Y-79992380D01*
X150663571Y-79944761D01*
X150568333Y-79849523D01*
X150520714Y-79754285D01*
X150473095Y-79563809D01*
X150473095Y-79420952D01*
X150520714Y-79230476D01*
X150568333Y-79135238D01*
X150663571Y-79040000D01*
X150806428Y-78992380D01*
X150901666Y-78992380D01*
X151044523Y-79040000D01*
X151092142Y-79087619D01*
X151473095Y-79087619D02*
X151520714Y-79040000D01*
X151615952Y-78992380D01*
X151854047Y-78992380D01*
X151949285Y-79040000D01*
X151996904Y-79087619D01*
X152044523Y-79182857D01*
X152044523Y-79278095D01*
X151996904Y-79420952D01*
X151425476Y-79992380D01*
X152044523Y-79992380D01*
X152425476Y-79087619D02*
X152473095Y-79040000D01*
X152568333Y-78992380D01*
X152806428Y-78992380D01*
X152901666Y-79040000D01*
X152949285Y-79087619D01*
X152996904Y-79182857D01*
X152996904Y-79278095D01*
X152949285Y-79420952D01*
X152377857Y-79992380D01*
X152996904Y-79992380D01*
%TO.C,R12*%
X148202142Y-79762380D02*
X147868809Y-79286190D01*
X147630714Y-79762380D02*
X147630714Y-78762380D01*
X148011666Y-78762380D01*
X148106904Y-78810000D01*
X148154523Y-78857619D01*
X148202142Y-78952857D01*
X148202142Y-79095714D01*
X148154523Y-79190952D01*
X148106904Y-79238571D01*
X148011666Y-79286190D01*
X147630714Y-79286190D01*
X149154523Y-79762380D02*
X148583095Y-79762380D01*
X148868809Y-79762380D02*
X148868809Y-78762380D01*
X148773571Y-78905238D01*
X148678333Y-79000476D01*
X148583095Y-79048095D01*
X149535476Y-78857619D02*
X149583095Y-78810000D01*
X149678333Y-78762380D01*
X149916428Y-78762380D01*
X150011666Y-78810000D01*
X150059285Y-78857619D01*
X150106904Y-78952857D01*
X150106904Y-79048095D01*
X150059285Y-79190952D01*
X149487857Y-79762380D01*
X150106904Y-79762380D01*
%TO.C,C3*%
X157458333Y-77887142D02*
X157410714Y-77934761D01*
X157267857Y-77982380D01*
X157172619Y-77982380D01*
X157029761Y-77934761D01*
X156934523Y-77839523D01*
X156886904Y-77744285D01*
X156839285Y-77553809D01*
X156839285Y-77410952D01*
X156886904Y-77220476D01*
X156934523Y-77125238D01*
X157029761Y-77030000D01*
X157172619Y-76982380D01*
X157267857Y-76982380D01*
X157410714Y-77030000D01*
X157458333Y-77077619D01*
X157791666Y-76982380D02*
X158410714Y-76982380D01*
X158077380Y-77363333D01*
X158220238Y-77363333D01*
X158315476Y-77410952D01*
X158363095Y-77458571D01*
X158410714Y-77553809D01*
X158410714Y-77791904D01*
X158363095Y-77887142D01*
X158315476Y-77934761D01*
X158220238Y-77982380D01*
X157934523Y-77982380D01*
X157839285Y-77934761D01*
X157791666Y-77887142D01*
%TO.C,C36*%
X59007142Y-50597142D02*
X58959523Y-50644761D01*
X58816666Y-50692380D01*
X58721428Y-50692380D01*
X58578571Y-50644761D01*
X58483333Y-50549523D01*
X58435714Y-50454285D01*
X58388095Y-50263809D01*
X58388095Y-50120952D01*
X58435714Y-49930476D01*
X58483333Y-49835238D01*
X58578571Y-49740000D01*
X58721428Y-49692380D01*
X58816666Y-49692380D01*
X58959523Y-49740000D01*
X59007142Y-49787619D01*
X59340476Y-49692380D02*
X59959523Y-49692380D01*
X59626190Y-50073333D01*
X59769047Y-50073333D01*
X59864285Y-50120952D01*
X59911904Y-50168571D01*
X59959523Y-50263809D01*
X59959523Y-50501904D01*
X59911904Y-50597142D01*
X59864285Y-50644761D01*
X59769047Y-50692380D01*
X59483333Y-50692380D01*
X59388095Y-50644761D01*
X59340476Y-50597142D01*
X60816666Y-49692380D02*
X60626190Y-49692380D01*
X60530952Y-49740000D01*
X60483333Y-49787619D01*
X60388095Y-49930476D01*
X60340476Y-50120952D01*
X60340476Y-50501904D01*
X60388095Y-50597142D01*
X60435714Y-50644761D01*
X60530952Y-50692380D01*
X60721428Y-50692380D01*
X60816666Y-50644761D01*
X60864285Y-50597142D01*
X60911904Y-50501904D01*
X60911904Y-50263809D01*
X60864285Y-50168571D01*
X60816666Y-50120952D01*
X60721428Y-50073333D01*
X60530952Y-50073333D01*
X60435714Y-50120952D01*
X60388095Y-50168571D01*
X60340476Y-50263809D01*
%TO.C,C18*%
X144842142Y-87627142D02*
X144794523Y-87674761D01*
X144651666Y-87722380D01*
X144556428Y-87722380D01*
X144413571Y-87674761D01*
X144318333Y-87579523D01*
X144270714Y-87484285D01*
X144223095Y-87293809D01*
X144223095Y-87150952D01*
X144270714Y-86960476D01*
X144318333Y-86865238D01*
X144413571Y-86770000D01*
X144556428Y-86722380D01*
X144651666Y-86722380D01*
X144794523Y-86770000D01*
X144842142Y-86817619D01*
X145794523Y-87722380D02*
X145223095Y-87722380D01*
X145508809Y-87722380D02*
X145508809Y-86722380D01*
X145413571Y-86865238D01*
X145318333Y-86960476D01*
X145223095Y-87008095D01*
X146365952Y-87150952D02*
X146270714Y-87103333D01*
X146223095Y-87055714D01*
X146175476Y-86960476D01*
X146175476Y-86912857D01*
X146223095Y-86817619D01*
X146270714Y-86770000D01*
X146365952Y-86722380D01*
X146556428Y-86722380D01*
X146651666Y-86770000D01*
X146699285Y-86817619D01*
X146746904Y-86912857D01*
X146746904Y-86960476D01*
X146699285Y-87055714D01*
X146651666Y-87103333D01*
X146556428Y-87150952D01*
X146365952Y-87150952D01*
X146270714Y-87198571D01*
X146223095Y-87246190D01*
X146175476Y-87341428D01*
X146175476Y-87531904D01*
X146223095Y-87627142D01*
X146270714Y-87674761D01*
X146365952Y-87722380D01*
X146556428Y-87722380D01*
X146651666Y-87674761D01*
X146699285Y-87627142D01*
X146746904Y-87531904D01*
X146746904Y-87341428D01*
X146699285Y-87246190D01*
X146651666Y-87198571D01*
X146556428Y-87150952D01*
%TO.C,J2*%
X44751666Y-48117380D02*
X44751666Y-48831666D01*
X44704047Y-48974523D01*
X44608809Y-49069761D01*
X44465952Y-49117380D01*
X44370714Y-49117380D01*
X45180238Y-48212619D02*
X45227857Y-48165000D01*
X45323095Y-48117380D01*
X45561190Y-48117380D01*
X45656428Y-48165000D01*
X45704047Y-48212619D01*
X45751666Y-48307857D01*
X45751666Y-48403095D01*
X45704047Y-48545952D01*
X45132619Y-49117380D01*
X45751666Y-49117380D01*
%TO.C,R27*%
X112497142Y-75902380D02*
X112163809Y-75426190D01*
X111925714Y-75902380D02*
X111925714Y-74902380D01*
X112306666Y-74902380D01*
X112401904Y-74950000D01*
X112449523Y-74997619D01*
X112497142Y-75092857D01*
X112497142Y-75235714D01*
X112449523Y-75330952D01*
X112401904Y-75378571D01*
X112306666Y-75426190D01*
X111925714Y-75426190D01*
X112878095Y-74997619D02*
X112925714Y-74950000D01*
X113020952Y-74902380D01*
X113259047Y-74902380D01*
X113354285Y-74950000D01*
X113401904Y-74997619D01*
X113449523Y-75092857D01*
X113449523Y-75188095D01*
X113401904Y-75330952D01*
X112830476Y-75902380D01*
X113449523Y-75902380D01*
X113782857Y-74902380D02*
X114449523Y-74902380D01*
X114020952Y-75902380D01*
D11*
%TO.C,TP4*%
X169345000Y-121680000D02*
X166945000Y-121680000D01*
X166945000Y-121680000D02*
X166945000Y-119280000D01*
X166945000Y-119280000D02*
X169345000Y-119280000D01*
X169345000Y-119280000D02*
X169345000Y-121680000D01*
%TO.C,TP3*%
X173395000Y-125730000D02*
X170995000Y-125730000D01*
X170995000Y-125730000D02*
X170995000Y-123330000D01*
X170995000Y-123330000D02*
X173395000Y-123330000D01*
X173395000Y-123330000D02*
X173395000Y-125730000D01*
%TO.C,TP2*%
X169345000Y-125730000D02*
X166945000Y-125730000D01*
X166945000Y-125730000D02*
X166945000Y-123330000D01*
X166945000Y-123330000D02*
X169345000Y-123330000D01*
X169345000Y-123330000D02*
X169345000Y-125730000D01*
%TO.C,TP1*%
X173395000Y-121680000D02*
X170995000Y-121680000D01*
X170995000Y-121680000D02*
X170995000Y-119280000D01*
X170995000Y-119280000D02*
X173395000Y-119280000D01*
X173395000Y-119280000D02*
X173395000Y-121680000D01*
%TO.C,R31*%
X149157742Y-125252500D02*
X149632258Y-125252500D01*
X149157742Y-124207500D02*
X149632258Y-124207500D01*
%TO.C,R30*%
X153167742Y-127762500D02*
X153642258Y-127762500D01*
X153167742Y-126717500D02*
X153642258Y-126717500D01*
%TO.C,R29*%
X145147742Y-122742500D02*
X145622258Y-122742500D01*
X145147742Y-121697500D02*
X145622258Y-121697500D01*
%TO.C,R20*%
X153167742Y-125252500D02*
X153642258Y-125252500D01*
X153167742Y-124207500D02*
X153642258Y-124207500D01*
%TO.C,R19*%
X149157742Y-122742500D02*
X149632258Y-122742500D01*
X149157742Y-121697500D02*
X149632258Y-121697500D01*
%TO.C,R18*%
X145147742Y-127762500D02*
X145622258Y-127762500D01*
X145147742Y-126717500D02*
X145622258Y-126717500D01*
%TO.C,R17*%
X157177742Y-120232500D02*
X157652258Y-120232500D01*
X157177742Y-119187500D02*
X157652258Y-119187500D01*
%TO.C,R16*%
X149157742Y-120232500D02*
X149632258Y-120232500D01*
X149157742Y-119187500D02*
X149632258Y-119187500D01*
%TO.C,R15*%
X157177742Y-122742500D02*
X157652258Y-122742500D01*
X157177742Y-121697500D02*
X157652258Y-121697500D01*
%TO.C,R14*%
X149157742Y-127762500D02*
X149632258Y-127762500D01*
X149157742Y-126717500D02*
X149632258Y-126717500D01*
%TO.C,R13*%
X145147742Y-125252500D02*
X145622258Y-125252500D01*
X145147742Y-124207500D02*
X145622258Y-124207500D01*
%TO.C,R12*%
X153167742Y-122742500D02*
X153642258Y-122742500D01*
X153167742Y-121697500D02*
X153642258Y-121697500D01*
%TO.C,R11*%
X153167742Y-120232500D02*
X153642258Y-120232500D01*
X153167742Y-119187500D02*
X153642258Y-119187500D01*
%TO.C,R10*%
X145147742Y-120232500D02*
X145622258Y-120232500D01*
X145147742Y-119187500D02*
X145622258Y-119187500D01*
%TO.C,R9*%
X160721359Y-119070000D02*
X161028641Y-119070000D01*
X160721359Y-119830000D02*
X161028641Y-119830000D01*
%TO.C,R4T5*%
X165621359Y-102110000D02*
X165928641Y-102110000D01*
X165621359Y-102870000D02*
X165928641Y-102870000D01*
%TO.C,R4T4*%
X156891359Y-106090000D02*
X157198641Y-106090000D01*
X156891359Y-106850000D02*
X157198641Y-106850000D01*
%TO.C,R4T3*%
X152241359Y-111410000D02*
X152548641Y-111410000D01*
X152241359Y-112170000D02*
X152548641Y-112170000D01*
%TO.C,R4T2*%
X153981359Y-104100000D02*
X154288641Y-104100000D01*
X153981359Y-104860000D02*
X154288641Y-104860000D01*
%TO.C,R4T1*%
X156891359Y-104100000D02*
X157198641Y-104100000D01*
X156891359Y-104860000D02*
X157198641Y-104860000D01*
%TO.C,R3T5*%
X155151359Y-112060000D02*
X155458641Y-112060000D01*
X155151359Y-112820000D02*
X155458641Y-112820000D01*
%TO.C,R3T4*%
X153981359Y-108080000D02*
X154288641Y-108080000D01*
X153981359Y-108840000D02*
X154288641Y-108840000D01*
%TO.C,R3T3*%
X149331359Y-111410000D02*
X149638641Y-111410000D01*
X149331359Y-112170000D02*
X149638641Y-112170000D01*
%TO.C,R3T2*%
X162711359Y-104100000D02*
X163018641Y-104100000D01*
X162711359Y-104860000D02*
X163018641Y-104860000D01*
%TO.C,R3T1*%
X156891359Y-102110000D02*
X157198641Y-102110000D01*
X156891359Y-102870000D02*
X157198641Y-102870000D01*
%TO.C,R2T5*%
X149331359Y-113400000D02*
X149638641Y-113400000D01*
X149331359Y-114160000D02*
X149638641Y-114160000D01*
%TO.C,R2T4*%
X152241359Y-113400000D02*
X152548641Y-113400000D01*
X152241359Y-114160000D02*
X152548641Y-114160000D01*
%TO.C,R2T3*%
X156891359Y-108080000D02*
X157198641Y-108080000D01*
X156891359Y-108840000D02*
X157198641Y-108840000D01*
%TO.C,R2T2*%
X162711359Y-102110000D02*
X163018641Y-102110000D01*
X162711359Y-102870000D02*
X163018641Y-102870000D01*
%TO.C,R2T1*%
X153981359Y-106090000D02*
X154288641Y-106090000D01*
X153981359Y-106850000D02*
X154288641Y-106850000D01*
%TO.C,R1T5*%
X159801359Y-104100000D02*
X160108641Y-104100000D01*
X159801359Y-104860000D02*
X160108641Y-104860000D01*
%TO.C,R1T4*%
X159801359Y-102110000D02*
X160108641Y-102110000D01*
X159801359Y-102870000D02*
X160108641Y-102870000D01*
%TO.C,R1T3*%
X155151359Y-110070000D02*
X155458641Y-110070000D01*
X155151359Y-110830000D02*
X155458641Y-110830000D01*
%TO.C,R1T2*%
X153981359Y-102110000D02*
X154288641Y-102110000D01*
X153981359Y-102870000D02*
X154288641Y-102870000D01*
%TO.C,R1T1*%
X159801359Y-106090000D02*
X160108641Y-106090000D01*
X159801359Y-106850000D02*
X160108641Y-106850000D01*
D10*
%TO.C,J8*%
X178465000Y-102960000D02*
X179465000Y-102960000D01*
X180515000Y-108660000D02*
X180815000Y-108660000D01*
X180815000Y-108660000D02*
X180815000Y-108510000D01*
X180515000Y-109110000D02*
X180515000Y-108660000D01*
X172515000Y-104710000D02*
X172515000Y-106110000D01*
X175590000Y-102535000D02*
X174865000Y-102535000D01*
X172515000Y-108660000D02*
X172815000Y-108660000D01*
X180815000Y-106110000D02*
X180815000Y-104710000D01*
X174865000Y-102535000D02*
X174865000Y-102960000D01*
X172515000Y-108510000D02*
X172515000Y-108660000D01*
X172815000Y-108660000D02*
X172815000Y-109110000D01*
X174865000Y-102960000D02*
X173865000Y-102960000D01*
D11*
%TO.C,J7*%
X144375000Y-107140000D02*
X145705000Y-107140000D01*
X144375000Y-109740000D02*
X147035000Y-109740000D01*
X144375000Y-109800000D02*
X147035000Y-109800000D01*
X147035000Y-109740000D02*
X147035000Y-109800000D01*
X144375000Y-109740000D02*
X144375000Y-109800000D01*
X144375000Y-108470000D02*
X144375000Y-107140000D01*
%TO.C,J6*%
X149025000Y-102490000D02*
X150355000Y-102490000D01*
X149025000Y-105090000D02*
X151685000Y-105090000D01*
X149025000Y-105150000D02*
X151685000Y-105150000D01*
X151685000Y-105090000D02*
X151685000Y-105150000D01*
X149025000Y-105090000D02*
X149025000Y-105150000D01*
X149025000Y-103820000D02*
X149025000Y-102490000D01*
%TO.C,J5*%
X144375000Y-102490000D02*
X145705000Y-102490000D01*
X144375000Y-105090000D02*
X147035000Y-105090000D01*
X144375000Y-105150000D02*
X147035000Y-105150000D01*
X147035000Y-105090000D02*
X147035000Y-105150000D01*
X144375000Y-105090000D02*
X144375000Y-105150000D01*
X144375000Y-103820000D02*
X144375000Y-102490000D01*
%TO.C,J4*%
X144375000Y-111790000D02*
X145705000Y-111790000D01*
X144375000Y-114390000D02*
X147035000Y-114390000D01*
X144375000Y-114450000D02*
X147035000Y-114450000D01*
X147035000Y-114390000D02*
X147035000Y-114450000D01*
X144375000Y-114390000D02*
X144375000Y-114450000D01*
X144375000Y-113120000D02*
X144375000Y-111790000D01*
%TO.C,J3*%
X149025000Y-107140000D02*
X150355000Y-107140000D01*
X149025000Y-109740000D02*
X151685000Y-109740000D01*
X149025000Y-109800000D02*
X151685000Y-109800000D01*
X151685000Y-109740000D02*
X151685000Y-109800000D01*
X149025000Y-109740000D02*
X149025000Y-109800000D01*
X149025000Y-108470000D02*
X149025000Y-107140000D01*
%TO.C,D5*%
X182765000Y-105070000D02*
X182765000Y-106770000D01*
X182765000Y-106770000D02*
X185315000Y-106770000D01*
X182765000Y-105070000D02*
X185315000Y-105070000D01*
%TO.C,D4*%
X182765000Y-102120000D02*
X182765000Y-103820000D01*
X182765000Y-103820000D02*
X185315000Y-103820000D01*
X182765000Y-102120000D02*
X185315000Y-102120000D01*
%TO.C,C35*%
X162737164Y-106820000D02*
X162952836Y-106820000D01*
X162737164Y-106100000D02*
X162952836Y-106100000D01*
%TO.C,C16*%
X158087164Y-110800000D02*
X158302836Y-110800000D01*
X158087164Y-110080000D02*
X158302836Y-110080000D01*
%TO.C,C15*%
X159827164Y-108810000D02*
X160042836Y-108810000D01*
X159827164Y-108090000D02*
X160042836Y-108090000D01*
%TO.C,C10*%
X156737164Y-124820000D02*
X156952836Y-124820000D01*
X156737164Y-124100000D02*
X156952836Y-124100000D01*
%TO.C,U10*%
X99505000Y-110105000D02*
X99505000Y-130545000D01*
X83265000Y-110105000D02*
X99505000Y-110105000D01*
X83035000Y-109875000D02*
X85035000Y-109875000D01*
X99505000Y-130545000D02*
X83265000Y-130545000D01*
X83035000Y-109875000D02*
X83035000Y-111435000D01*
X83265000Y-130545000D02*
X83265000Y-110105000D01*
%TO.C,U9*%
X92700000Y-140450000D02*
X94100000Y-140450000D01*
X94100000Y-138130000D02*
X92200000Y-138130000D01*
%TO.C,U8*%
X88450000Y-140450000D02*
X89850000Y-140450000D01*
X89850000Y-138130000D02*
X87950000Y-138130000D01*
%TO.C,U7*%
X83900000Y-145000000D02*
X85300000Y-145000000D01*
X85300000Y-142680000D02*
X83400000Y-142680000D01*
%TO.C,U6*%
X88150000Y-145000000D02*
X89550000Y-145000000D01*
X89550000Y-142680000D02*
X87650000Y-142680000D01*
%TO.C,U5*%
X92400000Y-144300000D02*
X93800000Y-144300000D01*
X93800000Y-141980000D02*
X91900000Y-141980000D01*
D12*
%TO.C,U4*%
X102780000Y-110400000D02*
X103180000Y-110000000D01*
X103180000Y-110000000D02*
X103430000Y-110000000D01*
X102780000Y-128100000D02*
X102780000Y-127700000D01*
X102780000Y-128100000D02*
X103280000Y-128100000D01*
X110480000Y-128100000D02*
X110480000Y-127700000D01*
X110480000Y-128100000D02*
X109980000Y-128100000D01*
X110480000Y-110000000D02*
X110480000Y-110400000D01*
X110480000Y-110000000D02*
X109980000Y-110000000D01*
X102780000Y-110400000D02*
X101080000Y-110400000D01*
D11*
%TO.C,U3*%
X83815000Y-138030000D02*
X83140000Y-138030000D01*
X83140000Y-141250000D02*
X83140000Y-141075000D01*
X83815000Y-141250000D02*
X83140000Y-141250000D01*
X85685000Y-138030000D02*
X86360000Y-138030000D01*
X85685000Y-141250000D02*
X86360000Y-141250000D01*
X86360000Y-141250000D02*
X86360000Y-141075000D01*
X86360000Y-138030000D02*
X86360000Y-138205000D01*
%TO.C,R43*%
X117316359Y-113910000D02*
X117623641Y-113910000D01*
X117316359Y-114670000D02*
X117623641Y-114670000D01*
%TO.C,R42*%
X117546359Y-111920000D02*
X117853641Y-111920000D01*
X117546359Y-112680000D02*
X117853641Y-112680000D01*
%TO.C,R41*%
X120456359Y-111920000D02*
X120763641Y-111920000D01*
X120456359Y-112680000D02*
X120763641Y-112680000D01*
%TO.C,R40*%
X120226359Y-113910000D02*
X120533641Y-113910000D01*
X120226359Y-114670000D02*
X120533641Y-114670000D01*
%TO.C,R39*%
X120686359Y-109930000D02*
X120993641Y-109930000D01*
X120686359Y-110690000D02*
X120993641Y-110690000D01*
%TO.C,R38*%
X114406359Y-117890000D02*
X114713641Y-117890000D01*
X114406359Y-118650000D02*
X114713641Y-118650000D01*
%TO.C,R37*%
X123596359Y-109930000D02*
X123903641Y-109930000D01*
X123596359Y-110690000D02*
X123903641Y-110690000D01*
%TO.C,R36*%
X114406359Y-113910000D02*
X114713641Y-113910000D01*
X114406359Y-114670000D02*
X114713641Y-114670000D01*
%TO.C,R35*%
X114406359Y-115900000D02*
X114713641Y-115900000D01*
X114406359Y-116660000D02*
X114713641Y-116660000D01*
%TO.C,R34*%
X117316359Y-115900000D02*
X117623641Y-115900000D01*
X117316359Y-116660000D02*
X117623641Y-116660000D01*
%TO.C,R33*%
X96336359Y-131810000D02*
X96643641Y-131810000D01*
X96336359Y-132570000D02*
X96643641Y-132570000D01*
%TO.C,R32*%
X114406359Y-119880000D02*
X114713641Y-119880000D01*
X114406359Y-120640000D02*
X114713641Y-120640000D01*
D12*
%TO.C,PWR1*%
X83125000Y-132190000D02*
G75*
G03*
X83125000Y-132190000I-50000J0D01*
G01*
%TO.C,NAV1*%
X89405000Y-132190000D02*
G75*
G03*
X89405000Y-132190000I-50000J0D01*
G01*
%TO.C,MT4*%
X100805000Y-129780000D02*
G75*
G03*
X100805000Y-129780000I-50000J0D01*
G01*
%TO.C,MT3*%
X103945000Y-129780000D02*
G75*
G03*
X103945000Y-129780000I-50000J0D01*
G01*
%TO.C,MT2*%
X113755000Y-110310000D02*
G75*
G03*
X113755000Y-110310000I-50000J0D01*
G01*
%TO.C,MT1*%
X100805000Y-131770000D02*
G75*
G03*
X100805000Y-131770000I-50000J0D01*
G01*
%TO.C,GOAL1*%
X92545000Y-132190000D02*
G75*
G03*
X92545000Y-132190000I-50000J0D01*
G01*
%TO.C,FATAL1*%
X86265000Y-132190000D02*
G75*
G03*
X86265000Y-132190000I-50000J0D01*
G01*
%TO.C,ESCT1*%
X116895000Y-110310000D02*
G75*
G03*
X116895000Y-110310000I-50000J0D01*
G01*
%TO.C,D2*%
X113755000Y-112300000D02*
G75*
G03*
X113755000Y-112300000I-50000J0D01*
G01*
D11*
%TO.C,C9*%
X131222164Y-110660000D02*
X131437836Y-110660000D01*
X131222164Y-109940000D02*
X131437836Y-109940000D01*
%TO.C,C33*%
X125190000Y-51954437D02*
X125190000Y-53240000D01*
X125190000Y-51954437D02*
X126254437Y-50890000D01*
X125190000Y-56645563D02*
X126254437Y-57710000D01*
X126254437Y-50890000D02*
X132010000Y-50890000D01*
X132010000Y-57710000D02*
X132010000Y-55360000D01*
X126254437Y-57710000D02*
X132010000Y-57710000D01*
X125190000Y-56645563D02*
X125190000Y-55360000D01*
X132010000Y-50890000D02*
X132010000Y-53240000D01*
%TO.C,C7*%
X162977164Y-70590000D02*
X163192836Y-70590000D01*
X162977164Y-69870000D02*
X163192836Y-69870000D01*
D12*
%TO.C,S2*%
X123105000Y-92610000D02*
X123105000Y-92110000D01*
X123105000Y-88410000D02*
X123605000Y-88410000D01*
X135005000Y-92610000D02*
X134505000Y-92610000D01*
X135005000Y-92610000D02*
X135005000Y-92110000D01*
X135005000Y-88410000D02*
X134505000Y-88410000D01*
X135005000Y-88410000D02*
X135005000Y-88910000D01*
X123105000Y-88410000D02*
X123105000Y-88910000D01*
X123105000Y-92610000D02*
X123605000Y-92610000D01*
D11*
%TO.C,R2*%
X158831359Y-73840000D02*
X159138641Y-73840000D01*
X158831359Y-74600000D02*
X159138641Y-74600000D01*
%TO.C,5VPWR1*%
X117145000Y-70395000D02*
X119430000Y-70395000D01*
X117145000Y-68925000D02*
X117145000Y-70395000D01*
X119430000Y-68925000D02*
X117145000Y-68925000D01*
%TO.C,R22*%
X115962936Y-67630000D02*
X120317064Y-67630000D01*
X115962936Y-64210000D02*
X120317064Y-64210000D01*
%TO.C,R16*%
X142301359Y-86070000D02*
X142608641Y-86070000D01*
X142301359Y-86830000D02*
X142608641Y-86830000D01*
%TO.C,RPI_UART1*%
X52060000Y-129790000D02*
X52060000Y-128460000D01*
X52060000Y-138740000D02*
X54720000Y-138740000D01*
X54720000Y-131060000D02*
X54720000Y-138740000D01*
X52060000Y-128460000D02*
X53390000Y-128460000D01*
X52060000Y-131060000D02*
X52060000Y-138740000D01*
X52060000Y-131060000D02*
X54720000Y-131060000D01*
%TO.C,C6*%
X148247164Y-88750000D02*
X148462836Y-88750000D01*
X148247164Y-88030000D02*
X148462836Y-88030000D01*
%TO.C,C1*%
X153278733Y-71010000D02*
X153571267Y-71010000D01*
X153278733Y-69990000D02*
X153571267Y-69990000D01*
%TO.C,R21*%
X117362936Y-74825000D02*
X117817064Y-74825000D01*
X117362936Y-73355000D02*
X117817064Y-73355000D01*
%TO.C,C26*%
X124598748Y-64240000D02*
X126021252Y-64240000D01*
X124598748Y-66960000D02*
X126021252Y-66960000D01*
%TO.C,U2*%
X136150000Y-50890000D02*
X134350000Y-50890000D01*
X136150000Y-50890000D02*
X136950000Y-50890000D01*
X136150000Y-54010000D02*
X135350000Y-54010000D01*
X136150000Y-54010000D02*
X136950000Y-54010000D01*
%TO.C,R15*%
X145211359Y-84840000D02*
X145518641Y-84840000D01*
X145211359Y-84080000D02*
X145518641Y-84080000D01*
%TO.C,C19*%
X145377164Y-90040000D02*
X145592836Y-90040000D01*
X145377164Y-90760000D02*
X145592836Y-90760000D01*
%TO.C,R25*%
X107882936Y-84095000D02*
X108337064Y-84095000D01*
X107882936Y-85565000D02*
X108337064Y-85565000D01*
%TO.C,R1*%
X145211359Y-86830000D02*
X145518641Y-86830000D01*
X145211359Y-86070000D02*
X145518641Y-86070000D01*
D12*
%TO.C,S1*%
X143078200Y-72313800D02*
X143078200Y-74422000D01*
X144075000Y-70078600D02*
X148742400Y-70078600D01*
X143078200Y-72320400D02*
X142828200Y-72320400D01*
X149184200Y-72324800D02*
X149184200Y-74420000D01*
X148767800Y-76682600D02*
X143475000Y-76672800D01*
D11*
%TO.C,L1*%
X105054400Y-59842400D02*
X105054400Y-56149240D01*
X91795600Y-46786800D02*
X91795600Y-50479960D01*
X105054400Y-46786800D02*
X91795600Y-46786800D01*
X91795600Y-56149240D02*
X91795600Y-59842400D01*
X105054400Y-50479960D02*
X105054400Y-46786800D01*
X91795600Y-59842400D02*
X105054400Y-59842400D01*
%TO.C,C10*%
X143147164Y-93040000D02*
X143362836Y-93040000D01*
X143147164Y-92320000D02*
X143362836Y-92320000D01*
%TO.C,R10*%
X158831359Y-71850000D02*
X159138641Y-71850000D01*
X158831359Y-72610000D02*
X159138641Y-72610000D01*
%TO.C,C21*%
X148147164Y-84810000D02*
X148362836Y-84810000D01*
X148147164Y-84090000D02*
X148362836Y-84090000D01*
%TO.C,C8*%
X151017164Y-84280000D02*
X151232836Y-84280000D01*
X151017164Y-85000000D02*
X151232836Y-85000000D01*
%TO.C,C20*%
X157367164Y-80320000D02*
X157582836Y-80320000D01*
X157367164Y-81040000D02*
X157582836Y-81040000D01*
D12*
%TO.C,D1*%
X151900000Y-74740000D02*
G75*
G03*
X151900000Y-74740000I-50000J0D01*
G01*
D11*
%TO.C,R11*%
X148801359Y-78870000D02*
X149108641Y-78870000D01*
X148801359Y-78110000D02*
X149108641Y-78110000D01*
%TO.C,REG2*%
X100186405Y-79130403D02*
X100705672Y-79130403D01*
X105440395Y-73245675D02*
X105440395Y-72876399D01*
X100186405Y-78761127D02*
X100186405Y-79130403D01*
X105440395Y-79130403D02*
X105440395Y-78761127D01*
X105440395Y-72876399D02*
X104921128Y-72876399D01*
X100186405Y-72876399D02*
X100186405Y-73245675D01*
X104921128Y-79130403D02*
X105440395Y-79130403D01*
X100705672Y-72876399D02*
X100186405Y-72876399D01*
G36*
X102028901Y-79916202D02*
G01*
X101647901Y-79916202D01*
X101647901Y-79662202D01*
X102028901Y-79662202D01*
X102028901Y-79916202D01*
G37*
D12*
X102028901Y-79916202D02*
X101647901Y-79916202D01*
X101647901Y-79662202D01*
X102028901Y-79662202D01*
X102028901Y-79916202D01*
G36*
X106226200Y-75218902D02*
G01*
X105972200Y-75218902D01*
X105972200Y-74837902D01*
X106226200Y-74837902D01*
X106226200Y-75218902D01*
G37*
X106226200Y-75218902D02*
X105972200Y-75218902D01*
X105972200Y-74837902D01*
X106226200Y-74837902D01*
X106226200Y-75218902D01*
D11*
%TO.C,C28*%
X122499420Y-71620000D02*
X122780580Y-71620000D01*
X122499420Y-72640000D02*
X122780580Y-72640000D01*
%TO.C,25MHz1*%
X136285000Y-91610000D02*
X140285000Y-91610000D01*
X136285000Y-88310000D02*
X136285000Y-91610000D01*
%TO.C,D3*%
X134200000Y-55300000D02*
X136750000Y-55300000D01*
X134200000Y-57000000D02*
X136750000Y-57000000D01*
X134200000Y-55300000D02*
X134200000Y-57000000D01*
%TO.C,R18*%
X145441359Y-82090000D02*
X145748641Y-82090000D01*
X145441359Y-82850000D02*
X145748641Y-82850000D01*
D12*
%TO.C,FATAL1*%
X129550000Y-94280000D02*
G75*
G03*
X129550000Y-94280000I-50000J0D01*
G01*
D11*
%TO.C,R3*%
X123967379Y-94660000D02*
X124302621Y-94660000D01*
X123967379Y-93900000D02*
X124302621Y-93900000D01*
%TO.C,R4*%
X137117379Y-93560000D02*
X137452621Y-93560000D01*
X137117379Y-92800000D02*
X137452621Y-92800000D01*
%TO.C,R13*%
X133341359Y-93900000D02*
X133648641Y-93900000D01*
X133341359Y-94660000D02*
X133648641Y-94660000D01*
D12*
%TO.C,WD1*%
X151900000Y-72750000D02*
G75*
G03*
X151900000Y-72750000I-50000J0D01*
G01*
D11*
%TO.C,C15*%
X52392164Y-141060000D02*
X52607836Y-141060000D01*
X52392164Y-140340000D02*
X52607836Y-140340000D01*
%TO.C,R7*%
X142457379Y-78110000D02*
X142792621Y-78110000D01*
X142457379Y-78870000D02*
X142792621Y-78870000D01*
%TO.C,C12*%
X148147164Y-86060000D02*
X148362836Y-86060000D01*
X148147164Y-86780000D02*
X148362836Y-86780000D01*
%TO.C,R5*%
X145707379Y-78870000D02*
X146042621Y-78870000D01*
X145707379Y-78110000D02*
X146042621Y-78110000D01*
%TO.C,R28*%
X117112742Y-76357500D02*
X117587258Y-76357500D01*
X117112742Y-77402500D02*
X117587258Y-77402500D01*
%TO.C,C34*%
X113048748Y-69130000D02*
X114471252Y-69130000D01*
X113048748Y-71850000D02*
X114471252Y-71850000D01*
D10*
%TO.C,U3*%
X59240000Y-45090000D02*
X59765000Y-45090000D01*
X63540000Y-45090000D02*
X63540000Y-45615000D01*
X63540000Y-49390000D02*
X63015000Y-49390000D01*
X59240000Y-49390000D02*
X59240000Y-48865000D01*
X59240000Y-49390000D02*
X59765000Y-49390000D01*
X63540000Y-45090000D02*
X63015000Y-45090000D01*
X63540000Y-49390000D02*
X63540000Y-48865000D01*
D11*
%TO.C,R14*%
X140211359Y-93560000D02*
X140518641Y-93560000D01*
X140211359Y-92800000D02*
X140518641Y-92800000D01*
%TO.C,LED1*%
X96515000Y-100735000D02*
X98800000Y-100735000D01*
X96515000Y-99265000D02*
X96515000Y-100735000D01*
X98800000Y-99265000D02*
X96515000Y-99265000D01*
%TO.C,C32*%
X112898748Y-73385000D02*
X113421252Y-73385000D01*
X112898748Y-74855000D02*
X113421252Y-74855000D01*
%TO.C,R8*%
X160041359Y-69860000D02*
X160348641Y-69860000D01*
X160041359Y-70620000D02*
X160348641Y-70620000D01*
%TO.C,U1*%
X71630000Y-59630000D02*
X70265000Y-59630000D01*
X72330000Y-73150000D02*
X71630000Y-73150000D01*
X71630000Y-73150000D02*
X71630000Y-72450000D01*
X85850000Y-73150000D02*
X85850000Y-72450000D01*
X85150000Y-58930000D02*
X85850000Y-58930000D01*
X85850000Y-58930000D02*
X85850000Y-59630000D01*
X85150000Y-73150000D02*
X85850000Y-73150000D01*
X71630000Y-58930000D02*
X71630000Y-59630000D01*
X72330000Y-58930000D02*
X71630000Y-58930000D01*
%TO.C,R17*%
X152551359Y-77110000D02*
X152858641Y-77110000D01*
X152551359Y-76350000D02*
X152858641Y-76350000D01*
%TO.C,C30*%
X130692164Y-61950000D02*
X130907836Y-61950000D01*
X130692164Y-62670000D02*
X130907836Y-62670000D01*
%TO.C,R26*%
X130012936Y-59115000D02*
X130467064Y-59115000D01*
X130012936Y-60585000D02*
X130467064Y-60585000D01*
%TO.C,C16*%
X65892164Y-45410000D02*
X66107836Y-45410000D01*
X65892164Y-44690000D02*
X66107836Y-44690000D01*
%TO.C,CV2*%
X165847164Y-70590000D02*
X166062836Y-70590000D01*
X165847164Y-69870000D02*
X166062836Y-69870000D01*
%TO.C,C27*%
X139152164Y-56020000D02*
X139367836Y-56020000D01*
X139152164Y-55300000D02*
X139367836Y-55300000D01*
D12*
%TO.C,GOAL1*%
X156250000Y-70240000D02*
G75*
G03*
X156250000Y-70240000I-50000J0D01*
G01*
D11*
%TO.C,R24*%
X125602936Y-60585000D02*
X126057064Y-60585000D01*
X125602936Y-59115000D02*
X126057064Y-59115000D01*
%TO.C,C23*%
X142237164Y-91070000D02*
X142452836Y-91070000D01*
X142237164Y-90350000D02*
X142452836Y-90350000D01*
%TO.C,C17*%
X161767164Y-73830000D02*
X161982836Y-73830000D01*
X161767164Y-74550000D02*
X161982836Y-74550000D01*
%TO.C,C24*%
X135439420Y-58370000D02*
X135720580Y-58370000D01*
X135439420Y-59390000D02*
X135720580Y-59390000D01*
%TO.C,R23*%
X122402742Y-70142500D02*
X122877258Y-70142500D01*
X122402742Y-69097500D02*
X122877258Y-69097500D01*
%TO.C,C31*%
X124952164Y-62670000D02*
X125167836Y-62670000D01*
X124952164Y-61950000D02*
X125167836Y-61950000D01*
%TO.C,C14*%
X154497164Y-81060000D02*
X154712836Y-81060000D01*
X154497164Y-80340000D02*
X154712836Y-80340000D01*
%TO.C,C5*%
X158357164Y-77080000D02*
X158572836Y-77080000D01*
X158357164Y-76360000D02*
X158572836Y-76360000D01*
%TO.C,R19*%
X148351359Y-82090000D02*
X148658641Y-82090000D01*
X148351359Y-82850000D02*
X148658641Y-82850000D01*
D12*
%TO.C,PWR1*%
X141560000Y-88730000D02*
G75*
G03*
X141560000Y-88730000I-50000J0D01*
G01*
D11*
%TO.C,CV1*%
X154157164Y-83030000D02*
X154372836Y-83030000D01*
X154157164Y-82310000D02*
X154372836Y-82310000D01*
%TO.C,R20*%
X142301359Y-84840000D02*
X142608641Y-84840000D01*
X142301359Y-84080000D02*
X142608641Y-84080000D01*
%TO.C,C4*%
X155487164Y-77080000D02*
X155702836Y-77080000D01*
X155487164Y-76360000D02*
X155702836Y-76360000D01*
%TO.C,C29*%
X127822164Y-62670000D02*
X128037836Y-62670000D01*
X127822164Y-61950000D02*
X128037836Y-61950000D01*
D12*
%TO.C,BOOT1*%
X126410000Y-94280000D02*
G75*
G03*
X126410000Y-94280000I-50000J0D01*
G01*
D11*
%TO.C,C25*%
X98584437Y-90840000D02*
X104340000Y-90840000D01*
X97520000Y-89775563D02*
X97520000Y-88490000D01*
X98584437Y-84020000D02*
X104340000Y-84020000D01*
X104340000Y-84020000D02*
X104340000Y-86370000D01*
X97520000Y-85084437D02*
X98584437Y-84020000D01*
X97520000Y-89775563D02*
X98584437Y-90840000D01*
X104340000Y-90840000D02*
X104340000Y-88490000D01*
X97520000Y-85084437D02*
X97520000Y-86370000D01*
%TO.C,C11*%
X151287164Y-82310000D02*
X151502836Y-82310000D01*
X151287164Y-83030000D02*
X151502836Y-83030000D01*
D12*
%TO.C,NAV1*%
X155040000Y-72750000D02*
G75*
G03*
X155040000Y-72750000I-50000J0D01*
G01*
%TO.C,WD2*%
X144900000Y-80480000D02*
G75*
G03*
X144900000Y-80480000I-50000J0D01*
G01*
D11*
%TO.C,C2*%
X164637164Y-72560000D02*
X164852836Y-72560000D01*
X164637164Y-71840000D02*
X164852836Y-71840000D01*
%TO.C,R6*%
X142457379Y-80860000D02*
X142792621Y-80860000D01*
X142457379Y-80100000D02*
X142792621Y-80100000D01*
%TO.C,R9*%
X155691359Y-74360000D02*
X155998641Y-74360000D01*
X155691359Y-75120000D02*
X155998641Y-75120000D01*
%TO.C,C9*%
X154647164Y-79070000D02*
X154862836Y-79070000D01*
X154647164Y-78350000D02*
X154862836Y-78350000D01*
%TO.C,REG1*%
X120387800Y-56969659D02*
X120387800Y-56779600D01*
X117035000Y-56779600D02*
X117035000Y-56969659D01*
X120387800Y-60132400D02*
X120387800Y-59942341D01*
X117035000Y-59942341D02*
X117035000Y-60132400D01*
X120387800Y-56779600D02*
X117035000Y-56779600D01*
X117035000Y-60132400D02*
X120387800Y-60132400D01*
X115962801Y-57506000D02*
G75*
G03*
X115962801Y-57506000I-101600J0D01*
G01*
%TO.C,C13*%
X161767164Y-72580000D02*
X161982836Y-72580000D01*
X161767164Y-71860000D02*
X161982836Y-71860000D01*
%TO.C,J1*%
X99610000Y-95100000D02*
X99610000Y-97700000D01*
X96950000Y-95100000D02*
X99610000Y-95100000D01*
X96950000Y-92500000D02*
X98280000Y-92500000D01*
X96950000Y-95100000D02*
X96950000Y-97700000D01*
X96950000Y-93830000D02*
X96950000Y-92500000D01*
X96950000Y-97700000D02*
X99610000Y-97700000D01*
D12*
%TO.C,D2*%
X141650000Y-82470000D02*
G75*
G03*
X141650000Y-82470000I-50000J0D01*
G01*
D11*
%TO.C,C22*%
X151627164Y-81060000D02*
X151842836Y-81060000D01*
X151627164Y-80340000D02*
X151842836Y-80340000D01*
%TO.C,R12*%
X148691359Y-80100000D02*
X148998641Y-80100000D01*
X148691359Y-80860000D02*
X148998641Y-80860000D01*
%TO.C,C3*%
X157517164Y-79050000D02*
X157732836Y-79050000D01*
X157517164Y-78330000D02*
X157732836Y-78330000D01*
%TO.C,C36*%
X59542164Y-51040000D02*
X59757836Y-51040000D01*
X59542164Y-51760000D02*
X59757836Y-51760000D01*
%TO.C,C18*%
X145377164Y-88070000D02*
X145592836Y-88070000D01*
X145377164Y-88790000D02*
X145592836Y-88790000D01*
%TO.C,J2*%
X42485000Y-131505000D02*
X47685000Y-131505000D01*
X42485000Y-50105000D02*
X45085000Y-50105000D01*
X45085000Y-52705000D02*
X47685000Y-52705000D01*
X45085000Y-50105000D02*
X45085000Y-52705000D01*
X46355000Y-50105000D02*
X47685000Y-50105000D01*
X47685000Y-50105000D02*
X47685000Y-51435000D01*
X47685000Y-52705000D02*
X47685000Y-131505000D01*
X42485000Y-50105000D02*
X42485000Y-131505000D01*
%TO.C,R27*%
X112912936Y-77835000D02*
X113367064Y-77835000D01*
X112912936Y-76365000D02*
X113367064Y-76365000D01*
%TD*%
M02*
